<?xml version="1.0" encoding="UTF-8" standalone="no"?><!-- Generator: Gravit.io --><svg xmlns="http://www.w3.org/2000/svg" xmlns:xlink="http://www.w3.org/1999/xlink" style="isolation:isolate" viewBox="0 0 610 169" width="610pt" height="169pt"><defs><clipPath id="_clipPath_QCvaX6wjC6ZosIqvSVpEI5IszLpsFdPF"><rect width="610" height="169"/></clipPath></defs><g clip-path="url(#_clipPath_QCvaX6wjC6ZosIqvSVpEI5IszLpsFdPF)"><g><path d="M 15 0 L 595 0 C 603.279 0 610 6.721 610 15 L 610 154 C 610 162.279 603.279 169 595 169 L 15 169 C 6.721 169 0 162.279 0 154 L 0 15 C 0 6.721 6.721 0 15 0 Z" style="stroke:none;fill:#568EA6;stroke-miterlimit:10;"/><path d=" M 403.908 97.923 L 400.401 90.115 L 384.118 90.115 L 380.611 97.923 L 377.396 97.923 L 390.756 68.697 L 393.804 68.697 L 407.165 97.923 L 403.908 97.923 Z  M 385.245 87.611 L 399.274 87.611 L 392.26 71.912 L 385.245 87.611 Z  M 414.22 80.262 L 414.22 80.262 Q 415.264 78.049 417.331 76.922 L 417.331 76.922 L 417.331 76.922 Q 419.398 75.795 422.445 75.795 L 422.445 75.795 L 422.445 78.676 L 421.736 78.634 L 421.736 78.634 Q 418.27 78.634 416.308 80.763 L 416.308 80.763 L 416.308 80.763 Q 414.346 82.893 414.346 86.734 L 414.346 86.734 L 414.346 97.923 L 411.381 97.923 L 411.381 75.962 L 414.22 75.962 L 414.22 80.262 Z  M 439.271 94.458 L 440.315 96.587 L 440.315 96.587 Q 439.48 97.338 438.248 97.735 L 438.248 97.735 L 438.248 97.735 Q 437.017 98.132 435.681 98.132 L 435.681 98.132 L 435.681 98.132 Q 432.591 98.132 430.921 96.462 L 430.921 96.462 L 430.921 96.462 Q 429.251 94.792 429.251 91.744 L 429.251 91.744 L 429.251 78.467 L 425.326 78.467 L 425.326 75.962 L 429.251 75.962 L 429.251 71.161 L 432.215 71.161 L 432.215 75.962 L 438.895 75.962 L 438.895 78.467 L 432.215 78.467 L 432.215 91.577 L 432.215 91.577 Q 432.215 93.539 433.196 94.562 L 433.196 94.562 L 433.196 94.562 Q 434.177 95.585 436.014 95.585 L 436.014 95.585 L 436.014 95.585 Q 436.933 95.585 437.789 95.293 L 437.789 95.293 L 437.789 95.293 Q 438.645 95 439.271 94.458 L 439.271 94.458 Z  M 445.701 97.923 L 445.701 75.962 L 448.665 75.962 L 448.665 97.923 L 445.701 97.923 Z  M 447.204 71.161 L 447.204 71.161 Q 446.285 71.161 445.659 70.534 L 445.659 70.534 L 445.659 70.534 Q 445.033 69.908 445.033 69.031 L 445.033 69.031 L 445.033 69.031 Q 445.033 68.196 445.659 67.57 L 445.659 67.57 L 445.659 67.57 Q 446.285 66.944 447.204 66.944 L 447.204 66.944 L 447.204 66.944 Q 448.122 66.944 448.749 67.549 L 448.749 67.549 L 448.749 67.549 Q 449.375 68.154 449.375 68.99 L 449.375 68.99 L 449.375 68.99 Q 449.375 69.908 448.749 70.534 L 448.749 70.534 L 448.749 70.534 Q 448.122 71.161 447.204 71.161 L 447.204 71.161 Z  M 462.819 98.132 L 462.819 98.132 Q 460.147 98.132 457.704 97.359 L 457.704 97.359 L 457.704 97.359 Q 455.262 96.587 453.884 95.418 L 453.884 95.418 L 455.22 93.08 L 455.22 93.08 Q 456.598 94.165 458.685 94.854 L 458.685 94.854 L 458.685 94.854 Q 460.773 95.543 463.027 95.543 L 463.027 95.543 L 463.027 95.543 Q 466.034 95.543 467.474 94.604 L 467.474 94.604 L 467.474 94.604 Q 468.914 93.664 468.914 91.953 L 468.914 91.953 L 468.914 91.953 Q 468.914 90.742 468.121 90.053 L 468.121 90.053 L 468.121 90.053 Q 467.328 89.364 466.117 89.009 L 466.117 89.009 L 466.117 89.009 Q 464.906 88.654 462.902 88.32 L 462.902 88.32 L 462.902 88.32 Q 460.23 87.819 458.602 87.297 L 458.602 87.297 L 458.602 87.297 Q 456.973 86.775 455.825 85.523 L 455.825 85.523 L 455.825 85.523 Q 454.677 84.27 454.677 82.058 L 454.677 82.058 L 454.677 82.058 Q 454.677 79.302 456.973 77.548 L 456.973 77.548 L 456.973 77.548 Q 459.27 75.795 463.361 75.795 L 463.361 75.795 L 463.361 75.795 Q 465.491 75.795 467.62 76.359 L 467.62 76.359 L 467.62 76.359 Q 469.749 76.922 471.127 77.841 L 471.127 77.841 L 469.833 80.221 L 469.833 80.221 Q 467.119 78.342 463.361 78.342 L 463.361 78.342 L 463.361 78.342 Q 460.522 78.342 459.082 79.344 L 459.082 79.344 L 459.082 79.344 Q 457.642 80.346 457.642 81.974 L 457.642 81.974 L 457.642 81.974 Q 457.642 83.226 458.456 83.978 L 458.456 83.978 L 458.456 83.978 Q 459.27 84.73 460.481 85.084 L 460.481 85.084 L 460.481 85.084 Q 461.691 85.439 463.821 85.815 L 463.821 85.815 L 463.821 85.815 Q 466.451 86.316 468.038 86.817 L 468.038 86.817 L 468.038 86.817 Q 469.624 87.318 470.751 88.529 L 470.751 88.529 L 470.751 88.529 Q 471.879 89.74 471.879 91.869 L 471.879 91.869 L 471.879 91.869 Q 471.879 94.75 469.478 96.441 L 469.478 96.441 L 469.478 96.441 Q 467.077 98.132 462.819 98.132 L 462.819 98.132 Z  M 487.869 94.458 L 488.913 96.587 L 488.913 96.587 Q 488.078 97.338 486.846 97.735 L 486.846 97.735 L 486.846 97.735 Q 485.615 98.132 484.279 98.132 L 484.279 98.132 L 484.279 98.132 Q 481.189 98.132 479.519 96.462 L 479.519 96.462 L 479.519 96.462 Q 477.849 94.792 477.849 91.744 L 477.849 91.744 L 477.849 78.467 L 473.924 78.467 L 473.924 75.962 L 477.849 75.962 L 477.849 71.161 L 480.813 71.161 L 480.813 75.962 L 487.493 75.962 L 487.493 78.467 L 480.813 78.467 L 480.813 91.577 L 480.813 91.577 Q 480.813 93.539 481.794 94.562 L 481.794 94.562 L 481.794 94.562 Q 482.775 95.585 484.613 95.585 L 484.613 95.585 L 484.613 95.585 Q 485.531 95.585 486.387 95.293 L 486.387 95.293 L 486.387 95.293 Q 487.243 95 487.869 94.458 L 487.869 94.458 Z  M 351.344 102.098 L 365.121 62.769 L 367.835 62.769 L 354.057 102.098 L 351.344 102.098 Z  M 121.839 68.697 L 125.387 68.697 L 133.696 80.262 L 141.963 68.697 L 145.595 68.697 L 135.616 82.725 L 146.388 97.923 L 142.756 97.923 L 133.696 85.356 L 124.636 97.923 L 121.087 97.923 L 131.817 82.851 L 121.839 68.697 Z  M 165.176 75.962 L 168.099 75.962 L 157.118 100.553 L 157.118 100.553 Q 155.782 103.643 154.028 104.937 L 154.028 104.937 L 154.028 104.937 Q 152.275 106.231 149.812 106.231 L 149.812 106.231 L 149.812 106.231 Q 148.225 106.231 146.847 105.73 L 146.847 105.73 L 146.847 105.73 Q 145.47 105.229 144.468 104.227 L 144.468 104.227 L 145.845 102.014 L 145.845 102.014 Q 147.515 103.685 149.853 103.685 L 149.853 103.685 L 149.853 103.685 Q 151.356 103.685 152.421 102.849 L 152.421 102.849 L 152.421 102.849 Q 153.486 102.014 154.404 100.01 L 154.404 100.01 L 155.365 97.881 L 145.553 75.962 L 148.643 75.962 L 156.909 94.625 L 165.176 75.962 Z  M 190.394 95.334 L 193.817 95.334 L 193.817 103.225 L 191.02 103.225 L 191.02 97.923 L 171.355 97.923 L 171.355 103.225 L 168.558 103.225 L 168.558 95.334 L 169.81 95.334 L 169.81 95.334 Q 172.023 95.209 172.816 92.078 L 172.816 92.078 L 172.816 92.078 Q 173.61 88.947 173.902 83.31 L 173.902 83.31 L 174.194 75.962 L 190.394 75.962 L 190.394 95.334 Z  M 176.616 83.477 L 176.616 83.477 Q 176.407 88.153 175.822 91.18 L 175.822 91.18 L 175.822 91.18 Q 175.238 94.207 173.735 95.334 L 173.735 95.334 L 187.429 95.334 L 187.429 78.592 L 176.866 78.592 L 176.616 83.477 Z  M 208.597 98.132 L 208.597 98.132 Q 205.424 98.132 202.877 96.691 L 202.877 96.691 L 202.877 96.691 Q 200.33 95.251 198.869 92.704 L 198.869 92.704 L 198.869 92.704 Q 197.408 90.157 197.408 86.942 L 197.408 86.942 L 197.408 86.942 Q 197.408 83.728 198.869 81.181 L 198.869 81.181 L 198.869 81.181 Q 200.33 78.634 202.877 77.214 L 202.877 77.214 L 202.877 77.214 Q 205.424 75.795 208.597 75.795 L 208.597 75.795 L 208.597 75.795 Q 211.77 75.795 214.317 77.214 L 214.317 77.214 L 214.317 77.214 Q 216.864 78.634 218.304 81.181 L 218.304 81.181 L 218.304 81.181 Q 219.745 83.728 219.745 86.942 L 219.745 86.942 L 219.745 86.942 Q 219.745 90.157 218.304 92.704 L 218.304 92.704 L 218.304 92.704 Q 216.864 95.251 214.317 96.691 L 214.317 96.691 L 214.317 96.691 Q 211.77 98.132 208.597 98.132 L 208.597 98.132 Z  M 208.597 95.501 L 208.597 95.501 Q 210.935 95.501 212.793 94.437 L 212.793 94.437 L 212.793 94.437 Q 214.651 93.372 215.695 91.41 L 215.695 91.41 L 215.695 91.41 Q 216.738 89.448 216.738 86.942 L 216.738 86.942 L 216.738 86.942 Q 216.738 84.437 215.695 82.475 L 215.695 82.475 L 215.695 82.475 Q 214.651 80.513 212.793 79.448 L 212.793 79.448 L 212.793 79.448 Q 210.935 78.383 208.597 78.383 L 208.597 78.383 L 208.597 78.383 Q 206.259 78.383 204.401 79.448 L 204.401 79.448 L 204.401 79.448 Q 202.543 80.513 201.479 82.475 L 201.479 82.475 L 201.479 82.475 Q 200.414 84.437 200.414 86.942 L 200.414 86.942 L 200.414 86.942 Q 200.414 89.448 201.479 91.41 L 201.479 91.41 L 201.479 91.41 Q 202.543 93.372 204.401 94.437 L 204.401 94.437 L 204.401 94.437 Q 206.259 95.501 208.597 95.501 L 208.597 95.501 Z  M 252.686 97.923 L 245.922 88.153 L 241.163 88.153 L 241.163 97.923 L 238.198 97.923 L 238.198 88.153 L 233.439 88.153 L 226.717 97.923 L 223.168 97.923 L 231.059 86.608 L 223.794 75.962 L 227.009 75.962 L 233.439 85.606 L 238.198 85.606 L 238.198 75.962 L 241.163 75.962 L 241.163 85.606 L 245.922 85.606 L 252.394 75.962 L 255.609 75.962 L 248.344 86.65 L 256.235 97.923 L 252.686 97.923 Z  M 262.164 97.923 L 262.164 75.962 L 265.128 75.962 L 265.128 85.69 L 278.947 85.69 L 278.947 75.962 L 281.912 75.962 L 281.912 97.923 L 278.947 97.923 L 278.947 88.237 L 265.128 88.237 L 265.128 97.923 L 262.164 97.923 Z  M 291.389 97.923 L 291.389 75.962 L 294.354 75.962 L 294.354 93.414 L 309.008 75.962 L 311.638 75.962 L 311.638 97.923 L 308.674 97.923 L 308.674 80.471 L 294.061 97.923 L 291.389 97.923 Z  M 336.689 97.923 L 328.589 88.153 L 323.579 88.153 L 323.579 97.923 L 320.615 97.923 L 320.615 75.962 L 323.579 75.962 L 323.579 85.606 L 328.631 85.606 L 336.355 75.962 L 339.57 75.962 L 330.927 86.608 L 340.196 97.923 L 336.689 97.923 Z " fill="rgb(16,55,72)"/></g></g></svg>