<?xml version="1.0" encoding="UTF-8" standalone="no"?><!-- Generator: Gravit.io --><svg xmlns="http://www.w3.org/2000/svg" xmlns:xlink="http://www.w3.org/1999/xlink" style="isolation:isolate" viewBox="0 0 1440 900" width="1440pt" height="900pt"><defs><clipPath id="_clipPath_dfhQRQnbI4MnusVQPbIrqAQIZi9JfMX6"><rect width="1440" height="900"/></clipPath></defs><g clip-path="url(#_clipPath_dfhQRQnbI4MnusVQPbIrqAQIZi9JfMX6)"><rect x="0" y="0" width="1440" height="900" transform="matrix(1,0,0,1,0,0)" fill="rgb(16,55,72)"/><g><g style="mix-blend-mode:normal;" opacity="0.15"><path d="M 1156.367 207.106 L 1088.396 275.077 C 1078.819 284.654 1063.268 284.654 1053.691 275.077 L 1053.503 274.889 C 1043.926 265.312 1043.926 249.761 1053.503 240.184 L 1121.474 172.213 C 1131.051 162.636 1146.602 162.636 1156.179 172.213 L 1156.367 172.401 C 1165.944 181.978 1165.944 197.529 1156.367 207.106 Z" style="stroke:none;fill:#568EA6;stroke-miterlimit:10;"/></g><g style="mix-blend-mode:normal;" opacity="0.15"><path d="M 1006.187 357.286 L 938.216 425.257 C 928.639 434.834 913.088 434.834 903.511 425.257 L 903.323 425.069 C 893.746 415.492 893.746 399.941 903.323 390.364 L 971.294 322.393 C 980.871 312.816 996.422 312.816 1005.999 322.393 L 1006.187 322.581 C 1015.764 332.158 1015.764 347.709 1006.187 357.286 Z" style="stroke:none;fill:#568EA6;stroke-miterlimit:10;"/></g><g style="mix-blend-mode:normal;" opacity="0.15"><path d="M 1048.104 315.374 L 1048.104 315.374 C 1037.902 325.576 1021.8 326.041 1012.17 316.41 L 1012.17 316.41 C 1002.539 306.78 1003.004 290.678 1013.206 280.476 L 1013.206 280.476 C 1023.408 270.274 1039.51 269.809 1049.14 279.44 L 1049.14 279.44 C 1058.771 289.07 1058.306 305.172 1048.104 315.374 Z" style="stroke:none;fill:#568EA6;stroke-miterlimit:10;"/></g><g style="mix-blend-mode:normal;" opacity="0.15"><path d="M 403.884 647.73 L 471.86 579.754 C 481.438 570.175 496.99 570.175 506.568 579.754 L 506.756 579.942 C 516.335 589.52 516.335 605.072 506.756 614.65 L 438.78 682.626 C 429.202 692.205 413.65 692.205 404.072 682.626 L 403.884 682.438 C 394.305 672.86 394.305 657.308 403.884 647.73 Z" style="stroke:none;fill:#568EA6;stroke-miterlimit:10;"/></g><g style="mix-blend-mode:normal;" opacity="0.15"><path d="M 361.974 689.644 L 361.974 689.644 C 372.175 679.444 388.273 678.98 397.902 688.608 L 397.902 688.608 C 407.53 698.237 407.066 714.335 396.866 724.536 L 396.866 724.536 C 386.665 734.736 370.567 735.2 360.938 725.572 L 360.938 725.572 C 351.31 715.943 351.774 699.845 361.974 689.644 Z" style="stroke:none;fill:#568EA6;stroke-miterlimit:10;"/></g><g style="mix-blend-mode:normal;" opacity="0.15"><path d="M 953.482 589.454 L 1093.894 449.042 C 1103.523 439.413 1119.159 439.413 1128.788 449.042 L 1128.788 449.042 C 1138.417 458.671 1138.417 474.307 1128.788 483.936 L 988.376 624.348 C 978.747 633.977 963.111 633.977 953.482 624.348 L 953.482 624.348 C 943.853 614.719 943.853 599.083 953.482 589.454 Z" style="stroke:none;fill:#568EA6;stroke-miterlimit:10;"/></g><g style="mix-blend-mode:normal;" opacity="0.15"><path d="M 953.482 771.794 L 1093.894 631.382 C 1103.523 621.753 1119.159 621.753 1128.788 631.382 L 1128.788 631.382 C 1138.417 641.011 1138.417 656.647 1128.788 666.276 L 988.376 806.688 C 978.747 816.317 963.111 816.317 953.482 806.688 L 953.482 806.688 C 943.853 797.059 943.853 781.423 953.482 771.794 Z" style="stroke:none;fill:#568EA6;stroke-miterlimit:10;"/></g><g style="mix-blend-mode:normal;" opacity="0.15"><path d="M 858.826 560.479 L 904.099 515.206 C 913.778 505.527 929.455 505.486 939.084 515.116 L 939.084 515.116 C 948.714 524.745 948.673 540.422 938.994 550.101 L 893.721 595.374 C 884.042 605.053 868.365 605.094 858.736 595.464 L 858.736 595.464 C 849.106 585.835 849.147 570.158 858.826 560.479 Z" style="stroke:none;fill:#568EA6;stroke-miterlimit:10;"/></g><g style="mix-blend-mode:normal;" opacity="0.15"><path d="M 301.542 340.994 L 441.954 200.582 C 451.583 190.953 467.219 190.953 476.848 200.582 L 476.848 200.582 C 486.477 210.211 486.477 225.847 476.848 235.476 L 336.436 375.888 C 326.807 385.517 311.171 385.517 301.542 375.888 L 301.542 375.888 C 291.913 366.259 291.913 350.623 301.542 340.994 Z" style="stroke:none;fill:#568EA6;stroke-miterlimit:10;"/></g><g style="mix-blend-mode:normal;" opacity="0.15"><path d="M 891.732 213.234 L 1032.152 72.822 C 1041.781 63.193 1057.418 63.193 1067.048 72.822 L 1067.048 72.822 C 1076.677 82.451 1076.677 98.087 1067.048 107.716 L 926.628 248.128 C 916.999 257.757 901.362 257.757 891.732 248.128 L 891.732 248.128 C 882.103 238.499 882.103 222.863 891.732 213.234 Z" style="stroke:none;fill:#568EA6;stroke-miterlimit:10;"/></g><g style="mix-blend-mode:normal;" opacity="0.15"><path d="M 301.542 523.334 L 441.954 382.922 C 451.583 373.293 467.219 373.293 476.848 382.922 L 476.848 382.922 C 486.477 392.551 486.477 408.187 476.848 417.816 L 336.436 558.228 C 326.807 567.857 311.171 567.857 301.542 558.228 L 301.542 558.228 C 291.913 548.599 291.913 532.963 301.542 523.334 Z" style="stroke:none;fill:#568EA6;stroke-miterlimit:10;"/></g><g style="mix-blend-mode:normal;" opacity="0.15"><path d="M 525.586 276.789 L 548.589 253.786 C 558.268 244.107 573.945 244.066 583.574 253.696 L 583.574 253.696 C 593.204 263.325 593.163 279.002 583.484 288.681 L 560.481 311.684 C 550.802 321.363 535.125 321.404 525.496 311.774 L 525.496 311.774 C 515.866 302.145 515.907 286.468 525.586 276.789 Z" style="stroke:none;fill:#568EA6;stroke-miterlimit:10;"/></g><g style="mix-blend-mode:normal;" opacity="0.15"><path d="M 699.553 655.144 L 767.524 587.173 C 777.101 577.596 792.652 577.596 802.229 587.173 L 802.417 587.361 C 811.994 596.938 811.994 612.489 802.417 622.066 L 734.446 690.037 C 724.869 699.614 709.318 699.614 699.741 690.037 L 699.553 689.849 C 689.976 680.272 689.976 664.721 699.553 655.144 Z" style="stroke:none;fill:#568EA6;stroke-miterlimit:10;"/></g><g style="mix-blend-mode:normal;" opacity="0.15"><path d="M 657.636 697.064 L 657.636 697.064 C 667.838 686.864 683.94 686.4 693.57 696.028 L 693.57 696.028 C 703.201 705.657 702.736 721.755 692.534 731.956 L 692.534 731.956 C 682.332 742.156 666.23 742.62 656.6 732.992 L 656.6 732.992 C 646.969 723.363 647.434 707.265 657.636 697.064 Z" style="stroke:none;fill:#568EA6;stroke-miterlimit:10;"/></g><g style="mix-blend-mode:normal;" opacity="0.15"><path d="M 597.202 530.744 L 737.614 390.332 C 747.243 380.703 762.879 380.703 772.508 390.332 L 772.508 390.332 C 782.137 399.961 782.137 415.597 772.508 425.226 L 632.096 565.638 C 622.467 575.267 606.831 575.267 597.202 565.638 L 597.202 565.638 C 587.573 556.009 587.573 540.373 597.202 530.744 Z" style="stroke:none;fill:#568EA6;stroke-miterlimit:10;"/></g><g style="mix-blend-mode:normal;" opacity="0.15"><path d="M 491.356 465.742 L 546.492 410.606 C 556.171 400.927 571.846 400.886 581.475 410.515 L 581.475 410.515 C 591.104 420.144 591.063 435.819 581.384 445.498 L 526.248 500.634 C 516.569 510.313 500.894 510.354 491.265 500.725 L 491.265 500.725 C 481.636 491.096 481.677 475.421 491.356 465.742 Z" style="stroke:none;fill:#568EA6;stroke-miterlimit:10;"/></g><g style="mix-blend-mode:normal;" opacity="0.15"><path d="M 669.012 230.394 L 809.424 89.982 C 819.053 80.353 834.689 80.353 844.318 89.982 L 844.318 89.982 C 853.947 99.611 853.947 115.247 844.318 124.876 L 703.906 265.288 C 694.277 274.917 678.641 274.917 669.012 265.288 L 669.012 265.288 C 659.383 255.659 659.383 240.023 669.012 230.394 Z" style="stroke:none;fill:#568EA6;stroke-miterlimit:10;"/></g><mask id="_mask_MV1gHyQb0hs7cs4Z51kjSNXKWeBNIFlM"><path d=" M 1447.547 6.865 L 1331.85 122.562 C 1315.547 138.864 1289.077 138.864 1272.775 122.562 L 1272.455 122.242 C 1256.153 105.94 1256.153 79.47 1272.455 63.168 L 1388.153 -52.53 C 1404.455 -68.832 1430.925 -68.832 1447.227 -52.53 L 1447.547 -52.21 C 1463.85 -35.908 1463.85 -9.438 1447.547 6.865 Z " fill="white" stroke="none"/></mask><path d=" M 1447.547 6.865 L 1331.85 122.562 C 1315.547 138.864 1289.077 138.864 1272.775 122.562 L 1272.455 122.242 C 1256.153 105.94 1256.153 79.47 1272.455 63.168 L 1388.153 -52.53 C 1404.455 -68.832 1430.925 -68.832 1447.227 -52.53 L 1447.547 -52.21 C 1463.85 -35.908 1463.85 -9.438 1447.547 6.865 Z " fill="none"/><path d=" M 1447.547 6.865 L 1331.85 122.562 C 1315.547 138.864 1289.077 138.864 1272.775 122.562 L 1272.455 122.242 C 1256.153 105.94 1256.153 79.47 1272.455 63.168 L 1388.153 -52.53 C 1404.455 -68.832 1430.925 -68.832 1447.227 -52.53 L 1447.547 -52.21 C 1463.85 -35.908 1463.85 -9.438 1447.547 6.865 Z " fill="none" mask="url(#_mask_MV1gHyQb0hs7cs4Z51kjSNXKWeBNIFlM)" vector-effect="non-scaling-stroke" stroke-width="10" stroke="rgb(86,142,166)" stroke-linejoin="miter" stroke-linecap="square" stroke-miterlimit="3"/><mask id="_mask_2ei6q8DHlXB2bpKUd0RQpSwrlmiolNwq"><path d=" M 1191.918 262.494 L 1076.221 378.191 C 1059.919 394.493 1033.448 394.493 1017.146 378.191 L 1016.826 377.871 C 1000.524 361.569 1000.524 335.099 1016.826 318.797 L 1132.524 203.099 C 1148.826 186.797 1175.296 186.797 1191.598 203.099 L 1191.918 203.419 C 1208.221 219.721 1208.221 246.191 1191.918 262.494 Z " fill="white" stroke="none"/></mask><path d=" M 1191.918 262.494 L 1076.221 378.191 C 1059.919 394.493 1033.448 394.493 1017.146 378.191 L 1016.826 377.871 C 1000.524 361.569 1000.524 335.099 1016.826 318.797 L 1132.524 203.099 C 1148.826 186.797 1175.296 186.797 1191.598 203.099 L 1191.918 203.419 C 1208.221 219.721 1208.221 246.191 1191.918 262.494 Z " fill="none"/><path d=" M 1191.918 262.494 L 1076.221 378.191 C 1059.919 394.493 1033.448 394.493 1017.146 378.191 L 1016.826 377.871 C 1000.524 361.569 1000.524 335.099 1016.826 318.797 L 1132.524 203.099 C 1148.826 186.797 1175.296 186.797 1191.598 203.099 L 1191.918 203.419 C 1208.221 219.721 1208.221 246.191 1191.918 262.494 Z " fill="none" mask="url(#_mask_2ei6q8DHlXB2bpKUd0RQpSwrlmiolNwq)" vector-effect="non-scaling-stroke" stroke-width="10" stroke="rgb(86,142,166)" stroke-linejoin="miter" stroke-linecap="square" stroke-miterlimit="3"/><mask id="_mask_N9p6uM8AfKIrnKAjZV5urDdbxOM9CbyM"><path d=" M 1263.261 191.151 L 1263.261 191.151 C 1245.898 208.514 1218.494 209.304 1202.103 192.914 L 1202.103 192.914 C 1185.713 176.523 1186.503 149.119 1203.867 131.756 L 1203.867 131.756 C 1221.23 114.392 1248.634 113.602 1265.025 129.992 L 1265.025 129.992 C 1281.415 146.383 1280.625 173.787 1263.261 191.151 Z " fill="white" stroke="none"/></mask><path d=" M 1263.261 191.151 L 1263.261 191.151 C 1245.898 208.514 1218.494 209.304 1202.103 192.914 L 1202.103 192.914 C 1185.713 176.523 1186.503 149.119 1203.867 131.756 L 1203.867 131.756 C 1221.23 114.392 1248.634 113.602 1265.025 129.992 L 1265.025 129.992 C 1281.415 146.383 1280.625 173.787 1263.261 191.151 Z " fill="none"/><path d=" M 1263.261 191.151 L 1263.261 191.151 C 1245.898 208.514 1218.494 209.304 1202.103 192.914 L 1202.103 192.914 C 1185.713 176.523 1186.503 149.119 1203.867 131.756 L 1203.867 131.756 C 1221.23 114.392 1248.634 113.602 1265.025 129.992 L 1265.025 129.992 C 1281.415 146.383 1280.625 173.787 1263.261 191.151 Z " fill="none" mask="url(#_mask_N9p6uM8AfKIrnKAjZV5urDdbxOM9CbyM)" vector-effect="non-scaling-stroke" stroke-width="10" stroke="rgb(86,142,166)" stroke-linejoin="miter" stroke-linecap="square" stroke-miterlimit="3"/><mask id="_mask_px3sPOXzKde0BvmEr1EIt5smGQcaaNVT"><path d=" M 166.726 756.868 L 282.423 641.17 C 298.726 624.868 325.196 624.868 341.498 641.17 L 341.818 641.49 C 358.12 657.792 358.12 684.262 341.818 700.565 L 226.12 816.262 C 209.818 832.564 183.348 832.564 167.046 816.262 L 166.726 815.942 C 150.424 799.64 150.424 773.17 166.726 756.868 Z " fill="white" stroke="none"/></mask><path d=" M 166.726 756.868 L 282.423 641.17 C 298.726 624.868 325.196 624.868 341.498 641.17 L 341.818 641.49 C 358.12 657.792 358.12 684.262 341.818 700.565 L 226.12 816.262 C 209.818 832.564 183.348 832.564 167.046 816.262 L 166.726 815.942 C 150.424 799.64 150.424 773.17 166.726 756.868 Z " fill="none"/><path d=" M 166.726 756.868 L 282.423 641.17 C 298.726 624.868 325.196 624.868 341.498 641.17 L 341.818 641.49 C 358.12 657.792 358.12 684.262 341.818 700.565 L 226.12 816.262 C 209.818 832.564 183.348 832.564 167.046 816.262 L 166.726 815.942 C 150.424 799.64 150.424 773.17 166.726 756.868 Z " fill="none" mask="url(#_mask_px3sPOXzKde0BvmEr1EIt5smGQcaaNVT)" vector-effect="non-scaling-stroke" stroke-width="10" stroke="rgb(86,142,166)" stroke-linejoin="miter" stroke-linecap="square" stroke-miterlimit="3"/><mask id="_mask_eo1ZmT9weK81d0xLDEetD8Gli63GlzEc"><path d=" M 95.383 828.21 L 95.383 828.21 C 112.746 810.847 140.15 810.057 156.541 826.447 L 156.541 826.447 C 172.931 842.838 172.141 870.242 154.777 887.605 L 154.777 887.605 C 137.414 904.969 110.01 905.759 93.619 889.369 L 93.619 889.369 C 77.229 872.978 78.019 845.574 95.383 828.21 Z " fill="white" stroke="none"/></mask><path d=" M 95.383 828.21 L 95.383 828.21 C 112.746 810.847 140.15 810.057 156.541 826.447 L 156.541 826.447 C 172.931 842.838 172.141 870.242 154.777 887.605 L 154.777 887.605 C 137.414 904.969 110.01 905.759 93.619 889.369 L 93.619 889.369 C 77.229 872.978 78.019 845.574 95.383 828.21 Z " fill="none"/><path d=" M 95.383 828.21 L 95.383 828.21 C 112.746 810.847 140.15 810.057 156.541 826.447 L 156.541 826.447 C 172.931 842.838 172.141 870.242 154.777 887.605 L 154.777 887.605 C 137.414 904.969 110.01 905.759 93.619 889.369 L 93.619 889.369 C 77.229 872.978 78.019 845.574 95.383 828.21 Z " fill="none" mask="url(#_mask_eo1ZmT9weK81d0xLDEetD8Gli63GlzEc)" vector-effect="non-scaling-stroke" stroke-width="10" stroke="rgb(86,142,166)" stroke-linejoin="miter" stroke-linecap="square" stroke-miterlimit="3"/><mask id="_mask_Tby3w6ZyullMeWnMZjJJDw1Fkhbvvtc9"><path d=" M 1102.206 657.68 L 1341.206 418.68 C 1357.597 402.289 1384.211 402.289 1400.601 418.68 L 1400.601 418.68 C 1416.991 435.07 1416.991 461.684 1400.601 478.074 L 1161.601 717.074 C 1145.211 733.465 1118.597 733.465 1102.206 717.074 L 1102.206 717.074 C 1085.816 700.684 1085.816 674.07 1102.206 657.68 Z " fill="white" stroke="none"/></mask><path d=" M 1102.206 657.68 L 1341.206 418.68 C 1357.597 402.289 1384.211 402.289 1400.601 418.68 L 1400.601 418.68 C 1416.991 435.07 1416.991 461.684 1400.601 478.074 L 1161.601 717.074 C 1145.211 733.465 1118.597 733.465 1102.206 717.074 L 1102.206 717.074 C 1085.816 700.684 1085.816 674.07 1102.206 657.68 Z " fill="none"/><path d=" M 1102.206 657.68 L 1341.206 418.68 C 1357.597 402.289 1384.211 402.289 1400.601 418.68 L 1400.601 418.68 C 1416.991 435.07 1416.991 461.684 1400.601 478.074 L 1161.601 717.074 C 1145.211 733.465 1118.597 733.465 1102.206 717.074 L 1102.206 717.074 C 1085.816 700.684 1085.816 674.07 1102.206 657.68 Z " fill="none" mask="url(#_mask_Tby3w6ZyullMeWnMZjJJDw1Fkhbvvtc9)" vector-effect="non-scaling-stroke" stroke-width="10" stroke="rgb(86,142,166)" stroke-linejoin="miter" stroke-linecap="square" stroke-miterlimit="3"/><mask id="_mask_n4AWxu72uR0zSZrR22npS3o8q9iPdYto"><path d=" M 1102.206 968.035 L 1341.206 729.035 C 1357.597 712.644 1384.211 712.644 1400.601 729.035 L 1400.601 729.035 C 1416.991 745.425 1416.991 772.039 1400.601 788.43 L 1161.601 1027.43 C 1145.211 1043.82 1118.597 1043.82 1102.206 1027.43 L 1102.206 1027.43 C 1085.816 1011.039 1085.816 984.425 1102.206 968.035 Z " fill="white" stroke="none"/></mask><path d=" M 1102.206 968.035 L 1341.206 729.035 C 1357.597 712.644 1384.211 712.644 1400.601 729.035 L 1400.601 729.035 C 1416.991 745.425 1416.991 772.039 1400.601 788.43 L 1161.601 1027.43 C 1145.211 1043.82 1118.597 1043.82 1102.206 1027.43 L 1102.206 1027.43 C 1085.816 1011.039 1085.816 984.425 1102.206 968.035 Z " fill="none"/><path d=" M 1102.206 968.035 L 1341.206 729.035 C 1357.597 712.644 1384.211 712.644 1400.601 729.035 L 1400.601 729.035 C 1416.991 745.425 1416.991 772.039 1400.601 788.43 L 1161.601 1027.43 C 1145.211 1043.82 1118.597 1043.82 1102.206 1027.43 L 1102.206 1027.43 C 1085.816 1011.039 1085.816 984.425 1102.206 968.035 Z " fill="none" mask="url(#_mask_n4AWxu72uR0zSZrR22npS3o8q9iPdYto)" vector-effect="non-scaling-stroke" stroke-width="10" stroke="rgb(86,142,166)" stroke-linejoin="miter" stroke-linecap="square" stroke-miterlimit="3"/><mask id="_mask_AsQYoQO7rgBiYLuQZ9RGNp7eN0bkFrZw"><path d=" M 941.087 608.356 L 1018.146 531.296 C 1034.622 514.821 1061.305 514.752 1077.695 531.142 L 1077.695 531.142 C 1094.085 547.533 1094.017 574.215 1077.541 590.691 L 1000.482 667.75 C 984.006 684.226 957.323 684.295 940.933 667.904 L 940.933 667.904 C 924.543 651.514 924.612 624.831 941.087 608.356 Z " fill="white" stroke="none"/></mask><path d=" M 941.087 608.356 L 1018.146 531.296 C 1034.622 514.821 1061.305 514.752 1077.695 531.142 L 1077.695 531.142 C 1094.085 547.533 1094.017 574.215 1077.541 590.691 L 1000.482 667.75 C 984.006 684.226 957.323 684.295 940.933 667.904 L 940.933 667.904 C 924.543 651.514 924.612 624.831 941.087 608.356 Z " fill="none"/><path d=" M 941.087 608.356 L 1018.146 531.296 C 1034.622 514.821 1061.305 514.752 1077.695 531.142 L 1077.695 531.142 C 1094.085 547.533 1094.017 574.215 1077.541 590.691 L 1000.482 667.75 C 984.006 684.226 957.323 684.295 940.933 667.904 L 940.933 667.904 C 924.543 651.514 924.612 624.831 941.087 608.356 Z " fill="none" mask="url(#_mask_AsQYoQO7rgBiYLuQZ9RGNp7eN0bkFrZw)" vector-effect="non-scaling-stroke" stroke-width="10" stroke="rgb(86,142,166)" stroke-linejoin="miter" stroke-linecap="square" stroke-miterlimit="3"/><mask id="_mask_LTNWyANZd7zWCTzRbd4o6u49UTqzYmWC"><path d=" M -7.481 234.769 L 231.519 -4.23 C 247.909 -20.621 274.523 -20.621 290.914 -4.23 L 290.914 -4.23 C 307.304 12.16 307.304 38.774 290.914 55.164 L 51.914 294.164 C 35.523 310.555 8.909 310.555 -7.481 294.164 L -7.481 294.164 C -23.872 277.774 -23.872 251.16 -7.481 234.769 Z " fill="white" stroke="none"/></mask><path d=" M -7.481 234.769 L 231.519 -4.23 C 247.909 -20.621 274.523 -20.621 290.914 -4.23 L 290.914 -4.23 C 307.304 12.16 307.304 38.774 290.914 55.164 L 51.914 294.164 C 35.523 310.555 8.909 310.555 -7.481 294.164 L -7.481 294.164 C -23.872 277.774 -23.872 251.16 -7.481 234.769 Z " fill="none"/><path d=" M -7.481 234.769 L 231.519 -4.23 C 247.909 -20.621 274.523 -20.621 290.914 -4.23 L 290.914 -4.23 C 307.304 12.16 307.304 38.774 290.914 55.164 L 51.914 294.164 C 35.523 310.555 8.909 310.555 -7.481 294.164 L -7.481 294.164 C -23.872 277.774 -23.872 251.16 -7.481 234.769 Z " fill="none" mask="url(#_mask_LTNWyANZd7zWCTzRbd4o6u49UTqzYmWC)" vector-effect="non-scaling-stroke" stroke-width="10" stroke="rgb(86,142,166)" stroke-linejoin="miter" stroke-linecap="square" stroke-miterlimit="3"/><mask id="_mask_m2gI3kR2UqcxSOh0i2eVm6apakBefODj"><path d=" M 997.109 17.293 L 1236.108 -221.707 C 1252.499 -238.098 1279.113 -238.098 1295.503 -221.707 L 1295.503 -221.707 C 1311.894 -205.317 1311.894 -178.703 1295.503 -162.312 L 1056.503 76.688 C 1040.113 93.078 1013.499 93.078 997.109 76.688 L 997.109 76.688 C 980.718 60.297 980.718 33.683 997.109 17.293 Z " fill="white" stroke="none"/></mask><path d=" M 997.109 17.293 L 1236.108 -221.707 C 1252.499 -238.098 1279.113 -238.098 1295.503 -221.707 L 1295.503 -221.707 C 1311.894 -205.317 1311.894 -178.703 1295.503 -162.312 L 1056.503 76.688 C 1040.113 93.078 1013.499 93.078 997.109 76.688 L 997.109 76.688 C 980.718 60.297 980.718 33.683 997.109 17.293 Z " fill="none"/><path d=" M 997.109 17.293 L 1236.108 -221.707 C 1252.499 -238.098 1279.113 -238.098 1295.503 -221.707 L 1295.503 -221.707 C 1311.894 -205.317 1311.894 -178.703 1295.503 -162.312 L 1056.503 76.688 C 1040.113 93.078 1013.499 93.078 997.109 76.688 L 997.109 76.688 C 980.718 60.297 980.718 33.683 997.109 17.293 Z " fill="none" mask="url(#_mask_m2gI3kR2UqcxSOh0i2eVm6apakBefODj)" vector-effect="non-scaling-stroke" stroke-width="10" stroke="rgb(86,142,166)" stroke-linejoin="miter" stroke-linecap="square" stroke-miterlimit="3"/><mask id="_mask_rSymvYjL0EIPlYCTF7TJAi42RR9cYbjy"><path d=" M -7.481 545.125 L 231.519 306.125 C 247.909 289.734 274.523 289.734 290.914 306.125 L 290.914 306.125 C 307.304 322.515 307.304 349.129 290.914 365.52 L 51.914 604.519 C 35.523 620.91 8.909 620.91 -7.481 604.519 L -7.481 604.519 C -23.872 588.129 -23.872 561.515 -7.481 545.125 Z " fill="white" stroke="none"/></mask><path d=" M -7.481 545.125 L 231.519 306.125 C 247.909 289.734 274.523 289.734 290.914 306.125 L 290.914 306.125 C 307.304 322.515 307.304 349.129 290.914 365.52 L 51.914 604.519 C 35.523 620.91 8.909 620.91 -7.481 604.519 L -7.481 604.519 C -23.872 588.129 -23.872 561.515 -7.481 545.125 Z " fill="none"/><path d=" M -7.481 545.125 L 231.519 306.125 C 247.909 289.734 274.523 289.734 290.914 306.125 L 290.914 306.125 C 307.304 322.515 307.304 349.129 290.914 365.52 L 51.914 604.519 C 35.523 620.91 8.909 620.91 -7.481 604.519 L -7.481 604.519 C -23.872 588.129 -23.872 561.515 -7.481 545.125 Z " fill="none" mask="url(#_mask_rSymvYjL0EIPlYCTF7TJAi42RR9cYbjy)" vector-effect="non-scaling-stroke" stroke-width="10" stroke="rgb(86,142,166)" stroke-linejoin="miter" stroke-linecap="square" stroke-miterlimit="3"/><mask id="_mask_ELrkeJvhywNN9APX6J1fDCwvF4SkYAlf"><path d=" M 373.878 125.48 L 413.031 86.328 C 429.506 69.852 456.189 69.783 472.579 86.174 L 472.579 86.174 C 488.97 102.564 488.901 129.247 472.425 145.722 L 433.273 184.875 C 416.798 201.35 390.115 201.419 373.725 185.028 L 373.725 185.028 C 357.334 168.638 357.403 141.955 373.878 125.48 Z " fill="white" stroke="none"/></mask><path d=" M 373.878 125.48 L 413.031 86.328 C 429.506 69.852 456.189 69.783 472.579 86.174 L 472.579 86.174 C 488.97 102.564 488.901 129.247 472.425 145.722 L 433.273 184.875 C 416.798 201.35 390.115 201.419 373.725 185.028 L 373.725 185.028 C 357.334 168.638 357.403 141.955 373.878 125.48 Z " fill="none"/><path d=" M 373.878 125.48 L 413.031 86.328 C 429.506 69.852 456.189 69.783 472.579 86.174 L 472.579 86.174 C 488.97 102.564 488.901 129.247 472.425 145.722 L 433.273 184.875 C 416.798 201.35 390.115 201.419 373.725 185.028 L 373.725 185.028 C 357.334 168.638 357.403 141.955 373.878 125.48 Z " fill="none" mask="url(#_mask_ELrkeJvhywNN9APX6J1fDCwvF4SkYAlf)" vector-effect="non-scaling-stroke" stroke-width="10" stroke="rgb(86,142,166)" stroke-linejoin="miter" stroke-linecap="square" stroke-miterlimit="3"/><mask id="_mask_giNmv5p5m3goXaKhJwHNGasLOpRd6EXG"><path d=" M 669.987 769.493 L 785.685 653.795 C 801.987 637.493 828.457 637.493 844.76 653.795 L 845.08 654.115 C 861.382 670.417 861.382 696.888 845.08 713.19 L 729.382 828.887 C 713.08 845.19 686.609 845.19 670.307 828.887 L 669.987 828.567 C 653.685 812.265 653.685 785.795 669.987 769.493 Z " fill="white" stroke="none"/></mask><path d=" M 669.987 769.493 L 785.685 653.795 C 801.987 637.493 828.457 637.493 844.76 653.795 L 845.08 654.115 C 861.382 670.417 861.382 696.888 845.08 713.19 L 729.382 828.887 C 713.08 845.19 686.609 845.19 670.307 828.887 L 669.987 828.567 C 653.685 812.265 653.685 785.795 669.987 769.493 Z " fill="none"/><path d=" M 669.987 769.493 L 785.685 653.795 C 801.987 637.493 828.457 637.493 844.76 653.795 L 845.08 654.115 C 861.382 670.417 861.382 696.888 845.08 713.19 L 729.382 828.887 C 713.08 845.19 686.609 845.19 670.307 828.887 L 669.987 828.567 C 653.685 812.265 653.685 785.795 669.987 769.493 Z " fill="none" mask="url(#_mask_giNmv5p5m3goXaKhJwHNGasLOpRd6EXG)" vector-effect="non-scaling-stroke" stroke-width="10" stroke="rgb(86,142,166)" stroke-linejoin="miter" stroke-linecap="square" stroke-miterlimit="3"/><mask id="_mask_T3rbSJRB61lReY6fUgw8afFzuRrT6h5Z"><path d=" M 598.644 840.836 L 598.644 840.836 C 616.008 823.472 643.412 822.682 659.802 839.072 L 659.802 839.072 C 676.193 855.463 675.403 882.867 658.039 900.23 L 658.039 900.23 C 640.675 917.594 613.271 918.384 596.881 901.994 L 596.881 901.994 C 580.49 885.603 581.28 858.199 598.644 840.836 Z " fill="white" stroke="none"/></mask><path d=" M 598.644 840.836 L 598.644 840.836 C 616.008 823.472 643.412 822.682 659.802 839.072 L 659.802 839.072 C 676.193 855.463 675.403 882.867 658.039 900.23 L 658.039 900.23 C 640.675 917.594 613.271 918.384 596.881 901.994 L 596.881 901.994 C 580.49 885.603 581.28 858.199 598.644 840.836 Z " fill="none"/><path d=" M 598.644 840.836 L 598.644 840.836 C 616.008 823.472 643.412 822.682 659.802 839.072 L 659.802 839.072 C 676.193 855.463 675.403 882.867 658.039 900.23 L 658.039 900.23 C 640.675 917.594 613.271 918.384 596.881 901.994 L 596.881 901.994 C 580.49 885.603 581.28 858.199 598.644 840.836 Z " fill="none" mask="url(#_mask_T3rbSJRB61lReY6fUgw8afFzuRrT6h5Z)" vector-effect="non-scaling-stroke" stroke-width="10" stroke="rgb(86,142,166)" stroke-linejoin="miter" stroke-linecap="square" stroke-miterlimit="3"/><mask id="_mask_rKNv2xLmKx9kG8XoH3GFCdPTi7hFv4MG"><path d=" M 495.78 557.75 L 734.78 318.75 C 751.171 302.359 777.785 302.359 794.175 318.75 L 794.175 318.75 C 810.565 335.14 810.565 361.754 794.175 378.145 L 555.175 617.145 C 538.785 633.535 512.171 633.535 495.78 617.145 L 495.78 617.145 C 479.39 600.754 479.39 574.14 495.78 557.75 Z " fill="white" stroke="none"/></mask><path d=" M 495.78 557.75 L 734.78 318.75 C 751.171 302.359 777.785 302.359 794.175 318.75 L 794.175 318.75 C 810.565 335.14 810.565 361.754 794.175 378.145 L 555.175 617.145 C 538.785 633.535 512.171 633.535 495.78 617.145 L 495.78 617.145 C 479.39 600.754 479.39 574.14 495.78 557.75 Z " fill="none"/><path d=" M 495.78 557.75 L 734.78 318.75 C 751.171 302.359 777.785 302.359 794.175 318.75 L 794.175 318.75 C 810.565 335.14 810.565 361.754 794.175 378.145 L 555.175 617.145 C 538.785 633.535 512.171 633.535 495.78 617.145 L 495.78 617.145 C 479.39 600.754 479.39 574.14 495.78 557.75 Z " fill="none" mask="url(#_mask_rKNv2xLmKx9kG8XoH3GFCdPTi7hFv4MG)" vector-effect="non-scaling-stroke" stroke-width="10" stroke="rgb(86,142,166)" stroke-linejoin="miter" stroke-linecap="square" stroke-miterlimit="3"/><mask id="_mask_UFtEyctgS43Mo4mJ8zvrGifLloJc6RRw"><path d=" M 315.608 447.098 L 409.462 353.244 C 425.937 336.768 452.62 336.7 469.011 353.09 L 469.011 353.09 C 485.401 369.48 485.332 396.163 468.857 412.639 L 375.003 506.493 C 358.527 522.968 331.845 523.037 315.454 506.646 L 315.454 506.646 C 299.064 490.256 299.133 463.573 315.608 447.098 Z " fill="white" stroke="none"/></mask><path d=" M 315.608 447.098 L 409.462 353.244 C 425.937 336.768 452.62 336.7 469.011 353.09 L 469.011 353.09 C 485.401 369.48 485.332 396.163 468.857 412.639 L 375.003 506.493 C 358.527 522.968 331.845 523.037 315.454 506.646 L 315.454 506.646 C 299.064 490.256 299.133 463.573 315.608 447.098 Z " fill="none"/><path d=" M 315.608 447.098 L 409.462 353.244 C 425.937 336.768 452.62 336.7 469.011 353.09 L 469.011 353.09 C 485.401 369.48 485.332 396.163 468.857 412.639 L 375.003 506.493 C 358.527 522.968 331.845 523.037 315.454 506.646 L 315.454 506.646 C 299.064 490.256 299.133 463.573 315.608 447.098 Z " fill="none" mask="url(#_mask_UFtEyctgS43Mo4mJ8zvrGifLloJc6RRw)" vector-effect="non-scaling-stroke" stroke-width="10" stroke="rgb(86,142,166)" stroke-linejoin="miter" stroke-linecap="square" stroke-miterlimit="3"/><mask id="_mask_0RDUCKHVZzq3eWfEvt09wzBHM93YrnyR"><path d=" M 617.998 46.511 L 856.998 -192.489 C 873.388 -208.88 900.002 -208.88 916.392 -192.489 L 916.392 -192.489 C 932.783 -176.099 932.783 -149.485 916.392 -133.094 L 677.392 105.905 C 661.002 122.296 634.388 122.296 617.998 105.905 L 617.998 105.905 C 601.607 89.515 601.607 62.901 617.998 46.511 Z " fill="white" stroke="none"/></mask><path d=" M 617.998 46.511 L 856.998 -192.489 C 873.388 -208.88 900.002 -208.88 916.392 -192.489 L 916.392 -192.489 C 932.783 -176.099 932.783 -149.485 916.392 -133.094 L 677.392 105.905 C 661.002 122.296 634.388 122.296 617.998 105.905 L 617.998 105.905 C 601.607 89.515 601.607 62.901 617.998 46.511 Z " fill="none"/><path d=" M 617.998 46.511 L 856.998 -192.489 C 873.388 -208.88 900.002 -208.88 916.392 -192.489 L 916.392 -192.489 C 932.783 -176.099 932.783 -149.485 916.392 -133.094 L 677.392 105.905 C 661.002 122.296 634.388 122.296 617.998 105.905 L 617.998 105.905 C 601.607 89.515 601.607 62.901 617.998 46.511 Z " fill="none" mask="url(#_mask_0RDUCKHVZzq3eWfEvt09wzBHM93YrnyR)" vector-effect="non-scaling-stroke" stroke-width="10" stroke="rgb(86,142,166)" stroke-linejoin="miter" stroke-linecap="square" stroke-miterlimit="3"/></g></g></svg>