<?xml version="1.0" encoding="UTF-8" standalone="no"?><!-- Generator: Gravit.io --><svg xmlns="http://www.w3.org/2000/svg" xmlns:xlink="http://www.w3.org/1999/xlink" style="isolation:isolate" viewBox="0 0 350 350" width="350pt" height="350pt"><defs><clipPath id="_clipPath_gLUhDXfkgQLO6cvRyMFWlfAG9EceXiCL"><rect width="350" height="350"/></clipPath></defs><g clip-path="url(#_clipPath_gLUhDXfkgQLO6cvRyMFWlfAG9EceXiCL)"><mask id="_mask_Igv6vWgviYX1NTS6JxcHwwnUcmrWR0Q7"><circle vector-effect="non-scaling-stroke" cx="174.99999999999997" cy="175" r="174.99999999999997" fill="white" stroke="none"/></mask><circle vector-effect="non-scaling-stroke" cx="174.99999999999997" cy="175" r="174.99999999999997" fill="rgb(16,55,72)"/><circle vector-effect="non-scaling-stroke" cx="174.99999999999997" cy="175" r="174.99999999999997" fill="rgb(16,55,72)" mask="url(#_mask_Igv6vWgviYX1NTS6JxcHwwnUcmrWR0Q7)" stroke-width="10" stroke="rgb(86,142,166)" stroke-linejoin="miter" stroke-linecap="square" stroke-miterlimit="3"/><path d=" M 175 156.27 L 128.513 109.783 C 123.344 104.614 114.951 104.614 109.783 109.783 L 109.783 109.783 C 104.614 114.951 104.614 123.344 109.783 128.513 L 156.27 175 L 109.83 221.439 C 104.635 226.634 104.614 235.049 109.783 240.217 L 109.783 240.217 C 114.951 245.386 123.366 245.365 128.561 240.17 L 175 193.73 L 221.487 240.217 C 226.656 245.386 235.049 245.386 240.217 240.217 L 240.217 240.217 C 245.386 235.049 245.386 226.656 240.217 221.487 L 193.73 175 L 240.17 128.561 C 245.365 123.366 245.386 114.951 240.217 109.783 L 240.217 109.783 C 235.049 104.614 226.634 104.635 221.439 109.83 L 175 156.27 Z " fill-rule="evenodd" fill="rgb(86,142,166)"/></g></svg>