<?xml version="1.0" encoding="UTF-8" standalone="no"?><!-- Generator: Gravit.io --><svg xmlns="http://www.w3.org/2000/svg" xmlns:xlink="http://www.w3.org/1999/xlink" style="isolation:isolate" viewBox="0 0 610 169" width="610pt" height="169pt"><defs><clipPath id="_clipPath_PXhphYQif4S2wrMUClGEScjw5kcEWrAp"><rect width="610" height="169"/></clipPath></defs><g clip-path="url(#_clipPath_PXhphYQif4S2wrMUClGEScjw5kcEWrAp)"><g><path d="M 15 0 L 595 0 C 603.279 0 610 6.721 610 15 L 610 154 C 610 162.279 603.279 169 595 169 L 15 169 C 6.721 169 0 162.279 0 154 L 0 15 C 0 6.721 6.721 0 15 0 Z" style="stroke:none;fill:#568EA6;stroke-miterlimit:10;"/><path d=" M 209.178 114.609 L 209.178 114.609 Q 206.678 114.609 204.387 113.807 L 204.387 113.807 L 204.387 113.807 Q 202.096 113.006 200.846 111.692 L 200.846 111.692 L 201.775 109.866 L 201.775 109.866 Q 202.993 111.083 205.012 111.836 L 205.012 111.836 L 205.012 111.836 Q 207.031 112.59 209.178 112.59 L 209.178 112.59 L 209.178 112.59 Q 212.191 112.59 213.697 111.484 L 213.697 111.484 L 213.697 111.484 Q 215.203 110.378 215.203 108.616 L 215.203 108.616 L 215.203 108.616 Q 215.203 107.27 214.386 106.469 L 214.386 106.469 L 214.386 106.469 Q 213.569 105.667 212.383 105.235 L 212.383 105.235 L 212.383 105.235 Q 211.197 104.802 209.082 104.289 L 209.082 104.289 L 209.082 104.289 Q 206.55 103.648 205.044 103.055 L 205.044 103.055 L 205.044 103.055 Q 203.538 102.463 202.464 101.245 L 202.464 101.245 L 202.464 101.245 Q 201.391 100.027 201.391 97.944 L 201.391 97.944 L 201.391 97.944 Q 201.391 96.245 202.288 94.851 L 202.288 94.851 L 202.288 94.851 Q 203.185 93.457 205.044 92.624 L 205.044 92.624 L 205.044 92.624 Q 206.903 91.791 209.659 91.791 L 209.659 91.791 L 209.659 91.791 Q 211.582 91.791 213.424 92.32 L 213.424 92.32 L 213.424 92.32 Q 215.267 92.848 216.613 93.778 L 216.613 93.778 L 215.812 95.669 L 215.812 95.669 Q 214.402 94.739 212.799 94.274 L 212.799 94.274 L 212.799 94.274 Q 211.197 93.81 209.659 93.81 L 209.659 93.81 L 209.659 93.81 Q 206.71 93.81 205.22 94.947 L 205.22 94.947 L 205.22 94.947 Q 203.73 96.085 203.73 97.88 L 203.73 97.88 L 203.73 97.88 Q 203.73 99.226 204.547 100.043 L 204.547 100.043 L 204.547 100.043 Q 205.365 100.86 206.598 101.293 L 206.598 101.293 L 206.598 101.293 Q 207.832 101.726 209.915 102.238 L 209.915 102.238 L 209.915 102.238 Q 212.383 102.847 213.905 103.44 L 213.905 103.44 L 213.905 103.44 Q 215.427 104.033 216.485 105.235 L 216.485 105.235 L 216.485 105.235 Q 217.543 106.436 217.543 108.488 L 217.543 108.488 L 217.543 108.488 Q 217.543 110.186 216.629 111.58 L 216.629 111.58 L 216.629 111.58 Q 215.716 112.974 213.825 113.791 L 213.825 113.791 L 213.825 113.791 Q 211.934 114.609 209.178 114.609 L 209.178 114.609 Z  M 235.137 97.559 L 237.412 97.559 L 237.412 114.416 L 235.233 114.416 L 235.233 111.34 L 235.233 111.34 Q 234.335 112.878 232.765 113.727 L 232.765 113.727 L 232.765 113.727 Q 231.195 114.577 229.176 114.577 L 229.176 114.577 L 229.176 114.577 Q 225.875 114.577 223.968 112.734 L 223.968 112.734 L 223.968 112.734 Q 222.061 110.891 222.061 107.334 L 222.061 107.334 L 222.061 97.559 L 224.337 97.559 L 224.337 107.109 L 224.337 107.109 Q 224.337 109.769 225.651 111.147 L 225.651 111.147 L 225.651 111.147 Q 226.964 112.525 229.4 112.525 L 229.4 112.525 L 229.4 112.525 Q 232.06 112.525 233.598 110.907 L 233.598 110.907 L 233.598 110.907 Q 235.137 109.289 235.137 106.404 L 235.137 106.404 L 235.137 97.559 Z  M 252.474 97.431 L 252.474 97.431 Q 254.846 97.431 256.769 98.505 L 256.769 98.505 L 256.769 98.505 Q 258.691 99.578 259.781 101.533 L 259.781 101.533 L 259.781 101.533 Q 260.871 103.488 260.871 105.988 L 260.871 105.988 L 260.871 105.988 Q 260.871 108.52 259.781 110.474 L 259.781 110.474 L 259.781 110.474 Q 258.691 112.429 256.785 113.503 L 256.785 113.503 L 256.785 113.503 Q 254.878 114.577 252.474 114.577 L 252.474 114.577 L 252.474 114.577 Q 250.423 114.577 248.773 113.727 L 248.773 113.727 L 248.773 113.727 Q 247.122 112.878 246.065 111.244 L 246.065 111.244 L 246.065 120.633 L 243.789 120.633 L 243.789 97.559 L 245.969 97.559 L 245.969 100.892 L 245.969 100.892 Q 246.994 99.226 248.677 98.328 L 248.677 98.328 L 248.677 98.328 Q 250.359 97.431 252.474 97.431 L 252.474 97.431 Z  M 252.314 112.558 L 252.314 112.558 Q 254.077 112.558 255.519 111.74 L 255.519 111.74 L 255.519 111.74 Q 256.961 110.923 257.778 109.417 L 257.778 109.417 L 257.778 109.417 Q 258.595 107.911 258.595 105.988 L 258.595 105.988 L 258.595 105.988 Q 258.595 104.065 257.778 102.575 L 257.778 102.575 L 257.778 102.575 Q 256.961 101.085 255.519 100.251 L 255.519 100.251 L 255.519 100.251 Q 254.077 99.418 252.314 99.418 L 252.314 99.418 L 252.314 99.418 Q 250.519 99.418 249.093 100.251 L 249.093 100.251 L 249.093 100.251 Q 247.667 101.085 246.85 102.575 L 246.85 102.575 L 246.85 102.575 Q 246.033 104.065 246.033 105.988 L 246.033 105.988 L 246.033 105.988 Q 246.033 107.911 246.85 109.417 L 246.85 109.417 L 246.85 109.417 Q 247.667 110.923 249.093 111.74 L 249.093 111.74 L 249.093 111.74 Q 250.519 112.558 252.314 112.558 L 252.314 112.558 Z  M 274.202 97.431 L 274.202 97.431 Q 276.574 97.431 278.497 98.505 L 278.497 98.505 L 278.497 98.505 Q 280.42 99.578 281.509 101.533 L 281.509 101.533 L 281.509 101.533 Q 282.599 103.488 282.599 105.988 L 282.599 105.988 L 282.599 105.988 Q 282.599 108.52 281.509 110.474 L 281.509 110.474 L 281.509 110.474 Q 280.42 112.429 278.513 113.503 L 278.513 113.503 L 278.513 113.503 Q 276.606 114.577 274.202 114.577 L 274.202 114.577 L 274.202 114.577 Q 272.151 114.577 270.501 113.727 L 270.501 113.727 L 270.501 113.727 Q 268.851 112.878 267.793 111.244 L 267.793 111.244 L 267.793 120.633 L 265.518 120.633 L 265.518 97.559 L 267.697 97.559 L 267.697 100.892 L 267.697 100.892 Q 268.722 99.226 270.405 98.328 L 270.405 98.328 L 270.405 98.328 Q 272.087 97.431 274.202 97.431 L 274.202 97.431 Z  M 274.042 112.558 L 274.042 112.558 Q 275.805 112.558 277.247 111.74 L 277.247 111.74 L 277.247 111.74 Q 278.689 110.923 279.506 109.417 L 279.506 109.417 L 279.506 109.417 Q 280.323 107.911 280.323 105.988 L 280.323 105.988 L 280.323 105.988 Q 280.323 104.065 279.506 102.575 L 279.506 102.575 L 279.506 102.575 Q 278.689 101.085 277.247 100.251 L 277.247 100.251 L 277.247 100.251 Q 275.805 99.418 274.042 99.418 L 274.042 99.418 L 274.042 99.418 Q 272.248 99.418 270.821 100.251 L 270.821 100.251 L 270.821 100.251 Q 269.395 101.085 268.578 102.575 L 268.578 102.575 L 268.578 102.575 Q 267.761 104.065 267.761 105.988 L 267.761 105.988 L 267.761 105.988 Q 267.761 107.911 268.578 109.417 L 268.578 109.417 L 268.578 109.417 Q 269.395 110.923 270.821 111.74 L 270.821 111.74 L 270.821 111.74 Q 272.248 112.558 274.042 112.558 L 274.042 112.558 Z  M 294.136 114.577 L 294.136 114.577 Q 291.7 114.577 289.745 113.471 L 289.745 113.471 L 289.745 113.471 Q 287.791 112.365 286.669 110.41 L 286.669 110.41 L 286.669 110.41 Q 285.547 108.455 285.547 105.988 L 285.547 105.988 L 285.547 105.988 Q 285.547 103.52 286.669 101.565 L 286.669 101.565 L 286.669 101.565 Q 287.791 99.61 289.745 98.521 L 289.745 98.521 L 289.745 98.521 Q 291.7 97.431 294.136 97.431 L 294.136 97.431 L 294.136 97.431 Q 296.572 97.431 298.526 98.521 L 298.526 98.521 L 298.526 98.521 Q 300.481 99.61 301.587 101.565 L 301.587 101.565 L 301.587 101.565 Q 302.693 103.52 302.693 105.988 L 302.693 105.988 L 302.693 105.988 Q 302.693 108.455 301.587 110.41 L 301.587 110.41 L 301.587 110.41 Q 300.481 112.365 298.526 113.471 L 298.526 113.471 L 298.526 113.471 Q 296.572 114.577 294.136 114.577 L 294.136 114.577 Z  M 294.136 112.558 L 294.136 112.558 Q 295.931 112.558 297.357 111.74 L 297.357 111.74 L 297.357 111.74 Q 298.783 110.923 299.584 109.417 L 299.584 109.417 L 299.584 109.417 Q 300.385 107.911 300.385 105.988 L 300.385 105.988 L 300.385 105.988 Q 300.385 104.065 299.584 102.559 L 299.584 102.559 L 299.584 102.559 Q 298.783 101.052 297.357 100.235 L 297.357 100.235 L 297.357 100.235 Q 295.931 99.418 294.136 99.418 L 294.136 99.418 L 294.136 99.418 Q 292.341 99.418 290.915 100.235 L 290.915 100.235 L 290.915 100.235 Q 289.489 101.052 288.672 102.559 L 288.672 102.559 L 288.672 102.559 Q 287.855 104.065 287.855 105.988 L 287.855 105.988 L 287.855 105.988 Q 287.855 107.911 288.672 109.417 L 288.672 109.417 L 288.672 109.417 Q 289.489 110.923 290.915 111.74 L 290.915 111.74 L 290.915 111.74 Q 292.341 112.558 294.136 112.558 L 294.136 112.558 Z  M 309.519 100.86 L 309.519 100.86 Q 310.32 99.162 311.906 98.296 L 311.906 98.296 L 311.906 98.296 Q 313.493 97.431 315.832 97.431 L 315.832 97.431 L 315.832 99.642 L 315.287 99.61 L 315.287 99.61 Q 312.627 99.61 311.121 101.245 L 311.121 101.245 L 311.121 101.245 Q 309.615 102.879 309.615 105.828 L 309.615 105.828 L 309.615 114.416 L 307.34 114.416 L 307.34 97.559 L 309.519 97.559 L 309.519 100.86 Z  M 328.747 111.756 L 329.548 113.391 L 329.548 113.391 Q 328.907 113.968 327.962 114.272 L 327.962 114.272 L 327.962 114.272 Q 327.017 114.577 325.991 114.577 L 325.991 114.577 L 325.991 114.577 Q 323.619 114.577 322.338 113.295 L 322.338 113.295 L 322.338 113.295 Q 321.056 112.013 321.056 109.673 L 321.056 109.673 L 321.056 99.482 L 318.043 99.482 L 318.043 97.559 L 321.056 97.559 L 321.056 93.874 L 323.331 93.874 L 323.331 97.559 L 328.459 97.559 L 328.459 99.482 L 323.331 99.482 L 323.331 109.545 L 323.331 109.545 Q 323.331 111.051 324.084 111.836 L 324.084 111.836 L 324.084 111.836 Q 324.837 112.622 326.247 112.622 L 326.247 112.622 L 326.247 112.622 Q 326.953 112.622 327.609 112.397 L 327.609 112.397 L 327.609 112.397 Q 328.266 112.173 328.747 111.756 L 328.747 111.756 Z  M 45.864 114.609 L 45.864 114.609 Q 42.531 114.609 39.855 113.134 L 39.855 113.134 L 39.855 113.134 Q 37.18 111.66 35.657 109.048 L 35.657 109.048 L 35.657 109.048 Q 34.135 106.436 34.135 103.2 L 34.135 103.2 L 34.135 103.2 Q 34.135 99.963 35.657 97.351 L 35.657 97.351 L 35.657 97.351 Q 37.18 94.739 39.871 93.265 L 39.871 93.265 L 39.871 93.265 Q 42.563 91.791 45.896 91.791 L 45.896 91.791 L 45.896 91.791 Q 48.396 91.791 50.511 92.624 L 50.511 92.624 L 50.511 92.624 Q 52.626 93.457 54.101 95.06 L 54.101 95.06 L 52.594 96.566 L 52.594 96.566 Q 49.966 93.906 45.96 93.906 L 45.96 93.906 L 45.96 93.906 Q 43.301 93.906 41.121 95.124 L 41.121 95.124 L 41.121 95.124 Q 38.942 96.342 37.708 98.457 L 37.708 98.457 L 37.708 98.457 Q 36.474 100.572 36.474 103.2 L 36.474 103.2 L 36.474 103.2 Q 36.474 105.828 37.708 107.943 L 37.708 107.943 L 37.708 107.943 Q 38.942 110.058 41.121 111.276 L 41.121 111.276 L 41.121 111.276 Q 43.301 112.493 45.96 112.493 L 45.96 112.493 L 45.96 112.493 Q 49.998 112.493 52.594 109.801 L 52.594 109.801 L 54.101 111.308 L 54.101 111.308 Q 52.626 112.91 50.495 113.759 L 50.495 113.759 L 50.495 113.759 Q 48.364 114.609 45.864 114.609 L 45.864 114.609 Z  M 71.022 97.559 L 73.297 97.559 L 73.297 114.416 L 71.118 114.416 L 71.118 111.34 L 71.118 111.34 Q 70.22 112.878 68.65 113.727 L 68.65 113.727 L 68.65 113.727 Q 67.08 114.577 65.061 114.577 L 65.061 114.577 L 65.061 114.577 Q 61.76 114.577 59.853 112.734 L 59.853 112.734 L 59.853 112.734 Q 57.946 110.891 57.946 107.334 L 57.946 107.334 L 57.946 97.559 L 60.222 97.559 L 60.222 107.109 L 60.222 107.109 Q 60.222 109.769 61.536 111.147 L 61.536 111.147 L 61.536 111.147 Q 62.85 112.525 65.285 112.525 L 65.285 112.525 L 65.285 112.525 Q 67.945 112.525 69.483 110.907 L 69.483 110.907 L 69.483 110.907 Q 71.022 109.289 71.022 106.404 L 71.022 106.404 L 71.022 97.559 Z  M 84.193 114.577 L 84.193 114.577 Q 82.142 114.577 80.267 113.984 L 80.267 113.984 L 80.267 113.984 Q 78.392 113.391 77.335 112.493 L 77.335 112.493 L 78.36 110.699 L 78.36 110.699 Q 79.418 111.532 81.02 112.061 L 81.02 112.061 L 81.02 112.061 Q 82.623 112.59 84.353 112.59 L 84.353 112.59 L 84.353 112.59 Q 86.661 112.59 87.766 111.869 L 87.766 111.869 L 87.766 111.869 Q 88.872 111.147 88.872 109.834 L 88.872 109.834 L 88.872 109.834 Q 88.872 108.904 88.263 108.375 L 88.263 108.375 L 88.263 108.375 Q 87.654 107.847 86.725 107.574 L 86.725 107.574 L 86.725 107.574 Q 85.796 107.302 84.257 107.045 L 84.257 107.045 L 84.257 107.045 Q 82.206 106.661 80.956 106.26 L 80.956 106.26 L 80.956 106.26 Q 79.706 105.86 78.825 104.898 L 78.825 104.898 L 78.825 104.898 Q 77.944 103.937 77.944 102.238 L 77.944 102.238 L 77.944 102.238 Q 77.944 100.123 79.706 98.777 L 79.706 98.777 L 79.706 98.777 Q 81.469 97.431 84.61 97.431 L 84.61 97.431 L 84.61 97.431 Q 86.244 97.431 87.879 97.864 L 87.879 97.864 L 87.879 97.864 Q 89.513 98.296 90.571 99.001 L 90.571 99.001 L 89.577 100.828 L 89.577 100.828 Q 87.494 99.386 84.61 99.386 L 84.61 99.386 L 84.61 99.386 Q 82.43 99.386 81.325 100.155 L 81.325 100.155 L 81.325 100.155 Q 80.219 100.924 80.219 102.174 L 80.219 102.174 L 80.219 102.174 Q 80.219 103.136 80.844 103.712 L 80.844 103.712 L 80.844 103.712 Q 81.469 104.289 82.398 104.562 L 82.398 104.562 L 82.398 104.562 Q 83.328 104.834 84.962 105.123 L 84.962 105.123 L 84.962 105.123 Q 86.981 105.507 88.199 105.892 L 88.199 105.892 L 88.199 105.892 Q 89.417 106.276 90.282 107.206 L 90.282 107.206 L 90.282 107.206 Q 91.147 108.135 91.147 109.769 L 91.147 109.769 L 91.147 109.769 Q 91.147 111.981 89.305 113.279 L 89.305 113.279 L 89.305 113.279 Q 87.462 114.577 84.193 114.577 L 84.193 114.577 Z  M 103.422 111.756 L 104.223 113.391 L 104.223 113.391 Q 103.582 113.968 102.636 114.272 L 102.636 114.272 L 102.636 114.272 Q 101.691 114.577 100.665 114.577 L 100.665 114.577 L 100.665 114.577 Q 98.294 114.577 97.012 113.295 L 97.012 113.295 L 97.012 113.295 Q 95.73 112.013 95.73 109.673 L 95.73 109.673 L 95.73 99.482 L 92.718 99.482 L 92.718 97.559 L 95.73 97.559 L 95.73 93.874 L 98.006 93.874 L 98.006 97.559 L 103.133 97.559 L 103.133 99.482 L 98.006 99.482 L 98.006 109.545 L 98.006 109.545 Q 98.006 111.051 98.759 111.836 L 98.759 111.836 L 98.759 111.836 Q 99.512 112.622 100.922 112.622 L 100.922 112.622 L 100.922 112.622 Q 101.627 112.622 102.284 112.397 L 102.284 112.397 L 102.284 112.397 Q 102.941 112.173 103.422 111.756 L 103.422 111.756 Z  M 114.638 114.577 L 114.638 114.577 Q 112.203 114.577 110.248 113.471 L 110.248 113.471 L 110.248 113.471 Q 108.293 112.365 107.171 110.41 L 107.171 110.41 L 107.171 110.41 Q 106.049 108.455 106.049 105.988 L 106.049 105.988 L 106.049 105.988 Q 106.049 103.52 107.171 101.565 L 107.171 101.565 L 107.171 101.565 Q 108.293 99.61 110.248 98.521 L 110.248 98.521 L 110.248 98.521 Q 112.203 97.431 114.638 97.431 L 114.638 97.431 L 114.638 97.431 Q 117.074 97.431 119.029 98.521 L 119.029 98.521 L 119.029 98.521 Q 120.984 99.61 122.089 101.565 L 122.089 101.565 L 122.089 101.565 Q 123.195 103.52 123.195 105.988 L 123.195 105.988 L 123.195 105.988 Q 123.195 108.455 122.089 110.41 L 122.089 110.41 L 122.089 110.41 Q 120.984 112.365 119.029 113.471 L 119.029 113.471 L 119.029 113.471 Q 117.074 114.577 114.638 114.577 L 114.638 114.577 Z  M 114.638 112.558 L 114.638 112.558 Q 116.433 112.558 117.859 111.74 L 117.859 111.74 L 117.859 111.74 Q 119.285 110.923 120.086 109.417 L 120.086 109.417 L 120.086 109.417 Q 120.887 107.911 120.887 105.988 L 120.887 105.988 L 120.887 105.988 Q 120.887 104.065 120.086 102.559 L 120.086 102.559 L 120.086 102.559 Q 119.285 101.052 117.859 100.235 L 117.859 100.235 L 117.859 100.235 Q 116.433 99.418 114.638 99.418 L 114.638 99.418 L 114.638 99.418 Q 112.843 99.418 111.417 100.235 L 111.417 100.235 L 111.417 100.235 Q 109.991 101.052 109.174 102.559 L 109.174 102.559 L 109.174 102.559 Q 108.357 104.065 108.357 105.988 L 108.357 105.988 L 108.357 105.988 Q 108.357 107.911 109.174 109.417 L 109.174 109.417 L 109.174 109.417 Q 109.991 110.923 111.417 111.74 L 111.417 111.74 L 111.417 111.74 Q 112.843 112.558 114.638 112.558 L 114.638 112.558 Z  M 148.865 97.431 L 148.865 97.431 Q 152.038 97.431 153.848 99.258 L 153.848 99.258 L 153.848 99.258 Q 155.659 101.085 155.659 104.642 L 155.659 104.642 L 155.659 114.416 L 153.384 114.416 L 153.384 104.866 L 153.384 104.866 Q 153.384 102.238 152.118 100.86 L 152.118 100.86 L 152.118 100.86 Q 150.852 99.482 148.544 99.482 L 148.544 99.482 L 148.544 99.482 Q 145.916 99.482 144.41 101.101 L 144.41 101.101 L 144.41 101.101 Q 142.904 102.719 142.904 105.571 L 142.904 105.571 L 142.904 114.416 L 140.629 114.416 L 140.629 104.866 L 140.629 104.866 Q 140.629 102.238 139.363 100.86 L 139.363 100.86 L 139.363 100.86 Q 138.097 99.482 135.757 99.482 L 135.757 99.482 L 135.757 99.482 Q 133.162 99.482 131.639 101.101 L 131.639 101.101 L 131.639 101.101 Q 130.117 102.719 130.117 105.571 L 130.117 105.571 L 130.117 114.416 L 127.842 114.416 L 127.842 97.559 L 130.021 97.559 L 130.021 100.636 L 130.021 100.636 Q 130.918 99.098 132.521 98.264 L 132.521 98.264 L 132.521 98.264 Q 134.123 97.431 136.206 97.431 L 136.206 97.431 L 136.206 97.431 Q 138.321 97.431 139.876 98.328 L 139.876 98.328 L 139.876 98.328 Q 141.43 99.226 142.199 100.988 L 142.199 100.988 L 142.199 100.988 Q 143.128 99.322 144.875 98.377 L 144.875 98.377 L 144.875 98.377 Q 146.622 97.431 148.865 97.431 L 148.865 97.431 Z  M 176.618 105.988 L 176.586 106.693 L 162.485 106.693 L 162.485 106.693 Q 162.677 109.321 164.504 110.939 L 164.504 110.939 L 164.504 110.939 Q 166.331 112.558 169.119 112.558 L 169.119 112.558 L 169.119 112.558 Q 170.689 112.558 172.003 111.997 L 172.003 111.997 L 172.003 111.997 Q 173.317 111.436 174.278 110.346 L 174.278 110.346 L 175.56 111.82 L 175.56 111.82 Q 174.439 113.166 172.756 113.871 L 172.756 113.871 L 172.756 113.871 Q 171.074 114.577 169.055 114.577 L 169.055 114.577 L 169.055 114.577 Q 166.459 114.577 164.456 113.471 L 164.456 113.471 L 164.456 113.471 Q 162.453 112.365 161.331 110.41 L 161.331 110.41 L 161.331 110.41 Q 160.21 108.455 160.21 105.988 L 160.21 105.988 L 160.21 105.988 Q 160.21 103.52 161.283 101.565 L 161.283 101.565 L 161.283 101.565 Q 162.357 99.61 164.232 98.521 L 164.232 98.521 L 164.232 98.521 Q 166.106 97.431 168.446 97.431 L 168.446 97.431 L 168.446 97.431 Q 170.785 97.431 172.644 98.521 L 172.644 98.521 L 172.644 98.521 Q 174.503 99.61 175.56 101.549 L 175.56 101.549 L 175.56 101.549 Q 176.618 103.488 176.618 105.988 L 176.618 105.988 Z  M 168.446 99.386 L 168.446 99.386 Q 166.01 99.386 164.36 100.94 L 164.36 100.94 L 164.36 100.94 Q 162.709 102.495 162.485 104.994 L 162.485 104.994 L 174.439 104.994 L 174.439 104.994 Q 174.214 102.495 172.564 100.94 L 172.564 100.94 L 172.564 100.94 Q 170.914 99.386 168.446 99.386 L 168.446 99.386 Z  M 183.444 100.86 L 183.444 100.86 Q 184.245 99.162 185.832 98.296 L 185.832 98.296 L 185.832 98.296 Q 187.418 97.431 189.757 97.431 L 189.757 97.431 L 189.757 99.642 L 189.213 99.61 L 189.213 99.61 Q 186.553 99.61 185.046 101.245 L 185.046 101.245 L 185.046 101.245 Q 183.54 102.879 183.54 105.828 L 183.54 105.828 L 183.54 114.416 L 181.265 114.416 L 181.265 97.559 L 183.444 97.559 L 183.444 100.86 Z  M 563.206 78.555 L 573.782 48.366 L 575.865 48.366 L 565.289 78.555 L 563.206 78.555 Z  M 430.177 75.35 L 423.96 67.851 L 420.114 67.851 L 420.114 75.35 L 417.839 75.35 L 417.839 58.493 L 420.114 58.493 L 420.114 65.896 L 423.992 65.896 L 429.921 58.493 L 432.389 58.493 L 425.755 66.666 L 432.869 75.35 L 430.177 75.35 Z  M 438.51 58.493 L 450.848 58.493 L 450.848 75.35 L 448.573 75.35 L 448.573 60.512 L 440.497 60.512 L 440.272 64.679 L 440.272 64.679 Q 440.016 69.934 439.054 72.755 L 439.054 72.755 L 439.054 72.755 Q 438.093 75.575 435.625 75.575 L 435.625 75.575 L 435.625 75.575 Q 434.952 75.575 433.991 75.318 L 433.991 75.318 L 434.151 73.364 L 434.151 73.364 Q 434.728 73.492 434.952 73.492 L 434.952 73.492 L 434.952 73.492 Q 436.266 73.492 436.939 72.274 L 436.939 72.274 L 436.939 72.274 Q 437.612 71.056 437.837 69.261 L 437.837 69.261 L 437.837 69.261 Q 438.061 67.467 438.221 64.518 L 438.221 64.518 L 438.51 58.493 Z  M 457.898 75.35 L 457.898 58.493 L 460.174 58.493 L 460.174 71.889 L 471.422 58.493 L 473.441 58.493 L 473.441 75.35 L 471.166 75.35 L 471.166 61.955 L 459.949 75.35 L 457.898 75.35 Z  M 495.105 66.922 L 495.073 67.627 L 480.973 67.627 L 480.973 67.627 Q 481.165 70.255 482.992 71.873 L 482.992 71.873 L 482.992 71.873 Q 484.818 73.492 487.606 73.492 L 487.606 73.492 L 487.606 73.492 Q 489.177 73.492 490.491 72.931 L 490.491 72.931 L 490.491 72.931 Q 491.805 72.37 492.766 71.28 L 492.766 71.28 L 494.048 72.755 L 494.048 72.755 Q 492.926 74.101 491.244 74.806 L 491.244 74.806 L 491.244 74.806 Q 489.561 75.511 487.542 75.511 L 487.542 75.511 L 487.542 75.511 Q 484.946 75.511 482.943 74.405 L 482.943 74.405 L 482.943 74.405 Q 480.94 73.299 479.819 71.345 L 479.819 71.345 L 479.819 71.345 Q 478.697 69.39 478.697 66.922 L 478.697 66.922 L 478.697 66.922 Q 478.697 64.454 479.771 62.499 L 479.771 62.499 L 479.771 62.499 Q 480.844 60.545 482.719 59.455 L 482.719 59.455 L 482.719 59.455 Q 484.594 58.365 486.933 58.365 L 486.933 58.365 L 486.933 58.365 Q 489.273 58.365 491.132 59.455 L 491.132 59.455 L 491.132 59.455 Q 492.99 60.545 494.048 62.483 L 494.048 62.483 L 494.048 62.483 Q 495.105 64.422 495.105 66.922 L 495.105 66.922 Z  M 486.933 60.32 L 486.933 60.32 Q 484.498 60.32 482.847 61.875 L 482.847 61.875 L 482.847 61.875 Q 481.197 63.429 480.973 65.929 L 480.973 65.929 L 492.926 65.929 L 492.926 65.929 Q 492.702 63.429 491.051 61.875 L 491.051 61.875 L 491.051 61.875 Q 489.401 60.32 486.933 60.32 L 486.933 60.32 Z  M 499.56 75.35 L 499.56 58.493 L 501.835 58.493 L 501.835 65.961 L 512.443 65.961 L 512.443 58.493 L 514.718 58.493 L 514.718 75.35 L 512.443 75.35 L 512.443 67.915 L 501.835 67.915 L 501.835 75.35 L 499.56 75.35 Z  M 533.851 58.493 L 533.851 60.512 L 527.473 60.512 L 527.473 75.35 L 525.198 75.35 L 525.198 60.512 L 518.821 60.512 L 518.821 58.493 L 533.851 58.493 Z  M 536.415 75.35 L 536.415 58.493 L 538.69 58.493 L 538.69 71.889 L 549.939 58.493 L 551.958 58.493 L 551.958 75.35 L 549.682 75.35 L 549.682 61.955 L 538.466 75.35 L 536.415 75.35 Z  M 212.896 75.511 L 212.896 75.511 Q 210.46 75.511 208.505 74.405 L 208.505 74.405 L 208.505 74.405 Q 206.55 73.299 205.429 71.345 L 205.429 71.345 L 205.429 71.345 Q 204.307 69.39 204.307 66.922 L 204.307 66.922 L 204.307 66.922 Q 204.307 64.454 205.429 62.499 L 205.429 62.499 L 205.429 62.499 Q 206.55 60.545 208.505 59.455 L 208.505 59.455 L 208.505 59.455 Q 210.46 58.365 212.896 58.365 L 212.896 58.365 L 212.896 58.365 Q 215.331 58.365 217.286 59.455 L 217.286 59.455 L 217.286 59.455 Q 219.241 60.545 220.347 62.499 L 220.347 62.499 L 220.347 62.499 Q 221.452 64.454 221.452 66.922 L 221.452 66.922 L 221.452 66.922 Q 221.452 69.39 220.347 71.345 L 220.347 71.345 L 220.347 71.345 Q 219.241 73.299 217.286 74.405 L 217.286 74.405 L 217.286 74.405 Q 215.331 75.511 212.896 75.511 L 212.896 75.511 Z  M 212.896 73.492 L 212.896 73.492 Q 214.69 73.492 216.116 72.674 L 216.116 72.674 L 216.116 72.674 Q 217.543 71.857 218.344 70.351 L 218.344 70.351 L 218.344 70.351 Q 219.145 68.845 219.145 66.922 L 219.145 66.922 L 219.145 66.922 Q 219.145 64.999 218.344 63.493 L 218.344 63.493 L 218.344 63.493 Q 217.543 61.987 216.116 61.169 L 216.116 61.169 L 216.116 61.169 Q 214.69 60.352 212.896 60.352 L 212.896 60.352 L 212.896 60.352 Q 211.101 60.352 209.675 61.169 L 209.675 61.169 L 209.675 61.169 Q 208.249 61.987 207.432 63.493 L 207.432 63.493 L 207.432 63.493 Q 206.614 64.999 206.614 66.922 L 206.614 66.922 L 206.614 66.922 Q 206.614 68.845 207.432 70.351 L 207.432 70.351 L 207.432 70.351 Q 208.249 71.857 209.675 72.674 L 209.675 72.674 L 209.675 72.674 Q 211.101 73.492 212.896 73.492 L 212.896 73.492 Z  M 234.944 58.91 L 234.944 58.91 Q 237.284 58.91 239.126 59.952 L 239.126 59.952 L 239.126 59.952 Q 240.969 60.993 241.995 62.868 L 241.995 62.868 L 241.995 62.868 Q 243.02 64.743 243.02 67.146 L 243.02 67.146 L 243.02 67.146 Q 243.02 69.614 241.947 71.521 L 241.947 71.521 L 241.947 71.521 Q 240.873 73.428 238.95 74.485 L 238.95 74.485 L 238.95 74.485 Q 237.027 75.543 234.528 75.543 L 234.528 75.543 L 234.528 75.543 Q 230.329 75.543 228.022 72.594 L 228.022 72.594 L 228.022 72.594 Q 225.715 69.646 225.715 64.454 L 225.715 64.454 L 225.715 64.454 Q 225.715 59.038 227.782 56.154 L 227.782 56.154 L 227.782 56.154 Q 229.849 53.27 234.239 52.244 L 234.239 52.244 L 241.802 50.514 L 242.187 52.597 L 235.072 54.231 L 235.072 54.231 Q 231.451 55.032 229.753 57.067 L 229.753 57.067 L 229.753 57.067 Q 228.054 59.102 227.894 63.076 L 227.894 63.076 L 227.894 63.076 Q 228.919 61.121 230.746 60.016 L 230.746 60.016 L 230.746 60.016 Q 232.573 58.91 234.944 58.91 L 234.944 58.91 Z  M 234.592 73.652 L 234.592 73.652 Q 236.354 73.652 237.748 72.835 L 237.748 72.835 L 237.748 72.835 Q 239.142 72.018 239.928 70.543 L 239.928 70.543 L 239.928 70.543 Q 240.713 69.069 240.713 67.21 L 240.713 67.21 L 240.713 67.21 Q 240.713 65.352 239.944 63.942 L 239.944 63.942 L 239.944 63.942 Q 239.175 62.531 237.78 61.746 L 237.78 61.746 L 237.78 61.746 Q 236.386 60.961 234.592 60.961 L 234.592 60.961 L 234.592 60.961 Q 232.797 60.961 231.403 61.746 L 231.403 61.746 L 231.403 61.746 Q 230.009 62.531 229.224 63.942 L 229.224 63.942 L 229.224 63.942 Q 228.439 65.352 228.439 67.21 L 228.439 67.21 L 228.439 67.21 Q 228.439 69.069 229.224 70.543 L 229.224 70.543 L 229.224 70.543 Q 230.009 72.018 231.419 72.835 L 231.419 72.835 L 231.419 72.835 Q 232.829 73.652 234.592 73.652 L 234.592 73.652 Z  M 254.653 75.511 L 254.653 75.511 Q 252.154 75.511 250.183 74.421 L 250.183 74.421 L 250.183 74.421 Q 248.212 73.331 247.09 71.361 L 247.09 71.361 L 247.09 71.361 Q 245.969 69.39 245.969 66.922 L 245.969 66.922 L 245.969 66.922 Q 245.969 64.454 247.09 62.499 L 247.09 62.499 L 247.09 62.499 Q 248.212 60.545 250.183 59.455 L 250.183 59.455 L 250.183 59.455 Q 252.154 58.365 254.653 58.365 L 254.653 58.365 L 254.653 58.365 Q 256.833 58.365 258.547 59.215 L 258.547 59.215 L 258.547 59.215 Q 260.262 60.064 261.255 61.698 L 261.255 61.698 L 259.557 62.852 L 259.557 62.852 Q 258.724 61.602 257.442 60.977 L 257.442 60.977 L 257.442 60.977 Q 256.16 60.352 254.653 60.352 L 254.653 60.352 L 254.653 60.352 Q 252.827 60.352 251.369 61.169 L 251.369 61.169 L 251.369 61.169 Q 249.91 61.987 249.093 63.493 L 249.093 63.493 L 249.093 63.493 Q 248.276 64.999 248.276 66.922 L 248.276 66.922 L 248.276 66.922 Q 248.276 68.877 249.093 70.367 L 249.093 70.367 L 249.093 70.367 Q 249.91 71.857 251.369 72.674 L 251.369 72.674 L 251.369 72.674 Q 252.827 73.492 254.653 73.492 L 254.653 73.492 L 254.653 73.492 Q 256.16 73.492 257.442 72.883 L 257.442 72.883 L 257.442 72.883 Q 258.724 72.274 259.557 71.024 L 259.557 71.024 L 261.255 72.178 L 261.255 72.178 Q 260.262 73.812 258.531 74.661 L 258.531 74.661 L 258.531 74.661 Q 256.801 75.511 254.653 75.511 L 254.653 75.511 Z  M 266.671 58.493 L 279.009 58.493 L 279.009 75.35 L 276.734 75.35 L 276.734 60.512 L 268.658 60.512 L 268.434 64.679 L 268.434 64.679 Q 268.177 69.934 267.216 72.755 L 267.216 72.755 L 267.216 72.755 Q 266.255 75.575 263.787 75.575 L 263.787 75.575 L 263.787 75.575 Q 263.114 75.575 262.153 75.318 L 262.153 75.318 L 262.313 73.364 L 262.313 73.364 Q 262.89 73.492 263.114 73.492 L 263.114 73.492 L 263.114 73.492 Q 264.428 73.492 265.101 72.274 L 265.101 72.274 L 265.101 72.274 Q 265.774 71.056 265.998 69.261 L 265.998 69.261 L 265.998 69.261 Q 266.223 67.467 266.383 64.518 L 266.383 64.518 L 266.671 58.493 Z  M 298.142 58.493 L 300.385 58.493 L 291.957 77.369 L 291.957 77.369 Q 290.931 79.741 289.585 80.734 L 289.585 80.734 L 289.585 80.734 Q 288.239 81.728 286.348 81.728 L 286.348 81.728 L 286.348 81.728 Q 285.131 81.728 284.073 81.343 L 284.073 81.343 L 284.073 81.343 Q 283.015 80.959 282.246 80.19 L 282.246 80.19 L 283.304 78.491 L 283.304 78.491 Q 284.586 79.773 286.38 79.773 L 286.38 79.773 L 286.38 79.773 Q 287.534 79.773 288.351 79.132 L 288.351 79.132 L 288.351 79.132 Q 289.169 78.491 289.874 76.953 L 289.874 76.953 L 290.611 75.318 L 283.08 58.493 L 285.451 58.493 L 291.796 72.819 L 298.142 58.493 Z  M 322.049 75.35 L 316.858 67.851 L 313.204 67.851 L 313.204 75.35 L 310.929 75.35 L 310.929 67.851 L 307.275 67.851 L 302.116 75.35 L 299.392 75.35 L 305.449 66.666 L 299.872 58.493 L 302.34 58.493 L 307.275 65.896 L 310.929 65.896 L 310.929 58.493 L 313.204 58.493 L 313.204 65.896 L 316.858 65.896 L 321.825 58.493 L 324.293 58.493 L 318.716 66.698 L 324.773 75.35 L 322.049 75.35 Z  M 340.06 66.634 L 340.06 66.634 Q 343.489 67.435 343.489 70.768 L 343.489 70.768 L 343.489 70.768 Q 343.489 72.979 341.854 74.165 L 341.854 74.165 L 341.854 74.165 Q 340.22 75.35 336.983 75.35 L 336.983 75.35 L 329.324 75.35 L 329.324 58.493 L 336.759 58.493 L 336.759 58.493 Q 339.643 58.493 341.278 59.615 L 341.278 59.615 L 341.278 59.615 Q 342.912 60.737 342.912 62.82 L 342.912 62.82 L 342.912 62.82 Q 342.912 64.198 342.159 65.175 L 342.159 65.175 L 342.159 65.175 Q 341.406 66.153 340.06 66.634 L 340.06 66.634 Z  M 331.535 60.288 L 331.535 65.993 L 336.599 65.993 L 336.599 65.993 Q 338.554 65.993 339.595 65.256 L 339.595 65.256 L 339.595 65.256 Q 340.637 64.518 340.637 63.108 L 340.637 63.108 L 340.637 63.108 Q 340.637 61.698 339.595 60.993 L 339.595 60.993 L 339.595 60.993 Q 338.554 60.288 336.599 60.288 L 336.599 60.288 L 331.535 60.288 Z  M 336.887 73.556 L 336.887 73.556 Q 339.066 73.556 340.156 72.851 L 340.156 72.851 L 340.156 72.851 Q 341.246 72.146 341.246 70.64 L 341.246 70.64 L 341.246 70.64 Q 341.246 69.133 340.252 68.412 L 340.252 68.412 L 340.252 68.412 Q 339.259 67.691 337.112 67.691 L 337.112 67.691 L 331.535 67.691 L 331.535 73.556 L 336.887 73.556 Z  M 354.353 58.365 L 354.353 58.365 Q 357.654 58.365 359.417 60.016 L 359.417 60.016 L 359.417 60.016 Q 361.179 61.666 361.179 64.903 L 361.179 64.903 L 361.179 75.35 L 359 75.35 L 359 72.723 L 359 72.723 Q 358.231 74.037 356.741 74.774 L 356.741 74.774 L 356.741 74.774 Q 355.25 75.511 353.199 75.511 L 353.199 75.511 L 353.199 75.511 Q 350.379 75.511 348.713 74.165 L 348.713 74.165 L 348.713 74.165 Q 347.046 72.819 347.046 70.607 L 347.046 70.607 L 347.046 70.607 Q 347.046 68.46 348.601 67.146 L 348.601 67.146 L 348.601 67.146 Q 350.155 65.832 353.552 65.832 L 353.552 65.832 L 358.904 65.832 L 358.904 64.807 L 358.904 64.807 Q 358.904 62.628 357.686 61.49 L 357.686 61.49 L 357.686 61.49 Q 356.468 60.352 354.129 60.352 L 354.129 60.352 L 354.129 60.352 Q 352.526 60.352 351.052 60.881 L 351.052 60.881 L 351.052 60.881 Q 349.578 61.41 348.52 62.339 L 348.52 62.339 L 347.495 60.641 L 347.495 60.641 Q 348.777 59.551 350.571 58.958 L 350.571 58.958 L 350.571 58.958 Q 352.366 58.365 354.353 58.365 L 354.353 58.365 Z  M 353.552 73.716 L 353.552 73.716 Q 355.475 73.716 356.853 72.835 L 356.853 72.835 L 356.853 72.835 Q 358.231 71.953 358.904 70.287 L 358.904 70.287 L 358.904 67.531 L 353.616 67.531 L 353.616 67.531 Q 349.29 67.531 349.29 70.543 L 349.29 70.543 L 349.29 70.543 Q 349.29 72.018 350.411 72.867 L 350.411 72.867 L 350.411 72.867 Q 351.533 73.716 353.552 73.716 L 353.552 73.716 Z  M 367.781 75.35 L 367.781 58.493 L 370.056 58.493 L 370.056 65.961 L 380.664 65.961 L 380.664 58.493 L 382.939 58.493 L 382.939 75.35 L 380.664 75.35 L 380.664 67.915 L 370.056 67.915 L 370.056 75.35 L 367.781 75.35 Z  M 404.988 66.922 L 404.956 67.627 L 390.855 67.627 L 390.855 67.627 Q 391.047 70.255 392.874 71.873 L 392.874 71.873 L 392.874 71.873 Q 394.701 73.492 397.489 73.492 L 397.489 73.492 L 397.489 73.492 Q 399.059 73.492 400.373 72.931 L 400.373 72.931 L 400.373 72.931 Q 401.687 72.37 402.649 71.28 L 402.649 71.28 L 403.93 72.755 L 403.93 72.755 Q 402.809 74.101 401.126 74.806 L 401.126 74.806 L 401.126 74.806 Q 399.444 75.511 397.425 75.511 L 397.425 75.511 L 397.425 75.511 Q 394.829 75.511 392.826 74.405 L 392.826 74.405 L 392.826 74.405 Q 390.823 73.299 389.701 71.345 L 389.701 71.345 L 389.701 71.345 Q 388.58 69.39 388.58 66.922 L 388.58 66.922 L 388.58 66.922 Q 388.58 64.454 389.653 62.499 L 389.653 62.499 L 389.653 62.499 Q 390.727 60.545 392.602 59.455 L 392.602 59.455 L 392.602 59.455 Q 394.477 58.365 396.816 58.365 L 396.816 58.365 L 396.816 58.365 Q 399.155 58.365 401.014 59.455 L 401.014 59.455 L 401.014 59.455 Q 402.873 60.545 403.93 62.483 L 403.93 62.483 L 403.93 62.483 Q 404.988 64.422 404.988 66.922 L 404.988 66.922 Z  M 396.816 60.32 L 396.816 60.32 Q 394.38 60.32 392.73 61.875 L 392.73 61.875 L 392.73 61.875 Q 391.08 63.429 390.855 65.929 L 390.855 65.929 L 402.809 65.929 L 402.809 65.929 Q 402.584 63.429 400.934 61.875 L 400.934 61.875 L 400.934 61.875 Q 399.284 60.32 396.816 60.32 L 396.816 60.32 Z  M 46.057 75.543 L 46.057 75.543 Q 42.724 75.543 40.048 74.069 L 40.048 74.069 L 40.048 74.069 Q 37.372 72.594 35.85 69.983 L 35.85 69.983 L 35.85 69.983 Q 34.327 67.371 34.327 64.134 L 34.327 64.134 L 34.327 64.134 Q 34.327 60.897 35.85 58.285 L 35.85 58.285 L 35.85 58.285 Q 37.372 55.673 40.064 54.199 L 40.064 54.199 L 40.064 54.199 Q 42.756 52.725 46.089 52.725 L 46.089 52.725 L 46.089 52.725 Q 48.588 52.725 50.704 53.558 L 50.704 53.558 L 50.704 53.558 Q 52.819 54.391 54.293 55.994 L 54.293 55.994 L 52.787 57.5 L 52.787 57.5 Q 50.159 54.84 46.153 54.84 L 46.153 54.84 L 46.153 54.84 Q 43.493 54.84 41.314 56.058 L 41.314 56.058 L 41.314 56.058 Q 39.134 57.276 37.901 59.391 L 37.901 59.391 L 37.901 59.391 Q 36.667 61.506 36.667 64.134 L 36.667 64.134 L 36.667 64.134 Q 36.667 66.762 37.901 68.877 L 37.901 68.877 L 37.901 68.877 Q 39.134 70.992 41.314 72.21 L 41.314 72.21 L 41.314 72.21 Q 43.493 73.428 46.153 73.428 L 46.153 73.428 L 46.153 73.428 Q 50.191 73.428 52.787 70.736 L 52.787 70.736 L 54.293 72.242 L 54.293 72.242 Q 52.819 73.844 50.687 74.694 L 50.687 74.694 L 50.687 74.694 Q 48.556 75.543 46.057 75.543 L 46.057 75.543 Z  M 57.978 58.493 L 70.317 58.493 L 70.317 75.35 L 68.041 75.35 L 68.041 60.512 L 59.965 60.512 L 59.741 64.679 L 59.741 64.679 Q 59.485 69.934 58.523 72.755 L 58.523 72.755 L 58.523 72.755 Q 57.562 75.575 55.094 75.575 L 55.094 75.575 L 55.094 75.575 Q 54.421 75.575 53.46 75.318 L 53.46 75.318 L 53.62 73.364 L 53.62 73.364 Q 54.197 73.492 54.421 73.492 L 54.421 73.492 L 54.421 73.492 Q 55.735 73.492 56.408 72.274 L 56.408 72.274 L 56.408 72.274 Q 57.081 71.056 57.305 69.261 L 57.305 69.261 L 57.305 69.261 Q 57.53 67.467 57.69 64.518 L 57.69 64.518 L 57.978 58.493 Z  M 89.449 58.493 L 91.692 58.493 L 83.264 77.369 L 83.264 77.369 Q 82.238 79.741 80.892 80.734 L 80.892 80.734 L 80.892 80.734 Q 79.546 81.728 77.655 81.728 L 77.655 81.728 L 77.655 81.728 Q 76.438 81.728 75.38 81.343 L 75.38 81.343 L 75.38 81.343 Q 74.322 80.959 73.553 80.19 L 73.553 80.19 L 74.611 78.491 L 74.611 78.491 Q 75.893 79.773 77.687 79.773 L 77.687 79.773 L 77.687 79.773 Q 78.841 79.773 79.658 79.132 L 79.658 79.132 L 79.658 79.132 Q 80.476 78.491 81.181 76.953 L 81.181 76.953 L 81.918 75.318 L 74.387 58.493 L 76.758 58.493 L 83.103 72.819 L 89.449 58.493 Z  M 113.356 75.35 L 108.165 67.851 L 104.511 67.851 L 104.511 75.35 L 102.236 75.35 L 102.236 67.851 L 98.582 67.851 L 93.423 75.35 L 90.699 75.35 L 96.756 66.666 L 91.179 58.493 L 93.647 58.493 L 98.582 65.896 L 102.236 65.896 L 102.236 58.493 L 104.511 58.493 L 104.511 65.896 L 108.165 65.896 L 113.132 58.493 L 115.6 58.493 L 110.023 66.698 L 116.08 75.35 L 113.356 75.35 Z  M 120.631 75.35 L 120.631 58.493 L 122.906 58.493 L 122.906 71.889 L 134.155 58.493 L 136.174 58.493 L 136.174 75.35 L 133.899 75.35 L 133.899 61.955 L 122.682 75.35 L 120.631 75.35 Z  M 154.922 58.493 L 154.922 60.512 L 148.544 60.512 L 148.544 75.35 L 146.269 75.35 L 146.269 60.512 L 139.892 60.512 L 139.892 58.493 L 154.922 58.493 Z  M 172.259 66.922 L 172.227 67.627 L 158.127 67.627 L 158.127 67.627 Q 158.319 70.255 160.146 71.873 L 160.146 71.873 L 160.146 71.873 Q 161.972 73.492 164.76 73.492 L 164.76 73.492 L 164.76 73.492 Q 166.331 73.492 167.645 72.931 L 167.645 72.931 L 167.645 72.931 Q 168.959 72.37 169.92 71.28 L 169.92 71.28 L 171.202 72.755 L 171.202 72.755 Q 170.08 74.101 168.398 74.806 L 168.398 74.806 L 168.398 74.806 Q 166.715 75.511 164.696 75.511 L 164.696 75.511 L 164.696 75.511 Q 162.1 75.511 160.098 74.405 L 160.098 74.405 L 160.098 74.405 Q 158.095 73.299 156.973 71.345 L 156.973 71.345 L 156.973 71.345 Q 155.851 69.39 155.851 66.922 L 155.851 66.922 L 155.851 66.922 Q 155.851 64.454 156.925 62.499 L 156.925 62.499 L 156.925 62.499 Q 157.998 60.545 159.873 59.455 L 159.873 59.455 L 159.873 59.455 Q 161.748 58.365 164.087 58.365 L 164.087 58.365 L 164.087 58.365 Q 166.427 58.365 168.286 59.455 L 168.286 59.455 L 168.286 59.455 Q 170.144 60.545 171.202 62.483 L 171.202 62.483 L 171.202 62.483 Q 172.259 64.422 172.259 66.922 L 172.259 66.922 Z  M 164.087 60.32 L 164.087 60.32 Q 161.652 60.32 160.001 61.875 L 160.001 61.875 L 160.001 61.875 Q 158.351 63.429 158.127 65.929 L 158.127 65.929 L 170.08 65.929 L 170.08 65.929 Q 169.856 63.429 168.206 61.875 L 168.206 61.875 L 168.206 61.875 Q 166.555 60.32 164.087 60.32 L 164.087 60.32 Z  M 178.156 58.493 L 190.494 58.493 L 190.494 75.35 L 188.219 75.35 L 188.219 60.512 L 180.143 60.512 L 179.919 64.679 L 179.919 64.679 Q 179.662 69.934 178.701 72.755 L 178.701 72.755 L 178.701 72.755 Q 177.74 75.575 175.272 75.575 L 175.272 75.575 L 175.272 75.575 Q 174.599 75.575 173.637 75.318 L 173.637 75.318 L 173.798 73.364 L 173.798 73.364 Q 174.375 73.492 174.599 73.492 L 174.599 73.492 L 174.599 73.492 Q 175.913 73.492 176.586 72.274 L 176.586 72.274 L 176.586 72.274 Q 177.259 71.056 177.483 69.261 L 177.483 69.261 L 177.483 69.261 Q 177.708 67.467 177.868 64.518 L 177.868 64.518 L 178.156 58.493 Z " fill="rgb(16,55,72)"/></g></g></svg>