<?xml version="1.0" encoding="UTF-8" standalone="no"?><!-- Generator: Gravit.io --><svg xmlns="http://www.w3.org/2000/svg" xmlns:xlink="http://www.w3.org/1999/xlink" style="isolation:isolate" viewBox="0 0 595.276 841.89" width="595.276pt" height="841.89pt"><defs><clipPath id="_clipPath_TLaMwOmPp0dWqQyVYlghezpr9QwsbWMl"><rect width="595.276" height="841.89"/></clipPath></defs><g clip-path="url(#_clipPath_TLaMwOmPp0dWqQyVYlghezpr9QwsbWMl)"><path d=" M 447.025 144.548 C 446.028 146.996 444.499 149.196 442.557 151.009 C 441.387 152.081 440.072 152.958 438.626 153.592 C 436.4 154.583 433.898 154.81 431.526 154.242 C 431.347 159.408 430.568 164.542 429.219 169.529 C 428.212 173.282 426.815 176.905 425.044 180.349 C 423.289 183.745 421.129 186.929 418.627 189.805 C 415.995 192.81 413.022 195.491 409.74 197.765 C 407.79 199.146 405.678 200.267 403.436 201.128 C 400.025 202.444 396.499 203.484 392.909 204.215 C 390.618 204.686 388.311 205.06 385.988 205.352 L 385.988 205.352 L 385.988 205.352 C 387.402 204.345 388.799 203.289 390.131 202.168 C 390.846 201.583 391.528 200.966 392.21 200.348 C 392.828 199.78 393.413 199.211 393.997 198.61 C 394.777 197.814 395.525 196.969 396.239 196.092 C 396.857 195.345 397.442 194.548 397.978 193.72 C 399.229 191.803 400.155 189.675 400.691 187.433 C 401.194 185.353 401.422 183.225 401.406 181.08 C 401.389 179.472 401.308 177.847 401.13 176.239 C 400.951 174.679 400.756 173.12 400.528 171.576 C 400.317 170.098 400.122 168.62 399.96 167.141 C 399.814 165.777 399.732 164.379 399.716 162.998 C 399.7 161.309 399.911 159.636 400.317 158.011 C 400.756 156.419 401.471 154.924 402.445 153.608 C 403.274 152.487 404.2 151.447 405.24 150.521 C 406.605 149.303 408.083 148.182 409.626 147.191 C 411.137 146.232 412.713 145.371 414.321 144.592 C 417.099 143.276 419.959 142.122 422.867 141.147 C 422.802 139.214 423.013 137.297 423.484 135.429 C 423.955 133.528 424.703 131.708 425.71 130.035 C 426.603 128.492 427.741 127.111 429.073 125.909 C 430 125.07 431.026 124.361 432.132 123.781 C 435.917 131.528 440.951 138.557 447.025 144.548 Z  M 452.028 149.132 C 450.741 151.603 449.031 153.843 446.976 155.769 C 445.303 157.329 443.353 158.612 441.258 159.538 C 440.055 160.074 438.821 160.464 437.537 160.708 C 437.115 164.266 436.432 167.775 435.506 171.219 C 434.369 175.411 432.81 179.472 430.811 183.339 C 428.813 187.189 426.376 190.796 423.517 194.077 C 420.544 197.473 417.165 200.511 413.477 203.094 C 411.088 204.767 408.505 206.148 405.776 207.188 C 402.023 208.634 398.156 209.771 394.209 210.583 C 391.138 211.201 388.051 211.688 384.948 212.029 C 376.208 212.972 367.386 213.232 358.597 212.793 C 366.135 209.722 373.349 205.937 380.14 201.486 C 382.17 200.153 384.12 198.724 385.972 197.164 C 386.605 196.644 387.223 196.108 387.824 195.556 C 388.328 195.085 388.848 194.597 389.335 194.094 C 389.985 193.411 390.602 192.713 391.203 191.998 C 391.674 191.413 392.113 190.796 392.535 190.178 C 393.38 188.862 394.014 187.433 394.387 185.906 C 394.745 184.346 394.924 182.738 394.907 181.129 C 394.907 179.732 394.826 178.351 394.664 176.954 C 394.501 175.476 394.306 173.981 394.095 172.502 C 393.868 170.959 393.673 169.416 393.51 167.856 C 393.331 166.264 393.234 164.672 393.218 163.063 C 393.201 160.789 393.478 158.531 394.046 156.338 C 394.68 153.966 395.752 151.74 397.214 149.758 C 398.303 148.279 399.537 146.915 400.902 145.68 C 402.543 144.218 404.281 142.886 406.15 141.716 C 407.872 140.611 409.675 139.62 411.527 138.727 C 413.2 137.931 414.922 137.183 416.661 136.501 L 416.661 136.501 L 416.661 136.501 C 416.791 135.607 416.97 134.714 417.181 133.837 C 417.814 131.335 418.805 128.947 420.121 126.721 C 421.356 124.625 422.899 122.741 424.703 121.1 C 426.156 119.784 427.794 118.676 429.57 117.817 C 426.276 109.27 424.474 99.987 424.474 90.286 C 424.474 77.661 427.526 65.743 432.933 55.231 L 432.933 55.231 Q 453.346 39.43 459.08 49.162 Q 467.812 63.986 494.821 67.033 L 490.886 39.414 Q 503.779 58.38 513.888 65.408 Q 525.491 73.474 551.416 78.405 Q 531.547 57.127 541.935 47.537 C 543.72 45.89 553.241 54.302 555.525 54.036 Q 563.451 59.126 570.757 57.511 C 575.46 67.453 578.091 78.564 578.091 90.286 C 578.091 132.677 543.675 167.094 501.282 167.094 C 482.528 167.094 465.335 160.358 452.028 149.132 Z  M 593.487 64.076 C 603.158 68.85 609.819 78.817 609.819 90.326 C 609.819 103.944 600.496 115.402 587.887 118.65 L 587.887 141.453 C 587.887 141.671 587.859 141.883 587.799 142.082 L 587.799 142.082 C 587.689 142.691 587.349 143.255 586.82 143.664 L 561.323 163.322 C 561.008 163.564 560.657 163.728 560.287 163.782 C 560.182 163.842 560.07 163.861 559.955 163.868 C 559.869 163.884 559.781 163.89 559.694 163.886 C 559.669 163.89 559.643 163.892 559.619 163.892 L 554.089 163.892 C 552.766 163.892 551.692 162.818 551.692 161.494 L 551.692 161.259 C 551.692 159.936 552.766 158.862 554.089 158.862 L 554.089 158.862 L 554.089 158.862 L 554.089 158.862 L 558.121 158.862 L 582.287 140.231 L 582.287 119.522 L 582.287 119.522 C 581.915 119.545 581.543 119.558 581.168 119.566 L 581.168 119.566 L 581.168 119.566 L 581.168 65.151 C 577.808 50.187 570.265 36.337 559.248 25.321 C 543.951 10.023 523.185 1.421 501.558 1.421 C 479.933 1.421 459.167 10.023 443.868 25.321 C 433.531 35.66 426.251 48.494 422.617 62.406 L 422.617 119.545 L 422.617 119.545 L 422.617 119.545 L 422.617 119.545 L 422.617 119.545 L 422.617 119.545 C 422.415 119.564 422.212 119.566 422.007 119.566 C 405.857 119.566 392.747 106.455 392.747 90.305 C 392.747 78.556 399.687 68.415 409.691 63.765 C 413.389 46.046 422.175 29.629 435.144 16.658 C 452.778 -0.974 476.676 -10.866 501.558 -10.866 C 526.441 -10.866 550.341 -0.974 567.912 16.658 C 581.004 29.704 589.827 46.237 593.487 64.076 L 593.487 64.076 Z  M 472.042 128.805 C 472.356 144.674 485.338 157.455 501.282 157.455 C 517.228 157.455 530.21 144.674 530.522 128.805 L 472.042 128.805 L 472.042 128.805 L 472.042 128.805 Z " fill-rule="evenodd" fill="rgb(0,0,0)" fill-opacity="0.2"/></g></svg>