<?xml version="1.0" encoding="UTF-8" standalone="no"?><!-- Generator: Gravit.io --><svg xmlns="http://www.w3.org/2000/svg" xmlns:xlink="http://www.w3.org/1999/xlink" style="isolation:isolate" viewBox="0 0 500 500" width="500pt" height="500pt"><defs><clipPath id="_clipPath_LOGvQxm7ct8EZ3nLilwmj3WTitGPPXMi"><rect width="500" height="500"/></clipPath></defs><g clip-path="url(#_clipPath_LOGvQxm7ct8EZ3nLilwmj3WTitGPPXMi)"><path d="M 44 0 L 456 0 C 480.284 0 500 19.716 500 44 L 500 456 C 500 480.284 480.284 500 456 500 L 44 500 C 19.716 500 0 480.284 0 456 L 0 44 C 0 19.716 19.716 0 44 0 Z" style="stroke:none;fill:#103748;stroke-miterlimit:10;"/><g><path d="M 53.636 10 L 446.364 10 C 470.447 10 490 29.553 490 53.636 L 490 446.364 C 490 470.447 470.447 490 446.364 490 L 53.636 490 C 29.553 490 10 470.447 10 446.364 L 10 53.636 C 10 29.553 29.553 10 53.636 10 Z" style="stroke:none;fill:#103748;stroke-miterlimit:10;"/><path d="M 53.636 10 L 446.364 10 C 470.447 10 490 29.553 490 53.636 L 490 446.364 C 490 470.447 470.447 490 446.364 490 L 53.636 490 C 29.553 490 10 470.447 10 446.364 L 10 53.636 C 10 29.553 29.553 10 53.636 10 Z" style="stroke:none;fill:#103748;stroke-miterlimit:10;"/><clipPath id="_clipPath_L0fs6C2yJoKwnhc42XMtfddUVf3Gdnmv"><path d="M 53.636 10 L 446.364 10 C 470.447 10 490 29.553 490 53.636 L 490 446.364 C 490 470.447 470.447 490 446.364 490 L 53.636 490 C 29.553 490 10 470.447 10 446.364 L 10 53.636 C 10 29.553 29.553 10 53.636 10 Z" style="stroke:none;fill:#103748;stroke-miterlimit:10;"/></clipPath><g clip-path="url(#_clipPath_L0fs6C2yJoKwnhc42XMtfddUVf3Gdnmv)"><rect x="10" y="385.6" width="480" height="104.4" transform="matrix(1,0,0,1,0,0)" fill="rgb(86,142,166)"/><path d=" M 145.227 414.217 L 145.227 453.633 L 165.019 453.633 L 165.019 414.217 L 172.518 414.217 L 172.518 459.966 L 110.478 459.966 L 110.478 414.217 L 117.978 414.217 L 117.978 453.633 L 137.686 453.633 L 137.686 414.217 L 145.227 414.217 Z  M 208.943 460.799 L 208.943 460.799 L 208.943 460.799 Q 199.734 460.799 194.776 454.175 L 194.776 454.175 L 194.276 454.175 L 194.443 455.883 L 194.443 455.883 Q 194.776 459.133 194.776 461.674 L 194.776 461.674 L 194.776 480.466 L 187.276 480.466 L 187.276 414.217 L 193.443 414.217 L 194.443 420.467 L 194.776 420.467 L 194.776 420.467 Q 197.443 416.717 200.943 415.051 L 200.943 415.051 L 200.943 415.051 Q 204.443 413.384 209.026 413.384 L 209.026 413.384 L 209.026 413.384 Q 217.942 413.384 222.88 419.571 L 222.88 419.571 L 222.88 419.571 Q 227.817 425.759 227.817 437.008 L 227.817 437.008 L 227.817 437.008 Q 227.817 448.216 222.859 454.508 L 222.859 454.508 L 222.859 454.508 Q 217.901 460.799 208.943 460.799 Z  M 207.693 419.675 L 207.693 419.675 L 207.693 419.675 Q 200.901 419.675 197.88 423.509 L 197.88 423.509 L 197.88 423.509 Q 194.86 427.342 194.776 435.55 L 194.776 435.55 L 194.776 437.008 L 194.776 437.008 Q 194.776 446.3 197.86 450.446 L 197.86 450.446 L 197.86 450.446 Q 200.943 454.591 207.859 454.591 L 207.859 454.591 L 207.859 454.591 Q 213.609 454.591 216.838 449.925 L 216.838 449.925 L 216.838 449.925 Q 220.067 445.258 220.067 436.925 L 220.067 436.925 L 220.067 436.925 Q 220.067 428.55 216.838 424.113 L 216.838 424.113 L 216.838 424.113 Q 213.609 419.675 207.693 419.675 Z  M 238.475 414.217 L 245.558 414.217 L 245.558 442.133 L 245.225 450.216 L 245.058 452.55 L 269.558 414.217 L 278.766 414.217 L 278.766 459.966 L 271.766 459.966 L 271.766 433.008 L 271.891 427.217 L 272.1 421.717 L 247.767 459.966 L 238.475 459.966 L 238.475 414.217 Z  M 343.856 437.092 L 343.856 437.092 L 343.856 437.092 Q 343.856 447.3 337.877 453.55 L 337.877 453.55 L 337.877 453.55 Q 331.898 459.8 321.232 460.633 L 321.232 460.633 L 321.232 480.466 L 313.899 480.466 L 313.899 460.633 L 313.899 460.633 Q 303.399 459.758 297.357 453.508 L 297.357 453.508 L 297.357 453.508 Q 291.316 447.258 291.316 437.092 L 291.316 437.092 L 291.316 437.092 Q 291.316 426.675 297.316 420.53 L 297.316 420.53 L 297.316 420.53 Q 303.315 414.384 314.149 413.551 L 314.149 413.551 L 314.149 395.134 L 321.232 395.134 L 321.232 413.551 L 321.232 413.551 Q 331.773 414.592 337.815 420.842 L 337.815 420.842 L 337.815 420.842 Q 343.856 427.092 343.856 437.092 Z  M 299.149 437.092 L 299.149 437.092 L 299.149 437.092 Q 299.149 452.966 314.149 454.508 L 314.149 454.508 L 314.149 419.759 L 314.149 419.759 Q 306.315 420.55 302.732 424.946 L 302.732 424.946 L 302.732 424.946 Q 299.149 429.342 299.149 437.092 Z  M 336.106 437.092 L 336.106 437.092 L 336.106 437.092 Q 336.106 421.467 321.232 419.842 L 321.232 419.842 L 321.232 454.508 L 321.232 454.508 Q 336.106 452.883 336.106 437.092 Z  M 389.522 414.217 L 389.522 420.55 L 374.564 420.55 L 374.564 459.966 L 367.147 459.966 L 367.147 420.55 L 352.398 420.55 L 352.398 414.217 L 389.522 414.217 Z " fill="rgb(16,55,72)"/></g><path d=" M 258.998 355.995 L 233.376 298.956 L 114.418 298.956 L 88.796 355.995 L 65.31 355.995 L 162.916 142.48 L 185.183 142.48 L 282.79 355.995 L 258.998 355.995 Z  M 122.653 280.655 L 225.141 280.655 L 173.897 165.967 L 122.653 280.655 Z  M 369.721 194.334 L 369.721 194.334 Q 401.138 194.334 417.914 210.042 L 417.914 210.042 L 417.914 210.042 Q 434.691 225.751 434.691 256.558 L 434.691 256.558 L 434.691 355.995 L 413.949 355.995 L 413.949 330.983 L 413.949 330.983 Q 406.629 343.489 392.445 350.505 L 392.445 350.505 L 392.445 350.505 Q 378.261 357.52 358.74 357.52 L 358.74 357.52 L 358.74 357.52 Q 331.898 357.52 316.037 344.709 L 316.037 344.709 L 316.037 344.709 Q 300.176 331.898 300.176 310.852 L 300.176 310.852 L 300.176 310.852 Q 300.176 290.415 314.97 277.909 L 314.97 277.909 L 314.97 277.909 Q 329.763 265.404 362.095 265.404 L 362.095 265.404 L 413.034 265.404 L 413.034 255.643 L 413.034 255.643 Q 413.034 234.901 401.443 224.073 L 401.443 224.073 L 401.443 224.073 Q 389.852 213.245 367.585 213.245 L 367.585 213.245 L 367.585 213.245 Q 352.334 213.245 338.304 218.278 L 338.304 218.278 L 338.304 218.278 Q 324.273 223.311 314.207 232.156 L 314.207 232.156 L 304.446 215.99 L 304.446 215.99 Q 316.647 205.619 333.729 199.976 L 333.729 199.976 L 333.729 199.976 Q 350.81 194.334 369.721 194.334 L 369.721 194.334 Z  M 362.095 340.439 L 362.095 340.439 Q 380.397 340.439 393.512 332.051 L 393.512 332.051 L 393.512 332.051 Q 406.629 323.663 413.034 307.801 L 413.034 307.801 L 413.034 281.57 L 362.705 281.57 L 362.705 281.57 Q 321.527 281.57 321.527 310.242 L 321.527 310.242 L 321.527 310.242 Q 321.527 324.273 332.203 332.356 L 332.203 332.356 L 332.203 332.356 Q 342.879 340.439 362.095 340.439 L 362.095 340.439 Z " fill="rgb(86,142,166)"/></g></g></svg>