<?xml version="1.0" encoding="UTF-8" standalone="no"?><!-- Generator: Gravit.io --><svg xmlns="http://www.w3.org/2000/svg" xmlns:xlink="http://www.w3.org/1999/xlink" style="isolation:isolate" viewBox="0 0 500 500" width="500pt" height="500pt"><defs><clipPath id="_clipPath_3Di3d24CF3mY1PYmQ7s7PvqBbi1MVcla"><rect width="500" height="500"/></clipPath></defs><g clip-path="url(#_clipPath_3Di3d24CF3mY1PYmQ7s7PvqBbi1MVcla)"><g><path d="M 44 0 L 456 0 C 480.284 0 500 19.716 500 44 L 500 456 C 500 480.284 480.284 500 456 500 L 44 500 C 19.716 500 0 480.284 0 456 L 0 44 C 0 19.716 19.716 0 44 0 Z" style="stroke:none;fill:#103748;stroke-miterlimit:10;"/><path d="M 53.636 10 L 446.364 10 C 470.447 10 490 29.553 490 53.636 L 490 446.364 C 490 470.447 470.447 490 446.364 490 L 53.636 490 C 29.553 490 10 470.447 10 446.364 L 10 53.636 C 10 29.553 29.553 10 53.636 10 Z" style="stroke:none;fill:#FFFFFF;stroke-miterlimit:10;"/><path d="M 53.636 10 L 446.364 10 C 470.447 10 490 29.553 490 53.636 L 490 446.364 C 490 470.447 470.447 490 446.364 490 L 53.636 490 C 29.553 490 10 470.447 10 446.364 L 10 53.636 C 10 29.553 29.553 10 53.636 10 Z" style="stroke:none;fill:#FFFFFF;stroke-miterlimit:10;"/><clipPath id="_clipPath_D8H0Zew1VpwScRfGdtWPRUIQ81dBiaEt"><path d="M 53.636 10 L 446.364 10 C 470.447 10 490 29.553 490 53.636 L 490 446.364 C 490 470.447 470.447 490 446.364 490 L 53.636 490 C 29.553 490 10 470.447 10 446.364 L 10 53.636 C 10 29.553 29.553 10 53.636 10 Z" style="stroke:none;fill:#FFFFFF;stroke-miterlimit:10;"/></clipPath><g clip-path="url(#_clipPath_D8H0Zew1VpwScRfGdtWPRUIQ81dBiaEt)"><linearGradient id="_lgradient_0" x1="0" y1="0.5" x2="1" y2="0.5" gradientTransform="matrix(480,0,0,104.4,10,385.6)" gradientUnits="userSpaceOnUse"><stop offset="0%" stop-opacity="1" style="stop-color:rgb(164,23,23)"/><stop offset="47.5%" stop-opacity="1" style="stop-color:rgb(138,11,11)"/><stop offset="100%" stop-opacity="1" style="stop-color:rgb(255,94,0)"/></linearGradient><rect x="10" y="385.6" width="480" height="104.4" transform="matrix(1,0,0,1,0,0)" fill="url(#_lgradient_0)"/><path d=" M 183.246 451.392 L 191.69 451.392 L 191.69 470.924 L 185.034 470.924 L 185.034 457.634 L 137.253 457.634 L 137.253 404.676 L 144.306 404.676 L 144.306 451.392 L 176.193 451.392 L 176.193 404.676 L 183.246 404.676 L 183.246 451.392 Z  M 240.066 430.249 L 240.066 430.249 Q 250.695 432.766 250.695 443.237 L 250.695 443.237 L 250.695 443.237 Q 250.695 450.184 245.629 453.909 L 245.629 453.909 L 245.629 453.909 Q 240.563 457.634 230.53 457.634 L 230.53 457.634 L 206.789 457.634 L 206.789 404.676 L 229.835 404.676 L 229.835 404.676 Q 238.775 404.676 243.841 408.2 L 243.841 408.2 L 243.841 408.2 Q 248.907 411.723 248.907 418.268 L 248.907 418.268 L 248.907 418.268 Q 248.907 422.597 246.573 425.668 L 246.573 425.668 L 246.573 425.668 Q 244.238 428.739 240.066 430.249 L 240.066 430.249 Z  M 213.643 410.314 L 213.643 428.235 L 229.338 428.235 L 229.338 428.235 Q 235.398 428.235 238.626 425.92 L 238.626 425.92 L 238.626 425.92 Q 241.854 423.604 241.854 419.174 L 241.854 419.174 L 241.854 419.174 Q 241.854 414.744 238.626 412.529 L 238.626 412.529 L 238.626 412.529 Q 235.398 410.314 229.338 410.314 L 229.338 410.314 L 213.643 410.314 Z  M 230.232 451.996 L 230.232 451.996 Q 236.987 451.996 240.364 449.781 L 240.364 449.781 L 240.364 449.781 Q 243.742 447.566 243.742 442.834 L 243.742 442.834 L 243.742 442.834 Q 243.742 438.102 240.662 435.837 L 240.662 435.837 L 240.662 435.837 Q 237.583 433.571 230.927 433.571 L 230.927 433.571 L 213.643 433.571 L 213.643 451.996 L 230.232 451.996 Z  M 284.569 404.676 L 306.522 404.676 L 306.522 457.634 L 300.065 457.634 L 300.065 440.116 L 283.675 440.116 L 281.688 440.116 L 269.569 457.634 L 261.92 457.634 L 274.933 439.109 L 274.933 439.109 Q 268.874 437.397 265.596 433.269 L 265.596 433.269 L 265.596 433.269 Q 262.318 429.141 262.318 422.798 L 262.318 422.798 L 262.318 422.798 Q 262.318 413.938 268.278 409.307 L 268.278 409.307 L 268.278 409.307 Q 274.238 404.676 284.569 404.676 L 284.569 404.676 Z  M 269.47 423 L 269.47 423 Q 269.47 434.78 284.271 434.78 L 284.271 434.78 L 300.065 434.78 L 300.065 411.019 L 284.768 411.019 L 284.768 411.019 Q 269.47 411.019 269.47 423 L 269.47 423 Z  M 362.747 404.676 L 362.747 411.019 L 342.979 411.019 L 342.979 457.634 L 335.926 457.634 L 335.926 411.019 L 316.158 411.019 L 316.158 404.676 L 362.747 404.676 Z " fill="rgb(255,255,255)"/></g><path d=" M 258.998 355.995 L 233.376 298.956 L 114.418 298.956 L 88.797 355.995 L 65.309 355.995 L 162.916 142.48 L 185.183 142.48 L 282.79 355.995 L 258.998 355.995 Z  M 122.653 280.655 L 225.141 280.655 L 173.897 165.967 L 122.653 280.655 Z  M 369.721 194.334 L 369.721 194.334 Q 401.138 194.334 417.914 210.042 L 417.914 210.042 L 417.914 210.042 Q 434.691 225.751 434.691 256.558 L 434.691 256.558 L 434.691 355.995 L 413.949 355.995 L 413.949 330.983 L 413.949 330.983 Q 406.628 343.489 392.445 350.504 L 392.445 350.504 L 392.445 350.504 Q 378.261 357.52 358.741 357.52 L 358.741 357.52 L 358.741 357.52 Q 331.899 357.52 316.037 344.709 L 316.037 344.709 L 316.037 344.709 Q 300.176 331.898 300.176 310.852 L 300.176 310.852 L 300.176 310.852 Q 300.176 290.415 314.969 277.909 L 314.969 277.909 L 314.969 277.909 Q 329.763 265.404 362.095 265.404 L 362.095 265.404 L 413.034 265.404 L 413.034 255.643 L 413.034 255.643 Q 413.034 234.901 401.443 224.073 L 401.443 224.073 L 401.443 224.073 Q 389.852 213.245 367.585 213.245 L 367.585 213.245 L 367.585 213.245 Q 352.334 213.245 338.304 218.278 L 338.304 218.278 L 338.304 218.278 Q 324.273 223.311 314.207 232.156 L 314.207 232.156 L 304.446 215.99 L 304.446 215.99 Q 316.647 205.619 333.729 199.976 L 333.729 199.976 L 333.729 199.976 Q 350.81 194.334 369.721 194.334 L 369.721 194.334 Z  M 362.095 340.439 L 362.095 340.439 Q 380.397 340.439 393.512 332.051 L 393.512 332.051 L 393.512 332.051 Q 406.628 323.663 413.034 307.802 L 413.034 307.802 L 413.034 281.57 L 362.705 281.57 L 362.705 281.57 Q 321.528 281.57 321.528 310.242 L 321.528 310.242 L 321.528 310.242 Q 321.528 324.273 332.203 332.356 L 332.203 332.356 L 332.203 332.356 Q 342.879 340.439 362.095 340.439 L 362.095 340.439 Z " fill="rgb(138,2,2)"/></g></g></svg>