<?xml version="1.0" encoding="UTF-8" standalone="no"?><!-- Generator: Gravit.io --><svg xmlns="http://www.w3.org/2000/svg" xmlns:xlink="http://www.w3.org/1999/xlink" style="isolation:isolate" viewBox="0 0 857 141" width="857pt" height="141pt"><defs><clipPath id="_clipPath_5zloGGrJKMNZO4jFFqh6Ii4heX11rFPk"><rect width="857" height="141"/></clipPath></defs><g clip-path="url(#_clipPath_5zloGGrJKMNZO4jFFqh6Ii4heX11rFPk)"><g><path d="M 22.5 1.5 L 834.5 1.5 C 845.538 1.5 854.5 10.462 854.5 21.5 L 854.5 119.5 C 854.5 130.538 845.538 139.5 834.5 139.5 L 22.5 139.5 C 11.462 139.5 2.5 130.538 2.5 119.5 L 2.5 21.5 C 2.5 10.462 11.462 1.5 22.5 1.5 Z" style="stroke:none;fill:#568EA6;stroke-miterlimit:10;"/><path d=" M 640.217 53.694 L 640.217 58.252 L 629.452 58.252 L 629.452 86.616 L 624.115 86.616 L 624.115 58.252 L 613.501 58.252 L 613.501 53.694 L 640.217 53.694 Z  M 662.195 87.216 L 662.195 87.216 L 662.195 87.216 Q 654.789 87.216 650.576 82.733 L 650.576 82.733 L 650.576 82.733 Q 646.363 78.251 646.363 70.395 L 646.363 70.395 L 646.363 70.395 Q 646.363 62.479 650.291 57.787 L 650.291 57.787 L 650.291 57.787 Q 654.219 53.094 660.906 53.094 L 660.906 53.094 L 660.906 53.094 Q 667.112 53.094 670.8 57.097 L 670.8 57.097 L 670.8 57.097 Q 674.488 61.1 674.488 67.936 L 674.488 67.936 L 674.488 71.205 L 651.94 71.205 L 651.94 71.205 Q 652.09 76.812 654.789 79.72 L 654.789 79.72 L 654.789 79.72 Q 657.487 82.629 662.435 82.629 L 662.435 82.629 L 662.435 82.629 Q 665.073 82.629 667.442 82.164 L 667.442 82.164 L 667.442 82.164 Q 669.811 81.699 672.989 80.35 L 672.989 80.35 L 672.989 85.087 L 672.989 85.087 Q 670.261 86.257 667.862 86.736 L 667.862 86.736 L 667.862 86.736 Q 665.463 87.216 662.195 87.216 Z  M 660.846 57.502 L 660.846 57.502 L 660.846 57.502 Q 656.978 57.502 654.729 59.991 L 654.729 59.991 L 654.729 59.991 Q 652.48 62.479 652.06 66.917 L 652.06 66.917 L 668.821 66.917 L 668.821 66.917 Q 668.761 62.299 666.693 59.901 L 666.693 59.901 L 666.693 59.901 Q 664.624 57.502 660.846 57.502 Z  M 687.363 69.675 L 701.426 53.694 L 707.333 53.694 L 693.27 69.556 L 708.502 86.616 L 702.236 86.616 L 687.363 69.915 L 687.363 86.616 L 681.966 86.616 L 681.966 53.694 L 687.363 53.694 L 687.363 69.675 Z  M 728.933 87.216 L 728.933 87.216 L 728.933 87.216 Q 721.827 87.216 717.869 82.853 L 717.869 82.853 L 717.869 82.853 Q 713.911 78.491 713.911 70.335 L 713.911 70.335 L 713.911 70.335 Q 713.911 62.06 717.914 57.577 L 717.914 57.577 L 717.914 57.577 Q 721.917 53.094 729.323 53.094 L 729.323 53.094 L 729.323 53.094 Q 731.722 53.094 734.075 53.589 L 734.075 53.589 L 734.075 53.589 Q 736.429 54.084 737.958 54.863 L 737.958 54.863 L 736.309 59.361 L 736.309 59.361 Q 732.142 57.802 729.203 57.802 L 729.203 57.802 L 729.203 57.802 Q 724.226 57.802 721.857 60.935 L 721.857 60.935 L 721.857 60.935 Q 719.488 64.068 719.488 70.275 L 719.488 70.275 L 719.488 70.275 Q 719.488 76.242 721.857 79.405 L 721.857 79.405 L 721.857 79.405 Q 724.226 82.569 728.873 82.569 L 728.873 82.569 L 728.873 82.569 Q 733.221 82.569 737.419 80.65 L 737.419 80.65 L 737.419 85.447 L 737.419 85.447 Q 734.001 87.216 728.933 87.216 Z  M 769.172 53.694 L 769.172 58.252 L 758.407 58.252 L 758.407 86.616 L 753.07 86.616 L 753.07 58.252 L 742.456 58.252 L 742.456 53.694 L 769.172 53.694 Z  M 801.404 86.616 L 797.477 86.616 L 796.427 81.939 L 796.187 81.939 L 796.187 81.939 Q 793.729 85.027 791.285 86.122 L 791.285 86.122 L 791.285 86.122 Q 788.841 87.216 785.123 87.216 L 785.123 87.216 L 785.123 87.216 Q 780.266 87.216 777.507 84.667 L 777.507 84.667 L 777.507 84.667 Q 774.749 82.119 774.749 77.471 L 774.749 77.471 L 774.749 77.471 Q 774.749 67.457 790.55 66.977 L 790.55 66.977 L 796.127 66.767 L 796.127 64.818 L 796.127 64.818 Q 796.127 61.07 794.508 59.286 L 794.508 59.286 L 794.508 59.286 Q 792.889 57.502 789.321 57.502 L 789.321 57.502 L 789.321 57.502 Q 786.712 57.502 784.389 58.282 L 784.389 58.282 L 784.389 58.282 Q 782.065 59.061 780.026 60.021 L 780.026 60.021 L 778.377 55.973 L 778.377 55.973 Q 780.865 54.653 783.804 53.904 L 783.804 53.904 L 783.804 53.904 Q 786.742 53.154 789.621 53.154 L 789.621 53.154 L 789.621 53.154 Q 795.588 53.154 798.496 55.793 L 798.496 55.793 L 798.496 55.793 Q 801.404 58.431 801.404 64.188 L 801.404 64.188 L 801.404 86.616 Z  M 786.353 82.868 L 786.353 82.868 L 786.353 82.868 Q 790.88 82.868 793.474 80.425 L 793.474 80.425 L 793.474 80.425 Q 796.067 77.981 796.067 73.483 L 796.067 73.483 L 796.067 70.515 L 791.21 70.725 L 791.21 70.725 Q 785.543 70.935 782.949 72.524 L 782.949 72.524 L 782.949 72.524 Q 780.356 74.113 780.356 77.531 L 780.356 77.531 L 780.356 77.531 Q 780.356 80.11 781.93 81.489 L 781.93 81.489 L 781.93 81.489 Q 783.504 82.868 786.353 82.868 Z  M 810.112 83.288 L 810.112 83.288 L 810.112 83.288 Q 810.112 82.149 810.412 81.354 L 810.412 81.354 L 810.412 81.354 Q 810.711 80.56 811.221 80.065 L 811.221 80.065 L 811.221 80.065 Q 811.731 79.57 812.421 79.345 L 812.421 79.345 L 812.421 79.345 Q 813.11 79.12 813.92 79.12 L 813.92 79.12 L 813.92 79.12 Q 814.699 79.12 815.404 79.345 L 815.404 79.345 L 815.404 79.345 Q 816.109 79.57 816.618 80.065 L 816.618 80.065 L 816.618 80.065 Q 817.128 80.56 817.428 81.354 L 817.428 81.354 L 817.428 81.354 Q 817.728 82.149 817.728 83.288 L 817.728 83.288 L 817.728 83.288 Q 817.728 84.398 817.428 85.192 L 817.428 85.192 L 817.428 85.192 Q 817.128 85.987 816.618 86.496 L 816.618 86.496 L 816.618 86.496 Q 816.109 87.006 815.404 87.246 L 815.404 87.246 L 815.404 87.246 Q 814.699 87.486 813.92 87.486 L 813.92 87.486 L 813.92 87.486 Q 813.11 87.486 812.421 87.246 L 812.421 87.246 L 812.421 87.246 Q 811.731 87.006 811.221 86.496 L 811.221 86.496 L 811.221 86.496 Q 810.711 85.987 810.412 85.192 L 810.412 85.192 L 810.412 85.192 Q 810.112 84.398 810.112 83.288 Z  M 527.849 53.694 L 533.246 53.694 L 533.246 67.397 L 551.116 67.397 L 551.116 53.694 L 556.513 53.694 L 556.513 86.616 L 551.116 86.616 L 551.116 71.954 L 533.246 71.954 L 533.246 86.616 L 527.849 86.616 L 527.849 53.694 Z  M 592.021 86.616 L 588.093 86.616 L 587.043 81.939 L 586.803 81.939 L 586.803 81.939 Q 584.345 85.027 581.901 86.122 L 581.901 86.122 L 581.901 86.122 Q 579.457 87.216 575.739 87.216 L 575.739 87.216 L 575.739 87.216 Q 570.882 87.216 568.123 84.667 L 568.123 84.667 L 568.123 84.667 Q 565.365 82.119 565.365 77.471 L 565.365 77.471 L 565.365 77.471 Q 565.365 67.457 581.166 66.977 L 581.166 66.977 L 586.743 66.767 L 586.743 64.818 L 586.743 64.818 Q 586.743 61.07 585.124 59.286 L 585.124 59.286 L 585.124 59.286 Q 583.505 57.502 579.937 57.502 L 579.937 57.502 L 579.937 57.502 Q 577.328 57.502 575.005 58.282 L 575.005 58.282 L 575.005 58.282 Q 572.681 59.061 570.642 60.021 L 570.642 60.021 L 568.993 55.973 L 568.993 55.973 Q 571.481 54.653 574.42 53.904 L 574.42 53.904 L 574.42 53.904 Q 577.358 53.154 580.237 53.154 L 580.237 53.154 L 580.237 53.154 Q 586.204 53.154 589.112 55.793 L 589.112 55.793 L 589.112 55.793 Q 592.021 58.431 592.021 64.188 L 592.021 64.188 L 592.021 86.616 Z  M 576.969 82.868 L 576.969 82.868 L 576.969 82.868 Q 581.496 82.868 584.09 80.425 L 584.09 80.425 L 584.09 80.425 Q 586.683 77.981 586.683 73.483 L 586.683 73.483 L 586.683 70.515 L 581.826 70.725 L 581.826 70.725 Q 576.159 70.935 573.565 72.524 L 573.565 72.524 L 573.565 72.524 Q 570.972 74.113 570.972 77.531 L 570.972 77.531 L 570.972 77.531 Q 570.972 80.11 572.546 81.489 L 572.546 81.489 L 572.546 81.489 Q 574.12 82.868 576.969 82.868 Z  M 369.36 82.119 L 369.36 98.04 L 364.082 98.04 L 364.082 86.616 L 336.887 86.616 L 336.887 53.694 L 342.284 53.694 L 342.284 82.059 L 359.315 82.059 L 359.315 53.694 L 364.712 53.694 L 364.712 82.119 L 369.36 82.119 Z  M 403.877 62 L 403.877 62 L 403.877 62 Q 403.877 65.178 402.078 66.842 L 402.078 66.842 L 402.078 66.842 Q 400.279 68.506 396.951 69.106 L 396.951 69.106 L 396.951 69.376 L 396.951 69.376 Q 401.119 69.945 403.023 71.849 L 403.023 71.849 L 403.023 71.849 Q 404.927 73.753 404.927 76.962 L 404.927 76.962 L 404.927 76.962 Q 404.927 81.639 401.493 84.128 L 401.493 84.128 L 401.493 84.128 Q 398.06 86.616 391.614 86.616 L 391.614 86.616 L 376.802 86.616 L 376.802 53.694 L 391.554 53.694 L 391.554 53.694 Q 403.877 53.694 403.877 62 Z  M 399.53 76.662 L 399.53 76.662 L 399.53 76.662 Q 399.53 73.903 397.371 72.794 L 397.371 72.794 L 397.371 72.794 Q 395.212 71.684 391.044 71.684 L 391.044 71.684 L 382.199 71.684 L 382.199 82.269 L 391.164 82.269 L 391.164 82.269 Q 399.53 82.269 399.53 76.662 Z  M 398.6 62.479 L 398.6 62.479 L 398.6 62.479 Q 398.6 60.171 396.816 59.181 L 396.816 59.181 L 396.816 59.181 Q 395.032 58.192 391.434 58.192 L 391.434 58.192 L 382.199 58.192 L 382.199 67.217 L 390.444 67.217 L 390.444 67.217 Q 394.852 67.217 396.726 66.122 L 396.726 66.122 L 396.726 66.122 Q 398.6 65.028 398.6 62.479 Z  M 427.648 87.216 L 427.648 87.216 L 427.648 87.216 Q 420.242 87.216 416.03 82.733 L 416.03 82.733 L 416.03 82.733 Q 411.817 78.251 411.817 70.395 L 411.817 70.395 L 411.817 70.395 Q 411.817 62.479 415.745 57.787 L 415.745 57.787 L 415.745 57.787 Q 419.673 53.094 426.359 53.094 L 426.359 53.094 L 426.359 53.094 Q 432.566 53.094 436.254 57.097 L 436.254 57.097 L 436.254 57.097 Q 439.942 61.1 439.942 67.936 L 439.942 67.936 L 439.942 71.205 L 417.394 71.205 L 417.394 71.205 Q 417.544 76.812 420.242 79.72 L 420.242 79.72 L 420.242 79.72 Q 422.941 82.629 427.888 82.629 L 427.888 82.629 L 427.888 82.629 Q 430.527 82.629 432.896 82.164 L 432.896 82.164 L 432.896 82.164 Q 435.264 81.699 438.443 80.35 L 438.443 80.35 L 438.443 85.087 L 438.443 85.087 Q 435.714 86.257 433.315 86.736 L 433.315 86.736 L 433.315 86.736 Q 430.917 87.216 427.648 87.216 Z  M 426.299 57.502 L 426.299 57.502 L 426.299 57.502 Q 422.431 57.502 420.182 59.991 L 420.182 59.991 L 420.182 59.991 Q 417.934 62.479 417.514 66.917 L 417.514 66.917 L 434.275 66.917 L 434.275 66.917 Q 434.215 62.299 432.146 59.901 L 432.146 59.901 L 432.146 59.901 Q 430.077 57.502 426.299 57.502 Z  M 470.148 53.694 L 470.148 58.252 L 459.383 58.252 L 459.383 86.616 L 454.046 86.616 L 454.046 58.252 L 443.432 58.252 L 443.432 53.694 L 470.148 53.694 Z  M 502.38 86.616 L 498.453 86.616 L 497.403 81.939 L 497.163 81.939 L 497.163 81.939 Q 494.705 85.027 492.261 86.122 L 492.261 86.122 L 492.261 86.122 Q 489.817 87.216 486.099 87.216 L 486.099 87.216 L 486.099 87.216 Q 481.242 87.216 478.483 84.667 L 478.483 84.667 L 478.483 84.667 Q 475.725 82.119 475.725 77.471 L 475.725 77.471 L 475.725 77.471 Q 475.725 67.457 491.526 66.977 L 491.526 66.977 L 497.103 66.767 L 497.103 64.818 L 497.103 64.818 Q 497.103 61.07 495.484 59.286 L 495.484 59.286 L 495.484 59.286 Q 493.865 57.502 490.297 57.502 L 490.297 57.502 L 490.297 57.502 Q 487.688 57.502 485.365 58.282 L 485.365 58.282 L 485.365 58.282 Q 483.041 59.061 481.002 60.021 L 481.002 60.021 L 479.353 55.973 L 479.353 55.973 Q 481.841 54.653 484.78 53.904 L 484.78 53.904 L 484.78 53.904 Q 487.718 53.154 490.597 53.154 L 490.597 53.154 L 490.597 53.154 Q 496.564 53.154 499.472 55.793 L 499.472 55.793 L 499.472 55.793 Q 502.38 58.431 502.38 64.188 L 502.38 64.188 L 502.38 86.616 Z  M 487.329 82.868 L 487.329 82.868 L 487.329 82.868 Q 491.856 82.868 494.45 80.425 L 494.45 80.425 L 494.45 80.425 Q 497.043 77.981 497.043 73.483 L 497.043 73.483 L 497.043 70.515 L 492.186 70.725 L 492.186 70.725 Q 486.519 70.935 483.925 72.524 L 483.925 72.524 L 483.925 72.524 Q 481.332 74.113 481.332 77.531 L 481.332 77.531 L 481.332 77.531 Q 481.332 80.11 482.906 81.489 L 482.906 81.489 L 482.906 81.489 Q 484.48 82.868 487.329 82.868 Z  M 39.272 86.616 L 39.272 42.78 L 44.43 42.78 L 44.43 66.857 L 44.43 66.857 Q 44.43 69.406 44.28 73.603 L 44.28 73.603 L 44.28 73.603 Q 44.13 77.801 43.98 79.06 L 43.98 79.06 L 44.25 79.06 L 68.357 42.78 L 74.503 42.78 L 74.503 86.616 L 69.346 86.616 L 69.346 62.779 L 69.346 62.779 Q 69.346 59.661 69.556 55.508 L 69.556 55.508 L 69.556 55.508 Q 69.766 51.355 69.856 50.126 L 69.856 50.126 L 69.586 50.126 L 45.419 86.616 L 39.272 86.616 Z  M 87.456 67.277 L 91.025 67.277 L 91.025 67.277 Q 100.35 67.277 100.35 62.239 L 100.35 62.239 L 100.35 62.239 Q 100.35 57.562 92.884 57.562 L 92.884 57.562 L 92.884 57.562 Q 90.515 57.562 88.476 58.012 L 88.476 58.012 L 88.476 58.012 Q 86.437 58.461 83.589 59.661 L 83.589 59.661 L 81.7 55.373 L 81.7 55.373 Q 86.827 53.094 93.183 53.094 L 93.183 53.094 L 93.183 53.094 Q 98.97 53.094 102.239 55.403 L 102.239 55.403 L 102.239 55.403 Q 105.507 57.712 105.507 61.76 L 105.507 61.76 L 105.507 61.76 Q 105.507 67.367 99.33 69.046 L 99.33 69.046 L 99.33 69.286 L 99.33 69.286 Q 103.078 70.365 104.847 72.404 L 104.847 72.404 L 104.847 72.404 Q 106.616 74.443 106.616 77.531 L 106.616 77.531 L 106.616 77.531 Q 106.616 82.059 102.868 84.637 L 102.868 84.637 L 102.868 84.637 Q 99.12 87.216 92.554 87.216 L 92.554 87.216 L 92.554 87.216 Q 85.298 87.216 81.34 85.087 L 81.34 85.087 L 81.34 80.23 L 81.34 80.23 Q 86.827 82.808 92.494 82.808 L 92.494 82.808 L 92.494 82.808 Q 96.722 82.808 99 81.399 L 99 81.399 L 99 81.399 Q 101.279 79.99 101.279 77.231 L 101.279 77.231 L 101.279 77.231 Q 101.279 74.413 98.97 73.049 L 98.97 73.049 L 98.97 73.049 Q 96.662 71.684 91.894 71.684 L 91.894 71.684 L 87.456 71.684 L 87.456 67.277 Z  M 113.513 66.857 L 113.513 66.857 L 113.513 66.857 Q 113.513 55.853 116.826 49.901 L 116.826 49.901 L 116.826 49.901 Q 120.139 43.949 127.245 42.39 L 127.245 42.39 L 127.245 42.39 Q 133.932 41.041 142.177 39.632 L 142.177 39.632 L 143.107 44.369 L 139.539 44.939 L 139.539 44.939 Q 132.582 46.078 128.355 46.948 L 128.355 46.948 L 128.355 46.948 Q 124.037 47.907 121.863 51.34 L 121.863 51.34 L 121.863 51.34 Q 119.689 54.773 119.389 61.31 L 119.389 61.31 L 119.779 61.31 L 119.779 61.31 Q 121.518 58.881 124.412 57.427 L 124.412 57.427 L 124.412 57.427 Q 127.305 55.973 130.573 55.973 L 130.573 55.973 L 130.573 55.973 Q 136.63 55.973 140.048 59.871 L 140.048 59.871 L 140.048 59.871 Q 143.467 63.769 143.467 70.785 L 143.467 70.785 L 143.467 70.785 Q 143.467 78.611 139.479 82.913 L 139.479 82.913 L 139.479 82.913 Q 135.491 87.216 128.415 87.216 L 128.415 87.216 L 128.415 87.216 Q 121.398 87.216 117.455 81.849 L 117.455 81.849 L 117.455 81.849 Q 113.513 76.482 113.513 66.857 Z  M 128.864 82.748 L 128.864 82.748 L 128.864 82.748 Q 137.77 82.748 137.77 71.325 L 137.77 71.325 L 137.77 71.325 Q 137.77 60.47 129.704 60.47 L 129.704 60.47 L 129.704 60.47 Q 127.515 60.47 125.461 61.37 L 125.461 61.37 L 125.461 61.37 Q 123.407 62.269 121.743 63.739 L 121.743 63.739 L 121.743 63.739 Q 120.079 65.208 119.03 66.977 L 119.03 66.977 L 119.03 66.977 Q 119.03 82.748 128.864 82.748 Z  M 166.068 87.216 L 166.068 87.216 L 166.068 87.216 Q 158.662 87.216 154.45 82.733 L 154.45 82.733 L 154.45 82.733 Q 150.237 78.251 150.237 70.395 L 150.237 70.395 L 150.237 70.395 Q 150.237 62.479 154.165 57.787 L 154.165 57.787 L 154.165 57.787 Q 158.093 53.094 164.779 53.094 L 164.779 53.094 L 164.779 53.094 Q 170.986 53.094 174.674 57.097 L 174.674 57.097 L 174.674 57.097 Q 178.362 61.1 178.362 67.936 L 178.362 67.936 L 178.362 71.205 L 155.814 71.205 L 155.814 71.205 Q 155.964 76.812 158.662 79.72 L 158.662 79.72 L 158.662 79.72 Q 161.361 82.629 166.308 82.629 L 166.308 82.629 L 166.308 82.629 Q 168.947 82.629 171.316 82.164 L 171.316 82.164 L 171.316 82.164 Q 173.684 81.699 176.863 80.35 L 176.863 80.35 L 176.863 85.087 L 176.863 85.087 Q 174.134 86.257 171.735 86.736 L 171.735 86.736 L 171.735 86.736 Q 169.337 87.216 166.068 87.216 Z  M 164.719 57.502 L 164.719 57.502 L 164.719 57.502 Q 160.851 57.502 158.602 59.991 L 158.602 59.991 L 158.602 59.991 Q 156.354 62.479 155.934 66.917 L 155.934 66.917 L 172.695 66.917 L 172.695 66.917 Q 172.635 62.299 170.566 59.901 L 170.566 59.901 L 170.566 59.901 Q 168.497 57.502 164.719 57.502 Z  M 201.432 87.216 L 201.432 87.216 L 201.432 87.216 Q 194.805 87.216 191.237 82.449 L 191.237 82.449 L 190.877 82.449 L 190.997 83.678 L 190.997 83.678 Q 191.237 86.017 191.237 87.846 L 191.237 87.846 L 191.237 101.368 L 185.84 101.368 L 185.84 53.694 L 190.277 53.694 L 190.997 58.192 L 191.237 58.192 L 191.237 58.192 Q 193.156 55.493 195.675 54.294 L 195.675 54.294 L 195.675 54.294 Q 198.193 53.094 201.491 53.094 L 201.491 53.094 L 201.491 53.094 Q 207.908 53.094 211.461 57.547 L 211.461 57.547 L 211.461 57.547 Q 215.014 62 215.014 70.095 L 215.014 70.095 L 215.014 70.095 Q 215.014 78.161 211.446 82.688 L 211.446 82.688 L 211.446 82.688 Q 207.878 87.216 201.432 87.216 Z  M 200.532 57.622 L 200.532 57.622 L 200.532 57.622 Q 195.645 57.622 193.471 60.38 L 193.471 60.38 L 193.471 60.38 Q 191.297 63.139 191.237 69.046 L 191.237 69.046 L 191.237 70.095 L 191.237 70.095 Q 191.237 76.782 193.456 79.765 L 193.456 79.765 L 193.456 79.765 Q 195.675 82.748 200.652 82.748 L 200.652 82.748 L 200.652 82.748 Q 204.79 82.748 207.113 79.39 L 207.113 79.39 L 207.113 79.39 Q 209.437 76.032 209.437 70.035 L 209.437 70.035 L 209.437 70.035 Q 209.437 64.008 207.113 60.815 L 207.113 60.815 L 207.113 60.815 Q 204.79 57.622 200.532 57.622 Z  M 236.687 87.216 L 236.687 87.216 L 236.687 87.216 Q 229.281 87.216 225.068 82.733 L 225.068 82.733 L 225.068 82.733 Q 220.855 78.251 220.855 70.395 L 220.855 70.395 L 220.855 70.395 Q 220.855 62.479 224.783 57.787 L 224.783 57.787 L 224.783 57.787 Q 228.711 53.094 235.397 53.094 L 235.397 53.094 L 235.397 53.094 Q 241.604 53.094 245.292 57.097 L 245.292 57.097 L 245.292 57.097 Q 248.98 61.1 248.98 67.936 L 248.98 67.936 L 248.98 71.205 L 226.432 71.205 L 226.432 71.205 Q 226.582 76.812 229.281 79.72 L 229.281 79.72 L 229.281 79.72 Q 231.979 82.629 236.927 82.629 L 236.927 82.629 L 236.927 82.629 Q 239.565 82.629 241.934 82.164 L 241.934 82.164 L 241.934 82.164 Q 244.303 81.699 247.481 80.35 L 247.481 80.35 L 247.481 85.087 L 247.481 85.087 Q 244.752 86.257 242.354 86.736 L 242.354 86.736 L 242.354 86.736 Q 239.955 87.216 236.687 87.216 Z  M 235.337 57.502 L 235.337 57.502 L 235.337 57.502 Q 231.469 57.502 229.221 59.991 L 229.221 59.991 L 229.221 59.991 Q 226.972 62.479 226.552 66.917 L 226.552 66.917 L 243.313 66.917 L 243.313 66.917 Q 243.253 62.299 241.184 59.901 L 241.184 59.901 L 241.184 59.901 Q 239.115 57.502 235.337 57.502 Z  M 279.186 53.694 L 279.186 58.252 L 268.422 58.252 L 268.422 86.616 L 263.085 86.616 L 263.085 58.252 L 252.47 58.252 L 252.47 53.694 L 279.186 53.694 Z  M 301.164 87.216 L 301.164 87.216 L 301.164 87.216 Q 293.758 87.216 289.545 82.733 L 289.545 82.733 L 289.545 82.733 Q 285.333 78.251 285.333 70.395 L 285.333 70.395 L 285.333 70.395 Q 285.333 62.479 289.261 57.787 L 289.261 57.787 L 289.261 57.787 Q 293.188 53.094 299.875 53.094 L 299.875 53.094 L 299.875 53.094 Q 306.082 53.094 309.77 57.097 L 309.77 57.097 L 309.77 57.097 Q 313.458 61.1 313.458 67.936 L 313.458 67.936 L 313.458 71.205 L 290.91 71.205 L 290.91 71.205 Q 291.06 76.812 293.758 79.72 L 293.758 79.72 L 293.758 79.72 Q 296.457 82.629 301.404 82.629 L 301.404 82.629 L 301.404 82.629 Q 304.043 82.629 306.411 82.164 L 306.411 82.164 L 306.411 82.164 Q 308.78 81.699 311.958 80.35 L 311.958 80.35 L 311.958 85.087 L 311.958 85.087 Q 309.23 86.257 306.831 86.736 L 306.831 86.736 L 306.831 86.736 Q 304.432 87.216 301.164 87.216 Z  M 299.815 57.502 L 299.815 57.502 L 299.815 57.502 Q 295.947 57.502 293.698 59.991 L 293.698 59.991 L 293.698 59.991 Q 291.449 62.479 291.03 66.917 L 291.03 66.917 L 307.791 66.917 L 307.791 66.917 Q 307.731 62.299 305.662 59.901 L 305.662 59.901 L 305.662 59.901 Q 303.593 57.502 299.815 57.502 Z " fill="rgb(16,55,72)"/></g></g></svg>