<?xml version="1.0" encoding="UTF-8" standalone="no"?><!-- Generator: Gravit.io --><svg xmlns="http://www.w3.org/2000/svg" xmlns:xlink="http://www.w3.org/1999/xlink" style="isolation:isolate" viewBox="0 0 857 141" width="857pt" height="141pt"><defs><clipPath id="_clipPath_lhAIL2dvpKuqxkTd48LK5V57f6I8soFY"><rect width="857" height="141"/></clipPath></defs><g clip-path="url(#_clipPath_lhAIL2dvpKuqxkTd48LK5V57f6I8soFY)"><g><path d="M 22.5 1.5 L 834.5 1.5 C 845.538 1.5 854.5 10.462 854.5 21.5 L 854.5 119.5 C 854.5 130.538 845.538 139.5 834.5 139.5 L 22.5 139.5 C 11.462 139.5 2.5 130.538 2.5 119.5 L 2.5 21.5 C 2.5 10.462 11.462 1.5 22.5 1.5 Z" style="stroke:none;fill:#568EA6;stroke-miterlimit:10;"/><path d=" M 494.052 53.813 L 494.052 81.977 L 508.193 81.977 L 508.193 53.813 L 513.552 53.813 L 513.552 86.502 L 469.222 86.502 L 469.222 53.813 L 474.581 53.813 L 474.581 81.977 L 488.663 81.977 L 488.663 53.813 L 494.052 53.813 Z  M 539.579 87.098 L 539.579 87.098 L 539.579 87.098 Q 532.999 87.098 529.456 82.364 L 529.456 82.364 L 529.099 82.364 L 529.218 83.585 L 529.218 83.585 Q 529.456 85.907 529.456 87.723 L 529.456 87.723 L 529.456 101.15 L 524.097 101.15 L 524.097 53.813 L 528.503 53.813 L 529.218 58.279 L 529.456 58.279 L 529.456 58.279 Q 531.362 55.599 533.862 54.408 L 533.862 54.408 L 533.862 54.408 Q 536.363 53.217 539.638 53.217 L 539.638 53.217 L 539.638 53.217 Q 546.009 53.217 549.537 57.639 L 549.537 57.639 L 549.537 57.639 Q 553.065 62.06 553.065 70.098 L 553.065 70.098 L 553.065 70.098 Q 553.065 78.107 549.522 82.602 L 549.522 82.602 L 549.522 82.602 Q 545.98 87.098 539.579 87.098 Z  M 538.685 57.713 L 538.685 57.713 L 538.685 57.713 Q 533.833 57.713 531.674 60.452 L 531.674 60.452 L 531.674 60.452 Q 529.516 63.191 529.456 69.056 L 529.456 69.056 L 529.456 70.098 L 529.456 70.098 Q 529.456 76.737 531.659 79.699 L 531.659 79.699 L 531.659 79.699 Q 533.862 82.662 538.805 82.662 L 538.805 82.662 L 538.805 82.662 Q 542.913 82.662 545.22 79.327 L 545.22 79.327 L 545.22 79.327 Q 547.528 75.993 547.528 70.039 L 547.528 70.039 L 547.528 70.039 Q 547.528 64.054 545.22 60.884 L 545.22 60.884 L 545.22 60.884 Q 542.913 57.713 538.685 57.713 Z  M 560.681 53.813 L 565.742 53.813 L 565.742 73.76 L 565.504 79.536 L 565.385 81.203 L 582.891 53.813 L 589.47 53.813 L 589.47 86.502 L 584.469 86.502 L 584.469 67.24 L 584.558 63.102 L 584.707 59.172 L 567.32 86.502 L 560.681 86.502 L 560.681 53.813 Z  M 635.98 70.158 L 635.98 70.158 L 635.98 70.158 Q 635.98 77.452 631.707 81.917 L 631.707 81.917 L 631.707 81.917 Q 627.435 86.383 619.814 86.979 L 619.814 86.979 L 619.814 101.15 L 614.574 101.15 L 614.574 86.979 L 614.574 86.979 Q 607.071 86.353 602.754 81.888 L 602.754 81.888 L 602.754 81.888 Q 598.437 77.422 598.437 70.158 L 598.437 70.158 L 598.437 70.158 Q 598.437 62.715 602.725 58.323 L 602.725 58.323 L 602.725 58.323 Q 607.012 53.932 614.752 53.337 L 614.752 53.337 L 614.752 40.177 L 619.814 40.177 L 619.814 53.337 L 619.814 53.337 Q 627.346 54.081 631.663 58.547 L 631.663 58.547 L 631.663 58.547 Q 635.98 63.012 635.98 70.158 Z  M 604.035 70.158 L 604.035 70.158 L 604.035 70.158 Q 604.035 81.501 614.752 82.602 L 614.752 82.602 L 614.752 57.773 L 614.752 57.773 Q 609.155 58.338 606.595 61.479 L 606.595 61.479 L 606.595 61.479 Q 604.035 64.62 604.035 70.158 Z  M 630.442 70.158 L 630.442 70.158 L 630.442 70.158 Q 630.442 58.993 619.814 57.832 L 619.814 57.832 L 619.814 82.602 L 619.814 82.602 Q 630.442 81.441 630.442 70.158 Z  M 668.61 53.813 L 668.61 58.338 L 657.922 58.338 L 657.922 86.502 L 652.622 86.502 L 652.622 58.338 L 642.083 58.338 L 642.083 53.813 L 668.61 53.813 Z  M 675.725 83.198 L 675.725 83.198 L 675.725 83.198 Q 675.725 82.066 676.023 81.277 L 676.023 81.277 L 676.023 81.277 Q 676.321 80.488 676.827 79.997 L 676.827 79.997 L 676.827 79.997 Q 677.333 79.506 678.017 79.283 L 678.017 79.283 L 678.017 79.283 Q 678.702 79.059 679.506 79.059 L 679.506 79.059 L 679.506 79.059 Q 680.28 79.059 680.98 79.283 L 680.98 79.283 L 680.98 79.283 Q 681.679 79.506 682.186 79.997 L 682.186 79.997 L 682.186 79.997 Q 682.692 80.488 682.989 81.277 L 682.989 81.277 L 682.989 81.277 Q 683.287 82.066 683.287 83.198 L 683.287 83.198 L 683.287 83.198 Q 683.287 84.299 682.989 85.088 L 682.989 85.088 L 682.989 85.088 Q 682.692 85.877 682.186 86.383 L 682.186 86.383 L 682.186 86.383 Q 681.679 86.889 680.98 87.128 L 680.98 87.128 L 680.98 87.128 Q 680.28 87.366 679.506 87.366 L 679.506 87.366 L 679.506 87.366 Q 678.702 87.366 678.017 87.128 L 678.017 87.128 L 678.017 87.128 Q 677.333 86.889 676.827 86.383 L 676.827 86.383 L 676.827 86.383 Q 676.321 85.877 676.023 85.088 L 676.023 85.088 L 676.023 85.088 Q 675.725 84.299 675.725 83.198 Z  M 173.713 86.502 L 173.713 42.976 L 178.834 42.976 L 178.834 66.883 L 178.834 66.883 Q 178.834 69.413 178.685 73.581 L 178.685 73.581 L 178.685 73.581 Q 178.536 77.749 178.387 79 L 178.387 79 L 178.655 79 L 202.592 42.976 L 208.695 42.976 L 208.695 86.502 L 203.574 86.502 L 203.574 62.834 L 203.574 62.834 Q 203.574 59.737 203.782 55.614 L 203.782 55.614 L 203.782 55.614 Q 203.991 51.491 204.08 50.27 L 204.08 50.27 L 203.812 50.27 L 179.816 86.502 L 173.713 86.502 Z  M 221.556 67.3 L 225.099 67.3 L 225.099 67.3 Q 234.358 67.3 234.358 62.298 L 234.358 62.298 L 234.358 62.298 Q 234.358 57.653 226.945 57.653 L 226.945 57.653 L 226.945 57.653 Q 224.593 57.653 222.568 58.1 L 222.568 58.1 L 222.568 58.1 Q 220.544 58.547 217.716 59.737 L 217.716 59.737 L 215.84 55.48 L 215.84 55.48 Q 220.931 53.217 227.243 53.217 L 227.243 53.217 L 227.243 53.217 Q 232.989 53.217 236.234 55.51 L 236.234 55.51 L 236.234 55.51 Q 239.479 57.802 239.479 61.822 L 239.479 61.822 L 239.479 61.822 Q 239.479 67.389 233.346 69.056 L 233.346 69.056 L 233.346 69.294 L 233.346 69.294 Q 237.067 70.366 238.824 72.391 L 238.824 72.391 L 238.824 72.391 Q 240.58 74.415 240.58 77.481 L 240.58 77.481 L 240.58 77.481 Q 240.58 81.977 236.859 84.537 L 236.859 84.537 L 236.859 84.537 Q 233.137 87.098 226.617 87.098 L 226.617 87.098 L 226.617 87.098 Q 219.413 87.098 215.483 84.984 L 215.483 84.984 L 215.483 80.161 L 215.483 80.161 Q 220.931 82.721 226.558 82.721 L 226.558 82.721 L 226.558 82.721 Q 230.756 82.721 233.018 81.322 L 233.018 81.322 L 233.018 81.322 Q 235.281 79.923 235.281 77.184 L 235.281 77.184 L 235.281 77.184 Q 235.281 74.385 232.989 73.031 L 232.989 73.031 L 232.989 73.031 Q 230.696 71.676 225.962 71.676 L 225.962 71.676 L 221.556 71.676 L 221.556 67.3 Z  M 247.428 66.883 L 247.428 66.883 L 247.428 66.883 Q 247.428 55.956 250.718 50.047 L 250.718 50.047 L 250.718 50.047 Q 254.007 44.137 261.063 42.589 L 261.063 42.589 L 261.063 42.589 Q 267.702 41.249 275.89 39.85 L 275.89 39.85 L 276.813 44.554 L 273.27 45.12 L 273.27 45.12 Q 266.363 46.251 262.165 47.114 L 262.165 47.114 L 262.165 47.114 Q 257.878 48.067 255.719 51.476 L 255.719 51.476 L 255.719 51.476 Q 253.561 54.885 253.263 61.375 L 253.263 61.375 L 253.65 61.375 L 253.65 61.375 Q 255.377 58.963 258.25 57.519 L 258.25 57.519 L 258.25 57.519 Q 261.123 56.076 264.368 56.076 L 264.368 56.076 L 264.368 56.076 Q 270.382 56.076 273.776 59.946 L 273.776 59.946 L 273.776 59.946 Q 277.17 63.816 277.17 70.783 L 277.17 70.783 L 277.17 70.783 Q 277.17 78.553 273.21 82.826 L 273.21 82.826 L 273.21 82.826 Q 269.251 87.098 262.224 87.098 L 262.224 87.098 L 262.224 87.098 Q 255.258 87.098 251.343 81.769 L 251.343 81.769 L 251.343 81.769 Q 247.428 76.439 247.428 66.883 Z  M 262.671 82.662 L 262.671 82.662 L 262.671 82.662 Q 271.513 82.662 271.513 71.319 L 271.513 71.319 L 271.513 71.319 Q 271.513 60.541 263.505 60.541 L 263.505 60.541 L 263.505 60.541 Q 261.331 60.541 259.292 61.434 L 259.292 61.434 L 259.292 61.434 Q 257.253 62.328 255.6 63.786 L 255.6 63.786 L 255.6 63.786 Q 253.948 65.245 252.906 67.002 L 252.906 67.002 L 252.906 67.002 Q 252.906 82.662 262.671 82.662 Z  M 299.612 87.098 L 299.612 87.098 L 299.612 87.098 Q 292.258 87.098 288.075 82.647 L 288.075 82.647 L 288.075 82.647 Q 283.892 78.196 283.892 70.396 L 283.892 70.396 L 283.892 70.396 Q 283.892 62.536 287.792 57.877 L 287.792 57.877 L 287.792 57.877 Q 291.693 53.217 298.332 53.217 L 298.332 53.217 L 298.332 53.217 Q 304.494 53.217 308.156 57.192 L 308.156 57.192 L 308.156 57.192 Q 311.818 61.167 311.818 67.955 L 311.818 67.955 L 311.818 71.2 L 289.43 71.2 L 289.43 71.2 Q 289.579 76.767 292.258 79.655 L 292.258 79.655 L 292.258 79.655 Q 294.938 82.543 299.85 82.543 L 299.85 82.543 L 299.85 82.543 Q 302.47 82.543 304.822 82.081 L 304.822 82.081 L 304.822 82.081 Q 307.174 81.62 310.33 80.28 L 310.33 80.28 L 310.33 84.984 L 310.33 84.984 Q 307.621 86.145 305.239 86.621 L 305.239 86.621 L 305.239 86.621 Q 302.857 87.098 299.612 87.098 Z  M 298.272 57.594 L 298.272 57.594 L 298.272 57.594 Q 294.432 57.594 292.199 60.065 L 292.199 60.065 L 292.199 60.065 Q 289.966 62.536 289.549 66.942 L 289.549 66.942 L 306.191 66.942 L 306.191 66.942 Q 306.132 62.357 304.078 59.976 L 304.078 59.976 L 304.078 59.976 Q 302.023 57.594 298.272 57.594 Z  M 334.725 87.098 L 334.725 87.098 L 334.725 87.098 Q 328.145 87.098 324.602 82.364 L 324.602 82.364 L 324.245 82.364 L 324.364 83.585 L 324.364 83.585 Q 324.602 85.907 324.602 87.723 L 324.602 87.723 L 324.602 101.15 L 319.243 101.15 L 319.243 53.813 L 323.65 53.813 L 324.364 58.279 L 324.602 58.279 L 324.602 58.279 Q 326.508 55.599 329.009 54.408 L 329.009 54.408 L 329.009 54.408 Q 331.509 53.217 334.784 53.217 L 334.784 53.217 L 334.784 53.217 Q 341.155 53.217 344.683 57.639 L 344.683 57.639 L 344.683 57.639 Q 348.211 62.06 348.211 70.098 L 348.211 70.098 L 348.211 70.098 Q 348.211 78.107 344.669 82.602 L 344.669 82.602 L 344.669 82.602 Q 341.126 87.098 334.725 87.098 Z  M 333.832 57.713 L 333.832 57.713 L 333.832 57.713 Q 328.979 57.713 326.82 60.452 L 326.82 60.452 L 326.82 60.452 Q 324.662 63.191 324.602 69.056 L 324.602 69.056 L 324.602 70.098 L 324.602 70.098 Q 324.602 76.737 326.805 79.699 L 326.805 79.699 L 326.805 79.699 Q 329.009 82.662 333.951 82.662 L 333.951 82.662 L 333.951 82.662 Q 338.059 82.662 340.367 79.327 L 340.367 79.327 L 340.367 79.327 Q 342.674 75.993 342.674 70.039 L 342.674 70.039 L 342.674 70.039 Q 342.674 64.054 340.367 60.884 L 340.367 60.884 L 340.367 60.884 Q 338.059 57.713 333.832 57.713 Z  M 369.73 87.098 L 369.73 87.098 L 369.73 87.098 Q 362.377 87.098 358.194 82.647 L 358.194 82.647 L 358.194 82.647 Q 354.011 78.196 354.011 70.396 L 354.011 70.396 L 354.011 70.396 Q 354.011 62.536 357.911 57.877 L 357.911 57.877 L 357.911 57.877 Q 361.811 53.217 368.45 53.217 L 368.45 53.217 L 368.45 53.217 Q 374.613 53.217 378.275 57.192 L 378.275 57.192 L 378.275 57.192 Q 381.937 61.167 381.937 67.955 L 381.937 67.955 L 381.937 71.2 L 359.548 71.2 L 359.548 71.2 Q 359.697 76.767 362.377 79.655 L 362.377 79.655 L 362.377 79.655 Q 365.056 82.543 369.969 82.543 L 369.969 82.543 L 369.969 82.543 Q 372.589 82.543 374.941 82.081 L 374.941 82.081 L 374.941 82.081 Q 377.292 81.62 380.448 80.28 L 380.448 80.28 L 380.448 84.984 L 380.448 84.984 Q 377.739 86.145 375.357 86.621 L 375.357 86.621 L 375.357 86.621 Q 372.976 87.098 369.73 87.098 Z  M 368.391 57.594 L 368.391 57.594 L 368.391 57.594 Q 364.55 57.594 362.317 60.065 L 362.317 60.065 L 362.317 60.065 Q 360.084 62.536 359.668 66.942 L 359.668 66.942 L 376.31 66.942 L 376.31 66.942 Q 376.25 62.357 374.196 59.976 L 374.196 59.976 L 374.196 59.976 Q 372.142 57.594 368.391 57.594 Z  M 411.929 53.813 L 411.929 58.338 L 401.241 58.338 L 401.241 86.502 L 395.942 86.502 L 395.942 58.338 L 385.402 58.338 L 385.402 53.813 L 411.929 53.813 Z  M 433.752 87.098 L 433.752 87.098 L 433.752 87.098 Q 426.398 87.098 422.215 82.647 L 422.215 82.647 L 422.215 82.647 Q 418.032 78.196 418.032 70.396 L 418.032 70.396 L 418.032 70.396 Q 418.032 62.536 421.932 57.877 L 421.932 57.877 L 421.932 57.877 Q 425.832 53.217 432.472 53.217 L 432.472 53.217 L 432.472 53.217 Q 438.634 53.217 442.296 57.192 L 442.296 57.192 L 442.296 57.192 Q 445.958 61.167 445.958 67.955 L 445.958 67.955 L 445.958 71.2 L 423.57 71.2 L 423.57 71.2 Q 423.719 76.767 426.398 79.655 L 426.398 79.655 L 426.398 79.655 Q 429.078 82.543 433.99 82.543 L 433.99 82.543 L 433.99 82.543 Q 436.61 82.543 438.962 82.081 L 438.962 82.081 L 438.962 82.081 Q 441.314 81.62 444.47 80.28 L 444.47 80.28 L 444.47 84.984 L 444.47 84.984 Q 441.76 86.145 439.379 86.621 L 439.379 86.621 L 439.379 86.621 Q 436.997 87.098 433.752 87.098 Z  M 432.412 57.594 L 432.412 57.594 L 432.412 57.594 Q 428.571 57.594 426.339 60.065 L 426.339 60.065 L 426.339 60.065 Q 424.106 62.536 423.689 66.942 L 423.689 66.942 L 440.331 66.942 L 440.331 66.942 Q 440.272 62.357 438.218 59.976 L 438.218 59.976 L 438.218 59.976 Q 436.163 57.594 432.412 57.594 Z " fill="rgb(16,55,72)"/></g></g></svg>