<?xml version="1.0" encoding="UTF-8" standalone="no"?><!-- Generator: Gravit.io --><svg xmlns="http://www.w3.org/2000/svg" xmlns:xlink="http://www.w3.org/1999/xlink" style="isolation:isolate" viewBox="0 0 500 500" width="500pt" height="500pt"><defs><clipPath id="_clipPath_XNPpcaTupXyY5xSeIuY5I77TTFLyT9aE"><rect width="500" height="500"/></clipPath></defs><g clip-path="url(#_clipPath_XNPpcaTupXyY5xSeIuY5I77TTFLyT9aE)"><g><path d="M 44 0 L 456 0 C 480.284 0 500 19.716 500 44 L 500 456 C 500 480.284 480.284 500 456 500 L 44 500 C 19.716 500 0 480.284 0 456 L 0 44 C 0 19.716 19.716 0 44 0 Z" style="stroke:none;fill:#103748;stroke-miterlimit:10;"/><path d="M 53.636 10 L 446.364 10 C 470.447 10 490 29.553 490 53.636 L 490 446.364 C 490 470.447 470.447 490 446.364 490 L 53.636 490 C 29.553 490 10 470.447 10 446.364 L 10 53.636 C 10 29.553 29.553 10 53.636 10 Z" style="stroke:none;fill:#103748;stroke-miterlimit:10;"/><clipPath id="_clipPath_Or77x3kMRA91VatViwAXzCDOAmxlfsYX"><path d="M 53.636 10 L 446.364 10 C 470.447 10 490 29.553 490 53.636 L 490 446.364 C 490 470.447 470.447 490 446.364 490 L 53.636 490 C 29.553 490 10 470.447 10 446.364 L 10 53.636 C 10 29.553 29.553 10 53.636 10 Z" style="stroke:none;fill:#103748;stroke-miterlimit:10;"/></clipPath><g clip-path="url(#_clipPath_Or77x3kMRA91VatViwAXzCDOAmxlfsYX)"><rect x="10" y="385.6" width="480" height="104.4" transform="matrix(1,0,0,1,0,0)" fill="rgb(86,142,166)"/><path d=" M 92.298 415.411 L 92.298 421.008 L 65.556 421.008 L 65.556 462.144 L 59.248 462.144 L 59.248 415.411 L 92.298 415.411 Z  M 127.748 415.055 L 127.748 415.055 Q 134.323 415.055 139.653 418.032 L 139.653 418.032 L 139.653 418.032 Q 144.984 421.008 148.005 426.428 L 148.005 426.428 L 148.005 426.428 Q 151.026 431.847 151.026 438.777 L 151.026 438.777 L 151.026 438.777 Q 151.026 445.796 148.005 451.216 L 148.005 451.216 L 148.005 451.216 Q 144.984 456.635 139.698 459.612 L 139.698 459.612 L 139.698 459.612 Q 134.411 462.588 127.748 462.588 L 127.748 462.588 L 127.748 462.588 Q 122.062 462.588 117.486 460.234 L 117.486 460.234 L 117.486 460.234 Q 112.911 457.879 109.979 453.348 L 109.979 453.348 L 109.979 479.38 L 103.671 479.38 L 103.671 415.411 L 109.712 415.411 L 109.712 424.651 L 109.712 424.651 Q 112.556 420.031 117.22 417.543 L 117.22 417.543 L 117.22 417.543 Q 121.884 415.055 127.748 415.055 L 127.748 415.055 Z  M 127.304 456.991 L 127.304 456.991 Q 132.19 456.991 136.188 454.725 L 136.188 454.725 L 136.188 454.725 Q 140.187 452.46 142.452 448.284 L 142.452 448.284 L 142.452 448.284 Q 144.718 444.108 144.718 438.777 L 144.718 438.777 L 144.718 438.777 Q 144.718 433.447 142.452 429.315 L 142.452 429.315 L 142.452 429.315 Q 140.187 425.184 136.188 422.874 L 136.188 422.874 L 136.188 422.874 Q 132.19 420.564 127.304 420.564 L 127.304 420.564 L 127.304 420.564 Q 122.328 420.564 118.375 422.874 L 118.375 422.874 L 118.375 422.874 Q 114.421 425.184 112.156 429.315 L 112.156 429.315 L 112.156 429.315 Q 109.89 433.447 109.89 438.777 L 109.89 438.777 L 109.89 438.777 Q 109.89 444.108 112.156 448.284 L 112.156 448.284 L 112.156 448.284 Q 114.421 452.46 118.375 454.725 L 118.375 454.725 L 118.375 454.725 Q 122.328 456.991 127.304 456.991 L 127.304 456.991 Z  M 181.944 415.055 L 181.944 415.055 Q 191.095 415.055 195.982 419.631 L 195.982 419.631 L 195.982 419.631 Q 200.868 424.207 200.868 433.18 L 200.868 433.18 L 200.868 462.144 L 194.827 462.144 L 194.827 454.858 L 194.827 454.858 Q 192.695 458.501 188.563 460.545 L 188.563 460.545 L 188.563 460.545 Q 184.432 462.588 178.746 462.588 L 178.746 462.588 L 178.746 462.588 Q 170.927 462.588 166.307 458.856 L 166.307 458.856 L 166.307 458.856 Q 161.687 455.125 161.687 448.995 L 161.687 448.995 L 161.687 448.995 Q 161.687 443.042 165.996 439.399 L 165.996 439.399 L 165.996 439.399 Q 170.305 435.757 179.723 435.757 L 179.723 435.757 L 194.56 435.757 L 194.56 432.913 L 194.56 432.913 Q 194.56 426.872 191.184 423.718 L 191.184 423.718 L 191.184 423.718 Q 187.808 420.564 181.322 420.564 L 181.322 420.564 L 181.322 420.564 Q 176.88 420.564 172.793 422.03 L 172.793 422.03 L 172.793 422.03 Q 168.706 423.496 165.774 426.072 L 165.774 426.072 L 162.931 421.364 L 162.931 421.364 Q 166.485 418.343 171.46 416.699 L 171.46 416.699 L 171.46 416.699 Q 176.436 415.055 181.944 415.055 L 181.944 415.055 Z  M 179.723 457.613 L 179.723 457.613 Q 185.054 457.613 188.874 455.169 L 188.874 455.169 L 188.874 455.169 Q 192.695 452.726 194.56 448.106 L 194.56 448.106 L 194.56 440.465 L 179.901 440.465 L 179.901 440.465 Q 167.906 440.465 167.906 448.817 L 167.906 448.817 L 167.906 448.817 Q 167.906 452.904 171.016 455.258 L 171.016 455.258 L 171.016 455.258 Q 174.126 457.613 179.723 457.613 L 179.723 457.613 Z  M 275.587 438.688 L 275.587 438.688 Q 275.587 449.617 268.391 455.836 L 268.391 455.836 L 268.391 455.836 Q 261.194 462.055 248.045 462.588 L 248.045 462.588 L 248.045 479.38 L 241.915 479.38 L 241.915 462.677 L 241.915 462.677 Q 228.854 462.144 221.702 455.88 L 221.702 455.88 L 221.702 455.88 Q 214.55 449.617 214.55 438.688 L 214.55 438.688 L 214.55 438.688 Q 214.55 427.849 221.702 421.719 L 221.702 421.719 L 221.702 421.719 Q 228.854 415.589 241.915 415.055 L 241.915 415.055 L 241.915 396.22 L 248.045 396.22 L 248.045 415.055 L 248.045 415.055 Q 261.194 415.677 268.391 421.808 L 268.391 421.808 L 268.391 421.808 Q 275.587 427.938 275.587 438.688 L 275.587 438.688 Z  M 220.77 438.688 L 220.77 438.688 Q 220.77 447.04 226.145 451.749 L 226.145 451.749 L 226.145 451.749 Q 231.52 456.458 241.915 457.08 L 241.915 457.08 L 241.915 420.653 L 241.915 420.653 Q 231.609 421.186 226.189 425.85 L 226.189 425.85 L 226.189 425.85 Q 220.77 430.515 220.77 438.688 L 220.77 438.688 Z  M 248.045 457.08 L 248.045 457.08 Q 258.44 456.546 263.904 451.838 L 263.904 451.838 L 263.904 451.838 Q 269.368 447.129 269.368 438.688 L 269.368 438.688 L 269.368 438.688 Q 269.368 430.426 263.904 425.806 L 263.904 425.806 L 263.904 425.806 Q 258.44 421.186 248.045 420.653 L 248.045 420.653 L 248.045 457.08 Z  M 290.247 462.144 L 290.247 415.411 L 296.555 415.411 L 296.555 452.548 L 327.74 415.411 L 333.337 415.411 L 333.337 462.144 L 327.03 462.144 L 327.03 425.006 L 295.934 462.144 L 290.247 462.144 Z  M 386.645 462.144 L 369.409 441.354 L 358.747 441.354 L 358.747 462.144 L 352.439 462.144 L 352.439 415.411 L 358.747 415.411 L 358.747 435.934 L 369.498 435.934 L 385.934 415.411 L 392.775 415.411 L 374.384 438.067 L 394.108 462.144 L 386.645 462.144 Z  M 421.828 415.055 L 421.828 415.055 Q 430.979 415.055 435.866 419.631 L 435.866 419.631 L 435.866 419.631 Q 440.752 424.207 440.752 433.18 L 440.752 433.18 L 440.752 462.144 L 434.711 462.144 L 434.711 454.858 L 434.711 454.858 Q 432.578 458.501 428.447 460.545 L 428.447 460.545 L 428.447 460.545 Q 424.315 462.588 418.63 462.588 L 418.63 462.588 L 418.63 462.588 Q 410.811 462.588 406.191 458.856 L 406.191 458.856 L 406.191 458.856 Q 401.571 455.125 401.571 448.995 L 401.571 448.995 L 401.571 448.995 Q 401.571 443.042 405.88 439.399 L 405.88 439.399 L 405.88 439.399 Q 410.189 435.757 419.607 435.757 L 419.607 435.757 L 434.444 435.757 L 434.444 432.913 L 434.444 432.913 Q 434.444 426.872 431.068 423.718 L 431.068 423.718 L 431.068 423.718 Q 427.691 420.564 421.206 420.564 L 421.206 420.564 L 421.206 420.564 Q 416.764 420.564 412.677 422.03 L 412.677 422.03 L 412.677 422.03 Q 408.59 423.496 405.658 426.072 L 405.658 426.072 L 402.815 421.364 L 402.815 421.364 Q 406.369 418.343 411.344 416.699 L 411.344 416.699 L 411.344 416.699 Q 416.32 415.055 421.828 415.055 L 421.828 415.055 Z  M 419.607 457.613 L 419.607 457.613 Q 424.937 457.613 428.758 455.169 L 428.758 455.169 L 428.758 455.169 Q 432.578 452.726 434.444 448.106 L 434.444 448.106 L 434.444 440.465 L 419.785 440.465 L 419.785 440.465 Q 407.79 440.465 407.79 448.817 L 407.79 448.817 L 407.79 448.817 Q 407.79 452.904 410.9 455.258 L 410.9 455.258 L 410.9 455.258 Q 414.009 457.613 419.607 457.613 L 419.607 457.613 Z " fill="rgb(16,55,72)"/></g><path d="M 109.128 137.56 L 188.842 137.56 C 199.84 137.56 208.77 146.49 208.77 157.488 L 208.77 237.202 C 208.77 248.2 199.84 257.13 188.842 257.13 L 109.128 257.13 C 98.13 257.13 89.2 248.2 89.2 237.202 L 89.2 157.488 C 89.2 146.49 98.13 137.56 109.128 137.56 Z" style="stroke:none;fill:#568EA6;stroke-miterlimit:10;"/><circle vector-effect="non-scaling-stroke" cx="319.56858221525266" cy="99.78506830064939" r="59.78506830064896" fill="rgb(86,142,166)"/><path d=" M 398.482 354.683 L 319.569 354.683 L 240.656 354.683 C 229.657 354.683 225.192 346.949 230.691 337.424 L 270.148 269.083 L 309.604 200.743 C 315.104 191.217 324.033 191.217 329.533 200.743 L 368.989 269.083 L 408.446 337.424 C 413.945 346.949 409.48 354.683 398.482 354.683 Z " fill="rgb(86,142,166)"/></g></g></svg>