<?xml version="1.0" encoding="UTF-8" standalone="no"?><!-- Generator: Gravit.io --><svg xmlns="http://www.w3.org/2000/svg" xmlns:xlink="http://www.w3.org/1999/xlink" style="isolation:isolate" viewBox="0 0 857 141" width="857pt" height="141pt"><defs><clipPath id="_clipPath_hVtwevdnMazKAbSOnJ0ZipGQbFFBeWh3"><rect width="857" height="141"/></clipPath></defs><g clip-path="url(#_clipPath_hVtwevdnMazKAbSOnJ0ZipGQbFFBeWh3)"><g><path d="M 22.5 1.5 L 834.5 1.5 C 845.538 1.5 854.5 10.462 854.5 21.5 L 854.5 119.5 C 854.5 130.538 845.538 139.5 834.5 139.5 L 22.5 139.5 C 11.462 139.5 2.5 130.538 2.5 119.5 L 2.5 21.5 C 2.5 10.462 11.462 1.5 22.5 1.5 Z" style="stroke:none;fill:#568EA6;stroke-miterlimit:10;"/><path d=" M 467.636 53.895 L 467.636 58.398 L 453.119 58.398 L 453.119 86.424 L 447.787 86.424 L 447.787 53.895 L 467.636 53.895 Z  M 490.495 87.017 L 490.495 87.017 L 490.495 87.017 Q 483.948 87.017 480.423 82.306 L 480.423 82.306 L 480.067 82.306 L 480.186 83.521 L 480.186 83.521 Q 480.423 85.831 480.423 87.639 L 480.423 87.639 L 480.423 101 L 475.09 101 L 475.09 53.895 L 479.475 53.895 L 480.186 58.339 L 480.423 58.339 L 480.423 58.339 Q 482.319 55.672 484.807 54.487 L 484.807 54.487 L 484.807 54.487 Q 487.296 53.302 490.555 53.302 L 490.555 53.302 L 490.555 53.302 Q 496.895 53.302 500.405 57.702 L 500.405 57.702 L 500.405 57.702 Q 503.916 62.101 503.916 70.1 L 503.916 70.1 L 503.916 70.1 Q 503.916 78.069 500.391 82.543 L 500.391 82.543 L 500.391 82.543 Q 496.865 87.017 490.495 87.017 Z  M 489.607 57.776 L 489.607 57.776 L 489.607 57.776 Q 484.778 57.776 482.63 60.501 L 482.63 60.501 L 482.63 60.501 Q 480.482 63.227 480.423 69.063 L 480.423 69.063 L 480.423 70.1 L 480.423 70.1 Q 480.423 76.707 482.615 79.654 L 482.615 79.654 L 482.615 79.654 Q 484.807 82.602 489.725 82.602 L 489.725 82.602 L 489.725 82.602 Q 493.814 82.602 496.11 79.284 L 496.11 79.284 L 496.11 79.284 Q 498.406 75.966 498.406 70.041 L 498.406 70.041 L 498.406 70.041 Q 498.406 64.086 496.11 60.931 L 496.11 60.931 L 496.11 60.931 Q 493.814 57.776 489.607 57.776 Z  M 535.462 86.424 L 531.581 86.424 L 530.544 81.802 L 530.307 81.802 L 530.307 81.802 Q 527.878 84.854 525.463 85.935 L 525.463 85.935 L 525.463 85.935 Q 523.049 87.017 519.375 87.017 L 519.375 87.017 L 519.375 87.017 Q 514.575 87.017 511.85 84.498 L 511.85 84.498 L 511.85 84.498 Q 509.124 81.98 509.124 77.388 L 509.124 77.388 L 509.124 77.388 Q 509.124 67.493 524.737 67.019 L 524.737 67.019 L 530.248 66.812 L 530.248 64.886 L 530.248 64.886 Q 530.248 61.183 528.648 59.42 L 528.648 59.42 L 528.648 59.42 Q 527.048 57.657 523.523 57.657 L 523.523 57.657 L 523.523 57.657 Q 520.945 57.657 518.649 58.427 L 518.649 58.427 L 518.649 58.427 Q 516.353 59.198 514.338 60.146 L 514.338 60.146 L 512.709 56.146 L 512.709 56.146 Q 515.168 54.843 518.071 54.102 L 518.071 54.102 L 518.071 54.102 Q 520.975 53.361 523.819 53.361 L 523.819 53.361 L 523.819 53.361 Q 529.714 53.361 532.588 55.968 L 532.588 55.968 L 532.588 55.968 Q 535.462 58.576 535.462 64.264 L 535.462 64.264 L 535.462 86.424 Z  M 520.59 82.721 L 520.59 82.721 L 520.59 82.721 Q 525.063 82.721 527.626 80.306 L 527.626 80.306 L 527.626 80.306 Q 530.188 77.892 530.188 73.448 L 530.188 73.448 L 530.188 70.515 L 525.389 70.722 L 525.389 70.722 Q 519.79 70.93 517.227 72.5 L 517.227 72.5 L 517.227 72.5 Q 514.664 74.07 514.664 77.447 L 514.664 77.447 L 514.664 77.447 Q 514.664 79.995 516.22 81.358 L 516.22 81.358 L 516.22 81.358 Q 517.775 82.721 520.59 82.721 Z  M 580.357 70.159 L 580.357 70.159 L 580.357 70.159 Q 580.357 77.418 576.106 81.862 L 576.106 81.862 L 576.106 81.862 Q 571.854 86.305 564.27 86.898 L 564.27 86.898 L 564.27 101 L 559.056 101 L 559.056 86.898 L 559.056 86.898 Q 551.59 86.276 547.294 81.832 L 547.294 81.832 L 547.294 81.832 Q 542.999 77.388 542.999 70.159 L 542.999 70.159 L 542.999 70.159 Q 542.999 62.753 547.265 58.383 L 547.265 58.383 L 547.265 58.383 Q 551.531 54.013 559.234 53.421 L 559.234 53.421 L 559.234 40.326 L 564.27 40.326 L 564.27 53.421 L 564.27 53.421 Q 571.766 54.161 576.061 58.605 L 576.061 58.605 L 576.061 58.605 Q 580.357 63.049 580.357 70.159 Z  M 548.568 70.159 L 548.568 70.159 L 548.568 70.159 Q 548.568 81.447 559.234 82.543 L 559.234 82.543 L 559.234 57.835 L 559.234 57.835 Q 553.664 58.398 551.116 61.523 L 551.116 61.523 L 551.116 61.523 Q 548.568 64.649 548.568 70.159 Z  M 574.847 70.159 L 574.847 70.159 L 574.847 70.159 Q 574.847 59.05 564.27 57.894 L 564.27 57.894 L 564.27 82.543 L 564.27 82.543 Q 574.847 81.388 574.847 70.159 Z  M 590.371 53.895 L 595.407 53.895 L 595.407 73.744 L 595.17 79.492 L 595.052 81.151 L 612.472 53.895 L 619.019 53.895 L 619.019 86.424 L 614.042 86.424 L 614.042 67.256 L 614.131 63.138 L 614.279 59.227 L 596.977 86.424 L 590.371 86.424 L 590.371 53.895 Z  M 635.142 69.685 L 649.036 53.895 L 654.873 53.895 L 640.978 69.567 L 656.028 86.424 L 649.836 86.424 L 635.142 69.922 L 635.142 86.424 L 629.809 86.424 L 629.809 53.895 L 635.142 53.895 L 635.142 69.685 Z  M 687.147 86.424 L 683.266 86.424 L 682.229 81.802 L 681.992 81.802 L 681.992 81.802 Q 679.563 84.854 677.148 85.935 L 677.148 85.935 L 677.148 85.935 Q 674.734 87.017 671.06 87.017 L 671.06 87.017 L 671.06 87.017 Q 666.261 87.017 663.535 84.498 L 663.535 84.498 L 663.535 84.498 Q 660.81 81.98 660.81 77.388 L 660.81 77.388 L 660.81 77.388 Q 660.81 67.493 676.422 67.019 L 676.422 67.019 L 681.933 66.812 L 681.933 64.886 L 681.933 64.886 Q 681.933 61.183 680.333 59.42 L 680.333 59.42 L 680.333 59.42 Q 678.733 57.657 675.208 57.657 L 675.208 57.657 L 675.208 57.657 Q 672.63 57.657 670.334 58.427 L 670.334 58.427 L 670.334 58.427 Q 668.038 59.198 666.024 60.146 L 666.024 60.146 L 664.394 56.146 L 664.394 56.146 Q 666.853 54.843 669.757 54.102 L 669.757 54.102 L 669.757 54.102 Q 672.66 53.361 675.504 53.361 L 675.504 53.361 L 675.504 53.361 Q 681.4 53.361 684.273 55.968 L 684.273 55.968 L 684.273 55.968 Q 687.147 58.576 687.147 64.264 L 687.147 64.264 L 687.147 86.424 Z  M 672.275 82.721 L 672.275 82.721 L 672.275 82.721 Q 676.748 82.721 679.311 80.306 L 679.311 80.306 L 679.311 80.306 Q 681.874 77.892 681.874 73.448 L 681.874 73.448 L 681.874 70.515 L 677.074 70.722 L 677.074 70.722 Q 671.475 70.93 668.912 72.5 L 668.912 72.5 L 668.912 72.5 Q 666.35 74.07 666.35 77.447 L 666.35 77.447 L 666.35 77.447 Q 666.35 79.995 667.905 81.358 L 667.905 81.358 L 667.905 81.358 Q 669.46 82.721 672.275 82.721 Z  M 695.751 83.136 L 695.751 83.136 L 695.751 83.136 Q 695.751 82.01 696.047 81.225 L 696.047 81.225 L 696.047 81.225 Q 696.343 80.44 696.847 79.951 L 696.847 79.951 L 696.847 79.951 Q 697.35 79.462 698.032 79.24 L 698.032 79.24 L 698.032 79.24 Q 698.713 79.017 699.513 79.017 L 699.513 79.017 L 699.513 79.017 Q 700.283 79.017 700.98 79.24 L 700.98 79.24 L 700.98 79.24 Q 701.676 79.462 702.179 79.951 L 702.179 79.951 L 702.179 79.951 Q 702.683 80.44 702.979 81.225 L 702.979 81.225 L 702.979 81.225 Q 703.276 82.01 703.276 83.136 L 703.276 83.136 L 703.276 83.136 Q 703.276 84.232 702.979 85.017 L 702.979 85.017 L 702.979 85.017 Q 702.683 85.802 702.179 86.305 L 702.179 86.305 L 702.179 86.305 Q 701.676 86.809 700.98 87.046 L 700.98 87.046 L 700.98 87.046 Q 700.283 87.283 699.513 87.283 L 699.513 87.283 L 699.513 87.283 Q 698.713 87.283 698.032 87.046 L 698.032 87.046 L 698.032 87.046 Q 697.35 86.809 696.847 86.305 L 696.847 86.305 L 696.847 86.305 Q 696.343 85.802 696.047 85.017 L 696.047 85.017 L 696.047 85.017 Q 695.751 84.232 695.751 83.136 Z  M 153.724 86.424 L 153.724 43.111 L 158.82 43.111 L 158.82 66.9 L 158.82 66.9 Q 158.82 69.419 158.672 73.566 L 158.672 73.566 L 158.672 73.566 Q 158.524 77.714 158.376 78.958 L 158.376 78.958 L 158.642 78.958 L 182.462 43.111 L 188.535 43.111 L 188.535 86.424 L 183.439 86.424 L 183.439 62.871 L 183.439 62.871 Q 183.439 59.79 183.647 55.687 L 183.647 55.687 L 183.647 55.687 Q 183.854 51.584 183.943 50.369 L 183.943 50.369 L 183.676 50.369 L 159.798 86.424 L 153.724 86.424 Z  M 201.334 67.315 L 204.859 67.315 L 204.859 67.315 Q 214.073 67.315 214.073 62.338 L 214.073 62.338 L 214.073 62.338 Q 214.073 57.716 206.696 57.716 L 206.696 57.716 L 206.696 57.716 Q 204.355 57.716 202.341 58.161 L 202.341 58.161 L 202.341 58.161 Q 200.326 58.605 197.512 59.79 L 197.512 59.79 L 195.645 55.554 L 195.645 55.554 Q 200.711 53.302 206.992 53.302 L 206.992 53.302 L 206.992 53.302 Q 212.71 53.302 215.939 55.583 L 215.939 55.583 L 215.939 55.583 Q 219.168 57.864 219.168 61.864 L 219.168 61.864 L 219.168 61.864 Q 219.168 67.404 213.065 69.063 L 213.065 69.063 L 213.065 69.3 L 213.065 69.3 Q 216.769 70.367 218.517 72.381 L 218.517 72.381 L 218.517 72.381 Q 220.265 74.396 220.265 77.447 L 220.265 77.447 L 220.265 77.447 Q 220.265 81.921 216.561 84.469 L 216.561 84.469 L 216.561 84.469 Q 212.858 87.017 206.37 87.017 L 206.37 87.017 L 206.37 87.017 Q 199.2 87.017 195.29 84.913 L 195.29 84.913 L 195.29 80.114 L 195.29 80.114 Q 200.711 82.661 206.311 82.661 L 206.311 82.661 L 206.311 82.661 Q 210.488 82.661 212.74 81.269 L 212.74 81.269 L 212.74 81.269 Q 214.991 79.877 214.991 77.151 L 214.991 77.151 L 214.991 77.151 Q 214.991 74.366 212.71 73.018 L 212.71 73.018 L 212.71 73.018 Q 210.429 71.67 205.718 71.67 L 205.718 71.67 L 201.334 71.67 L 201.334 67.315 Z  M 227.079 66.9 L 227.079 66.9 L 227.079 66.9 Q 227.079 56.028 230.352 50.147 L 230.352 50.147 L 230.352 50.147 Q 233.626 44.266 240.647 42.726 L 240.647 42.726 L 240.647 42.726 Q 247.254 41.392 255.401 40 L 255.401 40 L 256.319 44.681 L 252.794 45.244 L 252.794 45.244 Q 245.921 46.37 241.743 47.229 L 241.743 47.229 L 241.743 47.229 Q 237.477 48.177 235.329 51.569 L 235.329 51.569 L 235.329 51.569 Q 233.181 54.961 232.885 61.42 L 232.885 61.42 L 233.27 61.42 L 233.27 61.42 Q 234.989 59.02 237.848 57.583 L 237.848 57.583 L 237.848 57.583 Q 240.707 56.146 243.936 56.146 L 243.936 56.146 L 243.936 56.146 Q 249.92 56.146 253.298 59.998 L 253.298 59.998 L 253.298 59.998 Q 256.675 63.849 256.675 70.781 L 256.675 70.781 L 256.675 70.781 Q 256.675 78.514 252.735 82.765 L 252.735 82.765 L 252.735 82.765 Q 248.794 87.017 241.803 87.017 L 241.803 87.017 L 241.803 87.017 Q 234.87 87.017 230.974 81.713 L 230.974 81.713 L 230.974 81.713 Q 227.079 76.41 227.079 66.9 Z  M 242.247 82.602 L 242.247 82.602 L 242.247 82.602 Q 251.046 82.602 251.046 71.315 L 251.046 71.315 L 251.046 71.315 Q 251.046 60.59 243.077 60.59 L 243.077 60.59 L 243.077 60.59 Q 240.914 60.59 238.885 61.479 L 238.885 61.479 L 238.885 61.479 Q 236.855 62.368 235.211 63.819 L 235.211 63.819 L 235.211 63.819 Q 233.567 65.271 232.53 67.019 L 232.53 67.019 L 232.53 67.019 Q 232.53 82.602 242.247 82.602 Z  M 279.007 87.017 L 279.007 87.017 L 279.007 87.017 Q 271.689 87.017 267.527 82.587 L 267.527 82.587 L 267.527 82.587 Q 263.364 78.158 263.364 70.396 L 263.364 70.396 L 263.364 70.396 Q 263.364 62.575 267.246 57.939 L 267.246 57.939 L 267.246 57.939 Q 271.127 53.302 277.733 53.302 L 277.733 53.302 L 277.733 53.302 Q 283.866 53.302 287.51 57.257 L 287.51 57.257 L 287.51 57.257 Q 291.154 61.212 291.154 67.967 L 291.154 67.967 L 291.154 71.196 L 268.875 71.196 L 268.875 71.196 Q 269.023 76.736 271.689 79.61 L 271.689 79.61 L 271.689 79.61 Q 274.356 82.484 279.244 82.484 L 279.244 82.484 L 279.244 82.484 Q 281.851 82.484 284.192 82.025 L 284.192 82.025 L 284.192 82.025 Q 286.532 81.565 289.672 80.232 L 289.672 80.232 L 289.672 84.913 L 289.672 84.913 Q 286.976 86.068 284.606 86.542 L 284.606 86.542 L 284.606 86.542 Q 282.236 87.017 279.007 87.017 Z  M 277.674 57.657 L 277.674 57.657 L 277.674 57.657 Q 273.852 57.657 271.63 60.116 L 271.63 60.116 L 271.63 60.116 Q 269.408 62.575 268.993 66.96 L 268.993 66.96 L 285.554 66.96 L 285.554 66.96 Q 285.495 62.397 283.451 60.027 L 283.451 60.027 L 283.451 60.027 Q 281.407 57.657 277.674 57.657 Z  M 313.948 87.017 L 313.948 87.017 L 313.948 87.017 Q 307.401 87.017 303.875 82.306 L 303.875 82.306 L 303.52 82.306 L 303.638 83.521 L 303.638 83.521 Q 303.875 85.831 303.875 87.639 L 303.875 87.639 L 303.875 101 L 298.542 101 L 298.542 53.895 L 302.927 53.895 L 303.638 58.339 L 303.875 58.339 L 303.875 58.339 Q 305.771 55.672 308.26 54.487 L 308.26 54.487 L 308.26 54.487 Q 310.748 53.302 314.007 53.302 L 314.007 53.302 L 314.007 53.302 Q 320.347 53.302 323.858 57.702 L 323.858 57.702 L 323.858 57.702 Q 327.369 62.101 327.369 70.1 L 327.369 70.1 L 327.369 70.1 Q 327.369 78.069 323.843 82.543 L 323.843 82.543 L 323.843 82.543 Q 320.318 87.017 313.948 87.017 Z  M 313.059 57.776 L 313.059 57.776 L 313.059 57.776 Q 308.23 57.776 306.082 60.501 L 306.082 60.501 L 306.082 60.501 Q 303.934 63.227 303.875 69.063 L 303.875 69.063 L 303.875 70.1 L 303.875 70.1 Q 303.875 76.707 306.067 79.654 L 306.067 79.654 L 306.067 79.654 Q 308.26 82.602 313.178 82.602 L 313.178 82.602 L 313.178 82.602 Q 317.266 82.602 319.562 79.284 L 319.562 79.284 L 319.562 79.284 Q 321.858 75.966 321.858 70.041 L 321.858 70.041 L 321.858 70.041 Q 321.858 64.086 319.562 60.931 L 319.562 60.931 L 319.562 60.931 Q 317.266 57.776 313.059 57.776 Z  M 348.782 87.017 L 348.782 87.017 L 348.782 87.017 Q 341.465 87.017 337.302 82.587 L 337.302 82.587 L 337.302 82.587 Q 333.14 78.158 333.14 70.396 L 333.14 70.396 L 333.14 70.396 Q 333.14 62.575 337.021 57.939 L 337.021 57.939 L 337.021 57.939 Q 340.902 53.302 347.508 53.302 L 347.508 53.302 L 347.508 53.302 Q 353.641 53.302 357.285 57.257 L 357.285 57.257 L 357.285 57.257 Q 360.929 61.212 360.929 67.967 L 360.929 67.967 L 360.929 71.196 L 338.65 71.196 L 338.65 71.196 Q 338.798 76.736 341.465 79.61 L 341.465 79.61 L 341.465 79.61 Q 344.131 82.484 349.019 82.484 L 349.019 82.484 L 349.019 82.484 Q 351.626 82.484 353.967 82.025 L 353.967 82.025 L 353.967 82.025 Q 356.307 81.565 359.448 80.232 L 359.448 80.232 L 359.448 84.913 L 359.448 84.913 Q 356.752 86.068 354.382 86.542 L 354.382 86.542 L 354.382 86.542 Q 352.012 87.017 348.782 87.017 Z  M 347.449 57.657 L 347.449 57.657 L 347.449 57.657 Q 343.627 57.657 341.405 60.116 L 341.405 60.116 L 341.405 60.116 Q 339.183 62.575 338.769 66.96 L 338.769 66.96 L 355.33 66.96 L 355.33 66.96 Q 355.27 62.397 353.226 60.027 L 353.226 60.027 L 353.226 60.027 Q 351.182 57.657 347.449 57.657 Z  M 390.774 53.895 L 390.774 58.398 L 380.138 58.398 L 380.138 86.424 L 374.865 86.424 L 374.865 58.398 L 364.377 58.398 L 364.377 53.895 L 390.774 53.895 Z  M 412.49 87.017 L 412.49 87.017 L 412.49 87.017 Q 405.172 87.017 401.01 82.587 L 401.01 82.587 L 401.01 82.587 Q 396.848 78.158 396.848 70.396 L 396.848 70.396 L 396.848 70.396 Q 396.848 62.575 400.729 57.939 L 400.729 57.939 L 400.729 57.939 Q 404.61 53.302 411.216 53.302 L 411.216 53.302 L 411.216 53.302 Q 417.349 53.302 420.993 57.257 L 420.993 57.257 L 420.993 57.257 Q 424.637 61.212 424.637 67.967 L 424.637 67.967 L 424.637 71.196 L 402.358 71.196 L 402.358 71.196 Q 402.506 76.736 405.172 79.61 L 405.172 79.61 L 405.172 79.61 Q 407.839 82.484 412.727 82.484 L 412.727 82.484 L 412.727 82.484 Q 415.334 82.484 417.675 82.025 L 417.675 82.025 L 417.675 82.025 Q 420.015 81.565 423.155 80.232 L 423.155 80.232 L 423.155 84.913 L 423.155 84.913 Q 420.459 86.068 418.089 86.542 L 418.089 86.542 L 418.089 86.542 Q 415.719 87.017 412.49 87.017 Z  M 411.157 57.657 L 411.157 57.657 L 411.157 57.657 Q 407.335 57.657 405.113 60.116 L 405.113 60.116 L 405.113 60.116 Q 402.891 62.575 402.476 66.96 L 402.476 66.96 L 419.037 66.96 L 419.037 66.96 Q 418.978 62.397 416.934 60.027 L 416.934 60.027 L 416.934 60.027 Q 414.89 57.657 411.157 57.657 Z " fill="rgb(16,55,72)"/></g></g></svg>