<?xml version="1.0" encoding="UTF-8" standalone="no"?><!-- Generator: Gravit.io --><svg xmlns="http://www.w3.org/2000/svg" xmlns:xlink="http://www.w3.org/1999/xlink" style="isolation:isolate" viewBox="0 0 610 169" width="610pt" height="169pt"><defs><clipPath id="_clipPath_6PJ7MIc42sIP32LR0AQXnh5zhs0528K5"><rect width="610" height="169"/></clipPath></defs><g clip-path="url(#_clipPath_6PJ7MIc42sIP32LR0AQXnh5zhs0528K5)"><g><path d="M 15 0 L 595 0 C 603.279 0 610 6.721 610 15 L 610 154 C 610 162.279 603.279 169 595 169 L 15 169 C 6.721 169 0 162.279 0 154 L 0 15 C 0 6.721 6.721 0 15 0 Z" style="stroke:none;fill:#568EA6;stroke-miterlimit:10;"/><path d=" M 439.603 83.5 L 439.603 83.5 Q 441.349 83.88 442.298 85.006 L 442.298 85.006 L 442.298 85.006 Q 443.247 86.132 443.247 87.904 L 443.247 87.904 L 443.247 87.904 Q 443.247 90.181 441.564 91.409 L 441.564 91.409 L 441.564 91.409 Q 439.882 92.636 436.592 92.636 L 436.592 92.636 L 428.443 92.636 L 428.443 74.922 L 436.086 74.922 L 436.086 74.922 Q 439.047 74.922 440.679 76.111 L 440.679 76.111 L 440.679 76.111 Q 442.311 77.3 442.311 79.477 L 442.311 79.477 L 442.311 79.477 Q 442.311 80.944 441.59 81.969 L 441.59 81.969 L 441.59 81.969 Q 440.869 82.994 439.603 83.5 L 439.603 83.5 Z  M 435.959 76.465 L 430.316 76.465 L 430.316 82.893 L 435.959 82.893 L 435.959 82.893 Q 438.11 82.893 439.274 82.071 L 439.274 82.071 L 439.274 82.071 Q 440.438 81.248 440.438 79.679 L 440.438 79.679 L 440.438 79.679 Q 440.438 78.11 439.274 77.288 L 439.274 77.288 L 439.274 77.288 Q 438.11 76.465 435.959 76.465 L 435.959 76.465 Z  M 436.567 91.092 L 436.567 91.092 Q 438.945 91.092 440.16 90.282 L 440.16 90.282 L 440.16 90.282 Q 441.375 89.473 441.375 87.752 L 441.375 87.752 L 441.375 87.752 Q 441.375 84.437 436.567 84.437 L 436.567 84.437 L 430.316 84.437 L 430.316 91.092 L 436.567 91.092 Z  M 452.585 92.762 L 452.585 92.762 Q 450.662 92.762 449.118 91.889 L 449.118 91.889 L 449.118 91.889 Q 447.575 91.016 446.689 89.473 L 446.689 89.473 L 446.689 89.473 Q 445.803 87.929 445.803 85.98 L 445.803 85.98 L 445.803 85.98 Q 445.803 84.032 446.689 82.488 L 446.689 82.488 L 446.689 82.488 Q 447.575 80.944 449.118 80.084 L 449.118 80.084 L 449.118 80.084 Q 450.662 79.224 452.585 79.224 L 452.585 79.224 L 452.585 79.224 Q 454.509 79.224 456.052 80.084 L 456.052 80.084 L 456.052 80.084 Q 457.596 80.944 458.469 82.488 L 458.469 82.488 L 458.469 82.488 Q 459.342 84.032 459.342 85.98 L 459.342 85.98 L 459.342 85.98 Q 459.342 87.929 458.469 89.473 L 458.469 89.473 L 458.469 89.473 Q 457.596 91.016 456.052 91.889 L 456.052 91.889 L 456.052 91.889 Q 454.509 92.762 452.585 92.762 L 452.585 92.762 Z  M 452.585 91.168 L 452.585 91.168 Q 454.002 91.168 455.129 90.523 L 455.129 90.523 L 455.129 90.523 Q 456.255 89.878 456.887 88.688 L 456.887 88.688 L 456.887 88.688 Q 457.52 87.499 457.52 85.98 L 457.52 85.98 L 457.52 85.98 Q 457.52 84.462 456.887 83.273 L 456.887 83.273 L 456.887 83.273 Q 456.255 82.083 455.129 81.438 L 455.129 81.438 L 455.129 81.438 Q 454.002 80.793 452.585 80.793 L 452.585 80.793 L 452.585 80.793 Q 451.168 80.793 450.042 81.438 L 450.042 81.438 L 450.042 81.438 Q 448.916 82.083 448.271 83.273 L 448.271 83.273 L 448.271 83.273 Q 447.625 84.462 447.625 85.98 L 447.625 85.98 L 447.625 85.98 Q 447.625 87.499 448.271 88.688 L 448.271 88.688 L 448.271 88.688 Q 448.916 89.878 450.042 90.523 L 450.042 90.523 L 450.042 90.523 Q 451.168 91.168 452.585 91.168 L 452.585 91.168 Z  M 473.362 73.859 L 475.158 73.859 L 475.158 92.636 L 473.437 92.636 L 473.437 90.004 L 473.437 90.004 Q 472.628 91.345 471.299 92.054 L 471.299 92.054 L 471.299 92.054 Q 469.971 92.762 468.3 92.762 L 468.3 92.762 L 468.3 92.762 Q 466.428 92.762 464.909 91.902 L 464.909 91.902 L 464.909 91.902 Q 463.391 91.042 462.531 89.498 L 462.531 89.498 L 462.531 89.498 Q 461.67 87.954 461.67 85.98 L 461.67 85.98 L 461.67 85.98 Q 461.67 84.007 462.531 82.463 L 462.531 82.463 L 462.531 82.463 Q 463.391 80.919 464.909 80.071 L 464.909 80.071 L 464.909 80.071 Q 466.428 79.224 468.3 79.224 L 468.3 79.224 L 468.3 79.224 Q 469.92 79.224 471.223 79.894 L 471.223 79.894 L 471.223 79.894 Q 472.526 80.565 473.362 81.855 L 473.362 81.855 L 473.362 73.859 Z  M 468.452 91.168 L 468.452 91.168 Q 469.844 91.168 470.97 90.523 L 470.97 90.523 L 470.97 90.523 Q 472.096 89.878 472.742 88.688 L 472.742 88.688 L 472.742 88.688 Q 473.387 87.499 473.387 85.98 L 473.387 85.98 L 473.387 85.98 Q 473.387 84.462 472.742 83.273 L 472.742 83.273 L 472.742 83.273 Q 472.096 82.083 470.97 81.438 L 470.97 81.438 L 470.97 81.438 Q 469.844 80.793 468.452 80.793 L 468.452 80.793 L 468.452 80.793 Q 467.035 80.793 465.909 81.438 L 465.909 81.438 L 465.909 81.438 Q 464.783 82.083 464.138 83.273 L 464.138 83.273 L 464.138 83.273 Q 463.492 84.462 463.492 85.98 L 463.492 85.98 L 463.492 85.98 Q 463.492 87.499 464.138 88.688 L 464.138 88.688 L 464.138 88.688 Q 464.783 89.878 465.909 90.523 L 465.909 90.523 L 465.909 90.523 Q 467.035 91.168 468.452 91.168 L 468.452 91.168 Z  M 489.583 79.325 L 491.354 79.325 L 484.699 94.23 L 484.699 94.23 Q 483.889 96.103 482.826 96.887 L 482.826 96.887 L 482.826 96.887 Q 481.763 97.672 480.27 97.672 L 480.27 97.672 L 480.27 97.672 Q 479.309 97.672 478.474 97.368 L 478.474 97.368 L 478.474 97.368 Q 477.638 97.064 477.031 96.457 L 477.031 96.457 L 477.866 95.116 L 477.866 95.116 Q 478.878 96.128 480.295 96.128 L 480.295 96.128 L 480.295 96.128 Q 481.206 96.128 481.852 95.622 L 481.852 95.622 L 481.852 95.622 Q 482.497 95.116 483.054 93.901 L 483.054 93.901 L 483.636 92.611 L 477.689 79.325 L 479.562 79.325 L 484.572 90.637 L 489.583 79.325 Z  M 500.743 79.224 L 500.743 79.224 Q 502.616 79.224 504.134 80.071 L 504.134 80.071 L 504.134 80.071 Q 505.652 80.919 506.513 82.463 L 506.513 82.463 L 506.513 82.463 Q 507.373 84.007 507.373 85.98 L 507.373 85.98 L 507.373 85.98 Q 507.373 87.954 506.513 89.498 L 506.513 89.498 L 506.513 89.498 Q 505.652 91.042 504.134 91.902 L 504.134 91.902 L 504.134 91.902 Q 502.616 92.762 500.743 92.762 L 500.743 92.762 L 500.743 92.762 Q 499.073 92.762 497.744 92.054 L 497.744 92.054 L 497.744 92.054 Q 496.415 91.345 495.606 90.004 L 495.606 90.004 L 495.606 92.636 L 493.885 92.636 L 493.885 73.859 L 495.682 73.859 L 495.682 81.855 L 495.682 81.855 Q 496.517 80.565 497.82 79.894 L 497.82 79.894 L 497.82 79.894 Q 499.123 79.224 500.743 79.224 L 500.743 79.224 Z  M 500.616 91.168 L 500.616 91.168 Q 502.008 91.168 503.147 90.523 L 503.147 90.523 L 503.147 90.523 Q 504.286 89.878 504.931 88.688 L 504.931 88.688 L 504.931 88.688 Q 505.576 87.499 505.576 85.98 L 505.576 85.98 L 505.576 85.98 Q 505.576 84.462 504.931 83.273 L 504.931 83.273 L 504.931 83.273 Q 504.286 82.083 503.147 81.438 L 503.147 81.438 L 503.147 81.438 Q 502.008 80.793 500.616 80.793 L 500.616 80.793 L 500.616 80.793 Q 499.199 80.793 498.073 81.438 L 498.073 81.438 L 498.073 81.438 Q 496.947 82.083 496.302 83.273 L 496.302 83.273 L 496.302 83.273 Q 495.656 84.462 495.656 85.98 L 495.656 85.98 L 495.656 85.98 Q 495.656 87.499 496.302 88.688 L 496.302 88.688 L 496.302 88.688 Q 496.947 89.878 498.073 90.523 L 498.073 90.523 L 498.073 90.523 Q 499.199 91.168 500.616 91.168 L 500.616 91.168 Z  M 521.241 79.325 L 523.038 79.325 L 523.038 92.636 L 521.317 92.636 L 521.317 90.206 L 521.317 90.206 Q 520.608 91.421 519.368 92.092 L 519.368 92.092 L 519.368 92.092 Q 518.128 92.762 516.534 92.762 L 516.534 92.762 L 516.534 92.762 Q 513.927 92.762 512.422 91.307 L 512.422 91.307 L 512.422 91.307 Q 510.916 89.852 510.916 87.043 L 510.916 87.043 L 510.916 79.325 L 512.713 79.325 L 512.713 86.866 L 512.713 86.866 Q 512.713 88.966 513.75 90.055 L 513.75 90.055 L 513.75 90.055 Q 514.788 91.143 516.711 91.143 L 516.711 91.143 L 516.711 91.143 Q 518.811 91.143 520.026 89.865 L 520.026 89.865 L 520.026 89.865 Q 521.241 88.587 521.241 86.309 L 521.241 86.309 L 521.241 79.325 Z  M 528.073 92.636 L 528.073 79.325 L 529.87 79.325 L 529.87 92.636 L 528.073 92.636 Z  M 528.984 76.415 L 528.984 76.415 Q 528.428 76.415 528.048 76.035 L 528.048 76.035 L 528.048 76.035 Q 527.669 75.655 527.669 75.124 L 527.669 75.124 L 527.669 75.124 Q 527.669 74.618 528.048 74.238 L 528.048 74.238 L 528.048 74.238 Q 528.428 73.859 528.984 73.859 L 528.984 73.859 L 528.984 73.859 Q 529.541 73.859 529.921 74.226 L 529.921 74.226 L 529.921 74.226 Q 530.3 74.593 530.3 75.099 L 530.3 75.099 L 530.3 75.099 Q 530.3 75.655 529.921 76.035 L 529.921 76.035 L 529.921 76.035 Q 529.541 76.415 528.984 76.415 L 528.984 76.415 Z  M 534.881 92.636 L 534.881 73.859 L 536.678 73.859 L 536.678 92.636 L 534.881 92.636 Z  M 552.038 73.859 L 553.835 73.859 L 553.835 92.636 L 552.114 92.636 L 552.114 90.004 L 552.114 90.004 Q 551.304 91.345 549.976 92.054 L 549.976 92.054 L 549.976 92.054 Q 548.647 92.762 546.977 92.762 L 546.977 92.762 L 546.977 92.762 Q 545.104 92.762 543.586 91.902 L 543.586 91.902 L 543.586 91.902 Q 542.068 91.042 541.207 89.498 L 541.207 89.498 L 541.207 89.498 Q 540.347 87.954 540.347 85.98 L 540.347 85.98 L 540.347 85.98 Q 540.347 84.007 541.207 82.463 L 541.207 82.463 L 541.207 82.463 Q 542.068 80.919 543.586 80.071 L 543.586 80.071 L 543.586 80.071 Q 545.104 79.224 546.977 79.224 L 546.977 79.224 L 546.977 79.224 Q 548.597 79.224 549.9 79.894 L 549.9 79.894 L 549.9 79.894 Q 551.203 80.565 552.038 81.855 L 552.038 81.855 L 552.038 73.859 Z  M 547.129 91.168 L 547.129 91.168 Q 548.521 91.168 549.647 90.523 L 549.647 90.523 L 549.647 90.523 Q 550.773 89.878 551.418 88.688 L 551.418 88.688 L 551.418 88.688 Q 552.064 87.499 552.064 85.98 L 552.064 85.98 L 552.064 85.98 Q 552.064 84.462 551.418 83.273 L 551.418 83.273 L 551.418 83.273 Q 550.773 82.083 549.647 81.438 L 549.647 81.438 L 549.647 81.438 Q 548.521 80.793 547.129 80.793 L 547.129 80.793 L 547.129 80.793 Q 545.712 80.793 544.586 81.438 L 544.586 81.438 L 544.586 81.438 Q 543.46 82.083 542.814 83.273 L 542.814 83.273 L 542.814 83.273 Q 542.169 84.462 542.169 85.98 L 542.169 85.98 L 542.169 85.98 Q 542.169 87.499 542.814 88.688 L 542.814 88.688 L 542.814 88.688 Q 543.46 89.878 544.586 90.523 L 544.586 90.523 L 544.586 90.523 Q 545.712 91.168 547.129 91.168 L 547.129 91.168 Z  M 558.846 92.636 L 558.846 79.325 L 560.642 79.325 L 560.642 92.636 L 558.846 92.636 Z  M 559.757 76.415 L 559.757 76.415 Q 559.2 76.415 558.82 76.035 L 558.82 76.035 L 558.82 76.035 Q 558.441 75.655 558.441 75.124 L 558.441 75.124 L 558.441 75.124 Q 558.441 74.618 558.82 74.238 L 558.82 74.238 L 558.82 74.238 Q 559.2 73.859 559.757 73.859 L 559.757 73.859 L 559.757 73.859 Q 560.313 73.859 560.693 74.226 L 560.693 74.226 L 560.693 74.226 Q 561.073 74.593 561.073 75.099 L 561.073 75.099 L 561.073 75.099 Q 561.073 75.655 560.693 76.035 L 560.693 76.035 L 560.693 76.035 Q 560.313 76.415 559.757 76.415 L 559.757 76.415 Z  M 572.435 79.224 L 572.435 79.224 Q 574.94 79.224 576.421 80.679 L 576.421 80.679 L 576.421 80.679 Q 577.901 82.134 577.901 84.918 L 577.901 84.918 L 577.901 92.636 L 576.104 92.636 L 576.104 85.095 L 576.104 85.095 Q 576.104 83.02 575.067 81.931 L 575.067 81.931 L 575.067 81.931 Q 574.029 80.843 572.106 80.843 L 572.106 80.843 L 572.106 80.843 Q 569.955 80.843 568.702 82.121 L 568.702 82.121 L 568.702 82.121 Q 567.45 83.399 567.45 85.651 L 567.45 85.651 L 567.45 92.636 L 565.653 92.636 L 565.653 79.325 L 567.374 79.325 L 567.374 81.78 L 567.374 81.78 Q 568.108 80.565 569.411 79.894 L 569.411 79.894 L 569.411 79.894 Q 570.714 79.224 572.435 79.224 L 572.435 79.224 Z  M 593.439 79.325 L 595.16 79.325 L 595.16 91.016 L 595.16 91.016 Q 595.16 94.407 593.502 96.04 L 593.502 96.04 L 593.502 96.04 Q 591.845 97.672 588.504 97.672 L 588.504 97.672 L 588.504 97.672 Q 586.657 97.672 585 97.128 L 585 97.128 L 585 97.128 Q 583.342 96.584 582.304 95.622 L 582.304 95.622 L 583.215 94.256 L 583.215 94.256 Q 584.177 95.116 585.556 95.597 L 585.556 95.597 L 585.556 95.597 Q 586.936 96.077 588.454 96.077 L 588.454 96.077 L 588.454 96.077 Q 590.984 96.077 592.174 94.901 L 592.174 94.901 L 592.174 94.901 Q 593.363 93.724 593.363 91.244 L 593.363 91.244 L 593.363 89.549 L 593.363 89.549 Q 592.528 90.814 591.174 91.472 L 591.174 91.472 L 591.174 91.472 Q 589.82 92.13 588.176 92.13 L 588.176 92.13 L 588.176 92.13 Q 586.303 92.13 584.772 91.307 L 584.772 91.307 L 584.772 91.307 Q 583.241 90.485 582.368 89.004 L 582.368 89.004 L 582.368 89.004 Q 581.495 87.524 581.495 85.651 L 581.495 85.651 L 581.495 85.651 Q 581.495 83.779 582.368 82.311 L 582.368 82.311 L 582.368 82.311 Q 583.241 80.843 584.759 80.034 L 584.759 80.034 L 584.759 80.034 Q 586.278 79.224 588.176 79.224 L 588.176 79.224 L 588.176 79.224 Q 589.871 79.224 591.238 79.907 L 591.238 79.907 L 591.238 79.907 Q 592.604 80.59 593.439 81.881 L 593.439 81.881 L 593.439 79.325 Z  M 588.353 90.535 L 588.353 90.535 Q 589.795 90.535 590.959 89.915 L 590.959 89.915 L 590.959 89.915 Q 592.123 89.295 592.769 88.182 L 592.769 88.182 L 592.769 88.182 Q 593.414 87.069 593.414 85.651 L 593.414 85.651 L 593.414 85.651 Q 593.414 84.234 592.769 83.133 L 592.769 83.133 L 592.769 83.133 Q 592.123 82.033 590.972 81.413 L 590.972 81.413 L 590.972 81.413 Q 589.82 80.793 588.353 80.793 L 588.353 80.793 L 588.353 80.793 Q 586.91 80.793 585.759 81.4 L 585.759 81.4 L 585.759 81.4 Q 584.607 82.007 583.962 83.121 L 583.962 83.121 L 583.962 83.121 Q 583.317 84.234 583.317 85.651 L 583.317 85.651 L 583.317 85.651 Q 583.317 87.069 583.962 88.182 L 583.962 88.182 L 583.962 88.182 Q 584.607 89.295 585.759 89.915 L 585.759 89.915 L 585.759 89.915 Q 586.91 90.535 588.353 90.535 L 588.353 90.535 Z  M 409.818 95.167 L 418.169 71.328 L 419.814 71.328 L 411.463 95.167 L 409.818 95.167 Z  M 253.274 92.636 L 253.274 79.325 L 255.071 79.325 L 255.071 89.903 L 263.953 79.325 L 265.548 79.325 L 265.548 92.636 L 263.751 92.636 L 263.751 82.058 L 254.894 92.636 L 253.274 92.636 Z  M 270.988 92.636 L 270.988 79.325 L 272.785 79.325 L 272.785 85.221 L 281.162 85.221 L 281.162 79.325 L 282.958 79.325 L 282.958 92.636 L 281.162 92.636 L 281.162 86.765 L 272.785 86.765 L 272.785 92.636 L 270.988 92.636 Z  M 294.27 92.762 L 294.27 92.762 Q 292.296 92.762 290.74 91.902 L 290.74 91.902 L 290.74 91.902 Q 289.184 91.042 288.298 89.485 L 288.298 89.485 L 288.298 89.485 Q 287.412 87.929 287.412 85.98 L 287.412 85.98 L 287.412 85.98 Q 287.412 84.032 288.298 82.488 L 288.298 82.488 L 288.298 82.488 Q 289.184 80.944 290.74 80.084 L 290.74 80.084 L 290.74 80.084 Q 292.296 79.224 294.27 79.224 L 294.27 79.224 L 294.27 79.224 Q 295.991 79.224 297.345 79.894 L 297.345 79.894 L 297.345 79.894 Q 298.699 80.565 299.483 81.855 L 299.483 81.855 L 298.142 82.767 L 298.142 82.767 Q 297.484 81.78 296.472 81.286 L 296.472 81.286 L 296.472 81.286 Q 295.46 80.793 294.27 80.793 L 294.27 80.793 L 294.27 80.793 Q 292.828 80.793 291.676 81.438 L 291.676 81.438 L 291.676 81.438 Q 290.525 82.083 289.88 83.273 L 289.88 83.273 L 289.88 83.273 Q 289.234 84.462 289.234 85.98 L 289.234 85.98 L 289.234 85.98 Q 289.234 87.524 289.88 88.701 L 289.88 88.701 L 289.88 88.701 Q 290.525 89.878 291.676 90.523 L 291.676 90.523 L 291.676 90.523 Q 292.828 91.168 294.27 91.168 L 294.27 91.168 L 294.27 91.168 Q 295.46 91.168 296.472 90.687 L 296.472 90.687 L 296.472 90.687 Q 297.484 90.206 298.142 89.22 L 298.142 89.22 L 299.483 90.131 L 299.483 90.131 Q 298.699 91.421 297.332 92.092 L 297.332 92.092 L 297.332 92.092 Q 295.966 92.762 294.27 92.762 L 294.27 92.762 Z  M 311.984 79.325 L 311.984 80.919 L 306.949 80.919 L 306.949 92.636 L 305.152 92.636 L 305.152 80.919 L 300.116 80.919 L 300.116 79.325 L 311.984 79.325 Z  M 320.867 79.224 L 320.867 79.224 Q 322.74 79.224 324.258 80.071 L 324.258 80.071 L 324.258 80.071 Q 325.776 80.919 326.637 82.463 L 326.637 82.463 L 326.637 82.463 Q 327.497 84.007 327.497 85.98 L 327.497 85.98 L 327.497 85.98 Q 327.497 87.98 326.637 89.523 L 326.637 89.523 L 326.637 89.523 Q 325.776 91.067 324.271 91.915 L 324.271 91.915 L 324.271 91.915 Q 322.765 92.762 320.867 92.762 L 320.867 92.762 L 320.867 92.762 Q 319.247 92.762 317.944 92.092 L 317.944 92.092 L 317.944 92.092 Q 316.641 91.421 315.806 90.131 L 315.806 90.131 L 315.806 97.545 L 314.009 97.545 L 314.009 79.325 L 315.73 79.325 L 315.73 81.957 L 315.73 81.957 Q 316.54 80.641 317.868 79.932 L 317.868 79.932 L 317.868 79.932 Q 319.197 79.224 320.867 79.224 L 320.867 79.224 Z  M 320.74 91.168 L 320.74 91.168 Q 322.132 91.168 323.271 90.523 L 323.271 90.523 L 323.271 90.523 Q 324.41 89.878 325.055 88.688 L 325.055 88.688 L 325.055 88.688 Q 325.7 87.499 325.7 85.98 L 325.7 85.98 L 325.7 85.98 Q 325.7 84.462 325.055 83.285 L 325.055 83.285 L 325.055 83.285 Q 324.41 82.109 323.271 81.451 L 323.271 81.451 L 323.271 81.451 Q 322.132 80.793 320.74 80.793 L 320.74 80.793 L 320.74 80.793 Q 319.323 80.793 318.197 81.451 L 318.197 81.451 L 318.197 81.451 Q 317.071 82.109 316.426 83.285 L 316.426 83.285 L 316.426 83.285 Q 315.78 84.462 315.78 85.98 L 315.78 85.98 L 315.78 85.98 Q 315.78 87.499 316.426 88.688 L 316.426 88.688 L 316.426 88.688 Q 317.071 89.878 318.197 90.523 L 318.197 90.523 L 318.197 90.523 Q 319.323 91.168 320.74 91.168 L 320.74 91.168 Z  M 341.264 79.325 L 343.035 79.325 L 336.38 94.23 L 336.38 94.23 Q 335.57 96.103 334.507 96.887 L 334.507 96.887 L 334.507 96.887 Q 333.444 97.672 331.951 97.672 L 331.951 97.672 L 331.951 97.672 Q 330.989 97.672 330.154 97.368 L 330.154 97.368 L 330.154 97.368 Q 329.319 97.064 328.712 96.457 L 328.712 96.457 L 329.547 95.116 L 329.547 95.116 Q 330.559 96.128 331.976 96.128 L 331.976 96.128 L 331.976 96.128 Q 332.887 96.128 333.533 95.622 L 333.533 95.622 L 333.533 95.622 Q 334.178 95.116 334.735 93.901 L 334.735 93.901 L 335.317 92.611 L 329.37 79.325 L 331.243 79.325 L 336.253 90.637 L 341.264 79.325 Z  M 355.385 92.636 L 350.475 86.714 L 347.438 86.714 L 347.438 92.636 L 345.642 92.636 L 345.642 79.325 L 347.438 79.325 L 347.438 85.171 L 350.5 85.171 L 355.182 79.325 L 357.131 79.325 L 351.892 85.778 L 357.51 92.636 L 355.385 92.636 Z  M 370.189 79.325 L 370.189 80.919 L 365.153 80.919 L 365.153 92.636 L 363.356 92.636 L 363.356 80.919 L 358.32 80.919 L 358.32 79.325 L 370.189 79.325 Z  M 377.705 92.762 L 377.705 92.762 Q 375.781 92.762 374.238 91.889 L 374.238 91.889 L 374.238 91.889 Q 372.694 91.016 371.808 89.473 L 371.808 89.473 L 371.808 89.473 Q 370.923 87.929 370.923 85.98 L 370.923 85.98 L 370.923 85.98 Q 370.923 84.032 371.808 82.488 L 371.808 82.488 L 371.808 82.488 Q 372.694 80.944 374.238 80.084 L 374.238 80.084 L 374.238 80.084 Q 375.781 79.224 377.705 79.224 L 377.705 79.224 L 377.705 79.224 Q 379.628 79.224 381.171 80.084 L 381.171 80.084 L 381.171 80.084 Q 382.715 80.944 383.588 82.488 L 383.588 82.488 L 383.588 82.488 Q 384.461 84.032 384.461 85.98 L 384.461 85.98 L 384.461 85.98 Q 384.461 87.929 383.588 89.473 L 383.588 89.473 L 383.588 89.473 Q 382.715 91.016 381.171 91.889 L 381.171 91.889 L 381.171 91.889 Q 379.628 92.762 377.705 92.762 L 377.705 92.762 Z  M 377.705 91.168 L 377.705 91.168 Q 379.122 91.168 380.248 90.523 L 380.248 90.523 L 380.248 90.523 Q 381.374 89.878 382.007 88.688 L 382.007 88.688 L 382.007 88.688 Q 382.639 87.499 382.639 85.98 L 382.639 85.98 L 382.639 85.98 Q 382.639 84.462 382.007 83.273 L 382.007 83.273 L 382.007 83.273 Q 381.374 82.083 380.248 81.438 L 380.248 81.438 L 380.248 81.438 Q 379.122 80.793 377.705 80.793 L 377.705 80.793 L 377.705 80.793 Q 376.287 80.793 375.161 81.438 L 375.161 81.438 L 375.161 81.438 Q 374.035 82.083 373.39 83.273 L 373.39 83.273 L 373.39 83.273 Q 372.744 84.462 372.744 85.98 L 372.744 85.98 L 372.744 85.98 Q 372.744 87.499 373.39 88.688 L 373.39 88.688 L 373.39 88.688 Q 374.035 89.878 375.161 90.523 L 375.161 90.523 L 375.161 90.523 Q 376.287 91.168 377.705 91.168 L 377.705 91.168 Z  M 395.52 79.224 L 395.52 79.224 Q 397.393 79.224 398.911 80.071 L 398.911 80.071 L 398.911 80.071 Q 400.429 80.919 401.29 82.463 L 401.29 82.463 L 401.29 82.463 Q 402.15 84.007 402.15 85.98 L 402.15 85.98 L 402.15 85.98 Q 402.15 87.98 401.29 89.523 L 401.29 89.523 L 401.29 89.523 Q 400.429 91.067 398.924 91.915 L 398.924 91.915 L 398.924 91.915 Q 397.418 92.762 395.52 92.762 L 395.52 92.762 L 395.52 92.762 Q 393.9 92.762 392.597 92.092 L 392.597 92.092 L 392.597 92.092 Q 391.294 91.421 390.459 90.131 L 390.459 90.131 L 390.459 97.545 L 388.662 97.545 L 388.662 79.325 L 390.383 79.325 L 390.383 81.957 L 390.383 81.957 Q 391.193 80.641 392.521 79.932 L 392.521 79.932 L 392.521 79.932 Q 393.85 79.224 395.52 79.224 L 395.52 79.224 Z  M 395.393 91.168 L 395.393 91.168 Q 396.785 91.168 397.924 90.523 L 397.924 90.523 L 397.924 90.523 Q 399.063 89.878 399.708 88.688 L 399.708 88.688 L 399.708 88.688 Q 400.354 87.499 400.354 85.98 L 400.354 85.98 L 400.354 85.98 Q 400.354 84.462 399.708 83.285 L 399.708 83.285 L 399.708 83.285 Q 399.063 82.109 397.924 81.451 L 397.924 81.451 L 397.924 81.451 Q 396.785 80.793 395.393 80.793 L 395.393 80.793 L 395.393 80.793 Q 393.976 80.793 392.85 81.451 L 392.85 81.451 L 392.85 81.451 Q 391.724 82.109 391.079 83.285 L 391.079 83.285 L 391.079 83.285 Q 390.433 84.462 390.433 85.98 L 390.433 85.98 L 390.433 85.98 Q 390.433 87.499 391.079 88.688 L 391.079 88.688 L 391.079 88.688 Q 391.724 89.878 392.85 90.523 L 392.85 90.523 L 392.85 90.523 Q 393.976 91.168 395.393 91.168 L 395.393 91.168 Z  M 234.978 95.167 L 243.329 71.328 L 244.974 71.328 L 236.623 95.167 L 234.978 95.167 Z  M 130.818 79.325 L 130.818 80.919 L 125.782 80.919 L 125.782 92.636 L 123.985 92.636 L 123.985 80.919 L 118.949 80.919 L 118.949 79.325 L 130.818 79.325 Z  M 139.7 79.224 L 139.7 79.224 Q 141.573 79.224 143.091 80.071 L 143.091 80.071 L 143.091 80.071 Q 144.61 80.919 145.47 82.463 L 145.47 82.463 L 145.47 82.463 Q 146.331 84.007 146.331 85.98 L 146.331 85.98 L 146.331 85.98 Q 146.331 87.98 145.47 89.523 L 145.47 89.523 L 145.47 89.523 Q 144.61 91.067 143.104 91.915 L 143.104 91.915 L 143.104 91.915 Q 141.598 92.762 139.7 92.762 L 139.7 92.762 L 139.7 92.762 Q 138.081 92.762 136.778 92.092 L 136.778 92.092 L 136.778 92.092 Q 135.474 91.421 134.639 90.131 L 134.639 90.131 L 134.639 97.545 L 132.842 97.545 L 132.842 79.325 L 134.563 79.325 L 134.563 81.957 L 134.563 81.957 Q 135.373 80.641 136.702 79.932 L 136.702 79.932 L 136.702 79.932 Q 138.03 79.224 139.7 79.224 L 139.7 79.224 Z  M 139.574 91.168 L 139.574 91.168 Q 140.966 91.168 142.105 90.523 L 142.105 90.523 L 142.105 90.523 Q 143.243 89.878 143.889 88.688 L 143.889 88.688 L 143.889 88.688 Q 144.534 87.499 144.534 85.98 L 144.534 85.98 L 144.534 85.98 Q 144.534 84.462 143.889 83.285 L 143.889 83.285 L 143.889 83.285 Q 143.243 82.109 142.105 81.451 L 142.105 81.451 L 142.105 81.451 Q 140.966 80.793 139.574 80.793 L 139.574 80.793 L 139.574 80.793 Q 138.157 80.793 137.031 81.451 L 137.031 81.451 L 137.031 81.451 Q 135.904 82.109 135.259 83.285 L 135.259 83.285 L 135.259 83.285 Q 134.614 84.462 134.614 85.98 L 134.614 85.98 L 134.614 85.98 Q 134.614 87.499 135.259 88.688 L 135.259 88.688 L 135.259 88.688 Q 135.904 89.878 137.031 90.523 L 137.031 90.523 L 137.031 90.523 Q 138.157 91.168 139.574 91.168 L 139.574 91.168 Z  M 162.223 85.98 L 162.198 86.537 L 151.063 86.537 L 151.063 86.537 Q 151.215 88.612 152.657 89.89 L 152.657 89.89 L 152.657 89.89 Q 154.1 91.168 156.301 91.168 L 156.301 91.168 L 156.301 91.168 Q 157.541 91.168 158.579 90.725 L 158.579 90.725 L 158.579 90.725 Q 159.616 90.282 160.376 89.422 L 160.376 89.422 L 161.388 90.586 L 161.388 90.586 Q 160.502 91.649 159.173 92.206 L 159.173 92.206 L 159.173 92.206 Q 157.845 92.762 156.251 92.762 L 156.251 92.762 L 156.251 92.762 Q 154.201 92.762 152.619 91.889 L 152.619 91.889 L 152.619 91.889 Q 151.038 91.016 150.152 89.473 L 150.152 89.473 L 150.152 89.473 Q 149.266 87.929 149.266 85.98 L 149.266 85.98 L 149.266 85.98 Q 149.266 84.032 150.114 82.488 L 150.114 82.488 L 150.114 82.488 Q 150.962 80.944 152.442 80.084 L 152.442 80.084 L 152.442 80.084 Q 153.922 79.224 155.77 79.224 L 155.77 79.224 L 155.77 79.224 Q 157.617 79.224 159.085 80.084 L 159.085 80.084 L 159.085 80.084 Q 160.553 80.944 161.388 82.475 L 161.388 82.475 L 161.388 82.475 Q 162.223 84.007 162.223 85.98 L 162.223 85.98 Z  M 155.77 80.767 L 155.77 80.767 Q 153.847 80.767 152.543 81.995 L 152.543 81.995 L 152.543 81.995 Q 151.24 83.222 151.063 85.196 L 151.063 85.196 L 160.502 85.196 L 160.502 85.196 Q 160.325 83.222 159.022 81.995 L 159.022 81.995 L 159.022 81.995 Q 157.718 80.767 155.77 80.767 L 155.77 80.767 Z  M 165.74 92.636 L 165.74 79.325 L 167.537 79.325 L 167.537 85.221 L 175.913 85.221 L 175.913 79.325 L 177.71 79.325 L 177.71 92.636 L 175.913 92.636 L 175.913 86.765 L 167.537 86.765 L 167.537 92.636 L 165.74 92.636 Z  M 189.174 84.032 L 189.174 84.032 Q 191.679 84.057 192.982 85.145 L 192.982 85.145 L 192.982 85.145 Q 194.286 86.234 194.286 88.283 L 194.286 88.283 L 194.286 88.283 Q 194.286 90.409 192.881 91.548 L 192.881 91.548 L 192.881 91.548 Q 191.477 92.687 188.82 92.661 L 188.82 92.661 L 183.455 92.636 L 183.455 79.325 L 185.251 79.325 L 185.251 83.981 L 189.174 84.032 Z  M 188.718 91.295 L 188.718 91.295 Q 190.566 91.32 191.515 90.548 L 191.515 90.548 L 191.515 90.548 Q 192.464 89.776 192.464 88.283 L 192.464 88.283 L 192.464 88.283 Q 192.464 86.816 191.527 86.107 L 191.527 86.107 L 191.527 86.107 Q 190.591 85.398 188.718 85.373 L 188.718 85.373 L 185.251 85.322 L 185.251 91.244 L 188.718 91.295 Z  M 202.864 92.762 L 202.864 92.762 Q 200.941 92.762 199.398 91.889 L 199.398 91.889 L 199.398 91.889 Q 197.854 91.016 196.968 89.473 L 196.968 89.473 L 196.968 89.473 Q 196.082 87.929 196.082 85.98 L 196.082 85.98 L 196.082 85.98 Q 196.082 84.032 196.968 82.488 L 196.968 82.488 L 196.968 82.488 Q 197.854 80.944 199.398 80.084 L 199.398 80.084 L 199.398 80.084 Q 200.941 79.224 202.864 79.224 L 202.864 79.224 L 202.864 79.224 Q 204.788 79.224 206.331 80.084 L 206.331 80.084 L 206.331 80.084 Q 207.875 80.944 208.748 82.488 L 208.748 82.488 L 208.748 82.488 Q 209.621 84.032 209.621 85.98 L 209.621 85.98 L 209.621 85.98 Q 209.621 87.929 208.748 89.473 L 208.748 89.473 L 208.748 89.473 Q 207.875 91.016 206.331 91.889 L 206.331 91.889 L 206.331 91.889 Q 204.788 92.762 202.864 92.762 L 202.864 92.762 Z  M 202.864 91.168 L 202.864 91.168 Q 204.282 91.168 205.408 90.523 L 205.408 90.523 L 205.408 90.523 Q 206.534 89.878 207.167 88.688 L 207.167 88.688 L 207.167 88.688 Q 207.799 87.499 207.799 85.98 L 207.799 85.98 L 207.799 85.98 Q 207.799 84.462 207.167 83.273 L 207.167 83.273 L 207.167 83.273 Q 206.534 82.083 205.408 81.438 L 205.408 81.438 L 205.408 81.438 Q 204.282 80.793 202.864 80.793 L 202.864 80.793 L 202.864 80.793 Q 201.447 80.793 200.321 81.438 L 200.321 81.438 L 200.321 81.438 Q 199.195 82.083 198.55 83.273 L 198.55 83.273 L 198.55 83.273 Q 197.904 84.462 197.904 85.98 L 197.904 85.98 L 197.904 85.98 Q 197.904 87.499 198.55 88.688 L 198.55 88.688 L 198.55 88.688 Q 199.195 89.878 200.321 90.523 L 200.321 90.523 L 200.321 90.523 Q 201.447 91.168 202.864 91.168 L 202.864 91.168 Z  M 220.68 79.224 L 220.68 79.224 Q 222.553 79.224 224.071 80.071 L 224.071 80.071 L 224.071 80.071 Q 225.589 80.919 226.45 82.463 L 226.45 82.463 L 226.45 82.463 Q 227.31 84.007 227.31 85.98 L 227.31 85.98 L 227.31 85.98 Q 227.31 87.98 226.45 89.523 L 226.45 89.523 L 226.45 89.523 Q 225.589 91.067 224.084 91.915 L 224.084 91.915 L 224.084 91.915 Q 222.578 92.762 220.68 92.762 L 220.68 92.762 L 220.68 92.762 Q 219.06 92.762 217.757 92.092 L 217.757 92.092 L 217.757 92.092 Q 216.454 91.421 215.619 90.131 L 215.619 90.131 L 215.619 97.545 L 213.822 97.545 L 213.822 79.325 L 215.543 79.325 L 215.543 81.957 L 215.543 81.957 Q 216.353 80.641 217.681 79.932 L 217.681 79.932 L 217.681 79.932 Q 219.01 79.224 220.68 79.224 L 220.68 79.224 Z  M 220.553 91.168 L 220.553 91.168 Q 221.945 91.168 223.084 90.523 L 223.084 90.523 L 223.084 90.523 Q 224.223 89.878 224.868 88.688 L 224.868 88.688 L 224.868 88.688 Q 225.513 87.499 225.513 85.98 L 225.513 85.98 L 225.513 85.98 Q 225.513 84.462 224.868 83.285 L 224.868 83.285 L 224.868 83.285 Q 224.223 82.109 223.084 81.451 L 223.084 81.451 L 223.084 81.451 Q 221.945 80.793 220.553 80.793 L 220.553 80.793 L 220.553 80.793 Q 219.136 80.793 218.01 81.451 L 218.01 81.451 L 218.01 81.451 Q 216.884 82.109 216.239 83.285 L 216.239 83.285 L 216.239 83.285 Q 215.594 84.462 215.594 85.98 L 215.594 85.98 L 215.594 85.98 Q 215.594 87.499 216.239 88.688 L 216.239 88.688 L 216.239 88.688 Q 216.884 89.878 218.01 90.523 L 218.01 90.523 L 218.01 90.523 Q 219.136 91.168 220.553 91.168 L 220.553 91.168 Z  M 35.515 83.753 L 35.515 83.753 Q 35.515 87.271 33.022 89.283 L 33.022 89.283 L 33.022 89.283 Q 30.53 91.295 26.051 91.421 L 26.051 91.421 L 26.051 93.243 L 24.304 93.243 L 24.304 91.421 L 24.304 91.421 Q 19.825 91.269 17.333 89.27 L 17.333 89.27 L 17.333 89.27 Q 14.84 87.271 14.84 83.753 L 14.84 83.753 L 14.84 83.753 Q 14.84 80.236 17.333 78.237 L 17.333 78.237 L 17.333 78.237 Q 19.825 76.238 24.304 76.086 L 24.304 76.086 L 24.304 74.314 L 26.051 74.314 L 26.051 76.086 L 26.051 76.086 Q 30.504 76.238 33.01 78.249 L 33.01 78.249 L 33.01 78.249 Q 35.515 80.261 35.515 83.753 L 35.515 83.753 Z  M 26.051 89.928 L 26.051 89.928 Q 29.72 89.776 31.719 88.182 L 31.719 88.182 L 31.719 88.182 Q 33.718 86.588 33.718 83.753 L 33.718 83.753 L 33.718 83.753 Q 33.718 80.919 31.707 79.325 L 31.707 79.325 L 31.707 79.325 Q 29.695 77.731 26.051 77.604 L 26.051 77.604 L 26.051 89.928 Z  M 16.637 83.753 L 16.637 83.753 Q 16.637 86.588 18.649 88.169 L 18.649 88.169 L 18.649 88.169 Q 20.66 89.751 24.304 89.928 L 24.304 89.928 L 24.304 77.604 L 24.304 77.604 Q 20.61 77.756 18.623 79.338 L 18.623 79.338 L 18.623 79.338 Q 16.637 80.919 16.637 83.753 L 16.637 83.753 Z  M 38.906 92.636 L 38.906 79.325 L 40.703 79.325 L 40.703 89.903 L 49.585 79.325 L 51.18 79.325 L 51.18 92.636 L 49.383 92.636 L 49.383 82.058 L 40.526 92.636 L 38.906 92.636 Z  M 65.984 79.325 L 65.984 80.919 L 60.948 80.919 L 60.948 92.636 L 59.151 92.636 L 59.151 80.919 L 54.115 80.919 L 54.115 79.325 L 65.984 79.325 Z  M 68.008 92.636 L 68.008 79.325 L 69.805 79.325 L 69.805 85.221 L 78.181 85.221 L 78.181 79.325 L 79.978 79.325 L 79.978 92.636 L 78.181 92.636 L 78.181 86.765 L 69.805 86.765 L 69.805 92.636 L 68.008 92.636 Z  M 97.389 85.98 L 97.363 86.537 L 86.229 86.537 L 86.229 86.537 Q 86.38 88.612 87.823 89.89 L 87.823 89.89 L 87.823 89.89 Q 89.265 91.168 91.467 91.168 L 91.467 91.168 L 91.467 91.168 Q 92.707 91.168 93.744 90.725 L 93.744 90.725 L 93.744 90.725 Q 94.782 90.282 95.541 89.422 L 95.541 89.422 L 96.553 90.586 L 96.553 90.586 Q 95.668 91.649 94.339 92.206 L 94.339 92.206 L 94.339 92.206 Q 93.011 92.762 91.416 92.762 L 91.416 92.762 L 91.416 92.762 Q 89.367 92.762 87.785 91.889 L 87.785 91.889 L 87.785 91.889 Q 86.203 91.016 85.318 89.473 L 85.318 89.473 L 85.318 89.473 Q 84.432 87.929 84.432 85.98 L 84.432 85.98 L 84.432 85.98 Q 84.432 84.032 85.28 82.488 L 85.28 82.488 L 85.28 82.488 Q 86.127 80.944 87.608 80.084 L 87.608 80.084 L 87.608 80.084 Q 89.088 79.224 90.936 79.224 L 90.936 79.224 L 90.936 79.224 Q 92.783 79.224 94.251 80.084 L 94.251 80.084 L 94.251 80.084 Q 95.718 80.944 96.553 82.475 L 96.553 82.475 L 96.553 82.475 Q 97.389 84.007 97.389 85.98 L 97.389 85.98 Z  M 90.936 80.767 L 90.936 80.767 Q 89.012 80.767 87.709 81.995 L 87.709 81.995 L 87.709 81.995 Q 86.406 83.222 86.229 85.196 L 86.229 85.196 L 95.668 85.196 L 95.668 85.196 Q 95.491 83.222 94.187 81.995 L 94.187 81.995 L 94.187 81.995 Q 92.884 80.767 90.936 80.767 L 90.936 80.767 Z  M 106.473 92.762 L 106.473 92.762 Q 104.5 92.762 102.943 91.902 L 102.943 91.902 L 102.943 91.902 Q 101.387 91.042 100.501 89.485 L 100.501 89.485 L 100.501 89.485 Q 99.616 87.929 99.616 85.98 L 99.616 85.98 L 99.616 85.98 Q 99.616 84.032 100.501 82.488 L 100.501 82.488 L 100.501 82.488 Q 101.387 80.944 102.943 80.084 L 102.943 80.084 L 102.943 80.084 Q 104.5 79.224 106.473 79.224 L 106.473 79.224 L 106.473 79.224 Q 108.194 79.224 109.548 79.894 L 109.548 79.894 L 109.548 79.894 Q 110.902 80.565 111.687 81.855 L 111.687 81.855 L 110.345 82.767 L 110.345 82.767 Q 109.687 81.78 108.675 81.286 L 108.675 81.286 L 108.675 81.286 Q 107.663 80.793 106.473 80.793 L 106.473 80.793 L 106.473 80.793 Q 105.031 80.793 103.88 81.438 L 103.88 81.438 L 103.88 81.438 Q 102.728 82.083 102.083 83.273 L 102.083 83.273 L 102.083 83.273 Q 101.438 84.462 101.438 85.98 L 101.438 85.98 L 101.438 85.98 Q 101.438 87.524 102.083 88.701 L 102.083 88.701 L 102.083 88.701 Q 102.728 89.878 103.88 90.523 L 103.88 90.523 L 103.88 90.523 Q 105.031 91.168 106.473 91.168 L 106.473 91.168 L 106.473 91.168 Q 107.663 91.168 108.675 90.687 L 108.675 90.687 L 108.675 90.687 Q 109.687 90.206 110.345 89.22 L 110.345 89.22 L 111.687 90.131 L 111.687 90.131 Q 110.902 91.421 109.536 92.092 L 109.536 92.092 L 109.536 92.092 Q 108.169 92.762 106.473 92.762 L 106.473 92.762 Z " fill="rgb(16,55,72)"/></g></g></svg>