<?xml version="1.0" encoding="UTF-8" standalone="no"?><!-- Generator: Gravit.io --><svg xmlns="http://www.w3.org/2000/svg" xmlns:xlink="http://www.w3.org/1999/xlink" style="isolation:isolate" viewBox="0 0 610 169" width="610pt" height="169pt"><defs><clipPath id="_clipPath_WIvJ2irXuZztSVk048RELfEeWBYKxRrK"><rect width="610" height="169"/></clipPath></defs><g clip-path="url(#_clipPath_WIvJ2irXuZztSVk048RELfEeWBYKxRrK)"><g><path d="M 15 0 L 595 0 C 603.279 0 610 6.721 610 15 L 610 154 C 610 162.279 603.279 169 595 169 L 15 169 C 6.721 169 0 162.279 0 154 L 0 15 C 0 6.721 6.721 0 15 0 Z" style="stroke:none;fill:#568EA6;stroke-miterlimit:10;"/><path d=" M 325.794 118.734 L 325.794 93.063 L 328.507 93.063 L 328.507 118.734 L 325.794 118.734 Z  M 341.856 118.734 L 341.856 95.41 L 332.835 95.41 L 332.835 93.063 L 353.591 93.063 L 353.591 95.41 L 344.57 95.41 L 344.57 118.734 L 341.856 118.734 Z  M 298.802 122.401 L 310.904 87.856 L 313.288 87.856 L 301.186 122.401 L 298.802 122.401 Z  M 56.065 93.063 L 77.665 93.063 L 77.665 118.734 L 74.988 118.734 L 74.988 95.41 L 58.742 95.41 L 58.742 118.734 L 56.065 118.734 L 56.065 93.063 Z  M 96.552 99.298 L 96.552 99.298 Q 99.266 99.298 101.466 100.526 L 101.466 100.526 L 101.466 100.526 Q 103.666 101.755 104.913 103.992 L 104.913 103.992 L 104.913 103.992 Q 106.16 106.229 106.16 109.089 L 106.16 109.089 L 106.16 109.089 Q 106.16 111.986 104.913 114.223 L 104.913 114.223 L 104.913 114.223 Q 103.666 116.46 101.484 117.689 L 101.484 117.689 L 101.484 117.689 Q 99.302 118.917 96.552 118.917 L 96.552 118.917 L 96.552 118.917 Q 94.205 118.917 92.316 117.946 L 92.316 117.946 L 92.316 117.946 Q 90.427 116.974 89.217 115.103 L 89.217 115.103 L 89.217 125.849 L 86.613 125.849 L 86.613 99.444 L 89.107 99.444 L 89.107 103.258 L 89.107 103.258 Q 90.281 101.351 92.206 100.324 L 92.206 100.324 L 92.206 100.324 Q 94.131 99.298 96.552 99.298 L 96.552 99.298 Z  M 96.368 116.607 L 96.368 116.607 Q 98.385 116.607 100.036 115.672 L 100.036 115.672 L 100.036 115.672 Q 101.686 114.737 102.621 113.013 L 102.621 113.013 L 102.621 113.013 Q 103.556 111.289 103.556 109.089 L 103.556 109.089 L 103.556 109.089 Q 103.556 106.889 102.621 105.183 L 102.621 105.183 L 102.621 105.183 Q 101.686 103.478 100.036 102.525 L 100.036 102.525 L 100.036 102.525 Q 98.385 101.571 96.368 101.571 L 96.368 101.571 L 96.368 101.571 Q 94.315 101.571 92.683 102.525 L 92.683 102.525 L 92.683 102.525 Q 91.051 103.478 90.116 105.183 L 90.116 105.183 L 90.116 105.183 Q 89.181 106.889 89.181 109.089 L 89.181 109.089 L 89.181 109.089 Q 89.181 111.289 90.116 113.013 L 90.116 113.013 L 90.116 113.013 Q 91.051 114.737 92.683 115.672 L 92.683 115.672 L 92.683 115.672 Q 94.315 116.607 96.368 116.607 L 96.368 116.607 Z  M 120.242 118.917 L 120.242 118.917 Q 117.455 118.917 115.218 117.652 L 115.218 117.652 L 115.218 117.652 Q 112.981 116.387 111.698 114.15 L 111.698 114.15 L 111.698 114.15 Q 110.414 111.913 110.414 109.089 L 110.414 109.089 L 110.414 109.089 Q 110.414 106.265 111.698 104.028 L 111.698 104.028 L 111.698 104.028 Q 112.981 101.791 115.218 100.544 L 115.218 100.544 L 115.218 100.544 Q 117.455 99.298 120.242 99.298 L 120.242 99.298 L 120.242 99.298 Q 123.03 99.298 125.267 100.544 L 125.267 100.544 L 125.267 100.544 Q 127.504 101.791 128.769 104.028 L 128.769 104.028 L 128.769 104.028 Q 130.034 106.265 130.034 109.089 L 130.034 109.089 L 130.034 109.089 Q 130.034 111.913 128.769 114.15 L 128.769 114.15 L 128.769 114.15 Q 127.504 116.387 125.267 117.652 L 125.267 117.652 L 125.267 117.652 Q 123.03 118.917 120.242 118.917 L 120.242 118.917 Z  M 120.242 116.607 L 120.242 116.607 Q 122.296 116.607 123.928 115.672 L 123.928 115.672 L 123.928 115.672 Q 125.56 114.737 126.477 113.013 L 126.477 113.013 L 126.477 113.013 Q 127.394 111.289 127.394 109.089 L 127.394 109.089 L 127.394 109.089 Q 127.394 106.889 126.477 105.165 L 126.477 105.165 L 126.477 105.165 Q 125.56 103.442 123.928 102.506 L 123.928 102.506 L 123.928 102.506 Q 122.296 101.571 120.242 101.571 L 120.242 101.571 L 120.242 101.571 Q 118.189 101.571 116.557 102.506 L 116.557 102.506 L 116.557 102.506 Q 114.925 103.442 113.99 105.165 L 113.99 105.165 L 113.99 105.165 Q 113.055 106.889 113.055 109.089 L 113.055 109.089 L 113.055 109.089 Q 113.055 111.289 113.99 113.013 L 113.99 113.013 L 113.99 113.013 Q 114.925 114.737 116.557 115.672 L 116.557 115.672 L 116.557 115.672 Q 118.189 116.607 120.242 116.607 L 120.242 116.607 Z  M 149.764 99.444 L 149.764 101.755 L 138.726 101.755 L 138.726 118.734 L 136.122 118.734 L 136.122 99.444 L 149.764 99.444 Z  M 164.396 99.298 L 164.396 99.298 Q 167.11 99.298 169.311 100.526 L 169.311 100.526 L 169.311 100.526 Q 171.511 101.755 172.758 103.992 L 172.758 103.992 L 172.758 103.992 Q 174.005 106.229 174.005 109.089 L 174.005 109.089 L 174.005 109.089 Q 174.005 111.986 172.758 114.223 L 172.758 114.223 L 172.758 114.223 Q 171.511 116.46 169.329 117.689 L 169.329 117.689 L 169.329 117.689 Q 167.147 118.917 164.396 118.917 L 164.396 118.917 L 164.396 118.917 Q 162.049 118.917 160.161 117.946 L 160.161 117.946 L 160.161 117.946 Q 158.272 116.974 157.062 115.103 L 157.062 115.103 L 157.062 125.849 L 154.458 125.849 L 154.458 99.444 L 156.952 99.444 L 156.952 103.258 L 156.952 103.258 Q 158.125 101.351 160.051 100.324 L 160.051 100.324 L 160.051 100.324 Q 161.976 99.298 164.396 99.298 L 164.396 99.298 Z  M 164.213 116.607 L 164.213 116.607 Q 166.23 116.607 167.88 115.672 L 167.88 115.672 L 167.88 115.672 Q 169.531 114.737 170.466 113.013 L 170.466 113.013 L 170.466 113.013 Q 171.401 111.289 171.401 109.089 L 171.401 109.089 L 171.401 109.089 Q 171.401 106.889 170.466 105.183 L 170.466 105.183 L 170.466 105.183 Q 169.531 103.478 167.88 102.525 L 167.88 102.525 L 167.88 102.525 Q 166.23 101.571 164.213 101.571 L 164.213 101.571 L 164.213 101.571 Q 162.159 101.571 160.528 102.525 L 160.528 102.525 L 160.528 102.525 Q 158.896 103.478 157.96 105.183 L 157.96 105.183 L 157.96 105.183 Q 157.025 106.889 157.025 109.089 L 157.025 109.089 L 157.025 109.089 Q 157.025 111.289 157.96 113.013 L 157.96 113.013 L 157.96 113.013 Q 158.896 114.737 160.528 115.672 L 160.528 115.672 L 160.528 115.672 Q 162.159 116.607 164.213 116.607 L 164.213 116.607 Z  M 186.767 99.298 L 186.767 99.298 Q 190.544 99.298 192.561 101.186 L 192.561 101.186 L 192.561 101.186 Q 194.578 103.075 194.578 106.779 L 194.578 106.779 L 194.578 118.734 L 192.084 118.734 L 192.084 115.727 L 192.084 115.727 Q 191.204 117.23 189.499 118.074 L 189.499 118.074 L 189.499 118.074 Q 187.794 118.917 185.447 118.917 L 185.447 118.917 L 185.447 118.917 Q 182.219 118.917 180.312 117.377 L 180.312 117.377 L 180.312 117.377 Q 178.406 115.837 178.406 113.307 L 178.406 113.307 L 178.406 113.307 Q 178.406 110.849 180.184 109.346 L 180.184 109.346 L 180.184 109.346 Q 181.963 107.842 185.85 107.842 L 185.85 107.842 L 191.974 107.842 L 191.974 106.669 L 191.974 106.669 Q 191.974 104.175 190.581 102.873 L 190.581 102.873 L 190.581 102.873 Q 189.187 101.571 186.51 101.571 L 186.51 101.571 L 186.51 101.571 Q 184.677 101.571 182.99 102.176 L 182.99 102.176 L 182.99 102.176 Q 181.303 102.781 180.092 103.845 L 180.092 103.845 L 178.919 101.901 L 178.919 101.901 Q 180.386 100.654 182.44 99.976 L 182.44 99.976 L 182.44 99.976 Q 184.493 99.298 186.767 99.298 L 186.767 99.298 Z  M 185.85 116.864 L 185.85 116.864 Q 188.05 116.864 189.627 115.855 L 189.627 115.855 L 189.627 115.855 Q 191.204 114.847 191.974 112.94 L 191.974 112.94 L 191.974 109.786 L 185.923 109.786 L 185.923 109.786 Q 180.973 109.786 180.973 113.233 L 180.973 113.233 L 180.973 113.233 Q 180.973 114.92 182.256 115.892 L 182.256 115.892 L 182.256 115.892 Q 183.54 116.864 185.85 116.864 L 185.85 116.864 Z  M 221.276 99.444 L 223.696 99.444 L 223.696 118.734 L 221.313 118.734 L 221.313 103.478 L 213.501 116.387 L 212.328 116.387 L 204.517 103.442 L 204.517 118.734 L 202.133 118.734 L 202.133 99.444 L 204.773 99.444 L 212.951 113.343 L 221.276 99.444 Z  M 231.471 118.734 L 231.471 99.444 L 234.075 99.444 L 234.075 114.773 L 246.947 99.444 L 249.257 99.444 L 249.257 118.734 L 246.654 118.734 L 246.654 103.405 L 233.818 118.734 L 231.471 118.734 Z  M 265.21 118.917 L 265.21 118.917 Q 262.35 118.917 260.094 117.671 L 260.094 117.671 L 260.094 117.671 Q 257.839 116.424 256.555 114.168 L 256.555 114.168 L 256.555 114.168 Q 255.272 111.913 255.272 109.089 L 255.272 109.089 L 255.272 109.089 Q 255.272 106.265 256.555 104.028 L 256.555 104.028 L 256.555 104.028 Q 257.839 101.791 260.094 100.544 L 260.094 100.544 L 260.094 100.544 Q 262.35 99.298 265.21 99.298 L 265.21 99.298 L 265.21 99.298 Q 267.704 99.298 269.666 100.269 L 269.666 100.269 L 269.666 100.269 Q 271.628 101.241 272.765 103.111 L 272.765 103.111 L 270.821 104.432 L 270.821 104.432 Q 269.867 103.001 268.4 102.286 L 268.4 102.286 L 268.4 102.286 Q 266.934 101.571 265.21 101.571 L 265.21 101.571 L 265.21 101.571 Q 263.12 101.571 261.451 102.506 L 261.451 102.506 L 261.451 102.506 Q 259.782 103.442 258.847 105.165 L 258.847 105.165 L 258.847 105.165 Q 257.912 106.889 257.912 109.089 L 257.912 109.089 L 257.912 109.089 Q 257.912 111.326 258.847 113.031 L 258.847 113.031 L 258.847 113.031 Q 259.782 114.737 261.451 115.672 L 261.451 115.672 L 261.451 115.672 Q 263.12 116.607 265.21 116.607 L 265.21 116.607 L 265.21 116.607 Q 266.934 116.607 268.4 115.91 L 268.4 115.91 L 268.4 115.91 Q 269.867 115.213 270.821 113.783 L 270.821 113.783 L 272.765 115.103 L 272.765 115.103 Q 271.628 116.974 269.647 117.946 L 269.647 117.946 L 269.647 117.946 Q 267.667 118.917 265.21 118.917 L 265.21 118.917 Z  M 290.881 99.444 L 290.881 101.755 L 283.583 101.755 L 283.583 118.734 L 280.979 118.734 L 280.979 101.755 L 273.681 101.755 L 273.681 99.444 L 290.881 99.444 Z  M 539.449 77.697 L 551.551 43.151 L 553.935 43.151 L 541.833 77.697 L 539.449 77.697 Z  M 316.992 74.213 L 316.992 74.213 Q 314.131 74.213 311.876 72.966 L 311.876 72.966 L 311.876 72.966 Q 309.621 71.719 308.337 69.464 L 308.337 69.464 L 308.337 69.464 Q 307.054 67.209 307.054 64.385 L 307.054 64.385 L 307.054 64.385 Q 307.054 61.561 308.337 59.324 L 308.337 59.324 L 308.337 59.324 Q 309.621 57.087 311.876 55.84 L 311.876 55.84 L 311.876 55.84 Q 314.131 54.593 316.992 54.593 L 316.992 54.593 L 316.992 54.593 Q 319.486 54.593 321.448 55.565 L 321.448 55.565 L 321.448 55.565 Q 323.41 56.537 324.547 58.407 L 324.547 58.407 L 322.603 59.728 L 322.603 59.728 Q 321.649 58.297 320.183 57.582 L 320.183 57.582 L 320.183 57.582 Q 318.716 56.867 316.992 56.867 L 316.992 56.867 L 316.992 56.867 Q 314.902 56.867 313.233 57.802 L 313.233 57.802 L 313.233 57.802 Q 311.564 58.737 310.629 60.461 L 310.629 60.461 L 310.629 60.461 Q 309.694 62.185 309.694 64.385 L 309.694 64.385 L 309.694 64.385 Q 309.694 66.622 310.629 68.327 L 310.629 68.327 L 310.629 68.327 Q 311.564 70.033 313.233 70.968 L 313.233 70.968 L 313.233 70.968 Q 314.902 71.903 316.992 71.903 L 316.992 71.903 L 316.992 71.903 Q 318.716 71.903 320.183 71.206 L 320.183 71.206 L 320.183 71.206 Q 321.649 70.509 322.603 69.079 L 322.603 69.079 L 324.547 70.399 L 324.547 70.399 Q 323.41 72.27 321.429 73.241 L 321.429 73.241 L 321.429 73.241 Q 319.449 74.213 316.992 74.213 L 316.992 74.213 Z  M 329.094 54.74 L 346.404 54.74 L 346.404 74.03 L 343.8 74.03 L 343.8 57.05 L 331.698 57.05 L 331.698 74.03 L 329.094 74.03 L 329.094 54.74 Z  M 369.837 64.385 L 369.801 65.192 L 353.665 65.192 L 353.665 65.192 Q 353.885 68.199 355.975 70.051 L 355.975 70.051 L 355.975 70.051 Q 358.066 71.903 361.256 71.903 L 361.256 71.903 L 361.256 71.903 Q 363.053 71.903 364.557 71.261 L 364.557 71.261 L 364.557 71.261 Q 366.06 70.619 367.16 69.372 L 367.16 69.372 L 368.627 71.059 L 368.627 71.059 Q 367.344 72.6 365.418 73.407 L 365.418 73.407 L 365.418 73.407 Q 363.493 74.213 361.183 74.213 L 361.183 74.213 L 361.183 74.213 Q 358.212 74.213 355.92 72.948 L 355.92 72.948 L 355.92 72.948 Q 353.628 71.683 352.345 69.446 L 352.345 69.446 L 352.345 69.446 Q 351.061 67.209 351.061 64.385 L 351.061 64.385 L 351.061 64.385 Q 351.061 61.561 352.29 59.324 L 352.29 59.324 L 352.29 59.324 Q 353.518 57.087 355.663 55.84 L 355.663 55.84 L 355.663 55.84 Q 357.809 54.593 360.486 54.593 L 360.486 54.593 L 360.486 54.593 Q 363.163 54.593 365.29 55.84 L 365.29 55.84 L 365.29 55.84 Q 367.417 57.087 368.627 59.306 L 368.627 59.306 L 368.627 59.306 Q 369.837 61.524 369.837 64.385 L 369.837 64.385 Z  M 360.486 56.83 L 360.486 56.83 Q 357.699 56.83 355.81 58.609 L 355.81 58.609 L 355.81 58.609 Q 353.921 60.388 353.665 63.248 L 353.665 63.248 L 367.344 63.248 L 367.344 63.248 Q 367.087 60.388 365.198 58.609 L 365.198 58.609 L 365.198 58.609 Q 363.31 56.83 360.486 56.83 L 360.486 56.83 Z  M 391.915 71.756 L 395.032 71.756 L 395.032 78.871 L 392.575 78.871 L 392.575 74.03 L 374.935 74.03 L 374.935 54.74 L 377.539 54.74 L 377.539 71.756 L 389.311 71.756 L 389.311 54.74 L 391.915 54.74 L 391.915 71.756 Z  M 400.606 74.03 L 400.606 54.74 L 403.21 54.74 L 403.21 70.069 L 416.082 54.74 L 418.392 54.74 L 418.392 74.03 L 415.789 74.03 L 415.789 58.701 L 402.953 74.03 L 400.606 74.03 Z  M 432.915 54.593 L 432.915 54.593 Q 436.692 54.593 438.709 56.482 L 438.709 56.482 L 438.709 56.482 Q 440.726 58.371 440.726 62.075 L 440.726 62.075 L 440.726 74.03 L 438.232 74.03 L 438.232 71.023 L 438.232 71.023 Q 437.352 72.526 435.647 73.37 L 435.647 73.37 L 435.647 73.37 Q 433.941 74.213 431.595 74.213 L 431.595 74.213 L 431.595 74.213 Q 428.367 74.213 426.46 72.673 L 426.46 72.673 L 426.46 72.673 Q 424.553 71.133 424.553 68.602 L 424.553 68.602 L 424.553 68.602 Q 424.553 66.145 426.332 64.642 L 426.332 64.642 L 426.332 64.642 Q 428.111 63.138 431.998 63.138 L 431.998 63.138 L 438.122 63.138 L 438.122 61.965 L 438.122 61.965 Q 438.122 59.471 436.729 58.169 L 436.729 58.169 L 436.729 58.169 Q 435.335 56.867 432.658 56.867 L 432.658 56.867 L 432.658 56.867 Q 430.824 56.867 429.137 57.472 L 429.137 57.472 L 429.137 57.472 Q 427.451 58.077 426.24 59.141 L 426.24 59.141 L 425.067 57.197 L 425.067 57.197 Q 426.534 55.95 428.587 55.272 L 428.587 55.272 L 428.587 55.272 Q 430.641 54.593 432.915 54.593 L 432.915 54.593 Z  M 431.998 72.16 L 431.998 72.16 Q 434.198 72.16 435.775 71.151 L 435.775 71.151 L 435.775 71.151 Q 437.352 70.143 438.122 68.236 L 438.122 68.236 L 438.122 65.082 L 432.071 65.082 L 432.071 65.082 Q 427.12 65.082 427.12 68.529 L 427.12 68.529 L 427.12 68.529 Q 427.12 70.216 428.404 71.188 L 428.404 71.188 L 428.404 71.188 Q 429.688 72.16 431.998 72.16 L 431.998 72.16 Z  M 449.931 54.74 L 464.05 54.74 L 464.05 74.03 L 461.446 74.03 L 461.446 57.05 L 452.205 57.05 L 451.948 61.818 L 451.948 61.818 Q 451.655 67.832 450.554 71.059 L 450.554 71.059 L 450.554 71.059 Q 449.454 74.287 446.63 74.287 L 446.63 74.287 L 446.63 74.287 Q 445.86 74.287 444.76 73.993 L 444.76 73.993 L 444.943 71.756 L 444.943 71.756 Q 445.604 71.903 445.86 71.903 L 445.86 71.903 L 445.86 71.903 Q 447.364 71.903 448.134 70.509 L 448.134 70.509 L 448.134 70.509 Q 448.904 69.116 449.161 67.062 L 449.161 67.062 L 449.161 67.062 Q 449.418 65.008 449.601 61.634 L 449.601 61.634 L 449.931 54.74 Z  M 472.118 74.03 L 472.118 54.74 L 474.722 54.74 L 474.722 70.069 L 487.594 54.74 L 489.904 54.74 L 489.904 74.03 L 487.301 74.03 L 487.301 58.701 L 474.465 74.03 L 472.118 74.03 Z  M 505.857 74.213 L 505.857 74.213 Q 502.996 74.213 500.741 72.966 L 500.741 72.966 L 500.741 72.966 Q 498.486 71.719 497.202 69.464 L 497.202 69.464 L 497.202 69.464 Q 495.919 67.209 495.919 64.385 L 495.919 64.385 L 495.919 64.385 Q 495.919 61.561 497.202 59.324 L 497.202 59.324 L 497.202 59.324 Q 498.486 57.087 500.741 55.84 L 500.741 55.84 L 500.741 55.84 Q 502.996 54.593 505.857 54.593 L 505.857 54.593 L 505.857 54.593 Q 508.351 54.593 510.313 55.565 L 510.313 55.565 L 510.313 55.565 Q 512.275 56.537 513.412 58.407 L 513.412 58.407 L 511.468 59.728 L 511.468 59.728 Q 510.514 58.297 509.048 57.582 L 509.048 57.582 L 509.048 57.582 Q 507.581 56.867 505.857 56.867 L 505.857 56.867 L 505.857 56.867 Q 503.767 56.867 502.098 57.802 L 502.098 57.802 L 502.098 57.802 Q 500.429 58.737 499.494 60.461 L 499.494 60.461 L 499.494 60.461 Q 498.559 62.185 498.559 64.385 L 498.559 64.385 L 498.559 64.385 Q 498.559 66.622 499.494 68.327 L 499.494 68.327 L 499.494 68.327 Q 500.429 70.033 502.098 70.968 L 502.098 70.968 L 502.098 70.968 Q 503.767 71.903 505.857 71.903 L 505.857 71.903 L 505.857 71.903 Q 507.581 71.903 509.048 71.206 L 509.048 71.206 L 509.048 71.206 Q 510.514 70.509 511.468 69.079 L 511.468 69.079 L 513.412 70.399 L 513.412 70.399 Q 512.275 72.27 510.294 73.241 L 510.294 73.241 L 510.294 73.241 Q 508.314 74.213 505.857 74.213 L 505.857 74.213 Z  M 531.528 54.74 L 531.528 57.05 L 524.23 57.05 L 524.23 74.03 L 521.626 74.03 L 521.626 57.05 L 514.328 57.05 L 514.328 54.74 L 531.528 54.74 Z  M 73.631 74.03 L 64.573 62.258 L 58.705 62.258 L 58.705 74.03 L 56.065 74.03 L 56.065 48.359 L 58.705 48.359 L 58.705 59.874 L 64.573 59.874 L 73.265 48.359 L 76.198 48.359 L 66.663 60.828 L 76.748 74.03 L 73.631 74.03 Z  M 87.237 74.213 L 87.237 74.213 Q 84.45 74.213 82.213 72.948 L 82.213 72.948 L 82.213 72.948 Q 79.976 71.683 78.692 69.446 L 78.692 69.446 L 78.692 69.446 Q 77.409 67.209 77.409 64.385 L 77.409 64.385 L 77.409 64.385 Q 77.409 61.561 78.692 59.324 L 78.692 59.324 L 78.692 59.324 Q 79.976 57.087 82.213 55.84 L 82.213 55.84 L 82.213 55.84 Q 84.45 54.593 87.237 54.593 L 87.237 54.593 L 87.237 54.593 Q 90.024 54.593 92.261 55.84 L 92.261 55.84 L 92.261 55.84 Q 94.498 57.087 95.763 59.324 L 95.763 59.324 L 95.763 59.324 Q 97.029 61.561 97.029 64.385 L 97.029 64.385 L 97.029 64.385 Q 97.029 67.209 95.763 69.446 L 95.763 69.446 L 95.763 69.446 Q 94.498 71.683 92.261 72.948 L 92.261 72.948 L 92.261 72.948 Q 90.024 74.213 87.237 74.213 L 87.237 74.213 Z  M 87.237 71.903 L 87.237 71.903 Q 89.291 71.903 90.922 70.968 L 90.922 70.968 L 90.922 70.968 Q 92.554 70.033 93.471 68.309 L 93.471 68.309 L 93.471 68.309 Q 94.388 66.585 94.388 64.385 L 94.388 64.385 L 94.388 64.385 Q 94.388 62.185 93.471 60.461 L 93.471 60.461 L 93.471 60.461 Q 92.554 58.737 90.922 57.802 L 90.922 57.802 L 90.922 57.802 Q 89.291 56.867 87.237 56.867 L 87.237 56.867 L 87.237 56.867 Q 85.183 56.867 83.551 57.802 L 83.551 57.802 L 83.551 57.802 Q 81.919 58.737 80.984 60.461 L 80.984 60.461 L 80.984 60.461 Q 80.049 62.185 80.049 64.385 L 80.049 64.385 L 80.049 64.385 Q 80.049 66.585 80.984 68.309 L 80.984 68.309 L 80.984 68.309 Q 81.919 70.033 83.551 70.968 L 83.551 70.968 L 83.551 70.968 Q 85.183 71.903 87.237 71.903 L 87.237 71.903 Z  M 122.259 54.74 L 124.68 54.74 L 124.68 74.03 L 122.296 74.03 L 122.296 58.774 L 114.485 71.683 L 113.311 71.683 L 105.5 58.737 L 105.5 74.03 L 103.116 74.03 L 103.116 54.74 L 105.757 54.74 L 113.935 68.639 L 122.259 54.74 Z  M 132.454 54.74 L 149.764 54.74 L 149.764 74.03 L 147.16 74.03 L 147.16 57.05 L 135.058 57.05 L 135.058 74.03 L 132.454 74.03 L 132.454 54.74 Z  M 172.868 54.593 L 172.868 54.593 Q 175.582 54.593 177.764 55.84 L 177.764 55.84 L 177.764 55.84 Q 179.946 57.087 181.193 59.324 L 181.193 59.324 L 181.193 59.324 Q 182.44 61.561 182.44 64.385 L 182.44 64.385 L 182.44 64.385 Q 182.44 67.209 181.193 69.446 L 181.193 69.446 L 181.193 69.446 Q 179.946 71.683 177.764 72.948 L 177.764 72.948 L 177.764 72.948 Q 175.582 74.213 172.868 74.213 L 172.868 74.213 L 172.868 74.213 Q 170.301 74.213 168.21 73.095 L 168.21 73.095 L 168.21 73.095 Q 166.12 71.976 164.818 69.996 L 164.818 69.996 L 164.818 69.996 Q 163.516 68.016 163.296 65.448 L 163.296 65.448 L 158.896 65.448 L 158.896 74.03 L 156.292 74.03 L 156.292 54.74 L 158.896 54.74 L 158.896 63.065 L 163.333 63.065 L 163.333 63.065 Q 163.626 60.571 164.928 58.646 L 164.928 58.646 L 164.928 58.646 Q 166.23 56.72 168.284 55.657 L 168.284 55.657 L 168.284 55.657 Q 170.337 54.593 172.868 54.593 L 172.868 54.593 Z  M 172.868 71.94 L 172.868 71.94 Q 174.848 71.94 176.444 70.986 L 176.444 70.986 L 176.444 70.986 Q 178.039 70.033 178.956 68.309 L 178.956 68.309 L 178.956 68.309 Q 179.872 66.585 179.872 64.385 L 179.872 64.385 L 179.872 64.385 Q 179.872 62.185 178.956 60.461 L 178.956 60.461 L 178.956 60.461 Q 178.039 58.737 176.444 57.802 L 176.444 57.802 L 176.444 57.802 Q 174.848 56.867 172.868 56.867 L 172.868 56.867 L 172.868 56.867 Q 170.888 56.867 169.292 57.802 L 169.292 57.802 L 169.292 57.802 Q 167.697 58.737 166.78 60.461 L 166.78 60.461 L 166.78 60.461 Q 165.863 62.185 165.863 64.385 L 165.863 64.385 L 165.863 64.385 Q 165.863 66.585 166.78 68.309 L 166.78 68.309 L 166.78 68.309 Q 167.697 70.033 169.292 70.986 L 169.292 70.986 L 169.292 70.986 Q 170.888 71.94 172.868 71.94 L 172.868 71.94 Z  M 201.033 54.74 L 201.033 57.05 L 193.735 57.05 L 193.735 74.03 L 191.131 74.03 L 191.131 57.05 L 183.833 57.05 L 183.833 54.74 L 201.033 54.74 Z  M 214.492 61.488 L 214.492 61.488 Q 218.049 61.488 219.919 63.101 L 219.919 63.101 L 219.919 63.101 Q 221.789 64.715 221.789 67.649 L 221.789 67.649 L 221.789 67.649 Q 221.789 70.766 219.772 72.398 L 219.772 72.398 L 219.772 72.398 Q 217.755 74.03 213.978 74.03 L 213.978 74.03 L 206.35 74.03 L 206.35 57.05 L 200.336 57.05 L 200.336 54.74 L 208.954 54.74 L 208.954 61.488 L 214.492 61.488 Z  M 213.941 72.013 L 213.941 72.013 Q 216.508 72.013 217.829 70.913 L 217.829 70.913 L 217.829 70.913 Q 219.149 69.813 219.149 67.649 L 219.149 67.649 L 219.149 67.649 Q 219.149 63.468 213.941 63.468 L 213.941 63.468 L 208.954 63.468 L 208.954 72.013 L 213.941 72.013 Z  M 235.908 54.593 L 235.908 54.593 Q 238.622 54.593 240.823 55.822 L 240.823 55.822 L 240.823 55.822 Q 243.023 57.05 244.27 59.287 L 244.27 59.287 L 244.27 59.287 Q 245.517 61.524 245.517 64.385 L 245.517 64.385 L 245.517 64.385 Q 245.517 67.282 244.27 69.519 L 244.27 69.519 L 244.27 69.519 Q 243.023 71.756 240.841 72.985 L 240.841 72.985 L 240.841 72.985 Q 238.659 74.213 235.908 74.213 L 235.908 74.213 L 235.908 74.213 Q 233.561 74.213 231.673 73.241 L 231.673 73.241 L 231.673 73.241 Q 229.784 72.27 228.574 70.399 L 228.574 70.399 L 228.574 81.144 L 225.97 81.144 L 225.97 54.74 L 228.464 54.74 L 228.464 58.554 L 228.464 58.554 Q 229.637 56.647 231.563 55.62 L 231.563 55.62 L 231.563 55.62 Q 233.488 54.593 235.908 54.593 L 235.908 54.593 Z  M 235.725 71.903 L 235.725 71.903 Q 237.742 71.903 239.392 70.968 L 239.392 70.968 L 239.392 70.968 Q 241.043 70.033 241.978 68.309 L 241.978 68.309 L 241.978 68.309 Q 242.913 66.585 242.913 64.385 L 242.913 64.385 L 242.913 64.385 Q 242.913 62.185 241.978 60.479 L 241.978 60.479 L 241.978 60.479 Q 241.043 58.774 239.392 57.821 L 239.392 57.821 L 239.392 57.821 Q 237.742 56.867 235.725 56.867 L 235.725 56.867 L 235.725 56.867 Q 233.671 56.867 232.039 57.821 L 232.039 57.821 L 232.039 57.821 Q 230.408 58.774 229.472 60.479 L 229.472 60.479 L 229.472 60.479 Q 228.537 62.185 228.537 64.385 L 228.537 64.385 L 228.537 64.385 Q 228.537 66.585 229.472 68.309 L 229.472 68.309 L 229.472 68.309 Q 230.408 70.033 232.039 70.968 L 232.039 70.968 L 232.039 70.968 Q 233.671 71.903 235.725 71.903 L 235.725 71.903 Z  M 268.547 64.385 L 268.511 65.192 L 252.374 65.192 L 252.374 65.192 Q 252.595 68.199 254.685 70.051 L 254.685 70.051 L 254.685 70.051 Q 256.775 71.903 259.966 71.903 L 259.966 71.903 L 259.966 71.903 Q 261.763 71.903 263.266 71.261 L 263.266 71.261 L 263.266 71.261 Q 264.77 70.619 265.87 69.372 L 265.87 69.372 L 267.337 71.059 L 267.337 71.059 Q 266.053 72.6 264.128 73.407 L 264.128 73.407 L 264.128 73.407 Q 262.203 74.213 259.892 74.213 L 259.892 74.213 L 259.892 74.213 Q 256.922 74.213 254.63 72.948 L 254.63 72.948 L 254.63 72.948 Q 252.338 71.683 251.054 69.446 L 251.054 69.446 L 251.054 69.446 Q 249.771 67.209 249.771 64.385 L 249.771 64.385 L 249.771 64.385 Q 249.771 61.561 250.999 59.324 L 250.999 59.324 L 250.999 59.324 Q 252.228 57.087 254.373 55.84 L 254.373 55.84 L 254.373 55.84 Q 256.519 54.593 259.196 54.593 L 259.196 54.593 L 259.196 54.593 Q 261.873 54.593 264 55.84 L 264 55.84 L 264 55.84 Q 266.127 57.087 267.337 59.306 L 267.337 59.306 L 267.337 59.306 Q 268.547 61.524 268.547 64.385 L 268.547 64.385 Z  M 259.196 56.83 L 259.196 56.83 Q 256.409 56.83 254.52 58.609 L 254.52 58.609 L 254.52 58.609 Q 252.631 60.388 252.374 63.248 L 252.374 63.248 L 266.053 63.248 L 266.053 63.248 Q 265.797 60.388 263.908 58.609 L 263.908 58.609 L 263.908 58.609 Q 262.019 56.83 259.196 56.83 L 259.196 56.83 Z  M 273.645 74.03 L 273.645 54.74 L 276.249 54.74 L 276.249 63.285 L 288.387 63.285 L 288.387 54.74 L 290.991 54.74 L 290.991 74.03 L 288.387 74.03 L 288.387 65.522 L 276.249 65.522 L 276.249 74.03 L 273.645 74.03 Z " fill="rgb(16,55,72)"/></g></g></svg>