<?xml version="1.0" encoding="UTF-8" standalone="no"?><!-- Generator: Gravit.io --><svg xmlns="http://www.w3.org/2000/svg" xmlns:xlink="http://www.w3.org/1999/xlink" style="isolation:isolate" viewBox="0 0 595.276 841.89" width="595.276pt" height="841.89pt"><defs><clipPath id="_clipPath_HemKWtMJ2UYLp2bNwnEKhsWktGKTZL0b"><rect width="595.276" height="841.89"/></clipPath></defs><g clip-path="url(#_clipPath_HemKWtMJ2UYLp2bNwnEKhsWktGKTZL0b)"><path d=" M 469.583 128.513 C 469.894 144.259 482.774 156.939 498.592 156.939 C 514.412 156.939 527.292 144.259 527.601 128.513 L 469.583 128.513 L 469.583 128.513 L 469.583 128.513 Z  M 428.012 61.536 C 424.388 70.412 422.389 80.123 422.389 90.297 C 422.389 132.354 456.535 166.5 498.592 166.5 C 540.651 166.5 574.795 132.354 574.795 90.297 C 574.795 79.709 572.632 69.622 568.722 60.456 L 551.381 53.662 L 545.083 70.874 Q 535.241 67.746 530.388 64.998 Q 524.794 61.827 516.116 53.662 L 513.176 79.27 Q 493.971 72.889 484.208 67.936 Q 475.693 63.615 461.119 53.662 L 454.822 70.874 Q 445.209 69.69 440.283 67.936 Q 435.591 66.265 428.012 61.536 L 428.012 61.536 Z  M 589.796 64.293 C 599.392 69.031 606 78.919 606 90.337 C 606 103.849 596.75 115.215 584.241 118.439 L 584.241 141.061 C 584.241 141.277 584.213 141.488 584.154 141.685 L 584.154 141.685 C 584.044 142.289 583.707 142.85 583.182 143.254 L 557.886 162.757 C 557.573 162.998 557.225 163.16 556.857 163.214 C 556.754 163.273 556.643 163.294 556.529 163.301 C 556.443 163.315 556.356 163.322 556.269 163.318 C 556.245 163.323 556.219 163.323 556.195 163.323 L 550.71 163.323 C 549.396 163.323 548.331 162.258 548.331 160.946 L 548.331 160.712 C 548.331 159.398 549.396 158.333 550.71 158.333 L 550.71 158.333 L 550.71 158.333 L 550.71 158.333 L 554.709 158.333 L 578.685 139.849 L 578.685 119.305 L 578.685 119.305 C 578.316 119.325 577.946 119.34 577.574 119.346 L 577.574 119.346 L 577.574 119.346 L 577.574 65.36 C 574.241 50.514 566.757 36.773 555.828 25.845 C 540.651 10.667 520.049 2.134 498.592 2.134 C 477.137 2.134 456.535 10.667 441.357 25.845 C 431.101 36.101 423.878 48.836 420.273 62.636 L 420.273 119.325 L 420.273 119.325 L 420.273 119.325 L 420.273 119.325 L 420.273 119.325 L 420.273 119.325 C 420.073 119.345 419.871 119.346 419.668 119.346 C 403.645 119.346 390.638 106.339 390.638 90.318 C 390.638 78.659 397.523 68.599 407.449 63.986 C 411.117 46.406 419.834 30.118 432.701 17.249 C 450.196 -0.244 473.906 -10.058 498.592 -10.058 C 523.279 -10.058 546.99 -0.244 564.423 17.249 C 577.411 30.192 586.165 46.596 589.796 64.293 Z " fill-rule="evenodd" fill="rgb(0,0,0)" fill-opacity="0.2"/></g></svg>