<?xml version="1.0" encoding="UTF-8" standalone="no"?><!-- Generator: Gravit.io --><svg xmlns="http://www.w3.org/2000/svg" xmlns:xlink="http://www.w3.org/1999/xlink" style="isolation:isolate" viewBox="0 0 595.276 841.89" width="595.276pt" height="841.89pt"><defs><clipPath id="_clipPath_OcK0t6hLj15lOYPMpyP4heIX1M6JzrQW"><rect width="595.276" height="841.89"/></clipPath></defs><g clip-path="url(#_clipPath_OcK0t6hLj15lOYPMpyP4heIX1M6JzrQW)"><path d=" M 549.477 -21.12 C 547.516 -21.121 545.776 -19.868 545.156 -18.008 L 540.532 -4.137 C 538.665 -3.48 536.839 -2.726 535.055 -1.87 L 521.975 -8.406 C 520.222 -9.281 518.106 -8.937 516.72 -7.552 L 503.845 5.324 C 502.459 6.709 502.115 8.825 502.992 10.579 L 509.518 23.631 C 508.659 25.425 507.899 27.259 507.241 29.135 L 493.388 33.759 C 491.529 34.379 490.275 36.12 490.276 38.081 L 490.276 56.29 C 490.275 58.251 491.529 59.992 493.388 60.612 L 507.286 65.245 C 507.941 67.1 508.694 68.912 509.545 70.686 L 502.992 83.793 C 502.115 85.546 502.459 87.662 503.845 89.048 L 516.72 101.931 C 518.106 103.317 520.222 103.661 521.975 102.785 L 535.055 96.241 C 536.837 97.093 538.658 97.844 540.523 98.499 L 545.156 112.389 C 545.776 114.248 547.516 115.502 549.477 115.501 L 567.687 115.501 C 569.647 115.502 571.388 114.248 572.008 112.389 L 576.641 98.473 C 578.492 97.821 580.304 97.07 582.073 96.223 L 595.189 102.785 C 596.942 103.661 599.058 103.317 600.444 101.931 L 613.32 89.048 C 614.705 87.662 615.049 85.546 614.173 83.793 L 607.637 70.722 C 608.494 68.934 609.247 67.106 609.905 65.236 L 623.776 60.612 C 625.635 59.992 626.889 58.251 626.888 56.29 L 626.888 38.081 C 626.889 36.12 625.635 34.379 623.776 33.759 L 609.896 29.135 C 609.239 27.272 608.483 25.448 607.628 23.667 L 614.173 10.579 C 615.049 8.825 614.705 6.709 613.32 5.324 L 600.444 -7.552 C 599.058 -8.937 596.942 -9.281 595.189 -8.406 L 582.145 -1.888 C 580.345 -2.748 578.506 -3.505 576.623 -4.164 L 572.008 -18.008 C 571.388 -19.868 569.647 -21.121 567.687 -21.12 L 549.477 -21.12 L 549.477 -21.12 Z  M 558.564 15.291 C 576.11 15.291 590.459 29.639 590.459 47.185 C 590.459 64.731 576.11 79.044 558.564 79.044 C 541.018 79.044 526.705 64.731 526.705 47.185 C 526.705 29.639 541.018 15.291 558.564 15.291 Z " fill="rgb(0,0,0)" fill-opacity="0.2"/><path d=" M 439.309 47.19 C 437.348 47.189 435.608 48.442 434.988 50.302 L 430.364 64.173 C 428.497 64.83 426.671 65.584 424.887 66.44 L 411.807 59.905 C 410.054 59.029 407.938 59.373 406.552 60.759 L 393.677 73.634 C 392.291 75.019 391.947 77.136 392.824 78.889 L 399.35 91.941 C 398.491 93.735 397.731 95.57 397.074 97.445 L 383.22 102.07 C 381.361 102.689 380.107 104.43 380.108 106.391 L 380.108 124.6 C 380.107 126.561 381.361 128.302 383.22 128.923 L 397.118 133.555 C 397.773 135.41 398.526 137.222 399.377 138.996 L 392.824 152.103 C 391.947 153.856 392.291 155.972 393.677 157.358 L 406.552 170.242 C 407.938 171.627 410.054 171.972 411.807 171.095 L 424.887 164.551 C 426.669 165.403 428.49 166.155 430.355 166.809 L 434.988 180.699 C 435.608 182.558 437.348 183.812 439.309 183.811 L 457.519 183.811 C 459.479 183.812 461.22 182.558 461.841 180.699 L 466.473 166.783 C 468.324 166.131 470.136 165.381 471.906 164.534 L 485.021 171.095 C 486.774 171.972 488.89 171.627 490.276 170.242 L 503.152 157.358 C 504.537 155.972 504.881 153.856 504.005 152.103 L 497.469 139.033 C 498.326 137.245 499.079 135.416 499.737 133.546 L 513.608 128.923 C 515.467 128.302 516.721 126.561 516.72 124.6 L 516.72 106.391 C 516.721 104.43 515.467 102.689 513.608 102.07 L 499.728 97.445 C 499.071 95.582 498.315 93.758 497.46 91.977 L 504.005 78.889 C 504.881 77.136 504.537 75.019 503.152 73.634 L 490.276 60.759 C 488.89 59.373 486.774 59.029 485.021 59.905 L 471.977 66.423 C 470.177 65.562 468.338 64.806 466.455 64.146 L 461.841 50.302 C 461.22 48.442 459.479 47.189 457.519 47.19 L 439.309 47.19 L 439.309 47.19 Z  M 448.396 83.602 C 465.942 83.602 480.291 97.95 480.291 115.496 C 480.291 133.042 465.942 147.355 448.396 147.355 C 430.85 147.355 416.537 133.042 416.537 115.496 C 416.537 97.95 430.85 83.602 448.396 83.602 Z " fill="rgb(0,0,0)" fill-opacity="0.2"/><path d=" M 538.284 124.6 C 536.805 124.6 535.492 125.545 535.023 126.949 L 531.534 137.417 C 530.125 137.913 528.747 138.482 527.4 139.128 L 517.529 134.196 C 516.207 133.535 514.609 133.794 513.564 134.84 L 503.847 144.557 C 502.801 145.602 502.542 147.199 503.203 148.523 L 508.129 158.373 C 507.48 159.726 506.907 161.111 506.41 162.526 L 495.956 166.017 C 494.553 166.484 493.606 167.798 493.607 169.278 L 493.607 183.02 C 493.606 184.499 494.553 185.813 495.956 186.282 L 506.444 189.778 C 506.938 191.178 507.506 192.545 508.148 193.884 L 503.203 203.775 C 502.542 205.098 502.801 206.695 503.847 207.741 L 513.564 217.464 C 514.609 218.51 516.207 218.77 517.529 218.108 L 527.4 213.17 C 528.746 213.813 530.12 214.38 531.527 214.874 L 535.023 225.356 C 535.492 226.759 536.805 227.705 538.284 227.704 L 552.027 227.704 C 553.506 227.705 554.82 226.759 555.288 225.356 L 558.784 214.854 C 560.181 214.362 561.549 213.796 562.884 213.156 L 572.782 218.108 C 574.105 218.77 575.702 218.51 576.748 217.464 L 586.465 207.741 C 587.51 206.695 587.77 205.098 587.108 203.775 L 582.176 193.911 C 582.823 192.562 583.391 191.182 583.888 189.771 L 594.356 186.282 C 595.759 185.813 596.705 184.499 596.704 183.02 L 596.704 169.278 C 596.705 167.798 595.759 166.484 594.356 166.017 L 583.881 162.526 C 583.385 161.121 582.815 159.744 582.17 158.4 L 587.108 148.523 C 587.77 147.199 587.51 145.602 586.465 144.557 L 576.748 134.84 C 575.702 133.794 574.105 133.535 572.782 134.196 L 562.938 139.115 C 561.58 138.465 560.192 137.894 558.771 137.396 L 555.288 126.949 C 554.82 125.545 553.506 124.6 552.027 124.6 L 538.284 124.6 L 538.284 124.6 Z  M 545.142 152.079 C 558.384 152.079 569.212 162.907 569.212 176.149 C 569.212 189.39 558.384 200.192 545.142 200.192 C 531.901 200.192 521.099 189.39 521.099 176.149 C 521.099 162.907 531.901 152.079 545.142 152.079 Z " fill="rgb(0,0,0)" fill-opacity="0.2"/><path d=" M 471.464 428.747 L 471.491 428.727 L 471.636 428.923 L 533.145 512.234 C 535.264 510.702 534.497 511.171 540.715 506.581 C 543.602 504.45 543.644 509.884 543.852 515.882 C 544.26 516.033 544.634 516.296 544.911 516.671 L 604.407 597.256 C 607.606 601.588 606.684 607.703 602.352 610.903 L 601.566 611.482 C 597.234 614.681 591.119 613.76 587.92 609.428 L 587.92 609.428 L 587.92 609.428 L 528.425 528.843 C 528.148 528.469 528.008 528.036 527.982 527.604 L 527.982 527.604 C 522.318 525.648 517.146 524.012 520.017 521.861 C 524.493 518.51 525.768 517.533 527.589 516.211 L 527.589 516.211 L 465.996 432.785 L 466.023 432.765 L 460.818 423.164 L 463.822 420.945 L 463.822 420.945 L 471.464 428.747 L 471.464 428.747 Z  M 577.466 589.057 L 547.604 548.61 C 546.887 547.639 546.896 546.415 547.624 545.878 L 547.624 545.878 C 548.352 545.339 549.525 545.691 550.241 546.663 L 580.103 587.109 C 580.82 588.08 580.811 589.304 580.083 589.841 L 580.083 589.841 C 579.355 590.38 578.182 590.027 577.466 589.057 L 577.466 589.057 L 577.466 589.057 L 577.466 589.057 L 577.466 589.057 L 577.466 589.057 Z  M 585.38 583.214 L 555.517 542.767 C 554.801 541.797 554.809 540.572 555.537 540.035 L 555.537 540.035 C 556.266 539.497 557.439 539.849 558.155 540.82 L 588.017 581.267 C 588.734 582.237 588.725 583.462 587.997 583.999 L 587.997 583.999 C 587.268 584.537 586.096 584.185 585.38 583.214 L 585.38 583.214 L 585.38 583.214 L 585.38 583.214 L 585.38 583.214 Z " fill-rule="evenodd" fill="rgb(0,0,0)" fill-opacity="0.2"/><path d=" M 54.611 722.067 C 47.767 707.911 49.21 690.463 59.752 677.443 C 70.752 663.855 88.532 658.955 104.316 663.666 L 78.553 695.489 C 75.263 699.553 75.891 705.523 79.954 708.813 L 89.97 716.922 C 94.033 720.211 100.004 719.583 103.294 715.519 L 129.057 683.696 C 136.951 698.154 135.858 716.564 124.858 730.152 C 114.317 743.172 97.551 748.216 82.281 744.469 L 7.745 836.535 C 2.728 842.733 -6.377 843.691 -12.575 838.673 L -17.787 834.454 C -23.984 829.436 -24.942 820.331 -19.925 814.134 L 54.611 722.067 L 54.611 722.067 Z  M 58.315 745.782 L 58.315 745.782 C 62.02 748.782 62.587 754.232 59.581 757.945 L 6.804 823.135 C 3.798 826.848 -1.651 827.428 -5.356 824.428 L -5.356 824.428 C -9.061 821.429 -9.629 815.979 -6.622 812.265 L 46.154 747.075 C 49.161 743.362 54.61 742.782 58.315 745.782 Z " fill-rule="evenodd" fill="rgb(0,0,0)" fill-opacity="0.2"/><path d=" M 554.784 22.461 C 542.777 24.293 533.565 34.674 533.565 47.19 C 533.565 59.706 542.777 70.088 554.784 71.92 L 554.784 22.461 L 554.784 22.461 Z  M 562.38 22.461 C 574.387 24.293 583.599 34.674 583.599 47.19 C 583.599 59.706 574.387 70.088 562.38 71.92 L 562.38 22.461 L 562.38 22.461 Z " fill-rule="evenodd" fill="rgb(0,0,0)" fill-opacity="0.2"/><path d=" M 432.34 96.327 C 423.024 104.122 420.534 117.775 427.026 128.476 C 433.518 139.177 446.778 143.275 457.994 138.614 L 432.34 96.327 L 432.34 96.327 Z  M 438.834 92.388 C 450.051 87.726 463.311 91.824 469.803 102.525 C 476.294 113.226 473.804 126.879 464.488 134.674 L 438.834 92.388 L 438.834 92.388 Z " fill-rule="evenodd" fill="rgb(0,0,0)" fill-opacity="0.2"/><path d=" M 533.592 162.36 C 526.891 167.967 525.099 177.789 529.769 185.487 C 534.439 193.185 543.978 196.133 552.047 192.779 L 533.592 162.36 L 533.592 162.36 Z  M 538.264 159.525 C 546.333 156.172 555.872 159.12 560.542 166.818 C 565.212 174.516 563.421 184.338 556.719 189.945 L 538.264 159.525 L 538.264 159.525 Z " fill-rule="evenodd" fill="rgb(0,0,0)" fill-opacity="0.2"/></g></svg>