<?xml version="1.0" encoding="UTF-8" standalone="no"?><!-- Generator: Gravit.io --><svg xmlns="http://www.w3.org/2000/svg" xmlns:xlink="http://www.w3.org/1999/xlink" style="isolation:isolate" viewBox="0 0 610 169" width="610pt" height="169pt"><defs><clipPath id="_clipPath_wqBZNGPT5W6S7C0KjHXUkEjjjkrKlrX7"><rect width="610" height="169"/></clipPath></defs><g clip-path="url(#_clipPath_wqBZNGPT5W6S7C0KjHXUkEjjjkrKlrX7)"><path d="M 15 0 L 595 0 C 603.279 0 610 6.721 610 15 L 610 154 C 610 162.279 603.279 169 595 169 L 15 169 C 6.721 169 0 162.279 0 154 L 0 15 C 0 6.721 6.721 0 15 0 Z" style="stroke:none;fill:#568EA6;stroke-miterlimit:10;"/><path d=" M 360.726 74.679 L 360.726 74.679 Q 363.761 74.679 366.221 76.053 L 366.221 76.053 L 366.221 76.053 Q 368.682 77.427 370.076 79.928 L 370.076 79.928 L 370.076 79.928 Q 371.47 82.429 371.47 85.628 L 371.47 85.628 L 371.47 85.628 Q 371.47 88.867 370.076 91.368 L 370.076 91.368 L 370.076 91.368 Q 368.682 93.87 366.242 95.243 L 366.242 95.243 L 366.242 95.243 Q 363.802 96.617 360.726 96.617 L 360.726 96.617 L 360.726 96.617 Q 358.102 96.617 355.99 95.53 L 355.99 95.53 L 355.99 95.53 Q 353.879 94.444 352.525 92.353 L 352.525 92.353 L 352.525 104.367 L 349.614 104.367 L 349.614 74.843 L 352.402 74.843 L 352.402 79.108 L 352.402 79.108 Q 353.715 76.975 355.867 75.827 L 355.867 75.827 L 355.867 75.827 Q 358.02 74.679 360.726 74.679 L 360.726 74.679 Z  M 360.521 94.034 L 360.521 94.034 Q 362.777 94.034 364.622 92.988 L 364.622 92.988 L 364.622 92.988 Q 366.467 91.942 367.513 90.015 L 367.513 90.015 L 367.513 90.015 Q 368.559 88.088 368.559 85.628 L 368.559 85.628 L 368.559 85.628 Q 368.559 83.167 367.513 81.261 L 367.513 81.261 L 367.513 81.261 Q 366.467 79.354 364.622 78.288 L 364.622 78.288 L 364.622 78.288 Q 362.777 77.222 360.521 77.222 L 360.521 77.222 L 360.521 77.222 Q 358.225 77.222 356.4 78.288 L 356.4 78.288 L 356.4 78.288 Q 354.576 79.354 353.53 81.261 L 353.53 81.261 L 353.53 81.261 Q 352.484 83.167 352.484 85.628 L 352.484 85.628 L 352.484 85.628 Q 352.484 88.088 353.53 90.015 L 353.53 90.015 L 353.53 90.015 Q 354.576 91.942 356.4 92.988 L 356.4 92.988 L 356.4 92.988 Q 358.225 94.034 360.521 94.034 L 360.521 94.034 Z  M 385.74 74.679 L 385.74 74.679 Q 389.963 74.679 392.219 76.791 L 392.219 76.791 L 392.219 76.791 Q 394.474 78.903 394.474 83.044 L 394.474 83.044 L 394.474 96.412 L 391.686 96.412 L 391.686 93.05 L 391.686 93.05 Q 390.701 94.731 388.795 95.674 L 388.795 95.674 L 388.795 95.674 Q 386.888 96.617 384.264 96.617 L 384.264 96.617 L 384.264 96.617 Q 380.655 96.617 378.523 94.895 L 378.523 94.895 L 378.523 94.895 Q 376.391 93.173 376.391 90.343 L 376.391 90.343 L 376.391 90.343 Q 376.391 87.596 378.379 85.915 L 378.379 85.915 L 378.379 85.915 Q 380.368 84.233 384.715 84.233 L 384.715 84.233 L 391.563 84.233 L 391.563 82.921 L 391.563 82.921 Q 391.563 80.133 390.004 78.677 L 390.004 78.677 L 390.004 78.677 Q 388.446 77.222 385.453 77.222 L 385.453 77.222 L 385.453 77.222 Q 383.403 77.222 381.516 77.898 L 381.516 77.898 L 381.516 77.898 Q 379.63 78.575 378.277 79.764 L 378.277 79.764 L 376.965 77.591 L 376.965 77.591 Q 378.605 76.196 380.901 75.438 L 380.901 75.438 L 380.901 75.438 Q 383.197 74.679 385.74 74.679 L 385.74 74.679 Z  M 384.715 94.321 L 384.715 94.321 Q 387.175 94.321 388.938 93.193 L 388.938 93.193 L 388.938 93.193 Q 390.701 92.066 391.563 89.933 L 391.563 89.933 L 391.563 86.407 L 384.797 86.407 L 384.797 86.407 Q 379.261 86.407 379.261 90.261 L 379.261 90.261 L 379.261 90.261 Q 379.261 92.148 380.696 93.234 L 380.696 93.234 L 380.696 93.234 Q 382.131 94.321 384.715 94.321 L 384.715 94.321 Z  M 413.378 75.376 L 413.378 75.376 Q 416.371 75.376 418.729 76.709 L 418.729 76.709 L 418.729 76.709 Q 421.087 78.042 422.399 80.44 L 422.399 80.44 L 422.399 80.44 Q 423.711 82.839 423.711 85.915 L 423.711 85.915 L 423.711 85.915 Q 423.711 89.072 422.337 91.512 L 422.337 91.512 L 422.337 91.512 Q 420.964 93.952 418.503 95.305 L 418.503 95.305 L 418.503 95.305 Q 416.043 96.658 412.844 96.658 L 412.844 96.658 L 412.844 96.658 Q 407.473 96.658 404.52 92.886 L 404.52 92.886 L 404.52 92.886 Q 401.568 89.113 401.568 82.47 L 401.568 82.47 L 401.568 82.47 Q 401.568 75.54 404.213 71.85 L 404.213 71.85 L 404.213 71.85 Q 406.858 68.159 412.475 66.847 L 412.475 66.847 L 422.153 64.633 L 422.645 67.298 L 413.542 69.389 L 413.542 69.389 Q 408.908 70.415 406.735 73.018 L 406.735 73.018 L 406.735 73.018 Q 404.561 75.622 404.356 80.707 L 404.356 80.707 L 404.356 80.707 Q 405.668 78.206 408.006 76.791 L 408.006 76.791 L 408.006 76.791 Q 410.343 75.376 413.378 75.376 L 413.378 75.376 Z  M 412.926 94.239 L 412.926 94.239 Q 415.182 94.239 416.966 93.193 L 416.966 93.193 L 416.966 93.193 Q 418.749 92.148 419.754 90.261 L 419.754 90.261 L 419.754 90.261 Q 420.759 88.375 420.759 85.997 L 420.759 85.997 L 420.759 85.997 Q 420.759 83.618 419.774 81.814 L 419.774 81.814 L 419.774 81.814 Q 418.79 80.01 417.007 79.005 L 417.007 79.005 L 417.007 79.005 Q 415.223 78.001 412.926 78.001 L 412.926 78.001 L 412.926 78.001 Q 410.63 78.001 408.846 79.005 L 408.846 79.005 L 408.846 79.005 Q 407.063 80.01 406.058 81.814 L 406.058 81.814 L 406.058 81.814 Q 405.053 83.618 405.053 85.997 L 405.053 85.997 L 405.053 85.997 Q 405.053 88.375 406.058 90.261 L 406.058 90.261 L 406.058 90.261 Q 407.063 92.148 408.867 93.193 L 408.867 93.193 L 408.867 93.193 Q 410.671 94.239 412.926 94.239 L 412.926 94.239 Z  M 438.473 96.617 L 438.473 96.617 Q 435.356 96.617 432.855 95.202 L 432.855 95.202 L 432.855 95.202 Q 430.354 93.788 428.919 91.286 L 428.919 91.286 L 428.919 91.286 Q 427.483 88.785 427.483 85.628 L 427.483 85.628 L 427.483 85.628 Q 427.483 82.47 428.919 79.969 L 428.919 79.969 L 428.919 79.969 Q 430.354 77.468 432.855 76.073 L 432.855 76.073 L 432.855 76.073 Q 435.356 74.679 438.473 74.679 L 438.473 74.679 L 438.473 74.679 Q 441.589 74.679 444.091 76.073 L 444.091 76.073 L 444.091 76.073 Q 446.592 77.468 448.007 79.969 L 448.007 79.969 L 448.007 79.969 Q 449.421 82.47 449.421 85.628 L 449.421 85.628 L 449.421 85.628 Q 449.421 88.785 448.007 91.286 L 448.007 91.286 L 448.007 91.286 Q 446.592 93.788 444.091 95.202 L 444.091 95.202 L 444.091 95.202 Q 441.589 96.617 438.473 96.617 L 438.473 96.617 Z  M 438.473 94.034 L 438.473 94.034 Q 440.769 94.034 442.594 92.988 L 442.594 92.988 L 442.594 92.988 Q 444.419 91.942 445.444 90.015 L 445.444 90.015 L 445.444 90.015 Q 446.469 88.088 446.469 85.628 L 446.469 85.628 L 446.469 85.628 Q 446.469 83.167 445.444 81.24 L 445.444 81.24 L 445.444 81.24 Q 444.419 79.313 442.594 78.267 L 442.594 78.267 L 442.594 78.267 Q 440.769 77.222 438.473 77.222 L 438.473 77.222 L 438.473 77.222 Q 436.177 77.222 434.352 78.267 L 434.352 78.267 L 434.352 78.267 Q 432.527 79.313 431.481 81.24 L 431.481 81.24 L 431.481 81.24 Q 430.436 83.167 430.436 85.628 L 430.436 85.628 L 430.436 85.628 Q 430.436 88.088 431.481 90.015 L 431.481 90.015 L 431.481 90.015 Q 432.527 91.942 434.352 92.988 L 434.352 92.988 L 434.352 92.988 Q 436.177 94.034 438.473 94.034 L 438.473 94.034 Z  M 471.4 74.843 L 471.4 77.427 L 463.24 77.427 L 463.24 96.412 L 460.329 96.412 L 460.329 77.427 L 452.169 77.427 L 452.169 74.843 L 471.4 74.843 Z  M 474.681 96.412 L 474.681 74.843 L 477.592 74.843 L 477.592 84.397 L 491.165 84.397 L 491.165 74.843 L 494.076 74.843 L 494.076 96.412 L 491.165 96.412 L 491.165 86.899 L 477.592 86.899 L 477.592 96.412 L 474.681 96.412 Z  M 503.385 96.412 L 503.385 74.843 L 506.296 74.843 L 506.296 91.984 L 520.689 74.843 L 523.272 74.843 L 523.272 96.412 L 520.361 96.412 L 520.361 79.272 L 506.009 96.412 L 503.385 96.412 Z  M 547.876 96.412 L 539.92 86.817 L 535 86.817 L 535 96.412 L 532.088 96.412 L 532.088 74.843 L 535 74.843 L 535 84.315 L 539.961 84.315 L 547.547 74.843 L 550.705 74.843 L 542.217 85.3 L 551.32 96.412 L 547.876 96.412 Z  M 85.99 67.708 L 88.491 67.708 L 88.491 96.412 L 85.58 96.412 L 85.58 73.449 L 74.303 92.763 L 72.868 92.763 L 61.591 73.572 L 61.591 96.412 L 58.68 96.412 L 58.68 67.708 L 61.181 67.708 L 73.647 88.99 L 85.99 67.708 Z  M 115.842 85.628 L 115.801 86.53 L 97.758 86.53 L 97.758 86.53 Q 98.004 89.892 100.342 91.963 L 100.342 91.963 L 100.342 91.963 Q 102.679 94.034 106.246 94.034 L 106.246 94.034 L 106.246 94.034 Q 108.256 94.034 109.937 93.316 L 109.937 93.316 L 109.937 93.316 Q 111.618 92.599 112.848 91.204 L 112.848 91.204 L 114.488 93.091 L 114.488 93.091 Q 113.053 94.813 110.9 95.715 L 110.9 95.715 L 110.9 95.715 Q 108.748 96.617 106.164 96.617 L 106.164 96.617 L 106.164 96.617 Q 102.843 96.617 100.28 95.202 L 100.28 95.202 L 100.28 95.202 Q 97.717 93.788 96.282 91.286 L 96.282 91.286 L 96.282 91.286 Q 94.847 88.785 94.847 85.628 L 94.847 85.628 L 94.847 85.628 Q 94.847 82.47 96.221 79.969 L 96.221 79.969 L 96.221 79.969 Q 97.594 77.468 99.993 76.073 L 99.993 76.073 L 99.993 76.073 Q 102.392 74.679 105.385 74.679 L 105.385 74.679 L 105.385 74.679 Q 108.379 74.679 110.757 76.073 L 110.757 76.073 L 110.757 76.073 Q 113.135 77.468 114.488 79.948 L 114.488 79.948 L 114.488 79.948 Q 115.842 82.429 115.842 85.628 L 115.842 85.628 Z  M 105.385 77.181 L 105.385 77.181 Q 102.269 77.181 100.157 79.169 L 100.157 79.169 L 100.157 79.169 Q 98.045 81.158 97.758 84.356 L 97.758 84.356 L 113.053 84.356 L 113.053 84.356 Q 112.766 81.158 110.654 79.169 L 110.654 79.169 L 110.654 79.169 Q 108.543 77.181 105.385 77.181 L 105.385 77.181 Z  M 139.215 93.87 L 142.577 93.87 L 142.577 101.62 L 139.83 101.62 L 139.83 96.412 L 120.516 96.412 L 120.516 101.62 L 117.769 101.62 L 117.769 93.87 L 118.999 93.87 L 118.999 93.87 Q 121.172 93.747 121.951 90.671 L 121.951 90.671 L 121.951 90.671 Q 122.731 87.596 123.018 82.06 L 123.018 82.06 L 123.305 74.843 L 139.215 74.843 L 139.215 93.87 Z  M 125.683 82.224 L 125.683 82.224 Q 125.478 86.817 124.904 89.79 L 124.904 89.79 L 124.904 89.79 Q 124.33 92.763 122.854 93.87 L 122.854 93.87 L 136.303 93.87 L 136.303 77.427 L 125.929 77.427 L 125.683 82.224 Z  M 148.195 96.412 L 148.195 74.843 L 151.106 74.843 L 151.106 91.984 L 165.499 74.843 L 168.083 74.843 L 168.083 96.412 L 165.171 96.412 L 165.171 79.272 L 150.819 96.412 L 148.195 96.412 Z  M 195.884 93.87 L 199.37 93.87 L 199.37 101.825 L 196.622 101.825 L 196.622 96.412 L 176.899 96.412 L 176.899 74.843 L 179.81 74.843 L 179.81 93.87 L 192.973 93.87 L 192.973 74.843 L 195.884 74.843 L 195.884 93.87 Z  M 205.603 96.412 L 205.603 74.843 L 208.514 74.843 L 208.514 91.984 L 222.907 74.843 L 225.49 74.843 L 225.49 96.412 L 222.579 96.412 L 222.579 79.272 L 208.227 96.412 L 205.603 96.412 Z  M 234.307 96.412 L 234.307 74.843 L 237.218 74.843 L 237.218 84.397 L 250.791 84.397 L 250.791 74.843 L 253.702 74.843 L 253.702 96.412 L 250.791 96.412 L 250.791 86.899 L 237.218 86.899 L 237.218 96.412 L 234.307 96.412 Z  M 272.032 96.617 L 272.032 96.617 Q 268.833 96.617 266.311 95.223 L 266.311 95.223 L 266.311 95.223 Q 263.789 93.829 262.354 91.307 L 262.354 91.307 L 262.354 91.307 Q 260.919 88.785 260.919 85.628 L 260.919 85.628 L 260.919 85.628 Q 260.919 82.47 262.354 79.969 L 262.354 79.969 L 262.354 79.969 Q 263.789 77.468 266.311 76.073 L 266.311 76.073 L 266.311 76.073 Q 268.833 74.679 272.032 74.679 L 272.032 74.679 L 272.032 74.679 Q 274.82 74.679 277.014 75.766 L 277.014 75.766 L 277.014 75.766 Q 279.208 76.852 280.479 78.944 L 280.479 78.944 L 278.305 80.42 L 278.305 80.42 Q 277.239 78.821 275.599 78.021 L 275.599 78.021 L 275.599 78.021 Q 273.959 77.222 272.032 77.222 L 272.032 77.222 L 272.032 77.222 Q 269.694 77.222 267.829 78.267 L 267.829 78.267 L 267.829 78.267 Q 265.963 79.313 264.917 81.24 L 264.917 81.24 L 264.917 81.24 Q 263.871 83.167 263.871 85.628 L 263.871 85.628 L 263.871 85.628 Q 263.871 88.129 264.917 90.036 L 264.917 90.036 L 264.917 90.036 Q 265.963 91.942 267.829 92.988 L 267.829 92.988 L 267.829 92.988 Q 269.694 94.034 272.032 94.034 L 272.032 94.034 L 272.032 94.034 Q 273.959 94.034 275.599 93.255 L 275.599 93.255 L 275.599 93.255 Q 277.239 92.476 278.305 90.876 L 278.305 90.876 L 280.479 92.353 L 280.479 92.353 Q 279.208 94.444 276.993 95.53 L 276.993 95.53 L 276.993 95.53 Q 274.779 96.617 272.032 96.617 L 272.032 96.617 Z  M 301.351 96.412 L 293.395 86.817 L 288.475 86.817 L 288.475 96.412 L 285.563 96.412 L 285.563 74.843 L 288.475 74.843 L 288.475 84.315 L 293.436 84.315 L 301.022 74.843 L 304.18 74.843 L 295.692 85.3 L 304.795 96.412 L 301.351 96.412 Z  M 310.167 96.412 L 310.167 74.843 L 313.078 74.843 L 313.078 91.984 L 327.471 74.843 L 330.054 74.843 L 330.054 96.412 L 327.143 96.412 L 327.143 79.272 L 312.791 96.412 L 310.167 96.412 Z " fill="rgb(16,55,72)"/></g></svg>