<?xml version="1.0" encoding="UTF-8" standalone="no"?><!-- Generator: Gravit.io --><svg xmlns="http://www.w3.org/2000/svg" xmlns:xlink="http://www.w3.org/1999/xlink" style="isolation:isolate" viewBox="0 0 857 141" width="857pt" height="141pt"><defs><clipPath id="_clipPath_5eFk4VsjLO9RL9pyyjTQgXRfT1cAD0un"><rect width="857" height="141"/></clipPath></defs><g clip-path="url(#_clipPath_5eFk4VsjLO9RL9pyyjTQgXRfT1cAD0un)"><g><path d="M 22.5 1.5 L 834.5 1.5 C 845.538 1.5 854.5 10.462 854.5 21.5 L 854.5 119.5 C 854.5 130.538 845.538 139.5 834.5 139.5 L 22.5 139.5 C 11.462 139.5 2.5 130.538 2.5 119.5 L 2.5 21.5 C 2.5 10.462 11.462 1.5 22.5 1.5 Z" style="stroke:none;fill:#568EA6;stroke-miterlimit:10;"/><path d=" M 534.559 84.81 L 534.559 84.81 L 534.559 84.81 Q 528.475 84.81 525.087 81.076 L 525.087 81.076 L 525.087 81.076 Q 521.698 77.341 521.698 70.359 L 521.698 70.359 L 521.698 70.359 Q 521.698 63.274 525.125 59.437 L 525.125 59.437 L 525.125 59.437 Q 528.552 55.599 534.892 55.599 L 534.892 55.599 L 534.892 55.599 Q 536.946 55.599 538.961 56.023 L 538.961 56.023 L 538.961 56.023 Q 540.976 56.446 542.285 57.114 L 542.285 57.114 L 540.873 60.964 L 540.873 60.964 Q 537.305 59.629 534.79 59.629 L 534.79 59.629 L 534.79 59.629 Q 530.529 59.629 528.501 62.312 L 528.501 62.312 L 528.501 62.312 Q 526.473 64.994 526.473 70.307 L 526.473 70.307 L 526.473 70.307 Q 526.473 75.416 528.501 78.124 L 528.501 78.124 L 528.501 78.124 Q 530.529 80.832 534.507 80.832 L 534.507 80.832 L 534.507 80.832 Q 538.229 80.832 541.823 79.189 L 541.823 79.189 L 541.823 83.296 L 541.823 83.296 Q 538.897 84.81 534.559 84.81 Z  M 569.006 56.113 L 569.006 60.014 L 559.791 60.014 L 559.791 84.297 L 555.222 84.297 L 555.222 60.014 L 546.135 60.014 L 546.135 56.113 L 569.006 56.113 Z  M 589.182 84.81 L 589.182 84.81 L 589.182 84.81 Q 583.509 84.81 580.454 80.729 L 580.454 80.729 L 580.146 80.729 L 580.249 81.781 L 580.249 81.781 Q 580.454 83.784 580.454 85.349 L 580.454 85.349 L 580.454 96.926 L 575.834 96.926 L 575.834 56.113 L 579.633 56.113 L 580.249 59.963 L 580.454 59.963 L 580.454 59.963 Q 582.097 57.653 584.253 56.626 L 584.253 56.626 L 584.253 56.626 Q 586.41 55.599 589.233 55.599 L 589.233 55.599 L 589.233 55.599 Q 594.726 55.599 597.768 59.411 L 597.768 59.411 L 597.768 59.411 Q 600.81 63.223 600.81 70.153 L 600.81 70.153 L 600.81 70.153 Q 600.81 77.058 597.755 80.934 L 597.755 80.934 L 597.755 80.934 Q 594.701 84.81 589.182 84.81 Z  M 588.412 59.475 L 588.412 59.475 L 588.412 59.475 Q 584.228 59.475 582.367 61.837 L 582.367 61.837 L 582.367 61.837 Q 580.506 64.198 580.454 69.255 L 580.454 69.255 L 580.454 70.153 L 580.454 70.153 Q 580.454 75.878 582.354 78.432 L 582.354 78.432 L 582.354 78.432 Q 584.253 80.986 588.514 80.986 L 588.514 80.986 L 588.514 80.986 Q 592.057 80.986 594.046 78.111 L 594.046 78.111 L 594.046 78.111 Q 596.035 75.236 596.035 70.102 L 596.035 70.102 L 596.035 70.102 Q 596.035 64.943 594.046 62.209 L 594.046 62.209 L 594.046 62.209 Q 592.057 59.475 588.412 59.475 Z  M 628.142 84.297 L 624.779 84.297 L 623.881 80.293 L 623.676 80.293 L 623.676 80.293 Q 621.571 82.937 619.479 83.873 L 619.479 83.873 L 619.479 83.873 Q 617.387 84.81 614.204 84.81 L 614.204 84.81 L 614.204 84.81 Q 610.045 84.81 607.684 82.629 L 607.684 82.629 L 607.684 82.629 Q 605.322 80.447 605.322 76.468 L 605.322 76.468 L 605.322 76.468 Q 605.322 67.895 618.85 67.484 L 618.85 67.484 L 623.624 67.304 L 623.624 65.636 L 623.624 65.636 Q 623.624 62.427 622.238 60.9 L 622.238 60.9 L 622.238 60.9 Q 620.852 59.373 617.797 59.373 L 617.797 59.373 L 617.797 59.373 Q 615.564 59.373 613.575 60.04 L 613.575 60.04 L 613.575 60.04 Q 611.586 60.707 609.84 61.529 L 609.84 61.529 L 608.428 58.063 L 608.428 58.063 Q 610.559 56.934 613.074 56.292 L 613.074 56.292 L 613.074 56.292 Q 615.59 55.651 618.054 55.651 L 618.054 55.651 L 618.054 55.651 Q 623.162 55.651 625.652 57.909 L 625.652 57.909 L 625.652 57.909 Q 628.142 60.168 628.142 65.097 L 628.142 65.097 L 628.142 84.297 Z  M 615.256 81.088 L 615.256 81.088 L 615.256 81.088 Q 619.132 81.088 621.353 78.996 L 621.353 78.996 L 621.353 78.996 Q 623.573 76.904 623.573 73.054 L 623.573 73.054 L 623.573 70.513 L 619.415 70.693 L 619.415 70.693 Q 614.563 70.872 612.343 72.233 L 612.343 72.233 L 612.343 72.233 Q 610.122 73.593 610.122 76.519 L 610.122 76.519 L 610.122 76.519 Q 610.122 78.727 611.47 79.908 L 611.47 79.908 L 611.47 79.908 Q 612.818 81.088 615.256 81.088 Z  M 636.289 56.113 L 640.91 56.113 L 640.91 67.843 L 656.208 67.843 L 656.208 56.113 L 660.829 56.113 L 660.829 84.297 L 656.208 84.297 L 656.208 71.745 L 640.91 71.745 L 640.91 84.297 L 636.289 84.297 L 636.289 56.113 Z  M 670.46 56.113 L 674.823 56.113 L 674.823 73.311 L 674.618 78.29 L 674.515 79.728 L 689.609 56.113 L 695.281 56.113 L 695.281 84.297 L 690.969 84.297 L 690.969 67.689 L 691.046 64.121 L 691.174 60.733 L 676.184 84.297 L 670.46 84.297 L 670.46 56.113 Z  M 732.429 80.447 L 732.429 94.077 L 727.912 94.077 L 727.912 84.297 L 704.63 84.297 L 704.63 56.113 L 709.25 56.113 L 709.25 80.395 L 723.83 80.395 L 723.83 56.113 L 728.451 56.113 L 728.451 80.447 L 732.429 80.447 Z  M 759.566 84.297 L 756.204 84.297 L 755.305 80.293 L 755.1 80.293 L 755.1 80.293 Q 752.995 82.937 750.903 83.873 L 750.903 83.873 L 750.903 83.873 Q 748.811 84.81 745.628 84.81 L 745.628 84.81 L 745.628 84.81 Q 741.47 84.81 739.108 82.629 L 739.108 82.629 L 739.108 82.629 Q 736.747 80.447 736.747 76.468 L 736.747 76.468 L 736.747 76.468 Q 736.747 67.895 750.274 67.484 L 750.274 67.484 L 755.049 67.304 L 755.049 65.636 L 755.049 65.636 Q 755.049 62.427 753.663 60.9 L 753.663 60.9 L 753.663 60.9 Q 752.277 59.373 749.222 59.373 L 749.222 59.373 L 749.222 59.373 Q 746.989 59.373 744.999 60.04 L 744.999 60.04 L 744.999 60.04 Q 743.01 60.707 741.265 61.529 L 741.265 61.529 L 739.853 58.063 L 739.853 58.063 Q 741.983 56.934 744.499 56.292 L 744.499 56.292 L 744.499 56.292 Q 747.014 55.651 749.479 55.651 L 749.479 55.651 L 749.479 55.651 Q 754.587 55.651 757.077 57.909 L 757.077 57.909 L 757.077 57.909 Q 759.566 60.168 759.566 65.097 L 759.566 65.097 L 759.566 84.297 Z  M 746.681 81.088 L 746.681 81.088 L 746.681 81.088 Q 750.557 81.088 752.777 78.996 L 752.777 78.996 L 752.777 78.996 Q 754.997 76.904 754.997 73.054 L 754.997 73.054 L 754.997 70.513 L 750.839 70.693 L 750.839 70.693 Q 745.988 70.872 743.767 72.233 L 743.767 72.233 L 743.767 72.233 Q 741.547 73.593 741.547 76.519 L 741.547 76.519 L 741.547 76.519 Q 741.547 78.727 742.895 79.908 L 742.895 79.908 L 742.895 79.908 Q 744.242 81.088 746.681 81.088 Z  M 787.171 56.113 L 787.171 60.014 L 777.956 60.014 L 777.956 84.297 L 773.387 84.297 L 773.387 60.014 L 764.3 60.014 L 764.3 56.113 L 787.171 56.113 Z  M 814.765 84.297 L 811.402 84.297 L 810.504 80.293 L 810.298 80.293 L 810.298 80.293 Q 808.194 82.937 806.102 83.873 L 806.102 83.873 L 806.102 83.873 Q 804.01 84.81 800.827 84.81 L 800.827 84.81 L 800.827 84.81 Q 796.668 84.81 794.307 82.629 L 794.307 82.629 L 794.307 82.629 Q 791.945 80.447 791.945 76.468 L 791.945 76.468 L 791.945 76.468 Q 791.945 67.895 805.473 67.484 L 805.473 67.484 L 810.247 67.304 L 810.247 65.636 L 810.247 65.636 Q 810.247 62.427 808.861 60.9 L 808.861 60.9 L 808.861 60.9 Q 807.475 59.373 804.42 59.373 L 804.42 59.373 L 804.42 59.373 Q 802.187 59.373 800.198 60.04 L 800.198 60.04 L 800.198 60.04 Q 798.208 60.707 796.463 61.529 L 796.463 61.529 L 795.051 58.063 L 795.051 58.063 Q 797.182 56.934 799.697 56.292 L 799.697 56.292 L 799.697 56.292 Q 802.213 55.651 804.677 55.651 L 804.677 55.651 L 804.677 55.651 Q 809.785 55.651 812.275 57.909 L 812.275 57.909 L 812.275 57.909 Q 814.765 60.168 814.765 65.097 L 814.765 65.097 L 814.765 84.297 Z  M 801.879 81.088 L 801.879 81.088 L 801.879 81.088 Q 805.755 81.088 807.975 78.996 L 807.975 78.996 L 807.975 78.996 Q 810.196 76.904 810.196 73.054 L 810.196 73.054 L 810.196 70.513 L 806.037 70.693 L 806.037 70.693 Q 801.186 70.872 798.966 72.233 L 798.966 72.233 L 798.966 72.233 Q 796.745 73.593 796.745 76.519 L 796.745 76.519 L 796.745 76.519 Q 796.745 78.727 798.093 79.908 L 798.093 79.908 L 798.093 79.908 Q 799.44 81.088 801.879 81.088 Z  M 822.219 81.448 L 822.219 81.448 L 822.219 81.448 Q 822.219 80.472 822.476 79.792 L 822.476 79.792 L 822.476 79.792 Q 822.732 79.112 823.169 78.688 L 823.169 78.688 L 823.169 78.688 Q 823.605 78.265 824.195 78.072 L 824.195 78.072 L 824.195 78.072 Q 824.786 77.88 825.479 77.88 L 825.479 77.88 L 825.479 77.88 Q 826.146 77.88 826.75 78.072 L 826.75 78.072 L 826.75 78.072 Q 827.353 78.265 827.789 78.688 L 827.789 78.688 L 827.789 78.688 Q 828.226 79.112 828.482 79.792 L 828.482 79.792 L 828.482 79.792 Q 828.739 80.472 828.739 81.448 L 828.739 81.448 L 828.739 81.448 Q 828.739 82.398 828.482 83.078 L 828.482 83.078 L 828.482 83.078 Q 828.226 83.758 827.789 84.194 L 827.789 84.194 L 827.789 84.194 Q 827.353 84.631 826.75 84.836 L 826.75 84.836 L 826.75 84.836 Q 826.146 85.041 825.479 85.041 L 825.479 85.041 L 825.479 85.041 Q 824.786 85.041 824.195 84.836 L 824.195 84.836 L 824.195 84.836 Q 823.605 84.631 823.169 84.194 L 823.169 84.194 L 823.169 84.194 Q 822.732 83.758 822.476 83.078 L 822.476 83.078 L 822.476 83.078 Q 822.219 82.398 822.219 81.448 Z  M 446.525 56.113 L 451.145 56.113 L 451.145 67.843 L 466.444 67.843 L 466.444 56.113 L 471.064 56.113 L 471.064 84.297 L 466.444 84.297 L 466.444 71.745 L 451.145 71.745 L 451.145 84.297 L 446.525 84.297 L 446.525 56.113 Z  M 501.461 84.297 L 498.099 84.297 L 497.2 80.293 L 496.995 80.293 L 496.995 80.293 Q 494.89 82.937 492.798 83.873 L 492.798 83.873 L 492.798 83.873 Q 490.706 84.81 487.523 84.81 L 487.523 84.81 L 487.523 84.81 Q 483.365 84.81 481.003 82.629 L 481.003 82.629 L 481.003 82.629 Q 478.642 80.447 478.642 76.468 L 478.642 76.468 L 478.642 76.468 Q 478.642 67.895 492.169 67.484 L 492.169 67.484 L 496.943 67.304 L 496.943 65.636 L 496.943 65.636 Q 496.943 62.427 495.557 60.9 L 495.557 60.9 L 495.557 60.9 Q 494.171 59.373 491.117 59.373 L 491.117 59.373 L 491.117 59.373 Q 488.883 59.373 486.894 60.04 L 486.894 60.04 L 486.894 60.04 Q 484.905 60.707 483.159 61.529 L 483.159 61.529 L 481.747 58.063 L 481.747 58.063 Q 483.878 56.934 486.394 56.292 L 486.394 56.292 L 486.394 56.292 Q 488.909 55.651 491.373 55.651 L 491.373 55.651 L 491.373 55.651 Q 496.481 55.651 498.971 57.909 L 498.971 57.909 L 498.971 57.909 Q 501.461 60.168 501.461 65.097 L 501.461 65.097 L 501.461 84.297 Z  M 488.575 81.088 L 488.575 81.088 L 488.575 81.088 Q 492.451 81.088 494.672 78.996 L 494.672 78.996 L 494.672 78.996 Q 496.892 76.904 496.892 73.054 L 496.892 73.054 L 496.892 70.513 L 492.734 70.693 L 492.734 70.693 Q 487.882 70.872 485.662 72.233 L 485.662 72.233 L 485.662 72.233 Q 483.442 73.593 483.442 76.519 L 483.442 76.519 L 483.442 76.519 Q 483.442 78.727 484.789 79.908 L 484.789 79.908 L 484.789 79.908 Q 486.137 81.088 488.575 81.088 Z  M 310.844 80.447 L 310.844 94.077 L 306.327 94.077 L 306.327 84.297 L 283.045 84.297 L 283.045 56.113 L 287.665 56.113 L 287.665 80.395 L 302.245 80.395 L 302.245 56.113 L 306.866 56.113 L 306.866 80.447 L 310.844 80.447 Z  M 340.394 63.223 L 340.394 63.223 L 340.394 63.223 Q 340.394 65.944 338.854 67.368 L 338.854 67.368 L 338.854 67.368 Q 337.314 68.793 334.465 69.306 L 334.465 69.306 L 334.465 69.537 L 334.465 69.537 Q 338.033 70.025 339.663 71.655 L 339.663 71.655 L 339.663 71.655 Q 341.293 73.285 341.293 76.032 L 341.293 76.032 L 341.293 76.032 Q 341.293 80.036 338.354 82.166 L 338.354 82.166 L 338.354 82.166 Q 335.415 84.297 329.896 84.297 L 329.896 84.297 L 317.215 84.297 L 317.215 56.113 L 329.844 56.113 L 329.844 56.113 Q 340.394 56.113 340.394 63.223 Z  M 336.672 75.775 L 336.672 75.775 L 336.672 75.775 Q 336.672 73.413 334.824 72.464 L 334.824 72.464 L 334.824 72.464 Q 332.976 71.514 329.408 71.514 L 329.408 71.514 L 321.836 71.514 L 321.836 80.575 L 329.511 80.575 L 329.511 80.575 Q 336.672 80.575 336.672 75.775 Z  M 335.877 63.634 L 335.877 63.634 L 335.877 63.634 Q 335.877 61.657 334.349 60.81 L 334.349 60.81 L 334.349 60.81 Q 332.822 59.963 329.742 59.963 L 329.742 59.963 L 321.836 59.963 L 321.836 67.689 L 328.895 67.689 L 328.895 67.689 Q 332.668 67.689 334.272 66.752 L 334.272 66.752 L 334.272 66.752 Q 335.877 65.815 335.877 63.634 Z  M 360.745 84.81 L 360.745 84.81 L 360.745 84.81 Q 354.404 84.81 350.798 80.973 L 350.798 80.973 L 350.798 80.973 Q 347.191 77.135 347.191 70.41 L 347.191 70.41 L 347.191 70.41 Q 347.191 63.634 350.554 59.616 L 350.554 59.616 L 350.554 59.616 Q 353.917 55.599 359.641 55.599 L 359.641 55.599 L 359.641 55.599 Q 364.954 55.599 368.111 59.026 L 368.111 59.026 L 368.111 59.026 Q 371.269 62.453 371.269 68.305 L 371.269 68.305 L 371.269 71.103 L 351.966 71.103 L 351.966 71.103 Q 352.094 75.903 354.404 78.393 L 354.404 78.393 L 354.404 78.393 Q 356.715 80.883 360.95 80.883 L 360.95 80.883 L 360.95 80.883 Q 363.209 80.883 365.237 80.485 L 365.237 80.485 L 365.237 80.485 Q 367.264 80.087 369.985 78.932 L 369.985 78.932 L 369.985 82.988 L 369.985 82.988 Q 367.649 83.989 365.596 84.4 L 365.596 84.4 L 365.596 84.4 Q 363.542 84.81 360.745 84.81 Z  M 359.589 59.373 L 359.589 59.373 L 359.589 59.373 Q 356.278 59.373 354.353 61.503 L 354.353 61.503 L 354.353 61.503 Q 352.428 63.634 352.068 67.433 L 352.068 67.433 L 366.417 67.433 L 366.417 67.433 Q 366.366 63.48 364.595 61.426 L 364.595 61.426 L 364.595 61.426 Q 362.824 59.373 359.589 59.373 Z  M 397.128 56.113 L 397.128 60.014 L 387.912 60.014 L 387.912 84.297 L 383.343 84.297 L 383.343 60.014 L 374.257 60.014 L 374.257 56.113 L 397.128 56.113 Z  M 424.722 84.297 L 421.359 84.297 L 420.461 80.293 L 420.255 80.293 L 420.255 80.293 Q 418.15 82.937 416.058 83.873 L 416.058 83.873 L 416.058 83.873 Q 413.966 84.81 410.783 84.81 L 410.783 84.81 L 410.783 84.81 Q 406.625 84.81 404.263 82.629 L 404.263 82.629 L 404.263 82.629 Q 401.902 80.447 401.902 76.468 L 401.902 76.468 L 401.902 76.468 Q 401.902 67.895 415.429 67.484 L 415.429 67.484 L 420.204 67.304 L 420.204 65.636 L 420.204 65.636 Q 420.204 62.427 418.818 60.9 L 418.818 60.9 L 418.818 60.9 Q 417.432 59.373 414.377 59.373 L 414.377 59.373 L 414.377 59.373 Q 412.144 59.373 410.154 60.04 L 410.154 60.04 L 410.154 60.04 Q 408.165 60.707 406.42 61.529 L 406.42 61.529 L 405.008 58.063 L 405.008 58.063 Q 407.138 56.934 409.654 56.292 L 409.654 56.292 L 409.654 56.292 Q 412.169 55.651 414.634 55.651 L 414.634 55.651 L 414.634 55.651 Q 419.742 55.651 422.232 57.909 L 422.232 57.909 L 422.232 57.909 Q 424.722 60.168 424.722 65.097 L 424.722 65.097 L 424.722 84.297 Z  M 411.836 81.088 L 411.836 81.088 L 411.836 81.088 Q 415.712 81.088 417.932 78.996 L 417.932 78.996 L 417.932 78.996 Q 420.152 76.904 420.152 73.054 L 420.152 73.054 L 420.152 70.513 L 415.994 70.693 L 415.994 70.693 Q 411.143 70.872 408.922 72.233 L 408.922 72.233 L 408.922 72.233 Q 406.702 73.593 406.702 76.519 L 406.702 76.519 L 406.702 76.519 Q 406.702 78.727 408.05 79.908 L 408.05 79.908 L 408.05 79.908 Q 409.397 81.088 411.836 81.088 Z  M 28.261 84.297 L 28.261 46.769 L 32.676 46.769 L 32.676 67.381 L 32.676 67.381 Q 32.676 69.563 32.548 73.157 L 32.548 73.157 L 32.548 73.157 Q 32.419 76.75 32.291 77.828 L 32.291 77.828 L 32.522 77.828 L 53.16 46.769 L 58.422 46.769 L 58.422 84.297 L 54.007 84.297 L 54.007 63.89 L 54.007 63.89 Q 54.007 61.221 54.187 57.666 L 54.187 57.666 L 54.187 57.666 Q 54.366 54.11 54.443 53.058 L 54.443 53.058 L 54.212 53.058 L 33.523 84.297 L 28.261 84.297 Z  M 69.511 67.741 L 72.566 67.741 L 72.566 67.741 Q 80.549 67.741 80.549 63.428 L 80.549 63.428 L 80.549 63.428 Q 80.549 59.424 74.157 59.424 L 74.157 59.424 L 74.157 59.424 Q 72.129 59.424 70.384 59.809 L 70.384 59.809 L 70.384 59.809 Q 68.638 60.194 66.2 61.221 L 66.2 61.221 L 64.583 57.55 L 64.583 57.55 Q 68.972 55.599 74.414 55.599 L 74.414 55.599 L 74.414 55.599 Q 79.368 55.599 82.166 57.576 L 82.166 57.576 L 82.166 57.576 Q 84.964 59.552 84.964 63.018 L 84.964 63.018 L 84.964 63.018 Q 84.964 67.818 79.676 69.255 L 79.676 69.255 L 79.676 69.46 L 79.676 69.46 Q 82.884 70.384 84.399 72.13 L 84.399 72.13 L 84.399 72.13 Q 85.913 73.875 85.913 76.519 L 85.913 76.519 L 85.913 76.519 Q 85.913 80.395 82.705 82.603 L 82.705 82.603 L 82.705 82.603 Q 79.496 84.81 73.875 84.81 L 73.875 84.81 L 73.875 84.81 Q 67.663 84.81 64.275 82.988 L 64.275 82.988 L 64.275 78.83 L 64.275 78.83 Q 68.972 81.037 73.823 81.037 L 73.823 81.037 L 73.823 81.037 Q 77.443 81.037 79.393 79.831 L 79.393 79.831 L 79.393 79.831 Q 81.344 78.624 81.344 76.263 L 81.344 76.263 L 81.344 76.263 Q 81.344 73.85 79.368 72.682 L 79.368 72.682 L 79.368 72.682 Q 77.391 71.514 73.31 71.514 L 73.31 71.514 L 69.511 71.514 L 69.511 67.741 Z  M 91.817 67.381 L 91.817 67.381 L 91.817 67.381 Q 91.817 57.961 94.654 52.866 L 94.654 52.866 L 94.654 52.866 Q 97.49 47.77 103.574 46.435 L 103.574 46.435 L 103.574 46.435 Q 109.298 45.28 116.357 44.074 L 116.357 44.074 L 117.152 48.13 L 114.098 48.617 L 114.098 48.617 Q 108.143 49.593 104.523 50.337 L 104.523 50.337 L 104.523 50.337 Q 100.827 51.159 98.966 54.098 L 98.966 54.098 L 98.966 54.098 Q 97.105 57.037 96.848 62.632 L 96.848 62.632 L 97.182 62.632 L 97.182 62.632 Q 98.671 60.553 101.148 59.308 L 101.148 59.308 L 101.148 59.308 Q 103.625 58.063 106.423 58.063 L 106.423 58.063 L 106.423 58.063 Q 111.608 58.063 114.534 61.4 L 114.534 61.4 L 114.534 61.4 Q 117.46 64.737 117.46 70.744 L 117.46 70.744 L 117.46 70.744 Q 117.46 77.443 114.046 81.127 L 114.046 81.127 L 114.046 81.127 Q 110.632 84.81 104.575 84.81 L 104.575 84.81 L 104.575 84.81 Q 98.568 84.81 95.193 80.216 L 95.193 80.216 L 95.193 80.216 Q 91.817 75.621 91.817 67.381 Z  M 104.96 80.986 L 104.96 80.986 L 104.96 80.986 Q 112.583 80.986 112.583 71.206 L 112.583 71.206 L 112.583 71.206 Q 112.583 61.914 105.678 61.914 L 105.678 61.914 L 105.678 61.914 Q 103.805 61.914 102.046 62.684 L 102.046 62.684 L 102.046 62.684 Q 100.288 63.454 98.863 64.712 L 98.863 64.712 L 98.863 64.712 Q 97.439 65.969 96.54 67.484 L 96.54 67.484 L 96.54 67.484 Q 96.54 80.986 104.96 80.986 Z  M 136.81 84.81 L 136.81 84.81 L 136.81 84.81 Q 130.469 84.81 126.863 80.973 L 126.863 80.973 L 126.863 80.973 Q 123.256 77.135 123.256 70.41 L 123.256 70.41 L 123.256 70.41 Q 123.256 63.634 126.619 59.616 L 126.619 59.616 L 126.619 59.616 Q 129.982 55.599 135.706 55.599 L 135.706 55.599 L 135.706 55.599 Q 141.019 55.599 144.176 59.026 L 144.176 59.026 L 144.176 59.026 Q 147.334 62.453 147.334 68.305 L 147.334 68.305 L 147.334 71.103 L 128.031 71.103 L 128.031 71.103 Q 128.159 75.903 130.469 78.393 L 130.469 78.393 L 130.469 78.393 Q 132.78 80.883 137.015 80.883 L 137.015 80.883 L 137.015 80.883 Q 139.274 80.883 141.302 80.485 L 141.302 80.485 L 141.302 80.485 Q 143.329 80.087 146.05 78.932 L 146.05 78.932 L 146.05 82.988 L 146.05 82.988 Q 143.714 83.989 141.661 84.4 L 141.661 84.4 L 141.661 84.4 Q 139.607 84.81 136.81 84.81 Z  M 135.654 59.373 L 135.654 59.373 L 135.654 59.373 Q 132.343 59.373 130.418 61.503 L 130.418 61.503 L 130.418 61.503 Q 128.493 63.634 128.133 67.433 L 128.133 67.433 L 142.482 67.433 L 142.482 67.433 Q 142.431 63.48 140.66 61.426 L 140.66 61.426 L 140.66 61.426 Q 138.889 59.373 135.654 59.373 Z  M 167.083 84.81 L 167.083 84.81 L 167.083 84.81 Q 161.411 84.81 158.356 80.729 L 158.356 80.729 L 158.048 80.729 L 158.151 81.781 L 158.151 81.781 Q 158.356 83.784 158.356 85.349 L 158.356 85.349 L 158.356 96.926 L 153.736 96.926 L 153.736 56.113 L 157.535 56.113 L 158.151 59.963 L 158.356 59.963 L 158.356 59.963 Q 159.999 57.653 162.155 56.626 L 162.155 56.626 L 162.155 56.626 Q 164.311 55.599 167.135 55.599 L 167.135 55.599 L 167.135 55.599 Q 172.628 55.599 175.67 59.411 L 175.67 59.411 L 175.67 59.411 Q 178.711 63.223 178.711 70.153 L 178.711 70.153 L 178.711 70.153 Q 178.711 77.058 175.657 80.934 L 175.657 80.934 L 175.657 80.934 Q 172.602 84.81 167.083 84.81 Z  M 166.313 59.475 L 166.313 59.475 L 166.313 59.475 Q 162.129 59.475 160.268 61.837 L 160.268 61.837 L 160.268 61.837 Q 158.407 64.198 158.356 69.255 L 158.356 69.255 L 158.356 70.153 L 158.356 70.153 Q 158.356 75.878 160.255 78.432 L 160.255 78.432 L 160.255 78.432 Q 162.155 80.986 166.416 80.986 L 166.416 80.986 L 166.416 80.986 Q 169.958 80.986 171.948 78.111 L 171.948 78.111 L 171.948 78.111 Q 173.937 75.236 173.937 70.102 L 173.937 70.102 L 173.937 70.102 Q 173.937 64.943 171.948 62.209 L 171.948 62.209 L 171.948 62.209 Q 169.958 59.475 166.313 59.475 Z  M 197.265 84.81 L 197.265 84.81 L 197.265 84.81 Q 190.925 84.81 187.318 80.973 L 187.318 80.973 L 187.318 80.973 Q 183.712 77.135 183.712 70.41 L 183.712 70.41 L 183.712 70.41 Q 183.712 63.634 187.074 59.616 L 187.074 59.616 L 187.074 59.616 Q 190.437 55.599 196.161 55.599 L 196.161 55.599 L 196.161 55.599 Q 201.474 55.599 204.632 59.026 L 204.632 59.026 L 204.632 59.026 Q 207.789 62.453 207.789 68.305 L 207.789 68.305 L 207.789 71.103 L 188.486 71.103 L 188.486 71.103 Q 188.614 75.903 190.925 78.393 L 190.925 78.393 L 190.925 78.393 Q 193.235 80.883 197.47 80.883 L 197.47 80.883 L 197.47 80.883 Q 199.729 80.883 201.757 80.485 L 201.757 80.485 L 201.757 80.485 Q 203.785 80.087 206.506 78.932 L 206.506 78.932 L 206.506 82.988 L 206.506 82.988 Q 204.17 83.989 202.116 84.4 L 202.116 84.4 L 202.116 84.4 Q 200.063 84.81 197.265 84.81 Z  M 196.11 59.373 L 196.11 59.373 L 196.11 59.373 Q 192.798 59.373 190.873 61.503 L 190.873 61.503 L 190.873 61.503 Q 188.948 63.634 188.589 67.433 L 188.589 67.433 L 202.938 67.433 L 202.938 67.433 Q 202.886 63.48 201.115 61.426 L 201.115 61.426 L 201.115 61.426 Q 199.344 59.373 196.11 59.373 Z  M 233.648 56.113 L 233.648 60.014 L 224.433 60.014 L 224.433 84.297 L 219.864 84.297 L 219.864 60.014 L 210.777 60.014 L 210.777 56.113 L 233.648 56.113 Z  M 252.463 84.81 L 252.463 84.81 L 252.463 84.81 Q 246.123 84.81 242.516 80.973 L 242.516 80.973 L 242.516 80.973 Q 238.91 77.135 238.91 70.41 L 238.91 70.41 L 238.91 70.41 Q 238.91 63.634 242.273 59.616 L 242.273 59.616 L 242.273 59.616 Q 245.635 55.599 251.359 55.599 L 251.359 55.599 L 251.359 55.599 Q 256.673 55.599 259.83 59.026 L 259.83 59.026 L 259.83 59.026 Q 262.987 62.453 262.987 68.305 L 262.987 68.305 L 262.987 71.103 L 243.684 71.103 L 243.684 71.103 Q 243.813 75.903 246.123 78.393 L 246.123 78.393 L 246.123 78.393 Q 248.433 80.883 252.668 80.883 L 252.668 80.883 L 252.668 80.883 Q 254.927 80.883 256.955 80.485 L 256.955 80.485 L 256.955 80.485 Q 258.983 80.087 261.704 78.932 L 261.704 78.932 L 261.704 82.988 L 261.704 82.988 Q 259.368 83.989 257.314 84.4 L 257.314 84.4 L 257.314 84.4 Q 255.261 84.81 252.463 84.81 Z  M 251.308 59.373 L 251.308 59.373 L 251.308 59.373 Q 247.997 59.373 246.072 61.503 L 246.072 61.503 L 246.072 61.503 Q 244.146 63.634 243.787 67.433 L 243.787 67.433 L 258.136 67.433 L 258.136 67.433 Q 258.085 63.48 256.313 61.426 L 256.313 61.426 L 256.313 61.426 Q 254.542 59.373 251.308 59.373 Z " fill="rgb(16,55,72)"/></g></g></svg>