<?xml version="1.0" encoding="UTF-8" standalone="no"?><!-- Generator: Gravit.io --><svg xmlns="http://www.w3.org/2000/svg" xmlns:xlink="http://www.w3.org/1999/xlink" style="isolation:isolate" viewBox="0 0 610 169" width="610pt" height="169pt"><defs><clipPath id="_clipPath_Vg73ayxBTLvf7RIOxfAv6SfhQ5lQOh6l"><rect width="610" height="169"/></clipPath></defs><g clip-path="url(#_clipPath_Vg73ayxBTLvf7RIOxfAv6SfhQ5lQOh6l)"><g><path d="M 15 0 L 595 0 C 603.279 0 610 6.721 610 15 L 610 154 C 610 162.279 603.279 169 595 169 L 15 169 C 6.721 169 0 162.279 0 154 L 0 15 C 0 6.721 6.721 0 15 0 Z" style="stroke:none;fill:#568EA6;stroke-miterlimit:10;"/><path d=" M 217.451 80.65 L 217.451 80.65 Q 217.451 87.6 212.526 91.575 L 212.526 91.575 L 212.526 91.575 Q 207.602 95.55 198.752 95.8 L 198.752 95.8 L 198.752 99.4 L 195.302 99.4 L 195.302 95.8 L 195.302 95.8 Q 186.452 95.5 181.527 91.55 L 181.527 91.55 L 181.527 91.55 Q 176.602 87.6 176.602 80.65 L 176.602 80.65 L 176.602 80.65 Q 176.602 73.7 181.527 69.75 L 181.527 69.75 L 181.527 69.75 Q 186.452 65.8 195.302 65.5 L 195.302 65.5 L 195.302 62 L 198.752 62 L 198.752 65.5 L 198.752 65.5 Q 207.552 65.8 212.501 69.775 L 212.501 69.775 L 212.501 69.775 Q 217.451 73.75 217.451 80.65 L 217.451 80.65 Z  M 198.752 92.85 L 198.752 92.85 Q 206.002 92.55 209.952 89.4 L 209.952 89.4 L 209.952 89.4 Q 213.901 86.25 213.901 80.65 L 213.901 80.65 L 213.901 80.65 Q 213.901 75.05 209.927 71.9 L 209.927 71.9 L 209.927 71.9 Q 205.952 68.75 198.752 68.5 L 198.752 68.5 L 198.752 92.85 Z  M 180.152 80.65 L 180.152 80.65 Q 180.152 86.25 184.127 89.375 L 184.127 89.375 L 184.127 89.375 Q 188.102 92.5 195.302 92.85 L 195.302 92.85 L 195.302 68.5 L 195.302 68.5 Q 188.002 68.8 184.077 71.925 L 184.077 71.925 L 184.077 71.925 Q 180.152 75.05 180.152 80.65 L 180.152 80.65 Z  M 235.001 98.45 L 235.001 98.45 Q 231.201 98.45 228.151 96.725 L 228.151 96.725 L 228.151 96.725 Q 225.101 95 223.351 91.95 L 223.351 91.95 L 223.351 91.95 Q 221.601 88.9 221.601 85.05 L 221.601 85.05 L 221.601 85.05 Q 221.601 81.2 223.351 78.15 L 223.351 78.15 L 223.351 78.15 Q 225.101 75.1 228.151 73.4 L 228.151 73.4 L 228.151 73.4 Q 231.201 71.7 235.001 71.7 L 235.001 71.7 L 235.001 71.7 Q 238.801 71.7 241.851 73.4 L 241.851 73.4 L 241.851 73.4 Q 244.901 75.1 246.626 78.15 L 246.626 78.15 L 246.626 78.15 Q 248.351 81.2 248.351 85.05 L 248.351 85.05 L 248.351 85.05 Q 248.351 88.9 246.626 91.95 L 246.626 91.95 L 246.626 91.95 Q 244.901 95 241.851 96.725 L 241.851 96.725 L 241.851 96.725 Q 238.801 98.45 235.001 98.45 L 235.001 98.45 Z  M 235.001 95.3 L 235.001 95.3 Q 237.801 95.3 240.026 94.025 L 240.026 94.025 L 240.026 94.025 Q 242.251 92.75 243.501 90.4 L 243.501 90.4 L 243.501 90.4 Q 244.751 88.05 244.751 85.05 L 244.751 85.05 L 244.751 85.05 Q 244.751 82.05 243.501 79.7 L 243.501 79.7 L 243.501 79.7 Q 242.251 77.35 240.026 76.075 L 240.026 76.075 L 240.026 76.075 Q 237.801 74.8 235.001 74.8 L 235.001 74.8 L 235.001 74.8 Q 232.201 74.8 229.976 76.075 L 229.976 76.075 L 229.976 76.075 Q 227.751 77.35 226.476 79.7 L 226.476 79.7 L 226.476 79.7 Q 225.201 82.05 225.201 85.05 L 225.201 85.05 L 225.201 85.05 Q 225.201 88.05 226.476 90.4 L 226.476 90.4 L 226.476 90.4 Q 227.751 92.75 229.976 94.025 L 229.976 94.025 L 229.976 94.025 Q 232.201 95.3 235.001 95.3 L 235.001 95.3 Z  M 275.15 71.9 L 275.15 75.05 L 265.201 75.05 L 265.201 98.2 L 261.651 98.2 L 261.651 75.05 L 251.701 75.05 L 251.701 71.9 L 275.15 71.9 Z  M 290 98.45 L 290 98.45 Q 286.2 98.45 283.15 96.725 L 283.15 96.725 L 283.15 96.725 Q 280.1 95 278.35 91.95 L 278.35 91.95 L 278.35 91.95 Q 276.6 88.9 276.6 85.05 L 276.6 85.05 L 276.6 85.05 Q 276.6 81.2 278.35 78.15 L 278.35 78.15 L 278.35 78.15 Q 280.1 75.1 283.15 73.4 L 283.15 73.4 L 283.15 73.4 Q 286.2 71.7 290 71.7 L 290 71.7 L 290 71.7 Q 293.8 71.7 296.85 73.4 L 296.85 73.4 L 296.85 73.4 Q 299.9 75.1 301.625 78.15 L 301.625 78.15 L 301.625 78.15 Q 303.35 81.2 303.35 85.05 L 303.35 85.05 L 303.35 85.05 Q 303.35 88.9 301.625 91.95 L 301.625 91.95 L 301.625 91.95 Q 299.9 95 296.85 96.725 L 296.85 96.725 L 296.85 96.725 Q 293.8 98.45 290 98.45 L 290 98.45 Z  M 290 95.3 L 290 95.3 Q 292.8 95.3 295.025 94.025 L 295.025 94.025 L 295.025 94.025 Q 297.25 92.75 298.5 90.4 L 298.5 90.4 L 298.5 90.4 Q 299.75 88.05 299.75 85.05 L 299.75 85.05 L 299.75 85.05 Q 299.75 82.05 298.5 79.7 L 298.5 79.7 L 298.5 79.7 Q 297.25 77.35 295.025 76.075 L 295.025 76.075 L 295.025 76.075 Q 292.8 74.8 290 74.8 L 290 74.8 L 290 74.8 Q 287.2 74.8 284.975 76.075 L 284.975 76.075 L 284.975 76.075 Q 282.75 77.35 281.475 79.7 L 281.475 79.7 L 281.475 79.7 Q 280.2 82.05 280.2 85.05 L 280.2 85.05 L 280.2 85.05 Q 280.2 88.05 281.475 90.4 L 281.475 90.4 L 281.475 90.4 Q 282.75 92.75 284.975 94.025 L 284.975 94.025 L 284.975 94.025 Q 287.2 95.3 290 95.3 L 290 95.3 Z  M 330.25 71.9 L 330.25 75.05 L 315.2 75.05 L 315.2 98.2 L 311.65 98.2 L 311.65 71.9 L 330.25 71.9 Z  M 350.199 71.7 L 350.199 71.7 Q 353.899 71.7 356.899 73.375 L 356.899 73.375 L 356.899 73.375 Q 359.899 75.05 361.599 78.1 L 361.599 78.1 L 361.599 78.1 Q 363.299 81.15 363.299 85.05 L 363.299 85.05 L 363.299 85.05 Q 363.299 89 361.599 92.05 L 361.599 92.05 L 361.599 92.05 Q 359.899 95.1 356.924 96.775 L 356.924 96.775 L 356.924 96.775 Q 353.949 98.45 350.199 98.45 L 350.199 98.45 L 350.199 98.45 Q 346.999 98.45 344.424 97.125 L 344.424 97.125 L 344.424 97.125 Q 341.849 95.8 340.199 93.25 L 340.199 93.25 L 340.199 107.9 L 336.65 107.9 L 336.65 71.9 L 340.049 71.9 L 340.049 77.1 L 340.049 77.1 Q 341.649 74.5 344.274 73.1 L 344.274 73.1 L 344.274 73.1 Q 346.899 71.7 350.199 71.7 L 350.199 71.7 Z  M 349.949 95.3 L 349.949 95.3 Q 352.699 95.3 354.949 94.025 L 354.949 94.025 L 354.949 94.025 Q 357.199 92.75 358.474 90.4 L 358.474 90.4 L 358.474 90.4 Q 359.749 88.05 359.749 85.05 L 359.749 85.05 L 359.749 85.05 Q 359.749 82.05 358.474 79.725 L 358.474 79.725 L 358.474 79.725 Q 357.199 77.4 354.949 76.1 L 354.949 76.1 L 354.949 76.1 Q 352.699 74.8 349.949 74.8 L 349.949 74.8 L 349.949 74.8 Q 347.149 74.8 344.924 76.1 L 344.924 76.1 L 344.924 76.1 Q 342.699 77.4 341.424 79.725 L 341.424 79.725 L 341.424 79.725 Q 340.149 82.05 340.149 85.05 L 340.149 85.05 L 340.149 85.05 Q 340.149 88.05 341.424 90.4 L 341.424 90.4 L 341.424 90.4 Q 342.699 92.75 344.924 94.025 L 344.924 94.025 L 344.924 94.025 Q 347.149 95.3 349.949 95.3 L 349.949 95.3 Z  M 380.699 71.7 L 380.699 71.7 Q 385.849 71.7 388.599 74.275 L 388.599 74.275 L 388.599 74.275 Q 391.349 76.85 391.349 81.9 L 391.349 81.9 L 391.349 98.2 L 387.949 98.2 L 387.949 94.1 L 387.949 94.1 Q 386.749 96.15 384.424 97.3 L 384.424 97.3 L 384.424 97.3 Q 382.099 98.45 378.899 98.45 L 378.899 98.45 L 378.899 98.45 Q 374.499 98.45 371.899 96.35 L 371.899 96.35 L 371.899 96.35 Q 369.299 94.25 369.299 90.8 L 369.299 90.8 L 369.299 90.8 Q 369.299 87.45 371.724 85.4 L 371.724 85.4 L 371.724 85.4 Q 374.149 83.35 379.449 83.35 L 379.449 83.35 L 387.799 83.35 L 387.799 81.75 L 387.799 81.75 Q 387.799 78.35 385.899 76.575 L 385.899 76.575 L 385.899 76.575 Q 383.999 74.8 380.349 74.8 L 380.349 74.8 L 380.349 74.8 Q 377.849 74.8 375.549 75.625 L 375.549 75.625 L 375.549 75.625 Q 373.249 76.45 371.599 77.9 L 371.599 77.9 L 369.999 75.25 L 369.999 75.25 Q 371.999 73.55 374.799 72.625 L 374.799 72.625 L 374.799 72.625 Q 377.599 71.7 380.699 71.7 L 380.699 71.7 Z  M 379.449 95.65 L 379.449 95.65 Q 382.449 95.65 384.599 94.275 L 384.599 94.275 L 384.599 94.275 Q 386.749 92.9 387.799 90.3 L 387.799 90.3 L 387.799 86 L 379.549 86 L 379.549 86 Q 372.799 86 372.799 90.7 L 372.799 90.7 L 372.799 90.7 Q 372.799 93 374.549 94.325 L 374.549 94.325 L 374.549 94.325 Q 376.299 95.65 379.449 95.65 L 379.449 95.65 Z  M 433.398 85 L 433.398 85 Q 433.398 91.15 429.348 94.65 L 429.348 94.65 L 429.348 94.65 Q 425.298 98.15 417.898 98.45 L 417.898 98.45 L 417.898 107.9 L 414.448 107.9 L 414.448 98.5 L 414.448 98.5 Q 407.098 98.2 403.073 94.675 L 403.073 94.675 L 403.073 94.675 Q 399.048 91.15 399.048 85 L 399.048 85 L 399.048 85 Q 399.048 78.9 403.073 75.45 L 403.073 75.45 L 403.073 75.45 Q 407.098 72 414.448 71.7 L 414.448 71.7 L 414.448 61.1 L 417.898 61.1 L 417.898 71.7 L 417.898 71.7 Q 425.298 72.05 429.348 75.5 L 429.348 75.5 L 429.348 75.5 Q 433.398 78.95 433.398 85 L 433.398 85 Z  M 402.548 85 L 402.548 85 Q 402.548 89.7 405.573 92.35 L 405.573 92.35 L 405.573 92.35 Q 408.598 95 414.448 95.35 L 414.448 95.35 L 414.448 74.85 L 414.448 74.85 Q 408.648 75.15 405.598 77.775 L 405.598 77.775 L 405.598 77.775 Q 402.548 80.4 402.548 85 L 402.548 85 Z  M 417.898 95.35 L 417.898 95.35 Q 423.748 95.05 426.823 92.4 L 426.823 92.4 L 426.823 92.4 Q 429.898 89.75 429.898 85 L 429.898 85 L 429.898 85 Q 429.898 80.35 426.823 77.75 L 426.823 77.75 L 426.823 77.75 Q 423.748 75.15 417.898 74.85 L 417.898 74.85 L 417.898 95.35 Z " fill="rgb(16,55,72)"/></g></g></svg>