<?xml version="1.0" encoding="UTF-8" standalone="no"?><!-- Generator: Gravit.io --><svg xmlns="http://www.w3.org/2000/svg" xmlns:xlink="http://www.w3.org/1999/xlink" style="isolation:isolate" viewBox="0 0 610 169" width="610pt" height="169pt"><defs><clipPath id="_clipPath_yllZjmJescTBL7H6iS4hv7hXCtg8rDKK"><rect width="610" height="169"/></clipPath></defs><g clip-path="url(#_clipPath_yllZjmJescTBL7H6iS4hv7hXCtg8rDKK)"><g><path d="M 15 0 L 595 0 C 603.279 0 610 6.721 610 15 L 610 154 C 610 162.279 603.279 169 595 169 L 15 169 C 6.721 169 0 162.279 0 154 L 0 15 C 0 6.721 6.721 0 15 0 Z" style="stroke:none;fill:#568EA6;stroke-miterlimit:10;"/><path d=" M 518.922 78.566 L 520.832 78.566 L 514.986 94.018 L 513.018 94.018 L 508.141 81.357 L 503.265 94.018 L 501.296 94.018 L 495.48 78.566 L 497.477 78.566 L 502.324 91.697 L 507.289 78.566 L 509.081 78.566 L 514.016 91.697 L 518.922 78.566 Z  M 525.973 81.592 L 525.973 81.592 Q 526.707 80.035 528.161 79.242 L 528.161 79.242 L 528.161 79.242 Q 529.615 78.448 531.76 78.448 L 531.76 78.448 L 531.76 80.475 L 531.261 80.446 L 531.261 80.446 Q 528.822 80.446 527.442 81.944 L 527.442 81.944 L 527.442 81.944 Q 526.061 83.442 526.061 86.145 L 526.061 86.145 L 526.061 94.018 L 523.975 94.018 L 523.975 78.566 L 525.973 78.566 L 525.973 81.592 Z  M 535.52 94.018 L 535.52 78.566 L 537.606 78.566 L 537.606 94.018 L 535.52 94.018 Z  M 536.578 75.188 L 536.578 75.188 Q 535.932 75.188 535.491 74.747 L 535.491 74.747 L 535.491 74.747 Q 535.05 74.306 535.05 73.689 L 535.05 73.689 L 535.05 73.689 Q 535.05 73.102 535.491 72.661 L 535.491 72.661 L 535.491 72.661 Q 535.932 72.22 536.578 72.22 L 536.578 72.22 L 536.578 72.22 Q 537.224 72.22 537.665 72.646 L 537.665 72.646 L 537.665 72.646 Q 538.105 73.072 538.105 73.66 L 538.105 73.66 L 538.105 73.66 Q 538.105 74.306 537.665 74.747 L 537.665 74.747 L 537.665 74.747 Q 537.224 75.188 536.578 75.188 L 536.578 75.188 Z  M 550.826 91.58 L 551.56 93.078 L 551.56 93.078 Q 550.973 93.607 550.106 93.886 L 550.106 93.886 L 550.106 93.886 Q 549.239 94.165 548.299 94.165 L 548.299 94.165 L 548.299 94.165 Q 546.125 94.165 544.95 92.99 L 544.95 92.99 L 544.95 92.99 Q 543.775 91.815 543.775 89.67 L 543.775 89.67 L 543.775 80.328 L 541.014 80.328 L 541.014 78.566 L 543.775 78.566 L 543.775 75.188 L 545.861 75.188 L 545.861 78.566 L 550.561 78.566 L 550.561 80.328 L 545.861 80.328 L 545.861 89.553 L 545.861 89.553 Q 545.861 90.934 546.551 91.653 L 546.551 91.653 L 546.551 91.653 Q 547.242 92.373 548.534 92.373 L 548.534 92.373 L 548.534 92.373 Q 549.181 92.373 549.783 92.167 L 549.783 92.167 L 549.783 92.167 Q 550.385 91.962 550.826 91.58 L 550.826 91.58 Z  M 568.276 86.292 L 568.246 86.938 L 555.32 86.938 L 555.32 86.938 Q 555.496 89.347 557.171 90.831 L 557.171 90.831 L 557.171 90.831 Q 558.846 92.314 561.401 92.314 L 561.401 92.314 L 561.401 92.314 Q 562.841 92.314 564.045 91.8 L 564.045 91.8 L 564.045 91.8 Q 565.25 91.286 566.131 90.287 L 566.131 90.287 L 567.306 91.639 L 567.306 91.639 Q 566.278 92.872 564.736 93.519 L 564.736 93.519 L 564.736 93.519 Q 563.193 94.165 561.342 94.165 L 561.342 94.165 L 561.342 94.165 Q 558.963 94.165 557.127 93.152 L 557.127 93.152 L 557.127 93.152 Q 555.291 92.138 554.263 90.346 L 554.263 90.346 L 554.263 90.346 Q 553.235 88.554 553.235 86.292 L 553.235 86.292 L 553.235 86.292 Q 553.235 84.03 554.219 82.238 L 554.219 82.238 L 554.219 82.238 Q 555.203 80.446 556.921 79.447 L 556.921 79.447 L 556.921 79.447 Q 558.64 78.448 560.784 78.448 L 560.784 78.448 L 560.784 78.448 Q 562.929 78.448 564.633 79.447 L 564.633 79.447 L 564.633 79.447 Q 566.337 80.446 567.306 82.223 L 567.306 82.223 L 567.306 82.223 Q 568.276 84.001 568.276 86.292 L 568.276 86.292 Z  M 560.784 80.24 L 560.784 80.24 Q 558.552 80.24 557.039 81.665 L 557.039 81.665 L 557.039 81.665 Q 555.526 83.09 555.32 85.381 L 555.32 85.381 L 566.278 85.381 L 566.278 85.381 Q 566.072 83.09 564.559 81.665 L 564.559 81.665 L 564.559 81.665 Q 563.046 80.24 560.784 80.24 L 560.784 80.24 Z  M 574.533 81.592 L 574.533 81.592 Q 575.267 80.035 576.721 79.242 L 576.721 79.242 L 576.721 79.242 Q 578.176 78.448 580.32 78.448 L 580.32 78.448 L 580.32 80.475 L 579.821 80.446 L 579.821 80.446 Q 577.382 80.446 576.002 81.944 L 576.002 81.944 L 576.002 81.944 Q 574.621 83.442 574.621 86.145 L 574.621 86.145 L 574.621 94.018 L 572.535 94.018 L 572.535 78.566 L 574.533 78.566 L 574.533 81.592 Z  M 380.146 94.194 L 380.146 94.194 Q 377.091 94.194 374.638 92.843 L 374.638 92.843 L 374.638 92.843 Q 372.185 91.492 370.789 89.097 L 370.789 89.097 L 370.789 89.097 Q 369.394 86.703 369.394 83.736 L 369.394 83.736 L 369.394 83.736 Q 369.394 80.769 370.789 78.375 L 370.789 78.375 L 370.789 78.375 Q 372.185 75.981 374.653 74.629 L 374.653 74.629 L 374.653 74.629 Q 377.12 73.278 380.175 73.278 L 380.175 73.278 L 380.175 73.278 Q 382.467 73.278 384.406 74.042 L 384.406 74.042 L 384.406 74.042 Q 386.345 74.806 387.696 76.275 L 387.696 76.275 L 386.315 77.655 L 386.315 77.655 Q 383.906 75.217 380.234 75.217 L 380.234 75.217 L 380.234 75.217 Q 377.796 75.217 375.798 76.333 L 375.798 76.333 L 375.798 76.333 Q 373.801 77.45 372.67 79.388 L 372.67 79.388 L 372.67 79.388 Q 371.539 81.327 371.539 83.736 L 371.539 83.736 L 371.539 83.736 Q 371.539 86.145 372.67 88.084 L 372.67 88.084 L 372.67 88.084 Q 373.801 90.023 375.798 91.139 L 375.798 91.139 L 375.798 91.139 Q 377.796 92.255 380.234 92.255 L 380.234 92.255 L 380.234 92.255 Q 383.936 92.255 386.315 89.788 L 386.315 89.788 L 387.696 91.169 L 387.696 91.169 Q 386.345 92.637 384.391 93.416 L 384.391 93.416 L 384.391 93.416 Q 382.437 94.194 380.146 94.194 L 380.146 94.194 Z  M 397.537 94.165 L 397.537 94.165 Q 395.305 94.165 393.513 93.152 L 393.513 93.152 L 393.513 93.152 Q 391.72 92.138 390.692 90.346 L 390.692 90.346 L 390.692 90.346 Q 389.664 88.554 389.664 86.292 L 389.664 86.292 L 389.664 86.292 Q 389.664 84.03 390.692 82.238 L 390.692 82.238 L 390.692 82.238 Q 391.72 80.446 393.513 79.447 L 393.513 79.447 L 393.513 79.447 Q 395.305 78.448 397.537 78.448 L 397.537 78.448 L 397.537 78.448 Q 399.77 78.448 401.562 79.447 L 401.562 79.447 L 401.562 79.447 Q 403.354 80.446 404.367 82.238 L 404.367 82.238 L 404.367 82.238 Q 405.381 84.03 405.381 86.292 L 405.381 86.292 L 405.381 86.292 Q 405.381 88.554 404.367 90.346 L 404.367 90.346 L 404.367 90.346 Q 403.354 92.138 401.562 93.152 L 401.562 93.152 L 401.562 93.152 Q 399.77 94.165 397.537 94.165 L 397.537 94.165 Z  M 397.537 92.314 L 397.537 92.314 Q 399.182 92.314 400.49 91.565 L 400.49 91.565 L 400.49 91.565 Q 401.797 90.816 402.531 89.435 L 402.531 89.435 L 402.531 89.435 Q 403.266 88.055 403.266 86.292 L 403.266 86.292 L 403.266 86.292 Q 403.266 84.529 402.531 83.149 L 402.531 83.149 L 402.531 83.149 Q 401.797 81.768 400.49 81.019 L 400.49 81.019 L 400.49 81.019 Q 399.182 80.27 397.537 80.27 L 397.537 80.27 L 397.537 80.27 Q 395.892 80.27 394.585 81.019 L 394.585 81.019 L 394.585 81.019 Q 393.278 81.768 392.528 83.149 L 392.528 83.149 L 392.528 83.149 Q 391.779 84.529 391.779 86.292 L 391.779 86.292 L 391.779 86.292 Q 391.779 88.055 392.528 89.435 L 392.528 89.435 L 392.528 89.435 Q 393.278 90.816 394.585 91.565 L 394.585 91.565 L 394.585 91.565 Q 395.892 92.314 397.537 92.314 L 397.537 92.314 Z  M 417.513 78.448 L 417.513 78.448 Q 420.422 78.448 422.14 80.137 L 422.14 80.137 L 422.14 80.137 Q 423.859 81.827 423.859 85.058 L 423.859 85.058 L 423.859 94.018 L 421.773 94.018 L 421.773 85.264 L 421.773 85.264 Q 421.773 82.855 420.569 81.592 L 420.569 81.592 L 420.569 81.592 Q 419.364 80.328 417.132 80.328 L 417.132 80.328 L 417.132 80.328 Q 414.634 80.328 413.18 81.812 L 413.18 81.812 L 413.18 81.812 Q 411.726 83.296 411.726 85.91 L 411.726 85.91 L 411.726 94.018 L 409.64 94.018 L 409.64 78.566 L 411.638 78.566 L 411.638 81.415 L 411.638 81.415 Q 412.49 80.005 414.003 79.227 L 414.003 79.227 L 414.003 79.227 Q 415.516 78.448 417.513 78.448 L 417.513 78.448 Z  M 436.932 91.58 L 437.666 93.078 L 437.666 93.078 Q 437.078 93.607 436.212 93.886 L 436.212 93.886 L 436.212 93.886 Q 435.345 94.165 434.405 94.165 L 434.405 94.165 L 434.405 94.165 Q 432.231 94.165 431.056 92.99 L 431.056 92.99 L 431.056 92.99 Q 429.881 91.815 429.881 89.67 L 429.881 89.67 L 429.881 80.328 L 427.12 80.328 L 427.12 78.566 L 429.881 78.566 L 429.881 75.188 L 431.967 75.188 L 431.967 78.566 L 436.667 78.566 L 436.667 80.328 L 431.967 80.328 L 431.967 89.553 L 431.967 89.553 Q 431.967 90.934 432.657 91.653 L 432.657 91.653 L 432.657 91.653 Q 433.348 92.373 434.64 92.373 L 434.64 92.373 L 434.64 92.373 Q 435.286 92.373 435.889 92.167 L 435.889 92.167 L 435.889 92.167 Q 436.491 91.962 436.932 91.58 L 436.932 91.58 Z  M 454.381 86.292 L 454.352 86.938 L 441.426 86.938 L 441.426 86.938 Q 441.603 89.347 443.277 90.831 L 443.277 90.831 L 443.277 90.831 Q 444.951 92.314 447.507 92.314 L 447.507 92.314 L 447.507 92.314 Q 448.947 92.314 450.151 91.8 L 450.151 91.8 L 450.151 91.8 Q 451.355 91.286 452.237 90.287 L 452.237 90.287 L 453.412 91.639 L 453.412 91.639 Q 452.384 92.872 450.841 93.519 L 450.841 93.519 L 450.841 93.519 Q 449.299 94.165 447.448 94.165 L 447.448 94.165 L 447.448 94.165 Q 445.069 94.165 443.233 93.152 L 443.233 93.152 L 443.233 93.152 Q 441.397 92.138 440.369 90.346 L 440.369 90.346 L 440.369 90.346 Q 439.34 88.554 439.34 86.292 L 439.34 86.292 L 439.34 86.292 Q 439.34 84.03 440.325 82.238 L 440.325 82.238 L 440.325 82.238 Q 441.309 80.446 443.027 79.447 L 443.027 79.447 L 443.027 79.447 Q 444.746 78.448 446.89 78.448 L 446.89 78.448 L 446.89 78.448 Q 449.035 78.448 450.739 79.447 L 450.739 79.447 L 450.739 79.447 Q 452.443 80.446 453.412 82.223 L 453.412 82.223 L 453.412 82.223 Q 454.381 84.001 454.381 86.292 L 454.381 86.292 Z  M 446.89 80.24 L 446.89 80.24 Q 444.658 80.24 443.145 81.665 L 443.145 81.665 L 443.145 81.665 Q 441.632 83.09 441.426 85.381 L 441.426 85.381 L 452.384 85.381 L 452.384 85.381 Q 452.178 83.09 450.665 81.665 L 450.665 81.665 L 450.665 81.665 Q 449.152 80.24 446.89 80.24 L 446.89 80.24 Z  M 466.514 78.448 L 466.514 78.448 Q 469.422 78.448 471.141 80.137 L 471.141 80.137 L 471.141 80.137 Q 472.859 81.827 472.859 85.058 L 472.859 85.058 L 472.859 94.018 L 470.774 94.018 L 470.774 85.264 L 470.774 85.264 Q 470.774 82.855 469.569 81.592 L 469.569 81.592 L 469.569 81.592 Q 468.365 80.328 466.132 80.328 L 466.132 80.328 L 466.132 80.328 Q 463.635 80.328 462.181 81.812 L 462.181 81.812 L 462.181 81.812 Q 460.727 83.296 460.727 85.91 L 460.727 85.91 L 460.727 94.018 L 458.641 94.018 L 458.641 78.566 L 460.639 78.566 L 460.639 81.415 L 460.639 81.415 Q 461.491 80.005 463.003 79.227 L 463.003 79.227 L 463.003 79.227 Q 464.516 78.448 466.514 78.448 L 466.514 78.448 Z  M 485.932 91.58 L 486.667 93.078 L 486.667 93.078 Q 486.079 93.607 485.212 93.886 L 485.212 93.886 L 485.212 93.886 Q 484.346 94.165 483.406 94.165 L 483.406 94.165 L 483.406 94.165 Q 481.232 94.165 480.057 92.99 L 480.057 92.99 L 480.057 92.99 Q 478.882 91.815 478.882 89.67 L 478.882 89.67 L 478.882 80.328 L 476.12 80.328 L 476.12 78.566 L 478.882 78.566 L 478.882 75.188 L 480.967 75.188 L 480.967 78.566 L 485.668 78.566 L 485.668 80.328 L 480.967 80.328 L 480.967 89.553 L 480.967 89.553 Q 480.967 90.934 481.658 91.653 L 481.658 91.653 L 481.658 91.653 Q 482.348 92.373 483.641 92.373 L 483.641 92.373 L 483.641 92.373 Q 484.287 92.373 484.889 92.167 L 484.889 92.167 L 484.889 92.167 Q 485.492 91.962 485.932 91.58 L 485.932 91.58 Z  M 349.594 96.956 L 359.288 69.283 L 361.198 69.283 L 351.504 96.956 L 349.594 96.956 Z  M 191.87 73.454 L 209.173 73.454 L 209.173 94.018 L 207.028 94.018 L 207.028 75.334 L 194.014 75.334 L 194.014 94.018 L 191.87 94.018 L 191.87 73.454 Z  M 224.302 78.448 L 224.302 78.448 Q 226.476 78.448 228.238 79.432 L 228.238 79.432 L 228.238 79.432 Q 230.001 80.417 231 82.209 L 231 82.209 L 231 82.209 Q 231.998 84.001 231.998 86.292 L 231.998 86.292 L 231.998 86.292 Q 231.998 88.613 231 90.405 L 231 90.405 L 231 90.405 Q 230.001 92.197 228.253 93.181 L 228.253 93.181 L 228.253 93.181 Q 226.505 94.165 224.302 94.165 L 224.302 94.165 L 224.302 94.165 Q 222.422 94.165 220.909 93.386 L 220.909 93.386 L 220.909 93.386 Q 219.396 92.608 218.426 91.11 L 218.426 91.11 L 218.426 99.717 L 216.341 99.717 L 216.341 78.566 L 218.338 78.566 L 218.338 81.621 L 218.338 81.621 Q 219.278 80.093 220.821 79.271 L 220.821 79.271 L 220.821 79.271 Q 222.363 78.448 224.302 78.448 L 224.302 78.448 Z  M 224.155 92.314 L 224.155 92.314 Q 225.771 92.314 227.093 91.565 L 227.093 91.565 L 227.093 91.565 Q 228.414 90.816 229.164 89.435 L 229.164 89.435 L 229.164 89.435 Q 229.913 88.055 229.913 86.292 L 229.913 86.292 L 229.913 86.292 Q 229.913 84.529 229.164 83.163 L 229.164 83.163 L 229.164 83.163 Q 228.414 81.797 227.093 81.034 L 227.093 81.034 L 227.093 81.034 Q 225.771 80.27 224.155 80.27 L 224.155 80.27 L 224.155 80.27 Q 222.51 80.27 221.202 81.034 L 221.202 81.034 L 221.202 81.034 Q 219.895 81.797 219.146 83.163 L 219.146 83.163 L 219.146 83.163 Q 218.397 84.529 218.397 86.292 L 218.397 86.292 L 218.397 86.292 Q 218.397 88.055 219.146 89.435 L 219.146 89.435 L 219.146 89.435 Q 219.895 90.816 221.202 91.565 L 221.202 91.565 L 221.202 91.565 Q 222.51 92.314 224.155 92.314 L 224.155 92.314 Z  M 250.447 86.292 L 250.418 86.938 L 237.492 86.938 L 237.492 86.938 Q 237.668 89.347 239.343 90.831 L 239.343 90.831 L 239.343 90.831 Q 241.017 92.314 243.573 92.314 L 243.573 92.314 L 243.573 92.314 Q 245.012 92.314 246.217 91.8 L 246.217 91.8 L 246.217 91.8 Q 247.421 91.286 248.303 90.287 L 248.303 90.287 L 249.478 91.639 L 249.478 91.639 Q 248.45 92.872 246.907 93.519 L 246.907 93.519 L 246.907 93.519 Q 245.365 94.165 243.514 94.165 L 243.514 94.165 L 243.514 94.165 Q 241.135 94.165 239.299 93.152 L 239.299 93.152 L 239.299 93.152 Q 237.463 92.138 236.434 90.346 L 236.434 90.346 L 236.434 90.346 Q 235.406 88.554 235.406 86.292 L 235.406 86.292 L 235.406 86.292 Q 235.406 84.03 236.39 82.238 L 236.39 82.238 L 236.39 82.238 Q 237.374 80.446 239.093 79.447 L 239.093 79.447 L 239.093 79.447 Q 240.812 78.448 242.956 78.448 L 242.956 78.448 L 242.956 78.448 Q 245.101 78.448 246.804 79.447 L 246.804 79.447 L 246.804 79.447 Q 248.508 80.446 249.478 82.223 L 249.478 82.223 L 249.478 82.223 Q 250.447 84.001 250.447 86.292 L 250.447 86.292 Z  M 242.956 80.24 L 242.956 80.24 Q 240.723 80.24 239.211 81.665 L 239.211 81.665 L 239.211 81.665 Q 237.698 83.09 237.492 85.381 L 237.492 85.381 L 248.45 85.381 L 248.45 85.381 Q 248.244 83.09 246.731 81.665 L 246.731 81.665 L 246.731 81.665 Q 245.218 80.24 242.956 80.24 L 242.956 80.24 Z  M 264.372 86.028 L 264.372 86.028 Q 267.515 86.762 267.515 89.817 L 267.515 89.817 L 267.515 89.817 Q 267.515 91.844 266.017 92.931 L 266.017 92.931 L 266.017 92.931 Q 264.519 94.018 261.552 94.018 L 261.552 94.018 L 254.531 94.018 L 254.531 78.566 L 261.346 78.566 L 261.346 78.566 Q 263.99 78.566 265.488 79.594 L 265.488 79.594 L 265.488 79.594 Q 266.986 80.622 266.986 82.532 L 266.986 82.532 L 266.986 82.532 Q 266.986 83.795 266.296 84.691 L 266.296 84.691 L 266.296 84.691 Q 265.606 85.587 264.372 86.028 L 264.372 86.028 Z  M 256.558 80.211 L 256.558 85.44 L 261.199 85.44 L 261.199 85.44 Q 262.991 85.44 263.946 84.764 L 263.946 84.764 L 263.946 84.764 Q 264.901 84.089 264.901 82.796 L 264.901 82.796 L 264.901 82.796 Q 264.901 81.504 263.946 80.857 L 263.946 80.857 L 263.946 80.857 Q 262.991 80.211 261.199 80.211 L 261.199 80.211 L 256.558 80.211 Z  M 261.463 92.373 L 261.463 92.373 Q 263.461 92.373 264.46 91.727 L 264.46 91.727 L 264.46 91.727 Q 265.459 91.08 265.459 89.7 L 265.459 89.7 L 265.459 89.7 Q 265.459 88.319 264.548 87.658 L 264.548 87.658 L 264.548 87.658 Q 263.637 86.997 261.669 86.997 L 261.669 86.997 L 256.558 86.997 L 256.558 92.373 L 261.463 92.373 Z  M 278.531 94.165 L 278.531 94.165 Q 276.299 94.165 274.507 93.152 L 274.507 93.152 L 274.507 93.152 Q 272.715 92.138 271.687 90.346 L 271.687 90.346 L 271.687 90.346 Q 270.658 88.554 270.658 86.292 L 270.658 86.292 L 270.658 86.292 Q 270.658 84.03 271.687 82.238 L 271.687 82.238 L 271.687 82.238 Q 272.715 80.446 274.507 79.447 L 274.507 79.447 L 274.507 79.447 Q 276.299 78.448 278.531 78.448 L 278.531 78.448 L 278.531 78.448 Q 280.764 78.448 282.556 79.447 L 282.556 79.447 L 282.556 79.447 Q 284.348 80.446 285.362 82.238 L 285.362 82.238 L 285.362 82.238 Q 286.375 84.03 286.375 86.292 L 286.375 86.292 L 286.375 86.292 Q 286.375 88.554 285.362 90.346 L 285.362 90.346 L 285.362 90.346 Q 284.348 92.138 282.556 93.152 L 282.556 93.152 L 282.556 93.152 Q 280.764 94.165 278.531 94.165 L 278.531 94.165 Z  M 278.531 92.314 L 278.531 92.314 Q 280.177 92.314 281.484 91.565 L 281.484 91.565 L 281.484 91.565 Q 282.791 90.816 283.526 89.435 L 283.526 89.435 L 283.526 89.435 Q 284.26 88.055 284.26 86.292 L 284.26 86.292 L 284.26 86.292 Q 284.26 84.529 283.526 83.149 L 283.526 83.149 L 283.526 83.149 Q 282.791 81.768 281.484 81.019 L 281.484 81.019 L 281.484 81.019 Q 280.177 80.27 278.531 80.27 L 278.531 80.27 L 278.531 80.27 Q 276.886 80.27 275.579 81.019 L 275.579 81.019 L 275.579 81.019 Q 274.272 81.768 273.523 83.149 L 273.523 83.149 L 273.523 83.149 Q 272.774 84.529 272.774 86.292 L 272.774 86.292 L 272.774 86.292 Q 272.774 88.055 273.523 89.435 L 273.523 89.435 L 273.523 89.435 Q 274.272 90.816 275.579 91.565 L 275.579 91.565 L 275.579 91.565 Q 276.886 92.314 278.531 92.314 L 278.531 92.314 Z  M 303.913 92.197 L 306.322 92.197 L 306.322 97.749 L 304.354 97.749 L 304.354 94.018 L 290.517 94.018 L 290.517 97.749 L 288.549 97.749 L 288.549 92.197 L 289.43 92.197 L 289.43 92.197 Q 290.987 92.109 291.545 89.905 L 291.545 89.905 L 291.545 89.905 Q 292.104 87.702 292.309 83.736 L 292.309 83.736 L 292.515 78.566 L 303.913 78.566 L 303.913 92.197 Z  M 294.219 83.854 L 294.219 83.854 Q 294.072 87.144 293.66 89.274 L 293.66 89.274 L 293.66 89.274 Q 293.249 91.404 292.192 92.197 L 292.192 92.197 L 301.827 92.197 L 301.827 80.417 L 294.395 80.417 L 294.219 83.854 Z  M 315.664 78.448 L 315.664 78.448 Q 318.69 78.448 320.305 79.961 L 320.305 79.961 L 320.305 79.961 Q 321.921 81.474 321.921 84.441 L 321.921 84.441 L 321.921 94.018 L 319.923 94.018 L 319.923 91.609 L 319.923 91.609 Q 319.218 92.814 317.852 93.489 L 317.852 93.489 L 317.852 93.489 Q 316.486 94.165 314.606 94.165 L 314.606 94.165 L 314.606 94.165 Q 312.021 94.165 310.494 92.931 L 310.494 92.931 L 310.494 92.931 Q 308.966 91.697 308.966 89.67 L 308.966 89.67 L 308.966 89.67 Q 308.966 87.702 310.391 86.498 L 310.391 86.498 L 310.391 86.498 Q 311.815 85.293 314.929 85.293 L 314.929 85.293 L 319.835 85.293 L 319.835 84.353 L 319.835 84.353 Q 319.835 82.355 318.719 81.313 L 318.719 81.313 L 318.719 81.313 Q 317.603 80.27 315.458 80.27 L 315.458 80.27 L 315.458 80.27 Q 313.989 80.27 312.638 80.754 L 312.638 80.754 L 312.638 80.754 Q 311.287 81.239 310.317 82.091 L 310.317 82.091 L 309.377 80.534 L 309.377 80.534 Q 310.552 79.535 312.197 78.992 L 312.197 78.992 L 312.197 78.992 Q 313.842 78.448 315.664 78.448 L 315.664 78.448 Z  M 314.929 92.52 L 314.929 92.52 Q 316.692 92.52 317.955 91.712 L 317.955 91.712 L 317.955 91.712 Q 319.218 90.904 319.835 89.377 L 319.835 89.377 L 319.835 86.85 L 314.988 86.85 L 314.988 86.85 Q 311.022 86.85 311.022 89.612 L 311.022 89.612 L 311.022 89.612 Q 311.022 90.963 312.05 91.741 L 312.05 91.741 L 312.05 91.741 Q 313.079 92.52 314.929 92.52 L 314.929 92.52 Z  M 337.55 78.566 L 339.635 78.566 L 339.635 94.018 L 337.55 94.018 L 337.55 87.585 L 337.55 87.585 Q 334.876 88.76 332.291 88.76 L 332.291 88.76 L 332.291 88.76 Q 329.5 88.76 327.943 87.482 L 327.943 87.482 L 327.943 87.482 Q 326.386 86.204 326.386 83.648 L 326.386 83.648 L 326.386 78.566 L 328.472 78.566 L 328.472 83.531 L 328.472 83.531 Q 328.472 85.264 329.588 86.16 L 329.588 86.16 L 329.588 86.16 Q 330.705 87.056 332.673 87.056 L 332.673 87.056 L 332.673 87.056 Q 334.847 87.056 337.55 85.91 L 337.55 85.91 L 337.55 78.566 Z  M 162.434 96.956 L 172.128 69.283 L 174.038 69.283 L 164.344 96.956 L 162.434 96.956 Z  M 29.68 73.454 L 46.983 73.454 L 46.983 94.018 L 44.838 94.018 L 44.838 75.334 L 31.825 75.334 L 31.825 94.018 L 29.68 94.018 L 29.68 73.454 Z  M 54.151 94.018 L 54.151 78.566 L 56.237 78.566 L 56.237 90.845 L 66.548 78.566 L 68.399 78.566 L 68.399 94.018 L 66.313 94.018 L 66.313 81.739 L 56.031 94.018 L 54.151 94.018 Z  M 81.178 94.165 L 81.178 94.165 Q 78.886 94.165 77.08 93.166 L 77.08 93.166 L 77.08 93.166 Q 75.273 92.167 74.245 90.361 L 74.245 90.361 L 74.245 90.361 Q 73.217 88.554 73.217 86.292 L 73.217 86.292 L 73.217 86.292 Q 73.217 84.03 74.245 82.238 L 74.245 82.238 L 74.245 82.238 Q 75.273 80.446 77.08 79.447 L 77.08 79.447 L 77.08 79.447 Q 78.886 78.448 81.178 78.448 L 81.178 78.448 L 81.178 78.448 Q 83.175 78.448 84.747 79.227 L 84.747 79.227 L 84.747 79.227 Q 86.319 80.005 87.229 81.504 L 87.229 81.504 L 85.672 82.561 L 85.672 82.561 Q 84.909 81.415 83.733 80.843 L 83.733 80.843 L 83.733 80.843 Q 82.558 80.27 81.178 80.27 L 81.178 80.27 L 81.178 80.27 Q 79.503 80.27 78.167 81.019 L 78.167 81.019 L 78.167 81.019 Q 76.83 81.768 76.081 83.149 L 76.081 83.149 L 76.081 83.149 Q 75.332 84.529 75.332 86.292 L 75.332 86.292 L 75.332 86.292 Q 75.332 88.084 76.081 89.45 L 76.081 89.45 L 76.081 89.45 Q 76.83 90.816 78.167 91.565 L 78.167 91.565 L 78.167 91.565 Q 79.503 92.314 81.178 92.314 L 81.178 92.314 L 81.178 92.314 Q 82.558 92.314 83.733 91.756 L 83.733 91.756 L 83.733 91.756 Q 84.909 91.198 85.672 90.052 L 85.672 90.052 L 87.229 91.11 L 87.229 91.11 Q 86.319 92.608 84.732 93.386 L 84.732 93.386 L 84.732 93.386 Q 83.146 94.165 81.178 94.165 L 81.178 94.165 Z  M 96.189 78.448 L 96.189 78.448 Q 99.215 78.448 100.831 79.961 L 100.831 79.961 L 100.831 79.961 Q 102.447 81.474 102.447 84.441 L 102.447 84.441 L 102.447 94.018 L 100.449 94.018 L 100.449 91.609 L 100.449 91.609 Q 99.744 92.814 98.378 93.489 L 98.378 93.489 L 98.378 93.489 Q 97.012 94.165 95.132 94.165 L 95.132 94.165 L 95.132 94.165 Q 92.546 94.165 91.019 92.931 L 91.019 92.931 L 91.019 92.931 Q 89.491 91.697 89.491 89.67 L 89.491 89.67 L 89.491 89.67 Q 89.491 87.702 90.916 86.498 L 90.916 86.498 L 90.916 86.498 Q 92.341 85.293 95.455 85.293 L 95.455 85.293 L 100.361 85.293 L 100.361 84.353 L 100.361 84.353 Q 100.361 82.355 99.244 81.313 L 99.244 81.313 L 99.244 81.313 Q 98.128 80.27 95.984 80.27 L 95.984 80.27 L 95.984 80.27 Q 94.515 80.27 93.163 80.754 L 93.163 80.754 L 93.163 80.754 Q 91.812 81.239 90.843 82.091 L 90.843 82.091 L 89.903 80.534 L 89.903 80.534 Q 91.078 79.535 92.723 78.992 L 92.723 78.992 L 92.723 78.992 Q 94.368 78.448 96.189 78.448 L 96.189 78.448 Z  M 95.455 92.52 L 95.455 92.52 Q 97.217 92.52 98.481 91.712 L 98.481 91.712 L 98.481 91.712 Q 99.744 90.904 100.361 89.377 L 100.361 89.377 L 100.361 86.85 L 95.514 86.85 L 95.514 86.85 Q 91.548 86.85 91.548 89.612 L 91.548 89.612 L 91.548 89.612 Q 91.548 90.963 92.576 91.741 L 92.576 91.741 L 92.576 91.741 Q 93.604 92.52 95.455 92.52 L 95.455 92.52 Z  M 119.368 78.566 L 119.368 80.417 L 113.522 80.417 L 113.522 94.018 L 111.436 94.018 L 111.436 80.417 L 105.59 80.417 L 105.59 78.566 L 119.368 78.566 Z  M 135.26 86.292 L 135.231 86.938 L 122.305 86.938 L 122.305 86.938 Q 122.481 89.347 124.156 90.831 L 124.156 90.831 L 124.156 90.831 Q 125.83 92.314 128.386 92.314 L 128.386 92.314 L 128.386 92.314 Q 129.826 92.314 131.03 91.8 L 131.03 91.8 L 131.03 91.8 Q 132.235 91.286 133.116 90.287 L 133.116 90.287 L 134.291 91.639 L 134.291 91.639 Q 133.263 92.872 131.721 93.519 L 131.721 93.519 L 131.721 93.519 Q 130.178 94.165 128.328 94.165 L 128.328 94.165 L 128.328 94.165 Q 125.948 94.165 124.112 93.152 L 124.112 93.152 L 124.112 93.152 Q 122.276 92.138 121.248 90.346 L 121.248 90.346 L 121.248 90.346 Q 120.22 88.554 120.22 86.292 L 120.22 86.292 L 120.22 86.292 Q 120.22 84.03 121.204 82.238 L 121.204 82.238 L 121.204 82.238 Q 122.188 80.446 123.906 79.447 L 123.906 79.447 L 123.906 79.447 Q 125.625 78.448 127.769 78.448 L 127.769 78.448 L 127.769 78.448 Q 129.914 78.448 131.618 79.447 L 131.618 79.447 L 131.618 79.447 Q 133.322 80.446 134.291 82.223 L 134.291 82.223 L 134.291 82.223 Q 135.26 84.001 135.26 86.292 L 135.26 86.292 Z  M 127.769 80.24 L 127.769 80.24 Q 125.537 80.24 124.024 81.665 L 124.024 81.665 L 124.024 81.665 Q 122.511 83.09 122.305 85.381 L 122.305 85.381 L 133.263 85.381 L 133.263 85.381 Q 133.057 83.09 131.544 81.665 L 131.544 81.665 L 131.544 81.665 Q 130.031 80.24 127.769 80.24 L 127.769 80.24 Z  M 140.666 78.566 L 151.976 78.566 L 151.976 94.018 L 149.89 94.018 L 149.89 80.417 L 142.487 80.417 L 142.282 84.236 L 142.282 84.236 Q 142.046 89.053 141.165 91.639 L 141.165 91.639 L 141.165 91.639 Q 140.284 94.224 138.022 94.224 L 138.022 94.224 L 138.022 94.224 Q 137.405 94.224 136.524 93.989 L 136.524 93.989 L 136.671 92.197 L 136.671 92.197 Q 137.199 92.314 137.405 92.314 L 137.405 92.314 L 137.405 92.314 Q 138.609 92.314 139.226 91.198 L 139.226 91.198 L 139.226 91.198 Q 139.843 90.082 140.049 88.436 L 140.049 88.436 L 140.049 88.436 Q 140.255 86.791 140.401 84.089 L 140.401 84.089 L 140.666 78.566 Z " fill="rgb(16,55,72)"/></g></g></svg>